<?xml version="1.0" encoding="UTF-8"?>
<!DOCTYPE svg PUBLIC "-//W3C//DTD SVG 1.1//EN" "http://www.w3.org/Graphics/SVG/1.1/DTD/svg11.dtd">
<!-- Creator: CorelDRAW 2018 (64 Bit) -->
<svg xmlns="http://www.w3.org/2000/svg" xml:space="preserve" width="108.373mm" height="67.7332mm" version="1.1" style="shape-rendering:geometricPrecision; text-rendering:geometricPrecision; image-rendering:optimizeQuality; fill-rule:evenodd; clip-rule:evenodd"
viewBox="0 0 10837.32 6773.32"
 xmlns:xlink="http://www.w3.org/1999/xlink">
 <defs>
  <style type="text/css">
   <![CDATA[
    .str0 {stroke:white;stroke-width:83.8;stroke-linecap:round;stroke-linejoin:round;stroke-miterlimit:22.9256}
    .fil1 {fill:none;fill-rule:nonzero}
    .fil3 {fill:#3068B8}
    .fil5 {fill:#48A6D6}
    .fil4 {fill:white}
    .fil2 {fill:#3068B8;fill-rule:nonzero}
    .fil6 {fill:white;fill-rule:nonzero}
    .fil0 {fill:url(#id0);fill-rule:nonzero}
   ]]>
  </style>
  <linearGradient id="id0" gradientUnits="objectBoundingBox" x1="0%" y1="50.1796%" x2="99.9999%" y2="50.1796%">
   <stop offset="0" style="stop-opacity:1; stop-color:white"/>
   <stop offset="1" style="stop-opacity:1; stop-color:#00001F"/>
  </linearGradient>
 </defs>
 <g id="Camada_x0020_1">
  <metadata id="CorelCorpID_0Corel-Layer"/>
  <path class="fil0" d="M4263.9 2693.56c-145.52,0 -286.78,-22.84 -423.4,-69.28 -137.01,-46.06 -205.13,-122.69 -205.13,-229.89 0,-107.59 26.71,-183.84 80.5,-229.12 237.25,105.66 407.54,154.81 510.49,147.46 103.33,-7.74 154.81,-34.06 154.81,-79.34 0,-44.9 -27.48,-80.12 -82.83,-106.05 -54.95,-26.31 -131.97,-55.34 -230.66,-87.85 -98.69,-32.51 -160.23,-61.15 -185.39,-85.15 -114.94,-76.24 -170.29,-189.64 -166.42,-339.42 3.49,-150.16 53.41,-270.53 149.4,-361.48 93.65,-89.01 214.02,-135.45 360.7,-139.32 146.68,-3.87 332.84,47.6 558.86,154.03 -38.31,226.02 -114.94,323.94 -229.12,293.75 -300.71,-107.2 -447.39,-110.69 -439.65,-10.06 0,39.86 27.09,74.69 80.88,103.72 54.19,29.03 130.43,60.76 228.35,95.21 98.3,34.44 161,60.76 187.32,78.95 108.75,85.92 163.32,206.67 163.32,362.26 0,155.19 -49.92,278.27 -149.78,368.83 -95.98,88.63 -216.73,132.75 -362.25,132.75z"/>
  <path id="1" class="fil0" d="M5328.22 2491.92c0,131.2 -75.09,196.99 -224.48,196.99l-224.47 0 0 -1333.29c0,-131.59 74.69,-197.38 224.47,-197.38l224.48 0 0 1333.68zm-201.64 -1885.19c-56.12,12.38 -102.56,48.38 -138.94,108.36 -36,59.61 -69.28,124.24 -99.08,193.13 -29.8,69.28 -19.35,123.07 31.35,161.77l87.08 87.09c126.94,-95.21 217.5,-165.26 270.91,-210.93 53.8,-45.28 78.18,-98.31 72.76,-159.84 -5.42,-61.15 -29.8,-109.53 -73.53,-145.14 -44.12,-35.22 -94.05,-46.83 -150.55,-34.44z"/>
  <path id="2" class="fil0" d="M6264.43 2688.91l-575.89 0c-149.78,0 -224.48,-65.79 -224.48,-196.99l0 -1333.68 224.48 0c149.39,0 224.47,65.79 224.47,197.38l0 972.97 491.91 0 0 180.36c0,119.97 -46.83,179.96 -140.49,179.96z"/>
  <path id="3" class="fil0" d="M6967.65 2491.92c0,131.2 -75.08,196.99 -224.47,196.99l-224.48 0 0 -1333.29c0,-131.59 74.7,-197.38 224.48,-197.38l224.47 0 0 1333.68z"/>
  <path id="4" class="fil0" d="M8485.55 2414.13c0,54.95 -43.35,116.49 -130.43,185.38 -86.69,68.89 -247.69,103.34 -483,103.34 -234.93,0 -428.44,-73.15 -580.54,-219.45 -151.71,-146.29 -227.57,-337.87 -227.57,-574.34 0,-236.86 75.47,-428.43 226.8,-575.5 150.94,-147.07 346,-220.61 584.4,-220.61 238.41,0 399.8,34.45 484.17,103.34 83.98,68.5 126.17,130.43 126.17,185.38 0,54.57 -18.19,103.34 -54.18,146.3 -36.38,42.57 -76.25,63.86 -119.59,63.86 -43.74,0 -112.24,-16.64 -206.67,-49.93 -94.05,-33.28 -164.49,-49.92 -211.32,-49.92 -253.89,0 -380.83,131.97 -380.83,395.92 0,263.56 126.94,395.54 380.83,395.54 46.83,0 117.27,-16.64 211.32,-49.93 94.43,-33.28 162.93,-49.92 206.67,-49.92 43.34,0 83.21,21.67 119.59,64.24 35.99,42.57 54.18,91.34 54.18,146.3z"/>
  <path id="5" class="fil0" d="M9390.41 2056.52l-97.14 -265.5 -97.53 265.5 194.67 0zm-328.58 362.64l-43.35 115.72c-38.32,102.95 -101.79,154.03 -189.64,154.03 -88.24,0 -151.33,-26.7 -189.26,-80.88 -38.31,-54.19 -57.28,-102.57 -57.28,-145.91 0,-42.96 9.29,-85.15 28.26,-126.95l536.41 -1176.93 145.13 0c96.76,0 167.97,51.47 214.03,154.42l469.46 1022.51c19.74,42.58 29.41,85.15 29.41,128.11 0,43.35 -18.58,91.72 -55.34,145.13 -37.16,53.8 -100.63,80.5 -190.03,80.5 -89.4,0 -153.65,-51.08 -192.35,-154.03l-42.96 -115.72 -462.49 0z"/>
  <g>
   <path class="fil1 str0" d="M5383.45 2505.12c55.25,0 106.99,10.55 155.71,31.64 48.46,21.1 91.16,49.73 127.82,85.89 36.67,36.16 65.3,78.86 86.39,128.08 21.1,49.22 31.64,101.46 31.64,156.7l0 390.26 -155.2 0 0 -73.08c-34.15,25.87 -71.82,46.21 -113.01,61.28 -41.18,14.82 -85.38,22.35 -132.59,22.35 -55.25,0 -107.24,-10.55 -155.96,-31.64 -48.71,-21.1 -91.16,-49.73 -127.32,-85.89 -36.16,-36.16 -64.79,-78.6 -85.89,-127.32 -21.09,-48.72 -31.64,-100.71 -31.64,-155.96 0,-55.24 10.55,-107.48 31.64,-156.7 21.1,-49.22 49.48,-91.92 85.64,-128.08 36.16,-36.16 78.6,-64.79 127.07,-85.89 48.72,-21.09 100.46,-31.64 155.7,-31.64zm0.76 647.92c34.15,0 66.05,-6.53 95.68,-19.59 29.63,-13.31 55.5,-30.89 77.6,-53.24 22.1,-22.1 39.68,-48.21 52.74,-78.1 13.05,-29.63 19.58,-61.27 19.58,-94.68 0,-34.4 -6.53,-66.55 -19.58,-96.18 -13.06,-29.88 -30.64,-56 -52.74,-78.1 -22.1,-22.35 -47.97,-39.93 -77.6,-53.24 -29.63,-13.06 -61.53,-19.59 -95.68,-19.59 -34.16,0 -66.05,6.53 -95.68,19.59 -29.64,13.31 -55.5,30.89 -77.6,53.24 -22.1,22.1 -39.68,48.22 -52.74,78.1 -13.06,29.63 -19.59,61.78 -19.59,96.18 0,33.41 6.53,65.05 19.59,94.68 13.06,29.89 30.64,56 52.74,78.1 22.1,22.35 47.96,39.93 77.6,53.24 29.63,13.06 61.52,19.59 95.68,19.59z"/>
  </g>
  <g>
   <path id="1" class="fil1 str0" d="M6823.2 2902.91l0 932.71 -155.2 0 0 -617.03c-34.16,25.86 -71.83,46.2 -113.01,61.27 -41.19,14.82 -84.89,22.35 -131.09,22.35 -55.25,0 -106.99,-10.54 -155.2,-31.64 -48.22,-21.09 -90.41,-49.72 -126.57,-85.89 -36.17,-36.16 -64.8,-78.6 -85.89,-127.32 -21.1,-48.72 -31.64,-100.7 -31.64,-155.95 0,-55.25 10.54,-106.98 31.64,-155.2 21.09,-48.22 49.72,-90.41 85.89,-126.57 36.16,-36.17 78.35,-64.79 126.57,-85.89 48.21,-21.09 99.95,-31.64 155.2,-31.64 55.24,0 107.23,10.55 155.95,31.64 48.72,21.1 91.16,49.72 127.32,85.89 36.17,36.16 64.54,78.35 85.14,126.57 20.59,48.22 30.89,99.95 30.89,155.2l0 1.5zm-399.3 244.1c33.15,0 64.54,-6.27 94.17,-18.83 29.63,-12.56 55.5,-30.14 77.6,-52.24 22.1,-22.1 39.68,-47.96 52.74,-77.85 13.06,-29.63 19.59,-61.27 19.59,-94.42l0 -1.51c0,-33.15 -6.28,-64.79 -18.84,-94.42 -12.56,-29.89 -29.88,-55.76 -51.98,-77.86 -22.1,-22.1 -47.97,-39.93 -77.6,-52.98 -29.64,-13.06 -61.53,-19.59 -95.68,-19.59 -33.15,0 -64.55,6.53 -94.18,19.59 -29.63,13.05 -55.5,30.88 -77.6,52.98 -22.1,22.1 -39.68,47.97 -52.74,77.86 -13.05,29.63 -19.58,61.27 -19.58,94.42 0,34.15 6.53,66.3 19.58,95.93 13.06,29.89 30.64,55.75 52.74,77.85 22.1,22.1 47.97,39.68 77.6,52.24 29.63,12.56 61.03,18.83 94.18,18.83z"/>
  </g>
  <g>
   <path id="2" class="fil1 str0" d="M7752.88 2506.63l0 450.53c0,60.27 -14.06,115.52 -41.94,165.75 -27.87,50.22 -65.54,90.91 -113.26,122.05 -28.12,18.08 -58.01,32.14 -90.15,42.19 -31.9,10.04 -65.55,15.06 -100.46,15.06 -34.9,0 -68.55,-5.02 -100.45,-15.06 -32.14,-10.05 -62.03,-24.11 -90.15,-42.19 -46.71,-31.14 -84.13,-71.83 -112.51,-122.05 -28.38,-50.23 -42.69,-105.48 -42.69,-165.75l0 -450.53 155.2 0 0 162.73 0 287.8c0,26.12 5.02,50.73 15.06,73.83 10.05,23.11 23.36,43.2 40.44,60.27 17.07,17.08 37.41,30.64 60.77,40.69 23.61,10.04 48.22,15.06 74.33,15.06 26.12,0 50.48,-5.02 73.59,-15.06 22.85,-10.05 43.19,-23.61 60.77,-40.69 17.58,-17.07 31.14,-37.16 41.19,-60.27 10.04,-23.1 15.06,-47.71 15.06,-73.83l0 -287.8 0 -162.73 155.2 0z"/>
  </g>
  <g>
   <path id="3" class="fil1 str0" d="M8368.4 2505.12c55.25,0 106.99,10.55 155.71,31.64 48.46,21.1 91.16,49.73 127.82,85.89 36.67,36.16 65.3,78.86 86.39,128.08 21.1,49.22 31.64,101.46 31.64,156.7l0 390.26 -155.2 0 0 -73.08c-34.15,25.87 -71.82,46.21 -113.01,61.28 -41.18,14.82 -85.38,22.35 -132.59,22.35 -55.25,0 -107.24,-10.55 -155.96,-31.64 -48.71,-21.1 -91.16,-49.73 -127.32,-85.89 -36.16,-36.16 -64.79,-78.6 -85.89,-127.32 -21.09,-48.72 -31.64,-100.71 -31.64,-155.96 0,-55.24 10.55,-107.48 31.64,-156.7 21.1,-49.22 49.48,-91.92 85.64,-128.08 36.16,-36.16 78.6,-64.79 127.07,-85.89 48.72,-21.09 100.46,-31.64 155.7,-31.64zm0.76 647.92c34.15,0 66.05,-6.53 95.68,-19.59 29.63,-13.31 55.5,-30.89 77.6,-53.24 22.1,-22.1 39.68,-48.21 52.74,-78.1 13.05,-29.63 19.58,-61.27 19.58,-94.68 0,-34.4 -6.53,-66.55 -19.58,-96.18 -13.06,-29.88 -30.64,-56 -52.74,-78.1 -22.1,-22.35 -47.97,-39.93 -77.6,-53.24 -29.63,-13.06 -61.53,-19.59 -95.68,-19.59 -34.16,0 -66.05,6.53 -95.68,19.59 -29.64,13.31 -55.5,30.89 -77.6,53.24 -22.1,22.1 -39.68,48.22 -52.74,78.1 -13.06,29.63 -19.59,61.78 -19.59,96.18 0,33.41 6.53,65.05 19.59,94.68 13.06,29.89 30.64,56 52.74,78.1 22.1,22.35 47.96,39.93 77.6,53.24 29.63,13.06 61.52,19.59 95.68,19.59z"/>
  </g>
  <path id="4" class="fil2" d="M5383.45 2505.12c55.25,0 106.99,10.55 155.71,31.64 48.46,21.1 91.16,49.73 127.82,85.89 36.67,36.16 65.3,78.86 86.39,128.08 21.1,49.22 31.64,101.46 31.64,156.7l0 390.26 -155.2 0 0 -73.08c-34.15,25.87 -71.82,46.21 -113.01,61.28 -41.18,14.82 -85.38,22.35 -132.59,22.35 -55.25,0 -107.24,-10.55 -155.96,-31.64 -48.71,-21.1 -91.16,-49.73 -127.32,-85.89 -36.16,-36.16 -64.79,-78.6 -85.89,-127.32 -21.09,-48.72 -31.64,-100.71 -31.64,-155.96 0,-55.24 10.55,-107.48 31.64,-156.7 21.1,-49.22 49.48,-91.92 85.64,-128.08 36.16,-36.16 78.6,-64.79 127.07,-85.89 48.72,-21.09 100.46,-31.64 155.7,-31.64zm0.76 647.92c34.15,0 66.05,-6.53 95.68,-19.59 29.63,-13.31 55.5,-30.89 77.6,-53.24 22.1,-22.1 39.68,-48.21 52.74,-78.1 13.05,-29.63 19.58,-61.27 19.58,-94.68 0,-34.4 -6.53,-66.55 -19.58,-96.18 -13.06,-29.88 -30.64,-56 -52.74,-78.1 -22.1,-22.35 -47.97,-39.93 -77.6,-53.24 -29.63,-13.06 -61.53,-19.59 -95.68,-19.59 -34.16,0 -66.05,6.53 -95.68,19.59 -29.64,13.31 -55.5,30.89 -77.6,53.24 -22.1,22.1 -39.68,48.22 -52.74,78.1 -13.06,29.63 -19.59,61.78 -19.59,96.18 0,33.41 6.53,65.05 19.59,94.68 13.06,29.89 30.64,56 52.74,78.1 22.1,22.35 47.96,39.93 77.6,53.24 29.63,13.06 61.52,19.59 95.68,19.59z"/>
  <path id="5" class="fil2" d="M6823.2 2902.91l0 932.71 -155.2 0 0 -617.03c-34.16,25.86 -71.83,46.2 -113.01,61.27 -41.19,14.82 -84.89,22.35 -131.09,22.35 -55.25,0 -106.99,-10.54 -155.2,-31.64 -48.22,-21.09 -90.41,-49.72 -126.57,-85.89 -36.17,-36.16 -64.8,-78.6 -85.89,-127.32 -21.1,-48.72 -31.64,-100.7 -31.64,-155.95 0,-55.25 10.54,-106.98 31.64,-155.2 21.09,-48.22 49.72,-90.41 85.89,-126.57 36.16,-36.17 78.35,-64.79 126.57,-85.89 48.21,-21.09 99.95,-31.64 155.2,-31.64 55.24,0 107.23,10.55 155.95,31.64 48.72,21.1 91.16,49.72 127.32,85.89 36.17,36.16 64.54,78.35 85.14,126.57 20.59,48.22 30.89,99.95 30.89,155.2l0 1.5zm-399.3 244.1c33.15,0 64.54,-6.27 94.17,-18.83 29.63,-12.56 55.5,-30.14 77.6,-52.24 22.1,-22.1 39.68,-47.96 52.74,-77.85 13.06,-29.63 19.59,-61.27 19.59,-94.42l0 -1.51c0,-33.15 -6.28,-64.79 -18.84,-94.42 -12.56,-29.89 -29.88,-55.76 -51.98,-77.86 -22.1,-22.1 -47.97,-39.93 -77.6,-52.98 -29.64,-13.06 -61.53,-19.59 -95.68,-19.59 -33.15,0 -64.55,6.53 -94.18,19.59 -29.63,13.05 -55.5,30.88 -77.6,52.98 -22.1,22.1 -39.68,47.97 -52.74,77.86 -13.05,29.63 -19.58,61.27 -19.58,94.42 0,34.15 6.53,66.3 19.58,95.93 13.06,29.89 30.64,55.75 52.74,77.85 22.1,22.1 47.97,39.68 77.6,52.24 29.63,12.56 61.03,18.83 94.18,18.83z"/>
  <path id="6" class="fil2" d="M7752.88 2506.63l0 450.53c0,60.27 -14.06,115.52 -41.94,165.75 -27.87,50.22 -65.54,90.91 -113.26,122.05 -28.12,18.08 -58.01,32.14 -90.15,42.19 -31.9,10.04 -65.55,15.06 -100.46,15.06 -34.9,0 -68.55,-5.02 -100.45,-15.06 -32.14,-10.05 -62.03,-24.11 -90.15,-42.19 -46.71,-31.14 -84.13,-71.83 -112.51,-122.05 -28.38,-50.23 -42.69,-105.48 -42.69,-165.75l0 -450.53 155.2 0 0 162.73 0 287.8c0,26.12 5.02,50.73 15.06,73.83 10.05,23.11 23.36,43.2 40.44,60.27 17.07,17.08 37.41,30.64 60.77,40.69 23.61,10.04 48.22,15.06 74.33,15.06 26.12,0 50.48,-5.02 73.59,-15.06 22.85,-10.05 43.19,-23.61 60.77,-40.69 17.58,-17.07 31.14,-37.16 41.19,-60.27 10.04,-23.1 15.06,-47.71 15.06,-73.83l0 -287.8 0 -162.73 155.2 0z"/>
  <path id="7" class="fil2" d="M8368.4 2505.12c55.25,0 106.99,10.55 155.71,31.64 48.46,21.1 91.16,49.73 127.82,85.89 36.67,36.16 65.3,78.86 86.39,128.08 21.1,49.22 31.64,101.46 31.64,156.7l0 390.26 -155.2 0 0 -73.08c-34.15,25.87 -71.82,46.21 -113.01,61.28 -41.18,14.82 -85.38,22.35 -132.59,22.35 -55.25,0 -107.24,-10.55 -155.96,-31.64 -48.71,-21.1 -91.16,-49.73 -127.32,-85.89 -36.16,-36.16 -64.79,-78.6 -85.89,-127.32 -21.09,-48.72 -31.64,-100.71 -31.64,-155.96 0,-55.24 10.55,-107.48 31.64,-156.7 21.1,-49.22 49.48,-91.92 85.64,-128.08 36.16,-36.16 78.6,-64.79 127.07,-85.89 48.72,-21.09 100.46,-31.64 155.7,-31.64zm0.76 647.92c34.15,0 66.05,-6.53 95.68,-19.59 29.63,-13.31 55.5,-30.89 77.6,-53.24 22.1,-22.1 39.68,-48.21 52.74,-78.1 13.05,-29.63 19.58,-61.27 19.58,-94.68 0,-34.4 -6.53,-66.55 -19.58,-96.18 -13.06,-29.88 -30.64,-56 -52.74,-78.1 -22.1,-22.35 -47.97,-39.93 -77.6,-53.24 -29.63,-13.06 -61.53,-19.59 -95.68,-19.59 -34.16,0 -66.05,6.53 -95.68,19.59 -29.64,13.31 -55.5,30.89 -77.6,53.24 -22.1,22.1 -39.68,48.22 -52.74,78.1 -13.06,29.63 -19.59,61.78 -19.59,96.18 0,33.41 6.53,65.05 19.59,94.68 13.06,29.89 30.64,56 52.74,78.1 22.1,22.35 47.96,39.93 77.6,53.24 29.63,13.06 61.52,19.59 95.68,19.59z"/>
  <g>
   <path class="fil3" d="M3111.57 2757.55c0.94,17.78 1.48,35.66 1.48,53.66 0,589.51 -510.57,1067.39 -1140.39,1067.39l-0.6 0c-9.64,0 -19.25,-0.11 -28.83,-0.35l-0.59 -0.01 -3.12 -0.12c-614.45,-16.41 -1107.23,-487.79 -1107.23,-1066.91 0,-11.08 0.21,-22.12 0.57,-33.12 -0.3,-10.67 -0.48,-21.34 -0.48,-32.06 0,-10.23 0.16,-20.43 0.44,-30.58 -0.29,-11.58 -0.44,-23.16 -0.44,-34.74 0,-44.82 6.29,-89.63 17.74,-134.79 50.51,-281.58 205.77,-527.1 424.26,-695.44 254.25,-335.7 551.62,-739.22 698.21,-1282.43 146.85,544.24 445.04,948.28 699.65,1284.35 213.03,165.09 365.44,403.79 418.67,677.6 14.18,50.54 21.89,100.62 21.89,150.71 0,19.28 -0.4,38.54 -1.19,57.78l0.1 7.54c0,3.85 -0.1,7.67 -0.14,11.52z"/>
   <path class="fil4" d="M1848.01 2209.99c-708.95,146.66 -903.53,975.23 -350.12,1424.03 324.02,262.77 803.83,210.44 1110.82,-152.77 116.59,-137.93 200.48,-392.62 154.95,-622.2 -46.9,-236.6 -163.4,-382.23 -302.98,-495.74 -140.92,-114.57 -389.76,-199.43 -612.67,-153.32z"/>
   <path class="fil5" d="M1848.75 2585.44c47,6.78 108.64,81.31 121.57,144.95 51.15,251.65 -309.16,363.67 -399.74,106.96l-25.06 -55.79c-145.93,113.85 -190.79,496.98 22.77,720.49 436.49,456.85 1165.56,-33.37 921.26,-600.77 -151.66,-352.17 -579.83,-374.62 -640.8,-315.84z"/>
  </g>
  <path class="fil6" d="M971.41 4685.47c2.67,1.91 5.15,4.1 7.44,6.58 2.29,2.48 4.38,4.86 6.29,7.15 8.77,11.07 15.64,23.18 20.6,36.34 4.96,13.16 7.44,26.98 7.44,41.48 0,3.43 -0.19,6.1 -0.58,8.01 -1.14,21.36 -7.62,40.62 -19.45,57.79 -10.68,16.02 -24.41,28.7 -41.19,38.04 -16.79,9.35 -35.48,14.02 -56.08,14.02l-37.76 0c-20.6,0 -39.29,-4.67 -56.07,-14.02 -16.78,-9.34 -30.52,-22.02 -41.2,-38.04 -3.05,-4.58 -6.1,-9.92 -9.15,-16.02l53.21 -41.2c1.14,7.25 3.53,14.02 7.15,20.31 3.63,6.3 8.11,11.83 13.45,16.59 5.34,4.77 11.44,8.49 18.31,11.16 6.86,2.67 14.11,4.01 21.74,4.01l22.89 0c15.63,0 29.18,-5.06 40.62,-15.17 11.44,-10.1 18.31,-22.6 20.6,-37.47 0,-1.53 0.09,-3.05 0.28,-4.58 0.19,-1.53 0.29,-3.05 0.29,-4.58 0,-8.39 -1.53,-16.21 -4.58,-23.46 -3.05,-7.24 -7.25,-13.63 -12.59,-19.16 -5.34,-5.53 -11.63,-10.02 -18.88,-13.45 -7.24,-3.43 -14.87,-5.34 -22.88,-5.72l-32.62 0 -2.29 0c-14.11,-0.38 -27.36,-3.15 -39.76,-8.3 -12.4,-5.15 -23.55,-12.11 -33.47,-20.88 -5.34,-3.81 -9.92,-8.39 -13.73,-13.73 -8.78,-11.06 -15.64,-23.17 -20.6,-36.33 -4.96,-13.16 -7.44,-26.99 -7.44,-41.49l0 -8.01c1.91,-21.74 8.58,-41 20.03,-57.78 10.68,-16.03 24.41,-28.71 41.19,-38.05 16.79,-9.35 35.48,-14.02 56.07,-14.02l37.19 0c20.6,0 39.39,4.67 56.36,14.02 16.98,9.34 30.8,22.02 41.48,38.05 1.15,1.9 2.39,4 3.72,6.29 1.34,2.29 2.58,4.39 3.72,6.29l-52.07 40.63c-3.43,-13.74 -10.68,-25.18 -21.74,-34.33 -11.06,-9.16 -23.84,-13.74 -38.33,-13.74l-22.89 0c-7.63,0 -14.97,1.34 -22.03,4.01 -7.05,2.67 -13.25,6.39 -18.59,11.16 -5.34,4.77 -9.82,10.39 -13.45,16.88 -3.62,6.48 -6.01,13.35 -7.15,20.59 -0.38,1.53 -0.57,3.06 -0.57,4.58 0,1.53 0,3.05 0,4.58 0,8.39 1.52,16.21 4.58,23.46 3.05,7.24 7.24,13.63 12.58,19.16 5.34,5.53 11.64,10.02 18.88,13.45 7.25,3.43 14.88,5.34 22.89,5.72l32.61 0 2.29 0c14.12,0.38 27.37,3.15 39.77,8.3 12.39,5.15 23.55,12.11 33.47,20.88z"/>
  <path id="1" class="fil6" d="M1254.63 4592.21c20.98,0 40.62,3.91 58.93,11.73 18.31,7.82 34.33,18.59 48.06,32.33 13.74,13.73 24.51,29.75 32.33,48.06 7.82,18.31 11.73,37.95 11.73,58.93 0,20.98 -3.91,40.62 -11.73,58.93 -7.82,18.31 -18.59,34.33 -32.33,48.06 -13.73,13.74 -29.75,24.51 -48.06,32.33 -18.31,7.82 -37.95,11.73 -58.93,11.73 -20.98,0 -40.62,-3.91 -58.93,-11.73 -18.31,-7.82 -34.33,-18.59 -48.06,-32.33 -13.73,-13.73 -24.51,-29.75 -32.33,-48.06 -7.82,-18.31 -11.73,-37.95 -11.73,-58.93 0,-20.98 3.91,-40.62 11.73,-58.93 7.82,-18.31 18.6,-34.33 32.33,-48.06 13.73,-13.74 29.75,-24.51 48.06,-32.33 18.31,-7.82 37.95,-11.73 58.93,-11.73zm0.29 243.17c12.58,0 24.41,-2.39 35.66,-7.15 11.16,-4.77 20.98,-11.35 29.37,-19.74 8.39,-8.4 14.88,-18.22 19.65,-29.47 4.76,-11.25 7.15,-23.17 7.15,-35.76 0,-12.59 -2.39,-24.51 -7.15,-35.76 -4.77,-11.25 -11.26,-21.07 -19.65,-29.47 -8.39,-8.39 -18.21,-14.97 -29.37,-19.74 -11.25,-4.76 -23.08,-7.15 -35.66,-7.15 -12.59,0 -24.42,2.39 -35.67,7.15 -11.15,4.77 -20.98,11.35 -29.37,19.74 -8.39,8.4 -14.97,18.22 -19.93,29.47 -4.96,11.25 -7.44,23.17 -7.44,35.76 0,12.59 2.48,24.51 7.44,35.76 4.96,11.25 11.54,21.07 19.93,29.47 8.39,8.39 18.22,14.97 29.37,19.74 11.25,4.76 23.08,7.15 35.67,7.15z"/>
  <path id="2" class="fil6" d="M1576.18 4622.53l72.1 0 0 58.94 -72.1 0 0 42.91 0 109.28 0 61.22 -58.93 0 0 -170.5 0 -42.91 -21.17 0 0 -58.94 21.17 0 0 -89.83 0 -20.59c1.53,-20.6 7.53,-39.58 17.93,-56.93 10.39,-17.36 24.03,-31.57 41,-42.63l0 0.57c10.3,-6.86 21.55,-12.2 33.76,-16.02 12.21,-3.81 24.98,-5.72 38.34,-5.72l0 58.93c-9.92,0 -19.27,1.91 -28.04,5.73 -8.77,3.81 -16.4,8.96 -22.89,15.35 -6.48,6.48 -11.63,14.11 -15.45,22.79 -3.81,8.77 -5.72,18.12 -5.72,27.94l0 100.41z"/>
  <polygon id="3" class="fil6" points="1907.46,4508.67 1907.46,4567.61 1852.53,4567.61 1852.53,4894.88 1793.6,4894.88 1793.6,4567.61 1738.1,4567.61 1738.1,4508.67 1793.6,4508.67 1793.6,4396.53 1852.53,4396.53 1852.53,4508.67 "/>
  <polygon id="4" class="fil6" points="2333.15,4591.64 2397.23,4591.64 2296.53,4822.22 2264.49,4896.03 2231.87,4822.22 2197.54,4743.83 2163.21,4822.22 2131.17,4896.03 2099.13,4822.22 1997.86,4591.64 2062.51,4591.64 2131.17,4748.41 2165.5,4670.02 2197.54,4596.21 2230.16,4670.02 2264.49,4748.41 "/>
  <path id="5" class="fil6" d="M2631.53 4592.78c20.98,0 40.62,4.01 59.12,12.02 18.41,8.01 34.62,18.88 48.54,32.61 13.92,13.73 24.79,29.94 32.8,48.63 8.01,18.69 12.02,38.53 12.02,59.51l0 148.19 -58.93 0 0 -27.75c-12.97,9.82 -27.28,17.54 -42.91,23.27 -15.64,5.62 -32.43,8.48 -50.36,8.48 -20.97,0 -40.71,-4 -59.21,-12.01 -18.5,-8.01 -34.62,-18.88 -48.35,-32.62 -13.73,-13.73 -24.6,-29.84 -32.61,-48.34 -8.01,-18.5 -12.02,-38.24 -12.02,-59.22 0,-20.98 4.01,-40.82 12.02,-59.51 8.01,-18.69 18.78,-34.9 32.51,-48.63 13.74,-13.73 29.85,-24.6 48.26,-32.61 18.5,-8.01 38.14,-12.02 59.12,-12.02zm0.28 246.03c12.97,0 25.08,-2.48 36.34,-7.44 11.25,-5.05 21.07,-11.73 29.46,-20.21 8.4,-8.4 15.07,-18.31 20.03,-29.66 4.96,-11.25 7.44,-23.27 7.44,-35.95 0,-13.07 -2.48,-25.27 -7.44,-36.52 -4.96,-11.35 -11.63,-21.27 -20.03,-29.66 -8.39,-8.49 -18.21,-15.16 -29.46,-20.22 -11.26,-4.96 -23.37,-7.44 -36.34,-7.44 -12.96,0 -25.07,2.48 -36.33,7.44 -11.25,5.06 -21.07,11.73 -29.46,20.22 -8.4,8.39 -15.07,18.31 -20.03,29.66 -4.96,11.25 -7.44,23.45 -7.44,36.52 0,12.68 2.48,24.7 7.44,35.95 4.96,11.35 11.63,21.26 20.03,29.66 8.39,8.48 18.21,15.16 29.46,20.21 11.26,4.96 23.37,7.44 36.33,7.44z"/>
  <path id="6" class="fil6" d="M3078.1 4614.71c12.97,8.49 24.03,19.08 33.18,31.76l-33.18 26.41 -12.59 10.3c-6.48,-9.53 -14.97,-17.16 -25.46,-22.88 -10.49,-5.73 -21.84,-8.59 -34.04,-8.59 -9.92,0 -19.27,1.91 -28.04,5.73 -8.77,3.81 -16.4,8.96 -22.89,15.44 -6.48,6.49 -11.63,14.12 -15.45,22.89 -3.81,8.77 -5.72,18.12 -5.72,28.04l0 108.71 0 61.22 -58.93 0 0 -170.22 0 -130.74 58.93 0 0 21.93c10.3,-6.86 21.55,-12.3 33.76,-16.11 12.21,-3.91 24.98,-5.82 38.34,-5.82 13.35,0 26.12,1.91 38.33,5.82 12.21,3.81 23.46,9.25 33.76,16.11z"/>
  <path id="7" class="fil6" d="M3344.72 4763.29l-115 0c2.29,10.29 6.2,19.93 11.73,28.89 5.53,8.96 12.3,16.69 20.31,23.17 8.01,6.49 16.97,11.54 26.89,15.16 9.92,3.63 20.41,5.44 31.47,5.44 13.35,0 25.84,-2.67 37.48,-8.01 11.63,-5.34 21.83,-12.78 30.61,-22.31l10.87 0 58.36 0c-2.29,5.72 -5.05,11.15 -8.3,16.3 -3.24,5.15 -6.77,10.21 -10.58,15.16 -13.73,17.55 -30.9,31.57 -51.5,42.06 -20.59,10.49 -42.91,15.73 -66.94,15.73 -20.98,0 -40.62,-3.91 -58.93,-11.73 -18.31,-7.82 -34.33,-18.59 -48.06,-32.32 -13.73,-13.74 -24.51,-29.76 -32.33,-48.07 -7.82,-18.3 -11.73,-37.95 -11.73,-58.93 0,-20.98 3.91,-40.62 11.73,-58.93 7.82,-18.31 18.6,-34.33 32.33,-48.06 13.73,-13.73 29.75,-24.51 48.06,-32.33 18.31,-7.82 37.95,-11.73 58.93,-11.73 24.03,0 46.35,5.25 66.94,15.74 20.6,10.49 37.77,24.69 51.5,42.62 12.59,15.26 21.74,33.19 27.46,53.79 3.43,12.2 5.15,25.17 5.15,38.9 0,6.87 -0.57,13.35 -1.72,19.46l-59.5 0 -65.23 0zm-24.6 -111.58c-18.69,0 -35.38,4.77 -50.06,14.4 -14.69,9.63 -25.85,22.41 -33.47,38.24l133.31 0 33.76 0c-1.91,-3.05 -3.72,-6 -5.44,-9.06 -1.72,-3.05 -3.53,-5.81 -5.43,-8.48 -8.78,-10.97 -19.46,-19.55 -32.05,-25.75 -12.58,-6.2 -26.12,-9.35 -40.62,-9.35z"/>
  <path id="8" class="fil6" d="M4149.75 4743.83c0,20.98 -3.91,40.63 -11.73,58.93 -7.82,18.31 -18.59,34.33 -32.33,48.07 -13.73,13.73 -29.75,24.5 -48.06,32.32 -18.31,7.82 -37.95,11.73 -58.93,11.73 -20.98,0 -40.62,-3.91 -58.93,-11.73 -18.31,-7.82 -34.33,-18.59 -48.06,-32.32 -13.73,-13.74 -24.51,-29.76 -32.33,-48.07 -7.82,-18.3 -11.73,-37.95 -11.73,-58.93 0,-20.98 3.91,-40.62 11.73,-58.93 7.82,-18.31 18.6,-34.33 32.33,-48.06 13.73,-13.73 29.75,-24.51 48.06,-32.33 18.31,-7.82 37.95,-11.73 58.93,-11.73 17.55,0 34.04,2.77 49.49,8.3 15.45,5.53 29.66,13.25 42.63,23.17l0 -233.44 58.93 0 0 352.45 0 0.57zm-150.76 92.12c12.58,0 24.41,-2.38 35.66,-7.15 11.16,-4.77 20.98,-11.35 29.37,-19.74 8.39,-8.39 14.88,-18.22 19.65,-29.47 4.76,-11.25 7.15,-23.17 7.15,-35.76l0 -0.57c0,-12.59 -2.39,-24.41 -7.15,-35.47 -4.77,-11.07 -11.26,-20.79 -19.65,-29.18 -8.39,-8.4 -18.21,-14.98 -29.37,-19.74 -11.25,-4.77 -23.08,-7.16 -35.66,-7.16 -12.59,0 -24.42,2.39 -35.67,7.16 -11.15,4.76 -20.98,11.34 -29.37,19.74 -8.39,8.39 -14.97,18.21 -19.93,29.46 -4.96,11.25 -7.44,23.17 -7.44,35.76 0,12.59 2.48,24.51 7.44,35.76 4.96,11.25 11.54,21.08 19.93,29.47 8.39,8.39 18.22,14.97 29.37,19.74 11.25,4.77 23.08,7.15 35.67,7.15z"/>
  <path id="9" class="fil6" d="M4415.8 4763.29l-115 0c2.29,10.29 6.2,19.93 11.73,28.89 5.53,8.96 12.3,16.69 20.31,23.17 8.01,6.49 16.97,11.54 26.89,15.16 9.92,3.63 20.41,5.44 31.47,5.44 13.35,0 25.84,-2.67 37.48,-8.01 11.63,-5.34 21.83,-12.78 30.61,-22.31l10.87 0 58.36 0c-2.29,5.72 -5.05,11.15 -8.3,16.3 -3.24,5.15 -6.77,10.21 -10.58,15.16 -13.73,17.55 -30.9,31.57 -51.5,42.06 -20.59,10.49 -42.91,15.73 -66.94,15.73 -20.98,0 -40.62,-3.91 -58.93,-11.73 -18.31,-7.82 -34.33,-18.59 -48.06,-32.32 -13.73,-13.74 -24.51,-29.76 -32.33,-48.07 -7.82,-18.3 -11.73,-37.95 -11.73,-58.93 0,-20.98 3.91,-40.62 11.73,-58.93 7.82,-18.31 18.6,-34.33 32.33,-48.06 13.73,-13.73 29.75,-24.51 48.06,-32.33 18.31,-7.82 37.95,-11.73 58.93,-11.73 24.03,0 46.35,5.25 66.94,15.74 20.6,10.49 37.77,24.69 51.5,42.62 12.59,15.26 21.74,33.19 27.46,53.79 3.43,12.2 5.15,25.17 5.15,38.9 0,6.87 -0.57,13.35 -1.72,19.46l-59.5 0 -65.23 0zm-24.6 -111.58c-18.69,0 -35.38,4.77 -50.06,14.4 -14.69,9.63 -25.85,22.41 -33.47,38.24l133.31 0 33.76 0c-1.91,-3.05 -3.72,-6 -5.44,-9.06 -1.72,-3.05 -3.53,-5.81 -5.43,-8.48 -8.78,-10.97 -19.46,-19.55 -32.05,-25.75 -12.58,-6.2 -26.12,-9.35 -40.62,-9.35z"/>
  <path id="10" class="fil6" d="M5174.96 4905.75c6.87,0.38 14.21,2.2 22.03,5.44 7.82,3.24 15.16,8.3 22.03,15.16 6.96,6.87 12.59,15.64 16.97,26.32 4.39,10.68 6.58,23.65 6.58,38.91 0,15.64 -2.29,28.89 -6.86,39.76 -4.58,10.87 -10.3,19.65 -17.17,26.32 -6.86,6.68 -14.3,11.54 -22.31,14.59 -8.01,3.05 -15.45,4.58 -22.32,4.58l-142.46 0c-13.74,-0.38 -27.28,-2.29 -40.63,-5.72 -13.35,-3.44 -25.36,-8.78 -36.04,-16.02 -10.68,-7.25 -19.36,-16.21 -26.04,-26.89 -6.67,-10.68 -10.01,-23.27 -10.01,-37.77l58.93 0c0,6.2 2.77,11.16 8.3,14.88 5.53,3.72 11.73,6.48 18.4,8.2 6.68,1.72 12.88,2.96 18.6,3.53 5.82,0.57 8.68,0.86 8.68,0.86l141.13 0c7.25,-0.77 10.87,-9.44 10.87,-26.04 0,-5.81 -0.48,-10.49 -1.43,-14.21 -0.95,-3.62 -2.1,-6.38 -3.43,-8.29 -1.34,-2 -2.58,-3.24 -3.72,-3.82 -1.15,-0.57 -1.91,-0.85 -2.29,-0.85l-141.32 0c-13.74,0 -27.28,-1.72 -40.63,-5.15 -13.35,-3.44 -25.36,-8.68 -36.04,-15.74 -10.68,-7.05 -19.36,-15.92 -26.04,-26.6 -6.67,-10.68 -10.01,-23.46 -10.01,-38.34 0,-16.02 4.1,-29.75 12.3,-41.19 8.2,-11.45 18.6,-20.6 31.18,-27.47 -9.53,-11.44 -16.97,-24.31 -22.31,-38.62 -5.34,-14.3 -8.01,-29.46 -8.01,-45.49 0,-18.3 3.43,-35.47 10.3,-51.49 6.87,-16.02 16.31,-30.04 28.32,-42.05 12.02,-12.02 25.94,-21.46 41.77,-28.33 15.83,-6.86 32.9,-10.29 51.21,-10.29l2.29 0 148.19 0 0 58.93 -40.06 0c6.87,10.68 12.21,22.22 16.02,34.61 3.82,12.4 5.73,25.27 5.73,38.62 0,17.55 -3.25,34.14 -9.73,49.78 -6.49,15.64 -15.35,29.28 -26.42,40.91 -11.06,11.64 -24.31,21.08 -39.57,28.32 -15.26,7.25 -31.56,11.45 -48.73,12.59l-8.1 0 -61.89 0c-6.2,1.91 -11.64,4.58 -16.4,8.01 -4.77,3.43 -7.16,7.82 -7.16,13.16 0,6.49 2.77,11.44 8.3,14.88 5.53,3.43 11.54,6.1 18.12,8.01 6.48,1.91 12.59,3.05 18.31,3.43 5.72,0.38 8.58,0.57 8.58,0.57l143.99 0zm-111.47 -252.89c-9.92,0 -19.36,1.91 -28.32,5.72 -8.97,3.81 -16.69,9.06 -23.18,15.73 -6.48,6.68 -11.63,14.5 -15.45,23.46 -3.81,8.97 -5.72,18.41 -5.72,28.32 0,9.92 1.91,19.36 5.72,28.33 3.82,8.96 8.97,16.68 15.45,23.17 6.49,6.48 14.21,11.63 23.18,15.45 8.96,3.81 18.4,5.72 28.32,5.72 10.3,0 19.83,-1.91 28.61,-5.72 8.77,-3.82 16.49,-8.97 23.17,-15.45 6.67,-6.49 11.92,-14.21 15.73,-23.17 3.82,-8.97 5.72,-18.41 5.72,-28.33 0,-9.91 -1.9,-19.35 -5.72,-28.32 -3.81,-8.96 -9.06,-16.78 -15.73,-23.46 -6.68,-6.67 -14.4,-11.92 -23.17,-15.73 -8.78,-3.81 -18.31,-5.72 -28.61,-5.72z"/>
  <path id="11" class="fil6" d="M5508.62 4763.29l-115 0c2.29,10.29 6.2,19.93 11.73,28.89 5.53,8.96 12.3,16.69 20.31,23.17 8.01,6.49 16.97,11.54 26.89,15.16 9.92,3.63 20.41,5.44 31.47,5.44 13.35,0 25.84,-2.67 37.48,-8.01 11.63,-5.34 21.83,-12.78 30.61,-22.31l10.87 0 58.36 0c-2.29,5.72 -5.05,11.15 -8.3,16.3 -3.24,5.15 -6.77,10.21 -10.58,15.16 -13.73,17.55 -30.9,31.57 -51.5,42.06 -20.59,10.49 -42.91,15.73 -66.94,15.73 -20.98,0 -40.62,-3.91 -58.93,-11.73 -18.31,-7.82 -34.33,-18.59 -48.06,-32.32 -13.73,-13.74 -24.51,-29.76 -32.33,-48.07 -7.82,-18.3 -11.73,-37.95 -11.73,-58.93 0,-20.98 3.91,-40.62 11.73,-58.93 7.82,-18.31 18.6,-34.33 32.33,-48.06 13.73,-13.73 29.75,-24.51 48.06,-32.33 18.31,-7.82 37.95,-11.73 58.93,-11.73 24.03,0 46.35,5.25 66.94,15.74 20.6,10.49 37.77,24.69 51.5,42.62 12.59,15.26 21.74,33.19 27.46,53.79 3.43,12.2 5.15,25.17 5.15,38.9 0,6.87 -0.57,13.35 -1.72,19.46l-59.5 0 -65.23 0zm-24.6 -111.58c-18.69,0 -35.38,4.77 -50.06,14.4 -14.69,9.63 -25.85,22.41 -33.47,38.24l133.31 0 33.76 0c-1.91,-3.05 -3.72,-6 -5.44,-9.06 -1.72,-3.05 -3.53,-5.81 -5.43,-8.48 -8.78,-10.97 -19.46,-19.55 -32.05,-25.75 -12.58,-6.2 -26.12,-9.35 -40.62,-9.35z"/>
  <path id="12" class="fil6" d="M5891.97 4754.7c5.34,7.63 9.54,15.93 12.59,24.89 3.05,8.97 4.38,18.41 4,28.32 -0.38,12.59 -3.24,24.23 -8.58,34.91 -5.34,10.68 -12.4,20.02 -21.17,28.03 -8.77,8.01 -19.07,14.21 -30.9,18.6 -11.82,4.38 -24.22,6.39 -37.19,6 -18.31,-0.76 -34.8,-5.53 -49.49,-14.3 -14.68,-8.77 -25.84,-20.41 -33.47,-34.9l49.21 -34.33c1.9,6.86 6.1,12.68 12.58,17.45 6.49,4.77 14.12,7.15 22.89,7.15 9.92,0.38 18.59,-2.38 26.03,-8.29 7.44,-5.92 11.16,-13.26 11.16,-22.03 0,-2.67 -0.19,-4.58 -0.57,-5.72l0 -1.15c-0.38,-0.76 -0.57,-1.43 -0.57,-2 0,-0.57 -0.2,-1.24 -0.58,-2 -2.67,-6.49 -7.63,-11.83 -14.87,-16.02 -1.15,-0.77 -2.86,-1.53 -5.15,-2.29l0.57 -0.57c-5.34,-3.06 -11.25,-6.01 -17.74,-8.87 -6.48,-2.86 -13.06,-5.92 -19.74,-9.16 -6.67,-3.24 -13.25,-6.67 -19.74,-10.3 -6.48,-3.62 -12.58,-7.91 -18.31,-12.87l0 -0.57 -1.71 -1.72c-8.01,-7.63 -14.31,-16.5 -18.88,-26.6 -4.58,-10.11 -6.68,-20.89 -6.3,-32.33 0.38,-11.44 3.05,-22.13 8.01,-32.04 4.96,-9.92 11.54,-18.5 19.74,-25.75 8.2,-7.25 17.83,-12.97 28.9,-17.16 11.06,-4.2 22.88,-6.11 35.47,-5.73 16.4,0.77 31.18,4.77 44.34,12.02 13.16,7.25 23.56,16.97 31.19,29.18l-48.07 33.18c-2.28,-4.19 -6,-7.81 -11.15,-10.87 -5.15,-3.05 -10.97,-4.57 -17.45,-4.57 -8.78,-0.39 -16.31,1.71 -22.6,6.29 -6.3,4.58 -9.44,10.11 -9.44,16.59 0,1.91 0.19,3.24 0.57,4.01 0.76,4.19 2.67,7.82 5.72,10.87 3.05,3.05 6.86,5.53 11.44,7.44 7.25,4.19 15.55,8.48 24.89,12.87 9.35,4.39 18.79,9.25 28.32,14.59 6.87,3.05 13.73,7.44 20.6,13.16l2.86 2.86c3.82,3.43 8.01,8.01 12.59,13.73z"/>
  <polygon id="13" class="fil6" points="6168.89,4508.67 6168.89,4567.61 6113.96,4567.61 6113.96,4894.88 6055.03,4894.88 6055.03,4567.61 5999.53,4567.61 5999.53,4508.67 6055.03,4508.67 6055.03,4396.53 6113.96,4396.53 6113.96,4508.67 "/>
  <path id="14" class="fil6" d="M6403.19 4592.78c20.98,0 40.62,4.01 59.12,12.02 18.41,8.01 34.62,18.88 48.54,32.61 13.92,13.73 24.79,29.94 32.8,48.63 8.01,18.69 12.02,38.53 12.02,59.51l0 148.19 -58.93 0 0 -27.75c-12.97,9.82 -27.28,17.54 -42.91,23.27 -15.64,5.62 -32.43,8.48 -50.36,8.48 -20.97,0 -40.71,-4 -59.21,-12.01 -18.5,-8.01 -34.62,-18.88 -48.35,-32.62 -13.73,-13.73 -24.6,-29.84 -32.61,-48.34 -8.01,-18.5 -12.02,-38.24 -12.02,-59.22 0,-20.98 4.01,-40.82 12.02,-59.51 8.01,-18.69 18.78,-34.9 32.51,-48.63 13.74,-13.73 29.85,-24.6 48.26,-32.61 18.5,-8.01 38.14,-12.02 59.12,-12.02zm0.28 246.03c12.97,0 25.08,-2.48 36.34,-7.44 11.25,-5.05 21.07,-11.73 29.46,-20.21 8.4,-8.4 15.07,-18.31 20.03,-29.66 4.96,-11.25 7.44,-23.27 7.44,-35.95 0,-13.07 -2.48,-25.27 -7.44,-36.52 -4.96,-11.35 -11.63,-21.27 -20.03,-29.66 -8.39,-8.49 -18.21,-15.16 -29.46,-20.22 -11.26,-4.96 -23.37,-7.44 -36.34,-7.44 -12.96,0 -25.07,2.48 -36.33,7.44 -11.25,5.06 -21.07,11.73 -29.46,20.22 -8.4,8.39 -15.07,18.31 -20.03,29.66 -4.96,11.25 -7.44,23.45 -7.44,36.52 0,12.68 2.48,24.7 7.44,35.95 4.96,11.35 11.63,21.26 20.03,29.66 8.39,8.48 18.21,15.16 29.46,20.21 11.26,4.96 23.37,7.44 36.33,7.44z"/>
  <path id="15" class="fil6" d="M6797.69 4592.21c20.98,0 40.62,3.91 58.93,11.73 18.31,7.82 34.33,18.59 48.06,32.33 13.74,13.73 24.51,29.75 32.33,48.06 7.82,18.31 11.73,37.95 11.73,58.93 0,20.98 -3.91,40.62 -11.73,58.93 -7.82,18.31 -18.59,34.33 -32.33,48.06 -13.73,13.74 -29.75,24.51 -48.06,32.33 -18.31,7.82 -37.95,11.73 -58.93,11.73 -20.98,0 -40.62,-3.91 -58.93,-11.73 -18.31,-7.82 -34.33,-18.59 -48.06,-32.33 -13.73,-13.73 -24.51,-29.75 -32.33,-48.06 -7.82,-18.31 -11.73,-37.95 -11.73,-58.93 0,-20.98 3.91,-40.62 11.73,-58.93 7.82,-18.31 18.6,-34.33 32.33,-48.06 13.73,-13.74 29.75,-24.51 48.06,-32.33 18.31,-7.82 37.95,-11.73 58.93,-11.73zm0.29 243.17c12.58,0 24.41,-2.39 35.66,-7.15 11.16,-4.77 20.98,-11.35 29.37,-19.74 8.39,-8.4 14.88,-18.22 19.65,-29.47 4.76,-11.25 7.15,-23.17 7.15,-35.76 0,-12.59 -2.39,-24.51 -7.15,-35.76 -4.77,-11.25 -11.26,-21.07 -19.65,-29.47 -8.39,-8.39 -18.21,-14.97 -29.37,-19.74 -11.25,-4.76 -23.08,-7.15 -35.66,-7.15 -12.59,0 -24.42,2.39 -35.67,7.15 -11.15,4.77 -20.98,11.35 -29.37,19.74 -8.39,8.4 -14.97,18.22 -19.93,29.47 -4.96,11.25 -7.44,23.17 -7.44,35.76 0,12.59 2.48,24.51 7.44,35.76 4.96,11.25 11.54,21.07 19.93,29.47 8.39,8.39 18.22,14.97 29.37,19.74 11.25,4.76 23.08,7.15 35.67,7.15z"/>
  <path id="16" class="fil6" d="M7476.27 4835.38c14.88,0 28.61,-3.24 41.2,-9.73 12.58,-6.48 23.07,-15.07 31.47,-25.75l46.34 36.05c-13.73,17.74 -30.9,31.85 -51.49,42.43 -20.6,10.59 -43.11,15.93 -67.52,15.93 -20.6,0 -40.05,-3.91 -58.36,-11.73 -18.31,-7.82 -34.42,-18.59 -48.25,-32.33 -13.83,-13.73 -24.7,-29.75 -32.61,-48.06 -7.92,-18.31 -11.83,-37.95 -11.83,-58.93 0,-20.6 3.91,-40.05 11.83,-58.36 7.91,-18.31 18.78,-34.33 32.61,-48.06 13.83,-13.73 29.94,-24.51 48.25,-32.33 18.31,-7.82 37.76,-11.73 58.36,-11.73 24.41,0 46.92,5.25 67.52,15.64 20.59,10.39 37.76,24.6 51.49,42.72l-46.34 36.05c-8.4,-11.06 -18.89,-19.74 -31.47,-26.04 -12.59,-6.29 -26.32,-9.44 -41.2,-9.44 -12.59,0 -24.51,2.39 -35.76,7.16 -11.25,4.67 -21.07,11.25 -29.47,19.54 -8.39,8.4 -14.97,18.12 -19.73,29.28 -4.77,11.25 -7.16,23.08 -7.16,35.57 0,12.49 2.39,24.32 7.16,35.57 4.76,11.16 11.34,20.88 19.73,29.27 8.4,8.3 18.22,14.98 29.47,19.84 11.25,4.96 23.17,7.44 35.76,7.44z"/>
  <path id="17" class="fil6" d="M7836.16 4592.21c20.98,0 40.62,3.91 58.93,11.73 18.31,7.82 34.33,18.59 48.06,32.33 13.74,13.73 24.51,29.75 32.33,48.06 7.82,18.31 11.73,37.95 11.73,58.93 0,20.98 -3.91,40.62 -11.73,58.93 -7.82,18.31 -18.59,34.33 -32.33,48.06 -13.73,13.74 -29.75,24.51 -48.06,32.33 -18.31,7.82 -37.95,11.73 -58.93,11.73 -20.98,0 -40.62,-3.91 -58.93,-11.73 -18.31,-7.82 -34.33,-18.59 -48.06,-32.33 -13.73,-13.73 -24.51,-29.75 -32.33,-48.06 -7.82,-18.31 -11.73,-37.95 -11.73,-58.93 0,-20.98 3.91,-40.62 11.73,-58.93 7.82,-18.31 18.6,-34.33 32.33,-48.06 13.73,-13.74 29.75,-24.51 48.06,-32.33 18.31,-7.82 37.95,-11.73 58.93,-11.73zm0.29 243.17c12.58,0 24.41,-2.39 35.66,-7.15 11.16,-4.77 20.98,-11.35 29.37,-19.74 8.39,-8.4 14.88,-18.22 19.65,-29.47 4.76,-11.25 7.15,-23.17 7.15,-35.76 0,-12.59 -2.39,-24.51 -7.15,-35.76 -4.77,-11.25 -11.26,-21.07 -19.65,-29.47 -8.39,-8.39 -18.21,-14.97 -29.37,-19.74 -11.25,-4.76 -23.08,-7.15 -35.66,-7.15 -12.59,0 -24.42,2.39 -35.67,7.15 -11.15,4.77 -20.98,11.35 -29.37,19.74 -8.39,8.4 -14.97,18.22 -19.93,29.47 -4.96,11.25 -7.44,23.17 -7.44,35.76 0,12.59 2.48,24.51 7.44,35.76 4.96,11.25 11.54,21.07 19.93,29.47 8.39,8.39 18.22,14.97 29.37,19.74 11.25,4.76 23.08,7.15 35.67,7.15z"/>
  <path id="18" class="fil6" d="M8487.28 4612.81c17.92,11.82 32.23,27.37 42.91,46.63 10.68,19.26 16.02,40.34 16.02,63.22l0 172.22 -58.93 0 0 -61.79 0 -110.43c0,-9.92 -1.91,-19.26 -5.72,-28.03 -3.82,-8.78 -9.06,-16.5 -15.74,-23.18 -6.67,-6.67 -14.4,-11.92 -23.17,-15.73 -8.77,-3.82 -18.12,-5.72 -28.04,-5.72 -9.91,0 -19.36,1.9 -28.32,5.72 -8.96,3.81 -16.78,9.06 -23.46,15.73 -6.67,6.68 -11.92,14.4 -15.73,23.18 -3.82,8.77 -5.72,18.11 -5.72,28.03l0 110.43 0 61.79 -58.94 0 0 -61.79 0 -110.43c0,-9.92 -1.9,-19.26 -5.72,-28.03 -3.81,-8.78 -9.06,-16.5 -15.73,-23.18 -6.68,-6.67 -14.4,-11.92 -23.17,-15.73 -8.78,-3.82 -18.12,-5.72 -28.04,-5.72 -9.92,0 -19.36,1.9 -28.32,5.72 -8.97,3.81 -16.79,9.06 -23.46,15.73 -6.68,6.68 -11.92,14.4 -15.74,23.18 -3.81,8.77 -5.72,18.11 -5.72,28.03l0 110.43 0 61.79 -58.93 0 0 -172.22 0 -131.59 58.93 0 0 21.74c10.68,-6.87 22.22,-12.21 34.62,-16.02 12.4,-3.82 25.27,-5.72 38.62,-5.72 13.35,0 26.22,1.9 38.62,5.72 12.4,3.81 23.75,9.15 34.04,16.02 11.07,7.24 20.98,16.4 29.76,27.46 8.39,-10.68 18.11,-19.83 29.18,-27.46 10.68,-6.87 22.22,-12.21 34.61,-16.02 12.4,-3.82 25.27,-5.72 38.62,-5.72 13.35,0 26.23,1.9 38.62,5.72 12.4,3.81 23.75,9.15 34.05,16.02z"/>
  <path id="19" class="fil6" d="M8812.26 4763.29l-115 0c2.29,10.29 6.2,19.93 11.73,28.89 5.53,8.96 12.3,16.69 20.31,23.17 8.01,6.49 16.97,11.54 26.89,15.16 9.92,3.63 20.41,5.44 31.47,5.44 13.35,0 25.84,-2.67 37.48,-8.01 11.63,-5.34 21.83,-12.78 30.61,-22.31l10.87 0 58.36 0c-2.29,5.72 -5.05,11.15 -8.3,16.3 -3.24,5.15 -6.77,10.21 -10.58,15.16 -13.73,17.55 -30.9,31.57 -51.5,42.06 -20.59,10.49 -42.91,15.73 -66.94,15.73 -20.98,0 -40.62,-3.91 -58.93,-11.73 -18.31,-7.82 -34.33,-18.59 -48.06,-32.32 -13.73,-13.74 -24.51,-29.76 -32.33,-48.07 -7.82,-18.3 -11.73,-37.95 -11.73,-58.93 0,-20.98 3.91,-40.62 11.73,-58.93 7.82,-18.31 18.6,-34.33 32.33,-48.06 13.73,-13.73 29.75,-24.51 48.06,-32.33 18.31,-7.82 37.95,-11.73 58.93,-11.73 24.03,0 46.35,5.25 66.94,15.74 20.6,10.49 37.77,24.69 51.5,42.62 12.59,15.26 21.74,33.19 27.46,53.79 3.43,12.2 5.15,25.17 5.15,38.9 0,6.87 -0.57,13.35 -1.72,19.46l-59.5 0 -65.23 0zm-24.6 -111.58c-18.69,0 -35.38,4.77 -50.06,14.4 -14.69,9.63 -25.85,22.41 -33.47,38.24l133.31 0 33.76 0c-1.91,-3.05 -3.72,-6 -5.44,-9.06 -1.72,-3.05 -3.53,-5.81 -5.43,-8.48 -8.78,-10.97 -19.46,-19.55 -32.05,-25.75 -12.58,-6.2 -26.12,-9.35 -40.62,-9.35z"/>
  <path id="20" class="fil6" d="M9232.23 4614.71c12.97,8.49 24.03,19.08 33.18,31.76l-33.18 26.41 -12.59 10.3c-6.48,-9.53 -14.97,-17.16 -25.46,-22.88 -10.49,-5.73 -21.84,-8.59 -34.04,-8.59 -9.92,0 -19.27,1.91 -28.04,5.73 -8.77,3.81 -16.4,8.96 -22.89,15.44 -6.48,6.49 -11.63,14.12 -15.45,22.89 -3.81,8.77 -5.72,18.12 -5.72,28.04l0 108.71 0 61.22 -58.93 0 0 -170.22 0 -130.74 58.93 0 0 21.93c10.3,-6.86 21.55,-12.3 33.76,-16.11 12.21,-3.91 24.98,-5.82 38.34,-5.82 13.35,0 26.12,1.91 38.33,5.82 12.21,3.81 23.46,9.25 33.76,16.11z"/>
  <path id="21" class="fil6" d="M9474.25 4835.38c14.88,0 28.61,-3.24 41.2,-9.73 12.58,-6.48 23.07,-15.07 31.47,-25.75l46.34 36.05c-13.73,17.74 -30.9,31.85 -51.49,42.43 -20.6,10.59 -43.11,15.93 -67.52,15.93 -20.6,0 -40.05,-3.91 -58.36,-11.73 -18.31,-7.82 -34.42,-18.59 -48.25,-32.33 -13.83,-13.73 -24.7,-29.75 -32.61,-48.06 -7.92,-18.31 -11.83,-37.95 -11.83,-58.93 0,-20.6 3.91,-40.05 11.83,-58.36 7.91,-18.31 18.78,-34.33 32.61,-48.06 13.83,-13.73 29.94,-24.51 48.25,-32.33 18.31,-7.82 37.76,-11.73 58.36,-11.73 24.41,0 46.92,5.25 67.52,15.64 20.59,10.39 37.76,24.6 51.49,42.72l-46.34 36.05c-8.4,-11.06 -18.89,-19.74 -31.47,-26.04 -12.59,-6.29 -26.32,-9.44 -41.2,-9.44 -12.59,0 -24.51,2.39 -35.76,7.16 -11.25,4.67 -21.07,11.25 -29.47,19.54 -8.39,8.4 -14.97,18.12 -19.73,29.28 -4.77,11.25 -7.16,23.08 -7.16,35.57 0,12.49 2.39,24.32 7.16,35.57 4.76,11.16 11.34,20.88 19.73,29.27 8.4,8.3 18.22,14.98 29.47,19.84 11.25,4.96 23.17,7.44 35.76,7.44z"/>
  <path id="22" class="fil6" d="M9692.25 4592.21l58.93 0 0 302.1 -58.93 0 0 -302.1zm0 -30.9l0 -58.93 58.93 0 0 58.93 -58.93 0z"/>
  <path id="23" class="fil6" d="M9994.06 4592.78c20.98,0 40.62,4.01 59.12,12.02 18.41,8.01 34.62,18.88 48.54,32.61 13.92,13.73 24.79,29.94 32.8,48.63 8.01,18.69 12.02,38.53 12.02,59.51l0 148.19 -58.93 0 0 -27.75c-12.97,9.82 -27.28,17.54 -42.91,23.27 -15.64,5.62 -32.43,8.48 -50.36,8.48 -20.97,0 -40.71,-4 -59.21,-12.01 -18.5,-8.01 -34.62,-18.88 -48.35,-32.62 -13.73,-13.73 -24.6,-29.84 -32.61,-48.34 -8.01,-18.5 -12.02,-38.24 -12.02,-59.22 0,-20.98 4.01,-40.82 12.02,-59.51 8.01,-18.69 18.78,-34.9 32.51,-48.63 13.74,-13.73 29.85,-24.6 48.26,-32.61 18.5,-8.01 38.14,-12.02 59.12,-12.02zm0.28 246.03c12.97,0 25.08,-2.48 36.34,-7.44 11.25,-5.05 21.07,-11.73 29.46,-20.21 8.4,-8.4 15.07,-18.31 20.03,-29.66 4.96,-11.25 7.44,-23.27 7.44,-35.95 0,-13.07 -2.48,-25.27 -7.44,-36.52 -4.96,-11.35 -11.63,-21.27 -20.03,-29.66 -8.39,-8.49 -18.21,-15.16 -29.46,-20.22 -11.26,-4.96 -23.37,-7.44 -36.34,-7.44 -12.96,0 -25.07,2.48 -36.33,7.44 -11.25,5.06 -21.07,11.73 -29.46,20.22 -8.4,8.39 -15.07,18.31 -20.03,29.66 -4.96,11.25 -7.44,23.45 -7.44,36.52 0,12.68 2.48,24.7 7.44,35.95 4.96,11.35 11.63,21.26 20.03,29.66 8.39,8.48 18.21,15.16 29.46,20.21 11.26,4.96 23.37,7.44 36.33,7.44z"/>
  <polygon id="24" class="fil6" points="10246.67,4891.45 10246.67,4391.95 10305.6,4391.95 10305.6,4891.45 "/>
  <path id="25" class="fil6" d="M4431.82 5452.74c0,20.98 -3.91,40.63 -11.73,58.93 -7.82,18.31 -18.59,34.33 -32.33,48.07 -13.73,13.73 -29.75,24.5 -48.06,32.32 -18.31,7.82 -37.95,11.73 -58.93,11.73 -20.98,0 -40.62,-3.91 -58.93,-11.73 -18.31,-7.82 -34.33,-18.59 -48.06,-32.32 -13.73,-13.74 -24.51,-29.76 -32.33,-48.07 -7.82,-18.3 -11.73,-37.95 -11.73,-58.93 0,-20.98 3.91,-40.62 11.73,-58.93 7.82,-18.31 18.6,-34.33 32.33,-48.06 13.73,-13.73 29.75,-24.51 48.06,-32.33 18.31,-7.82 37.95,-11.73 58.93,-11.73 17.55,0 34.04,2.77 49.49,8.3 15.45,5.53 29.66,13.25 42.63,23.17l0 -233.44 58.93 0 0 352.45 0 0.57zm-150.76 92.12c12.58,0 24.41,-2.38 35.66,-7.15 11.16,-4.77 20.98,-11.35 29.37,-19.74 8.39,-8.39 14.88,-18.22 19.65,-29.47 4.76,-11.25 7.15,-23.17 7.15,-35.76l0 -0.57c0,-12.59 -2.39,-24.41 -7.15,-35.47 -4.77,-11.07 -11.26,-20.79 -19.65,-29.18 -8.39,-8.4 -18.21,-14.98 -29.37,-19.74 -11.25,-4.77 -23.08,-7.16 -35.66,-7.16 -12.59,0 -24.42,2.39 -35.67,7.16 -11.15,4.76 -20.98,11.34 -29.37,19.74 -8.39,8.39 -14.97,18.21 -19.93,29.46 -4.96,11.25 -7.44,23.17 -7.44,35.76 0,12.59 2.48,24.51 7.44,35.76 4.96,11.25 11.54,21.08 19.93,29.47 8.39,8.39 18.22,14.97 29.37,19.74 11.25,4.77 23.08,7.15 35.67,7.15z"/>
  <path id="26" class="fil6" d="M4697.87 5472.2l-115 0c2.29,10.29 6.2,19.93 11.73,28.89 5.53,8.96 12.3,16.69 20.31,23.17 8.01,6.49 16.97,11.54 26.89,15.16 9.92,3.63 20.41,5.44 31.47,5.44 13.35,0 25.84,-2.67 37.48,-8.01 11.63,-5.34 21.83,-12.78 30.61,-22.31l10.87 0 58.36 0c-2.29,5.72 -5.05,11.15 -8.3,16.3 -3.24,5.15 -6.77,10.21 -10.58,15.16 -13.73,17.55 -30.9,31.57 -51.5,42.06 -20.59,10.49 -42.91,15.73 -66.94,15.73 -20.98,0 -40.62,-3.91 -58.93,-11.73 -18.31,-7.82 -34.33,-18.59 -48.06,-32.32 -13.73,-13.74 -24.51,-29.76 -32.33,-48.07 -7.82,-18.3 -11.73,-37.95 -11.73,-58.93 0,-20.98 3.91,-40.62 11.73,-58.93 7.82,-18.31 18.6,-34.33 32.33,-48.06 13.73,-13.73 29.75,-24.51 48.06,-32.33 18.31,-7.82 37.95,-11.73 58.93,-11.73 24.03,0 46.35,5.25 66.94,15.74 20.6,10.49 37.77,24.69 51.5,42.62 12.59,15.26 21.74,33.19 27.46,53.79 3.43,12.2 5.15,25.17 5.15,38.9 0,6.87 -0.57,13.35 -1.72,19.46l-59.5 0 -65.23 0zm-24.6 -111.58c-18.69,0 -35.38,4.77 -50.06,14.4 -14.69,9.63 -25.85,22.41 -33.47,38.24l133.31 0 33.76 0c-1.91,-3.05 -3.72,-6 -5.44,-9.06 -1.72,-3.05 -3.53,-5.81 -5.43,-8.48 -8.78,-10.97 -19.46,-19.55 -32.05,-25.75 -12.58,-6.2 -26.12,-9.35 -40.62,-9.35z"/>
  <path id="27" class="fil6" d="M5344.7 5301.69c20.98,0 40.62,4.01 59.12,12.02 18.41,8.01 34.62,18.88 48.54,32.61 13.92,13.73 24.79,29.94 32.8,48.63 8.01,18.69 12.02,38.53 12.02,59.51l0 148.19 -58.93 0 0 -27.75c-12.97,9.82 -27.28,17.54 -42.91,23.27 -15.64,5.62 -32.43,8.48 -50.36,8.48 -20.97,0 -40.71,-4 -59.21,-12.01 -18.5,-8.01 -34.62,-18.88 -48.35,-32.62 -13.73,-13.73 -24.6,-29.84 -32.61,-48.34 -8.01,-18.5 -12.02,-38.24 -12.02,-59.22 0,-20.98 4.01,-40.82 12.02,-59.51 8.01,-18.69 18.78,-34.9 32.51,-48.63 13.74,-13.73 29.85,-24.6 48.26,-32.61 18.5,-8.01 38.14,-12.02 59.12,-12.02zm0.28 246.03c12.97,0 25.08,-2.48 36.34,-7.44 11.25,-5.05 21.07,-11.73 29.46,-20.21 8.4,-8.4 15.07,-18.31 20.03,-29.66 4.96,-11.25 7.44,-23.27 7.44,-35.95 0,-13.07 -2.48,-25.27 -7.44,-36.52 -4.96,-11.35 -11.63,-21.27 -20.03,-29.66 -8.39,-8.49 -18.21,-15.16 -29.46,-20.22 -11.26,-4.96 -23.37,-7.44 -36.34,-7.44 -12.96,0 -25.07,2.48 -36.33,7.44 -11.25,5.06 -21.07,11.73 -29.46,20.22 -8.4,8.39 -15.07,18.31 -20.03,29.66 -4.96,11.25 -7.44,23.45 -7.44,36.52 0,12.68 2.48,24.7 7.44,35.95 4.96,11.35 11.63,21.26 20.03,29.66 8.39,8.48 18.21,15.16 29.46,20.21 11.26,4.96 23.37,7.44 36.33,7.44z"/>
  <path id="28" class="fil6" d="M5844.38 5614.66c6.87,0.38 14.21,2.2 22.03,5.44 7.82,3.24 15.16,8.3 22.03,15.16 6.96,6.87 12.59,15.64 16.97,26.32 4.39,10.68 6.58,23.65 6.58,38.91 0,15.64 -2.29,28.89 -6.86,39.76 -4.58,10.87 -10.3,19.65 -17.17,26.32 -6.86,6.68 -14.3,11.54 -22.31,14.59 -8.01,3.05 -15.45,4.58 -22.32,4.58l-142.46 0c-13.74,-0.38 -27.28,-2.29 -40.63,-5.72 -13.35,-3.44 -25.36,-8.78 -36.04,-16.02 -10.68,-7.25 -19.36,-16.21 -26.04,-26.89 -6.67,-10.68 -10.01,-23.27 -10.01,-37.77l58.93 0c0,6.2 2.77,11.16 8.3,14.88 5.53,3.72 11.73,6.48 18.4,8.2 6.68,1.72 12.88,2.96 18.6,3.53 5.82,0.57 8.68,0.86 8.68,0.86l141.13 0c7.25,-0.77 10.87,-9.44 10.87,-26.04 0,-5.81 -0.48,-10.49 -1.43,-14.21 -0.95,-3.62 -2.1,-6.38 -3.43,-8.29 -1.34,-2 -2.58,-3.24 -3.72,-3.82 -1.15,-0.57 -1.91,-0.85 -2.29,-0.85l-141.32 0c-13.74,0 -27.28,-1.72 -40.63,-5.15 -13.35,-3.44 -25.36,-8.68 -36.04,-15.74 -10.68,-7.05 -19.36,-15.92 -26.04,-26.6 -6.67,-10.68 -10.01,-23.46 -10.01,-38.34 0,-16.02 4.1,-29.75 12.3,-41.19 8.2,-11.45 18.6,-20.6 31.18,-27.47 -9.53,-11.44 -16.97,-24.31 -22.31,-38.62 -5.34,-14.3 -8.01,-29.46 -8.01,-45.49 0,-18.3 3.43,-35.47 10.3,-51.49 6.87,-16.02 16.31,-30.04 28.32,-42.05 12.02,-12.02 25.94,-21.46 41.77,-28.33 15.83,-6.86 32.9,-10.29 51.21,-10.29l2.29 0 148.19 0 0 58.93 -40.06 0c6.87,10.68 12.21,22.22 16.02,34.61 3.82,12.4 5.73,25.27 5.73,38.62 0,17.55 -3.25,34.14 -9.73,49.78 -6.49,15.64 -15.35,29.28 -26.42,40.91 -11.06,11.64 -24.31,21.08 -39.57,28.32 -15.26,7.25 -31.56,11.45 -48.73,12.59l-8.1 0 -61.89 0c-6.2,1.91 -11.64,4.58 -16.4,8.01 -4.77,3.43 -7.16,7.82 -7.16,13.16 0,6.49 2.77,11.44 8.3,14.88 5.53,3.43 11.54,6.1 18.12,8.01 6.48,1.91 12.59,3.05 18.31,3.43 5.72,0.38 8.58,0.57 8.58,0.57l143.99 0zm-111.47 -252.89c-9.92,0 -19.36,1.91 -28.32,5.72 -8.97,3.81 -16.69,9.06 -23.18,15.73 -6.48,6.68 -11.63,14.5 -15.45,23.46 -3.81,8.97 -5.72,18.41 -5.72,28.32 0,9.92 1.91,19.36 5.72,28.33 3.82,8.96 8.97,16.68 15.45,23.17 6.49,6.48 14.21,11.63 23.18,15.45 8.96,3.81 18.4,5.72 28.32,5.72 10.3,0 19.83,-1.91 28.61,-5.72 8.77,-3.82 16.49,-8.97 23.17,-15.45 6.67,-6.49 11.92,-14.21 15.73,-23.17 3.82,-8.97 5.72,-18.41 5.72,-28.33 0,-9.91 -1.9,-19.35 -5.72,-28.32 -3.81,-8.96 -9.06,-16.78 -15.73,-23.46 -6.68,-6.67 -14.4,-11.92 -23.17,-15.73 -8.78,-3.81 -18.31,-5.72 -28.61,-5.72z"/>
  <path id="29" class="fil6" d="M6265.01 5302.26l0 171.08c0,22.89 -5.34,43.87 -15.92,62.94 -10.59,19.07 -24.89,34.52 -43.01,46.34 -10.68,6.87 -22.03,12.21 -34.23,16.02 -12.12,3.82 -24.89,5.72 -38.15,5.72 -13.25,0 -26.03,-1.9 -38.14,-5.72 -12.21,-3.81 -23.56,-9.15 -34.24,-16.02 -17.73,-11.82 -31.94,-27.27 -42.72,-46.34 -10.77,-19.07 -16.21,-40.05 -16.21,-62.94l0 -171.08 58.93 0 0 61.8 0 109.28c0,9.92 1.91,19.26 5.72,28.04 3.82,8.77 8.87,16.4 15.36,22.88 6.48,6.49 14.21,11.64 23.07,15.45 8.97,3.81 18.31,5.72 28.23,5.72 9.92,0 19.17,-1.91 27.94,-5.72 8.68,-3.81 16.4,-8.96 23.08,-15.45 6.67,-6.48 11.82,-14.11 15.64,-22.88 3.81,-8.78 5.72,-18.12 5.72,-28.04l0 -109.28 0 -61.8 58.93 0z"/>
  <path id="30" class="fil6" d="M6498.74 5301.69c20.98,0 40.62,4.01 59.12,12.02 18.41,8.01 34.62,18.88 48.54,32.61 13.92,13.73 24.79,29.94 32.8,48.63 8.01,18.69 12.02,38.53 12.02,59.51l0 148.19 -58.93 0 0 -27.75c-12.97,9.82 -27.28,17.54 -42.91,23.27 -15.64,5.62 -32.43,8.48 -50.36,8.48 -20.97,0 -40.71,-4 -59.21,-12.01 -18.5,-8.01 -34.62,-18.88 -48.35,-32.62 -13.73,-13.73 -24.6,-29.84 -32.61,-48.34 -8.01,-18.5 -12.02,-38.24 -12.02,-59.22 0,-20.98 4.01,-40.82 12.02,-59.51 8.01,-18.69 18.78,-34.9 32.51,-48.63 13.74,-13.73 29.85,-24.6 48.26,-32.61 18.5,-8.01 38.14,-12.02 59.12,-12.02zm0.28 246.03c12.97,0 25.08,-2.48 36.34,-7.44 11.25,-5.05 21.07,-11.73 29.46,-20.21 8.4,-8.4 15.07,-18.31 20.03,-29.66 4.96,-11.25 7.44,-23.27 7.44,-35.95 0,-13.07 -2.48,-25.27 -7.44,-36.52 -4.96,-11.35 -11.63,-21.27 -20.03,-29.66 -8.39,-8.49 -18.21,-15.16 -29.46,-20.22 -11.26,-4.96 -23.37,-7.44 -36.34,-7.44 -12.96,0 -25.07,2.48 -36.33,7.44 -11.25,5.06 -21.07,11.73 -29.46,20.22 -8.4,8.39 -15.07,18.31 -20.03,29.66 -4.96,11.25 -7.44,23.45 -7.44,36.52 0,12.68 2.48,24.7 7.44,35.95 4.96,11.35 11.63,21.26 20.03,29.66 8.39,8.48 18.21,15.16 29.46,20.21 11.26,4.96 23.37,7.44 36.33,7.44z"/>
  <path id="31" class="fil6" d="M6908.69 5463.61c5.34,7.63 9.54,15.93 12.59,24.89 3.05,8.97 4.38,18.41 4,28.32 -0.38,12.59 -3.24,24.23 -8.58,34.91 -5.34,10.68 -12.4,20.02 -21.17,28.03 -8.77,8.01 -19.07,14.21 -30.9,18.6 -11.82,4.38 -24.22,6.39 -37.19,6 -18.31,-0.76 -34.8,-5.53 -49.49,-14.3 -14.68,-8.77 -25.84,-20.41 -33.47,-34.9l49.21 -34.33c1.9,6.86 6.1,12.68 12.58,17.45 6.49,4.77 14.12,7.15 22.89,7.15 9.92,0.38 18.59,-2.38 26.03,-8.29 7.44,-5.92 11.16,-13.26 11.16,-22.03 0,-2.67 -0.19,-4.58 -0.57,-5.72l0 -1.15c-0.38,-0.76 -0.57,-1.43 -0.57,-2 0,-0.57 -0.2,-1.24 -0.58,-2 -2.67,-6.49 -7.63,-11.83 -14.87,-16.02 -1.15,-0.77 -2.86,-1.53 -5.15,-2.29l0.57 -0.57c-5.34,-3.06 -11.25,-6.01 -17.74,-8.87 -6.48,-2.86 -13.06,-5.92 -19.74,-9.16 -6.67,-3.24 -13.25,-6.67 -19.74,-10.3 -6.48,-3.62 -12.58,-7.91 -18.31,-12.87l0 -0.57 -1.71 -1.72c-8.01,-7.63 -14.31,-16.5 -18.88,-26.6 -4.58,-10.11 -6.68,-20.89 -6.3,-32.33 0.38,-11.44 3.05,-22.13 8.01,-32.04 4.96,-9.92 11.54,-18.5 19.74,-25.75 8.2,-7.25 17.83,-12.97 28.9,-17.16 11.06,-4.2 22.88,-6.11 35.47,-5.73 16.4,0.77 31.18,4.77 44.34,12.02 13.16,7.25 23.56,16.97 31.19,29.18l-48.07 33.18c-2.28,-4.19 -6,-7.81 -11.15,-10.87 -5.15,-3.05 -10.97,-4.57 -17.45,-4.57 -8.78,-0.39 -16.31,1.71 -22.6,6.29 -6.3,4.58 -9.44,10.11 -9.44,16.59 0,1.91 0.19,3.24 0.57,4.01 0.76,4.19 2.67,7.82 5.72,10.87 3.05,3.05 6.86,5.53 11.44,7.44 7.25,4.19 15.55,8.48 24.89,12.87 9.35,4.39 18.79,9.25 28.32,14.59 6.87,3.05 13.73,7.44 20.6,13.16l2.86 2.86c3.82,3.43 8.01,8.01 12.59,13.73z"/>
 </g>
</svg>
