<?xml version="1.0" encoding="UTF-8"?>
<!DOCTYPE svg PUBLIC "-//W3C//DTD SVG 1.1//EN" "http://www.w3.org/Graphics/SVG/1.1/DTD/svg11.dtd">
<!-- Creator: CorelDRAW 2018 (64 Bit) -->
<svg xmlns="http://www.w3.org/2000/svg" xml:space="preserve" width="108.373mm" height="67.7332mm" version="1.1" style="shape-rendering:geometricPrecision; text-rendering:geometricPrecision; image-rendering:optimizeQuality; fill-rule:evenodd; clip-rule:evenodd"
viewBox="0 0 10837.32 6773.32"
 xmlns:xlink="http://www.w3.org/1999/xlink">
 <defs>
  <style type="text/css">
   <![CDATA[
    .fil3 {fill:#1A1A1A}
    .fil2 {fill:#45407A}
    .fil4 {fill:#555BAD}
    .fil0 {fill:#6379BF}
    .fil7 {fill:#749BF0}
    .fil9 {fill:#7A4040}
    .fil5 {fill:#98B3F2}
    .fil11 {fill:#AD5555}
    .fil12 {fill:#BF6464}
    .fil6 {fill:#C8CFFA}
    .fil8 {fill:#F07575}
    .fil10 {fill:#F29999}
    .fil13 {fill:#FAC8C8}
    .fil1 {fill:white}
    .fil16 {fill:#E6E6E6;fill-rule:nonzero}
    .fil15 {fill:white;fill-rule:nonzero}
    .fil14 {fill:url(#id0);fill-rule:nonzero}
   ]]>
  </style>
  <linearGradient id="id0" gradientUnits="userSpaceOnUse" x1="2768.84" y1="2285.68" x2="8777.71" y2="2285.68">
   <stop offset="0" style="stop-opacity:1; stop-color:white"/>
   <stop offset="1" style="stop-opacity:1; stop-color:#CFCFCF"/>
  </linearGradient>
 </defs>
 <g id="Camada_x0020_1">
  <metadata id="CorelCorpID_0Corel-Layer"/>
  <g id="_3093097010464">
   <polygon class="fil0" points="721.71,2284.97 1161.57,2939.7 1115.28,2281.14 "/>
   <path class="fil1" d="M736.73 2292.9l371.04 -3.64 43.66 620.86 -414.7 -617.22zm386.57 -12.31c-0.32,-4.22 -4.06,-7.67 -8.12,-7.48l-393.53 3.81c-3,0.02 -5.71,1.71 -7.06,4.28 -1.38,2.61 -1.22,5.83 0.46,8.28l439.82 654.7c1.32,1.96 3.39,3.19 5.61,3.51 0.06,0 0.12,0 0.22,0 4.39,0.61 8.67,-2.42 9.25,-6.83 0.2,-1.42 0,-2.86 -0.49,-4.13l-46.16 -656.14z"/>
   <polygon class="fil2" points="1161.57,2939.7 1266.55,2360.17 1115.28,2281.14 "/>
   <path class="fil3" d="M1165.12 2875.03l-40.79 -580.08 133.23 69.64 -92.44 510.44zm-46.14 -601.02c-2.54,-1.35 -5.74,-1.16 -8.12,0.42 -2.45,1.58 -3.83,4.39 -3.64,7.32l46.3 658.5c0.33,3.83 3.22,6.92 6.96,7.44 0.22,0 0.42,0.03 0.67,0 4.07,0.26 7.61,-2.58 8.35,-6.61l104.98 -579.46c0.64,-3.45 -1.07,-6.93 -4.23,-8.57l-151.27 -79.04z"/>
   <polygon class="fil4" points="490.6,2621.28 1161.57,2939.7 721.71,2284.97 "/>
   <path class="fil3" d="M502.62 2618.02l219.03 -318.71 416.92 620.51 -635.95 -301.8zm225.8 -337.53c-1.52,-2.22 -3.9,-3.57 -6.68,-3.57 -2.67,-0.04 -5.15,1.25 -6.67,3.48l-231.1 336.33c-1.33,1.94 -1.78,4.42 -1.17,6.64 0.65,2.28 2.19,4.19 4.36,5.15l670.97 318.46c0.74,0.36 1.54,0.61 2.35,0.71 2.64,0.35 5.38,-0.68 7.21,-2.74 2.39,-2.74 2.59,-6.7 0.55,-9.73l-439.82 -654.73z"/>
   <polygon class="fil5" points="593.93,2180.74 721.71,2284.97 1115.28,2281.14 974.67,2129.57 "/>
   <path class="fil3" d="M724.54 2276.85l-111.12 -90.57 358.18 -48.13 125.37 135.12 -372.43 3.58zm256.02 -152.75c-1.77,-1.91 -4.44,-2.84 -6.96,-2.48l-380.74 51.16c-3.21,0.42 -5.82,2.71 -6.69,5.8 -0.88,3.06 0.15,6.41 2.67,8.44l127.78 104.2c1.17,0.93 2.52,1.54 4,1.74 0.38,0.07 0.8,0.07 1.16,0.03l393.56 -3.77c3.19,-0.06 6.06,-1.99 7.34,-4.9 1.23,-2.86 0.68,-6.34 -1.51,-8.66l-140.61 -151.56z"/>
   <polygon class="fil6" points="346.71,2494.14 490.6,2621.28 721.71,2284.97 593.93,2180.74 "/>
   <path class="fil3" d="M489.12 2609.26l-131.36 -116.12 237.4 -301 115.69 94.41 -221.73 322.71zm109.87 -434.77c-1.62,-1.35 -3.87,-1.96 -5.96,-1.74 -2.16,0.22 -4.13,1.36 -5.45,3l-247.18 313.39c-2.68,3.42 -2.23,8.22 0.96,11.03l143.9 127.16c1.22,1.04 2.7,1.71 4.24,1.94 0.68,0.09 1.39,0.13 2.09,0.03 2.3,-0.26 4.36,-1.58 5.65,-3.45l231.14 -336.3c2.36,-3.45 1.68,-8.16 -1.58,-10.83l-127.81 -104.23z"/>
   <polygon class="fil7" points="487.03,2895.33 1161.57,2939.7 490.6,2621.28 "/>
   <path class="fil3" d="M495.21 2887.73l3.29 -253.82 621.51 295 -624.8 -41.18zm-1.16 -273.74c-2.48,-1.16 -5.35,-1.06 -7.7,0.48 -2.32,1.46 -3.77,4.01 -3.81,6.71l-3.57 274.05c-0.03,4.07 3,7.51 6.96,8.1 0.19,0.02 0.39,0.02 0.58,0l674.55 44.36c3.86,0.29 7.34,-2.22 8.31,-5.96 0.97,-3.73 -0.87,-7.67 -4.35,-9.32l-670.97 -318.42z"/>
   <polygon class="fil5" points="381.48,2751.22 487.03,2895.33 490.6,2621.28 346.71,2494.14 "/>
   <path class="fil3" d="M479.29 2871.14l-90.09 -123.08 -31.6 -233.53 124.88 110.32 -3.19 246.29zm-127.23 -383.03c-2.55,-2.26 -6.19,-2.7 -9.12,-1.06 -3,1.58 -4.64,4.87 -4.22,8.18l34.79 257.02c0.19,1.39 0.68,2.57 1.49,3.71l105.55 144.11c1.29,1.8 3.28,2.94 5.38,3.26 1.16,0.12 2.39,0.06 3.57,-0.36 3.33,-1.06 5.55,-4.06 5.57,-7.57l3.58 -274.03c0.07,-2.35 -0.96,-4.58 -2.7,-6.09l-143.89 -127.17z"/>
   <polygon class="fil0" points="974.67,2129.57 1115.28,2281.14 1266.55,2360.17 1155.01,2223.33 "/>
   <path class="fil1" d="M1120.24 2274.66l-108.1 -116.47 137.68 71.46 85.73 105.23 -115.31 -60.22zm40.98 -56.41c-0.68,-0.88 -1.55,-1.58 -2.52,-2.1l-180.33 -93.7c-3.41,-1.77 -7.66,-0.83 -10.12,2.26 -2.35,3.09 -2.15,7.51 0.52,10.34l140.61 151.57c0.58,0.7 1.35,1.25 2.16,1.7l151.3 79.03c0.84,0.39 1.71,0.65 2.61,0.78 0.07,0 0.16,0.03 0.22,0.03 4.19,0.75 8.64,-2.35 9.25,-6.86 0.45,-3.03 -0.9,-5.9 -3.25,-7.61l-110.45 -135.44z"/>
   <polygon class="fil8" points="626.03,1685.62 1409.57,2798.22 1215.45,1852.23 "/>
   <path class="fil3" d="M645.67 1699.58l562.85 159.1 185.39 903.33 -748.24 -1062.43zm577.64 151.11c-0.58,-2.97 -2.81,-5.36 -5.68,-6.22l-589.42 -166.64c-3.32,-0.68 -6.77,0.35 -8.76,3.12 -1.96,2.8 -1.96,6.55 0,9.35l783.51 1112.6c1.36,1.83 3.35,2.99 5.48,3.31 0.06,0 0.13,0 0.23,0 4.19,0.23 8.67,-2.34 9.28,-6.83 0.25,-1.83 -0.13,-3.57 -0.97,-5.02l-193.67 -943.67z"/>
   <polygon class="fil9" points="1409.57,2798.22 1914.77,1948.57 1215.45,1852.23 "/>
   <path class="fil3" d="M1413.24 2776.22l-187.61 -914.46 676.03 93.13 -488.42 821.33zm502.63 -835.61l-699.33 -96.37c-2.57,-0.32 -5.18,0.58 -6.96,2.51 -1.8,1.91 -2.54,4.58 -2.03,7.12l194.12 946c0.68,3.25 3.29,5.77 6.54,6.28 0.1,0.04 0.17,0.04 0.23,0.06 3.22,0.45 6.38,-1.03 8.06,-3.86l505.2 -849.63c1.35,-2.32 1.51,-5.19 0.32,-7.66 -1.16,-2.39 -3.45,-4.13 -6.15,-4.45z"/>
   <polygon class="fil10" points="626.03,1685.62 1215.45,1852.23 1282.43,1597.34 835.93,1431.29 "/>
   <path class="fil3" d="M1209.74 1842.25l-569.64 -160.97 198.41 -240.49 434.29 161.58 -63.06 239.88zm75.52 -252.45l-446.5 -166.06c-3.38,-1.28 -6.89,-0.25 -9.05,2.45l-209.9 254.31c-1.71,2.13 -2.26,4.96 -1.49,7.57 0.81,2.58 2.9,4.58 5.5,5.32l589.44 166.64c0.35,0.09 0.7,0.16 1.09,0.23 1.74,0.19 3.51,-0.1 5.09,-1.01 1.87,-1.06 3.22,-2.83 3.77,-4.93l67.02 -254.88c1.06,-4.06 -1.13,-8.15 -4.97,-9.64z"/>
   <polygon class="fil8" points="1282.43,1597.34 1215.45,1852.23 1914.77,1948.57 1840.12,1674.15 "/>
   <path class="fil3" d="M1225.57 1845.53l62.85 -239.23 545.35 75.13 70.05 257.5 -678.25 -93.4zm622.35 -173.47c-0.87,-3.09 -3.48,-5.41 -6.67,-5.9l-557.69 -76.81c-4.06,-0.54 -7.9,2.07 -8.89,5.97l-67.02 254.91c-0.59,2.19 -0.19,4.61 1.06,6.48 1.3,1.97 3.35,3.22 5.64,3.55l699.32 96.3c2.68,0.38 5.36,-0.61 7.16,-2.64 1.77,-2.07 2.42,-4.83 1.74,-7.48l-74.65 -274.38z"/>
   <polygon class="fil11" points="1409.57,2798.22 2388.27,1928.36 1914.77,1948.57 "/>
   <path class="fil3" d="M1443.01 2757.73l476.46 -801.27 446.53 -19.1 -922.99 820.37zm944.91 -837.42l-473.51 20.2c-2.7,0.16 -5.18,1.64 -6.57,3.94l-505.2 849.65c-2.06,3.45 -1.29,7.83 1.77,10.32 1.19,0.99 2.61,1.57 4.03,1.79 2.29,0.32 4.64,-0.35 6.48,-2l978.7 -869.86c2.54,-2.25 3.38,-5.86 2.13,-9.05 -1.29,-3.09 -4.19,-5.12 -7.83,-4.99z"/>
   <polygon class="fil12" points="1840.12,1674.15 1914.77,1948.57 2388.27,1928.36 2234.36,1591.99 "/>
   <path class="fil3" d="M1920.83 1940.25l-70.69 -259.94 379.55 -79.1 146.28 319.58 -455.14 19.46zm320.88 -351.61c-1.58,-3.41 -5.39,-5.31 -9,-4.54l-394.24 82.23c-2.15,0.44 -4.05,1.8 -5.18,3.63 -1.19,1.91 -1.52,4.19 -0.94,6.32l74.66 274.38c0.83,3.19 3.5,5.45 6.66,5.9 0.46,0.06 0.94,0.12 1.46,0.06l473.49 -20.2c2.68,-0.1 5.09,-1.54 6.54,-3.8 1.36,-2.32 1.55,-5.16 0.42,-7.61l-153.87 -336.37z"/>
   <polygon class="fil13" points="1148.17,1285.94 835.93,1431.29 1282.43,1597.34 1840.12,1674.15 2234.36,1591.99 1879.72,1386.69 "/>
   <path class="fil3" d="M1839.86 1665.97l-554.6 -76.17 -428.41 -159.39 292.55 -136.15 727.68 100.19 335.02 194 -372.24 77.52zm43.89 -286.2c-0.87,-0.55 -1.9,-0.91 -2.91,-1.03l-731.57 -100.79c-1.52,-0.19 -3.1,0.04 -4.51,0.74l-312.24 145.28c-2.9,1.35 -4.74,4.35 -4.64,7.6 0.12,3.26 2.22,6.09 5.25,7.25l448.2 166.48 557.69 76.85c0.94,0.12 1.84,0.12 2.78,-0.07l394.24 -82.22c3.25,-0.62 5.76,-3.26 6.27,-6.58 0.52,-3.28 -1.03,-6.6 -3.89,-8.25l-354.67 -205.26z"/>
   <polygon class="fil11" points="1359.53,3210.66 2332.95,3278.2 2266.29,2859.06 "/>
   <path class="fil3" d="M1396.1 3205.16l863.81 -334.99 63.5 399.3 -927.31 -64.31zm874.21 -353.03c-2.09,-1.25 -4.64,-1.42 -6.92,-0.58l-906.75 351.58c-3.52,1.35 -5.62,5.02 -5.1,8.76 0.59,3.51 3.38,6.25 6.9,6.74 0.19,0.02 0.35,0.06 0.54,0.09l973.39 67.53c2.45,0.16 4.83,-0.77 6.51,-2.61 1.68,-1.77 2.42,-4.28 2,-6.7l-66.63 -419.14c-0.36,-2.42 -1.85,-4.51 -3.94,-5.67z"/>
   <polygon class="fil9" points="1359.53,3210.66 2266.29,2859.06 1896.95,2399.41 "/>
   <path class="fil3" d="M1380.25 3194l517.35 -780.95 355.51 442.46 -872.86 338.49zm522.99 -799.61c-1.61,-2.03 -3.97,-3.23 -6.67,-3.04 -2.55,0.1 -4.9,1.43 -6.32,3.58l-537.45 811.28c-1.9,2.94 -1.74,6.77 0.48,9.48 1.32,1.65 3.16,2.67 5.16,2.94 1.35,0.19 2.7,0.06 4.02,-0.49l906.73 -351.57c2.45,-0.95 4.22,-2.91 4.9,-5.42 0.64,-2.45 0.09,-5.12 -1.52,-7.15l-369.33 -459.61z"/>
   <polygon class="fil8" points="1359.53,3210.66 1896.95,2399.41 1507.64,2313.39 "/>
   <path class="fil3" d="M1373.62 3174.83l140.6 -851.68 369.55 81.55 -510.15 770.13zm525.08 -783.31l-389.31 -85.96c-2.07,-0.61 -4.39,-0.1 -6.26,1.19 -1.83,1.26 -3.06,3.19 -3.41,5.35l-148.14 897.27c-0.59,3.71 1.48,7.36 5.02,8.8 0.61,0.23 1.22,0.39 1.84,0.46 3.03,0.38 6.05,-0.91 7.82,-3.52l537.43 -811.25c1.45,-2.26 1.7,-5 0.74,-7.47 -1,-2.49 -3.16,-4.26 -5.73,-4.87z"/>
   <polygon class="fil8" points="1896.95,2399.41 2266.29,2859.06 2452.26,2668.38 2151.71,2296.22 "/>
   <path class="fil3" d="M2266.9 2846.94l-356.9 -444.14 239.2 -96.82 292.3 361.91 -174.6 179.05zm-108.91 -555.75c-2.21,-2.71 -5.99,-3.77 -9.3,-2.45l-254.76 103.2c-2.36,0.97 -4.17,2.99 -4.78,5.44 -0.64,2.49 -0.09,5.1 1.52,7.06l369.33 459.68c1.33,1.63 3.16,2.64 5.19,2.93 0.26,0.03 0.46,0.06 0.71,0.09 2.32,0.04 4.54,-0.78 6.15,-2.48l185.98 -190.67c2.86,-2.9 3.06,-7.51 0.48,-10.67l-300.52 -372.13z"/>
   <polygon class="fil12" points="2266.29,2859.06 2332.95,3278.2 2501.87,3048.89 2452.26,2668.38 "/>
   <path class="fil3" d="M2337.88 3257.9l-62.99 -396.1 171.51 -175.9 47.07 360.83 -155.59 211.17zm116.92 -597.18c-2.93,-0.97 -6.15,-0.17 -8.31,2.02l-185.97 190.71c-1.77,1.84 -2.58,4.38 -2.19,6.86l66.66 419.14c0.49,3.25 2.9,5.8 6.02,6.61 0.29,0.03 0.55,0.06 0.84,0.12 2.91,0.4 5.8,-0.76 7.57,-3.18l168.93 -229.31c1.23,-1.67 1.74,-3.8 1.52,-5.83l-49.62 -380.48c-0.42,-3.09 -2.54,-5.67 -5.45,-6.66z"/>
   <polygon class="fil13" points="1507.64,2313.39 1896.95,2399.41 2151.71,2296.22 1766.72,2197.43 "/>
   <path class="fil3" d="M1896.24 2390.97l-363.04 -80.16 234.26 -104.81 358.54 91.95 -229.76 93.02zm257.47 -102.52l-384.99 -98.78c-1.77,-0.46 -3.61,-0.33 -5.29,0.47l-259.04 115.93c-3.18,1.39 -5.12,4.7 -4.74,8.12 0.33,3.48 2.87,6.32 6.26,7.09l389.31 85.97c0.19,0.09 0.41,0.12 0.64,0.15 1.38,0.19 2.8,0 4.12,-0.55l254.8 -103.16c3.19,-1.29 5.21,-4.54 4.99,-8.02 -0.23,-3.45 -2.68,-6.41 -6.06,-7.22z"/>
  </g>
  <path class="fil14" d="M3361.77 3267.88c-137.28,0 -270.54,-21.54 -399.42,-65.35 -129.25,-43.45 -193.51,-115.74 -193.51,-216.87 0,-101.5 25.2,-173.43 75.95,-216.14 223.8,99.67 384.45,146.04 481.57,139.1 97.48,-7.3 146.04,-32.13 146.04,-74.85 0,-42.35 -25.93,-75.57 -78.14,-100.03 -51.84,-24.83 -124.5,-52.21 -217.6,-82.88 -93.1,-30.67 -151.15,-57.69 -174.88,-80.32 -108.43,-71.93 -160.64,-178.9 -156.99,-320.2 3.28,-141.66 50.38,-255.21 140.93,-341 88.35,-83.98 201.9,-127.79 340.27,-131.44 138.37,-3.65 313.99,44.91 527.21,145.31 -36.15,213.22 -108.44,305.59 -216.14,277.11 -283.69,-101.13 -422.06,-104.42 -414.76,-9.49 0,37.6 25.56,70.46 76.31,97.85 51.11,27.38 123.04,57.32 215.41,89.81 92.73,32.5 151.88,57.32 176.71,74.48 102.59,81.06 154.07,194.97 154.07,341.74 0,146.4 -47.1,262.51 -141.29,347.94 -90.55,83.61 -204.46,125.23 -341.74,125.23zm1004.03 -190.22c0,123.77 -70.83,185.84 -211.76,185.84l-211.76 0 0 -1257.78c0,-124.13 70.47,-186.2 211.76,-186.2l211.76 0 0 1258.14zm-190.22 -1778.41c-52.94,11.68 -96.75,45.64 -131.07,102.23 -33.95,56.23 -65.35,117.2 -93.47,182.19 -28.11,65.35 -18.25,116.1 29.58,152.61l82.15 82.15c119.75,-89.82 205.18,-155.9 255.57,-198.98 50.75,-42.72 73.75,-92.74 68.64,-150.79 -5.12,-57.69 -28.12,-103.33 -69.37,-136.91 -41.63,-33.23 -88.72,-44.18 -142.03,-32.5zm1073.41 1964.25l-543.27 0c-141.31,0 -211.77,-62.07 -211.77,-185.84l0 -1258.14 211.77 0c140.93,0 211.76,62.07 211.76,186.2l0 917.87 464.04 0 0 170.14c0,113.18 -44.18,169.77 -132.53,169.77zm663.39 -185.84c0,123.77 -70.83,185.84 -211.76,185.84l-211.76 0 0 -1257.78c0,-124.13 70.46,-186.2 211.76,-186.2l211.76 0 0 1258.14zm1431.93 -73.38c0,51.84 -40.89,109.89 -123.04,174.88 -81.78,64.99 -233.66,97.48 -455.64,97.48 -221.62,0 -404.18,-69 -547.66,-207.01 -143.12,-138.01 -214.68,-318.73 -214.68,-541.81 0,-223.44 71.19,-404.17 213.95,-542.91 142.38,-138.74 326.41,-208.11 551.31,-208.11 224.9,0 377.15,32.5 456.74,97.49 79.23,64.62 119.02,123.04 119.02,174.88 0,51.48 -17.16,97.48 -51.11,138.01 -34.32,40.16 -71.93,60.24 -112.82,60.24 -41.25,0 -105.88,-15.7 -194.96,-47.1 -88.72,-31.4 -155.17,-47.1 -199.35,-47.1 -239.5,0 -359.27,124.5 -359.27,373.5 0,248.64 119.77,373.14 359.27,373.14 44.18,0 110.63,-15.7 199.35,-47.1 89.08,-31.4 153.71,-47.1 194.96,-47.1 40.89,0 78.5,20.45 112.82,60.61 33.95,40.16 51.11,86.16 51.11,138.01zm853.61 -337.36l-91.64 -250.46 -92.01 250.46 183.65 0zm-309.97 342.1l-40.89 109.17c-36.15,97.11 -96.03,145.31 -178.9,145.31 -83.25,0 -142.76,-25.19 -178.54,-76.31 -36.14,-51.11 -54.03,-96.75 -54.03,-137.64 0,-40.53 8.76,-80.32 26.65,-119.75l506.03 -1110.28 136.91 0c91.28,0 158.46,48.56 201.9,145.68l442.88 964.6c18.62,40.16 27.75,80.32 27.75,120.84 0,40.9 -17.53,86.53 -52.21,136.92 -35.05,50.75 -94.93,75.94 -179.27,75.94 -84.33,0 -144.94,-48.2 -181.45,-145.31l-40.53 -109.17 -436.3 0z"/>
  <path class="fil15" d="M9539.18 2422.11l48.33 0 -159.2 700.76 -69.65 0 -100.92 -568.57 -100.92 568.57 -71.07 0 -157.78 -700.76 48.33 0 143.56 636.8 113.72 -636.8 0 0 46.9 0 1.43 0 113.71 636.8 143.56 -636.8zm378.1 311.29c-8.53,2.85 -22.74,8.29 -42.64,16.35 -19.9,8.05 -41.46,16.34 -64.67,24.87 -23.22,8.53 -45.73,17.06 -67.52,25.59 -21.8,8.53 -38.85,14.69 -51.17,18.48l0 120.82c0,19.9 3.79,38.61 11.37,56.14 7.58,17.54 17.77,32.7 30.56,45.49 12.79,12.79 27.95,22.98 45.48,30.56 17.54,7.58 36.25,11.37 56.15,11.37 19.9,0 38.62,-3.79 56.15,-11.37 17.53,-7.58 32.69,-17.77 45.48,-30.56 12.79,-12.79 22.98,-27.95 30.56,-45.49 7.58,-17.53 11.37,-36.24 11.37,-56.14l46.91 0c0,26.53 -4.97,51.41 -14.92,74.62 -9.95,23.22 -23.46,43.36 -40.51,60.41 -17.06,17.06 -37.2,30.56 -60.42,40.51 -23.21,9.95 -48.09,14.93 -74.62,14.93 -26.53,0 -51.41,-4.98 -74.62,-14.93 -23.22,-9.95 -43.36,-23.45 -60.41,-40.51 -17.06,-17.05 -30.57,-37.19 -40.52,-60.41 -9.95,-23.21 -14.92,-48.09 -14.92,-74.62l0 -334.04c0,-26.53 4.97,-51.4 14.92,-74.62 9.95,-23.22 23.46,-43.35 40.52,-60.41 17.05,-17.06 37.19,-30.56 60.41,-40.51 23.21,-9.95 48.09,-14.93 74.62,-14.93 26.53,0 51.41,4.98 74.62,14.93 23.22,9.95 43.36,23.45 60.42,40.51 17.05,17.06 30.56,37.19 40.51,60.41 9.95,23.22 14.92,47.62 14.92,73.2l0 1.42c0,58.76 -36.01,101.4 -108.03,127.93zm-82.44 -271.49c-19.9,0 -38.61,3.79 -56.15,11.37 -17.53,7.58 -32.69,17.77 -45.48,30.56 -12.79,12.8 -22.98,27.96 -30.56,45.49 -7.58,17.53 -11.37,36.24 -11.37,56.14l0 163.47c14.21,-5.69 31.74,-12.56 52.59,-20.61 20.85,-8.06 41.69,-15.88 62.54,-23.46 20.85,-7.58 40.04,-14.68 57.57,-21.32 17.53,-6.63 30.09,-11.37 37.67,-14.21 17.05,-6.63 34.11,-16.58 51.17,-29.85 17.06,-13.27 25.58,-31.75 25.58,-55.44 0,-19.9 -3.79,-38.38 -11.37,-55.43 -7.58,-17.06 -17.77,-31.98 -30.56,-44.78 -12.79,-12.79 -27.95,-22.98 -45.48,-30.56 -17.53,-7.58 -36.25,-11.37 -56.15,-11.37zm473.34 -46.91c26.53,0 51.41,4.98 74.62,14.93 23.22,9.95 43.36,23.45 60.42,40.51 17.05,17.06 30.56,37.19 40.51,60.41 9.95,23.22 14.92,48.09 14.92,74.62l0 334.04c0,26.53 -4.97,51.41 -14.92,74.62 -9.95,23.22 -23.46,43.36 -40.51,60.41 -17.06,17.06 -37.2,30.56 -60.42,40.51 -23.21,9.95 -48.09,14.93 -74.62,14.93 -28.43,0 -54.96,-5.92 -79.6,-17.77 -24.64,-11.84 -45.96,-27.72 -63.96,-47.62l0 58.28 -46.92 0 0 -183.36 0 -334.04 0 -501.76 46.92 0 0 376.68c18,-20.85 39.32,-36.96 63.96,-48.33 24.64,-11.37 51.17,-17.06 79.6,-17.06zm143.56 190.47c0,-19.9 -3.79,-38.61 -11.37,-56.14 -7.58,-17.53 -17.77,-32.69 -30.56,-45.49 -12.79,-12.79 -27.95,-22.98 -45.48,-30.56 -17.53,-7.58 -36.25,-11.37 -56.15,-11.37 -19.9,0 -38.61,3.79 -56.15,11.37 -17.53,7.58 -32.69,17.77 -45.48,30.56 -12.79,12.8 -22.98,27.96 -30.56,45.49 -7.58,17.53 -11.37,36.24 -11.37,56.14l0 334.04c0,19.9 3.79,38.61 11.37,56.14 7.58,17.54 17.77,32.7 30.56,45.49 12.79,12.79 27.95,22.98 45.48,30.56 17.54,7.58 36.25,11.37 56.15,11.37 19.9,0 38.62,-3.79 56.15,-11.37 17.53,-7.58 32.69,-17.77 45.48,-30.56 12.79,-12.79 22.98,-27.95 30.56,-45.49 7.58,-17.53 11.37,-36.24 11.37,-56.14l0 -334.04z"/>
  <g id="_3093097007840">
   <path class="fil16" d="M1807.59 4087.97c14.11,11.29 28.08,23 41.91,35.14 13.82,12.13 26.24,25.39 37.25,39.93 11,14.39 19.89,30.47 26.66,48.25 6.78,17.78 10.16,37.96 10.16,60.67 0,16.94 -3.24,32.88 -9.73,47.84 -6.49,14.95 -15.24,27.93 -26.25,39.08 -11,11.01 -23.84,19.75 -38.52,26.24 -14.67,6.49 -30.47,9.74 -47.41,9.74 -16.93,0 -32.87,-3.25 -47.83,-9.74 -14.95,-6.49 -27.93,-15.23 -38.94,-26.24 -11.01,-11.01 -19.75,-23.99 -26.24,-38.94 -6.49,-14.96 -9.74,-30.9 -9.74,-47.83l27.94 0c0,12.98 2.54,25.25 7.62,36.82 5.08,11.57 11.85,21.59 20.31,30.06 8.47,8.46 18.49,15.23 30.06,20.31 11.57,5.08 23.84,7.62 36.82,7.62 12.98,0 25.12,-2.54 36.41,-7.62 11.28,-5.08 21.16,-11.85 29.63,-20.31 8.46,-8.47 15.24,-18.49 20.32,-30.06 5.07,-11.57 7.61,-23.84 7.61,-36.82 0,-19.19 -2.96,-36.41 -8.88,-51.65 -5.93,-15.23 -13.83,-29.2 -23.71,-41.9 -9.88,-12.7 -21.16,-24.55 -33.86,-35.56 -12.7,-11 -25.82,-21.87 -39.37,-32.59 -13.54,-10.72 -26.95,-21.87 -40.21,-33.44 -13.26,-11.57 -25.12,-24.13 -35.56,-37.67 -10.44,-13.55 -18.9,-28.51 -25.39,-44.87 -6.49,-16.37 -9.74,-35.28 -9.74,-56.72 0,-16.94 3.25,-32.88 9.74,-47.84 6.49,-14.95 15.23,-27.93 26.24,-38.94 11.01,-11 23.99,-19.75 38.94,-26.24 14.96,-6.49 30.9,-9.74 47.83,-9.74 16.94,0 32.74,3.11 47.41,9.46 14.68,6.34 27.52,14.95 38.52,25.82 11.01,10.86 19.76,23.84 26.25,38.8 6.49,14.95 9.73,30.9 9.73,47.83l-27.94 0c0,-12.98 -2.54,-25.12 -7.61,-36.4 -5.08,-11.29 -11.86,-21.17 -20.32,-29.63 -8.47,-8.47 -18.35,-15.24 -29.63,-20.32 -11.29,-5.08 -23.43,-7.62 -36.41,-7.62 -12.98,0 -25.25,2.54 -36.82,7.62 -11.57,5.08 -21.59,11.85 -30.06,20.32 -8.46,8.46 -15.23,18.48 -20.31,29.77 -5.08,11.29 -7.62,23.42 -7.62,36.4 0,18.06 2.82,34.01 8.46,47.97 5.65,13.83 13.12,26.67 22.44,38.52 9.31,11.86 20.03,23 32.17,33.44 12.13,10.44 24.69,20.89 37.67,31.04zm288.68 306.89c-15.8,0 -30.62,-2.96 -44.44,-8.89 -13.83,-5.93 -25.82,-13.97 -35.98,-24.13 -10.16,-10.16 -18.2,-22.15 -24.13,-35.98 -5.93,-13.82 -8.89,-28.64 -8.89,-44.44l0 -198.95c0,-15.8 2.96,-30.62 8.89,-44.44 5.93,-13.83 13.97,-25.82 24.13,-35.98 10.16,-10.16 22.15,-18.21 35.98,-24.13 13.82,-5.93 28.64,-8.89 44.44,-8.89 15.8,0 30.62,2.96 44.45,8.89 13.82,5.92 25.82,13.97 35.98,24.13 10.16,10.16 18.2,22.15 24.12,35.98 5.93,13.82 8.89,28.64 8.89,44.44l0 198.95c0,15.8 -2.96,30.62 -8.89,44.44 -5.92,13.83 -13.96,25.82 -24.12,35.98 -10.16,10.16 -22.16,18.2 -35.98,24.13 -13.83,5.93 -28.65,8.89 -44.45,8.89zm0 -397.89c-11.85,0 -23,2.25 -33.44,6.77 -10.44,4.51 -19.47,10.58 -27.09,18.2 -7.62,7.62 -13.69,16.65 -18.2,27.09 -4.52,10.44 -6.77,21.59 -6.77,33.44l0 198.95c0,11.85 2.25,23 6.77,33.44 4.51,10.44 10.58,19.47 18.2,27.09 7.62,7.62 16.65,13.68 27.09,18.2 10.44,4.51 21.59,6.77 33.44,6.77 11.85,0 23,-2.26 33.44,-6.77 10.44,-4.52 19.47,-10.58 27.09,-18.2 7.62,-7.62 13.69,-16.65 18.2,-27.09 4.52,-10.44 6.78,-21.59 6.78,-33.44l0 -198.95c0,-11.85 -2.26,-23 -6.78,-33.44 -4.51,-10.44 -10.58,-19.47 -18.2,-27.09 -7.62,-7.62 -16.65,-13.69 -27.09,-18.2 -10.44,-4.52 -21.59,-6.77 -33.44,-6.77zm298.84 4.23l-91.43 0 0 365.72 0 23.71 0 75.34c0,15.81 -2.68,30.62 -8.04,44.45 -5.36,13.83 -12.7,25.96 -22.01,36.4 -9.32,10.44 -20.18,18.63 -32.6,24.55 -12.41,5.93 -25.68,8.89 -39.79,8.89l0 -27.94c10.16,0 19.76,-2.25 28.79,-6.77 9.03,-4.51 16.93,-10.58 23.7,-18.2 6.77,-7.62 12.14,-16.65 16.09,-27.23 3.95,-10.44 5.92,-21.59 5.92,-33.44l0 -75.49 0 -23.7 0 -366.29 0 -4.23 0 -23.71 0 -76.19c0,-15.8 2.68,-30.62 8.05,-44.45 5.36,-13.82 12.69,-25.82 22.01,-35.97 9.31,-10.16 20.17,-18.21 32.59,-24.13 12.42,-5.93 25.68,-8.89 39.79,-8.89l0 27.94c-10.16,0 -19.75,2.25 -28.78,6.77 -9.04,4.51 -16.94,10.72 -23.71,18.62 -6.77,7.9 -12.13,16.93 -16.08,27.09 -3.95,10.16 -5.93,21.17 -5.93,33.02l0 76.19 91.43 0 0 27.94zm44.87 180.32l0 99.9c0,11.85 1.97,23 5.92,33.44 3.95,10.44 9.32,19.47 16.09,27.09 6.77,7.62 14.67,13.68 23.7,18.2 9.03,4.51 18.63,6.77 28.79,6.77l0 27.94c-14.11,0 -27.38,-2.96 -39.79,-8.89 -12.42,-5.93 -23.28,-13.97 -32.6,-24.13 -9.31,-10.16 -16.65,-22.15 -22.01,-35.98 -5.36,-13.82 -8.04,-28.64 -8.04,-44.44l0 -99.9 0 -180.32 0 -27.94 0 -118.52 27.94 0 0 118.52 91.43 0 0 27.94 -91.43 0 0 180.32zm480.86 -208.26l28.78 0 -94.82 417.37 -41.48 0 -60.11 -338.64 -60.1 338.64 -42.33 0 -93.97 -417.37 28.78 0 85.51 379.27 67.72 -379.27 0 0 27.94 0 0.85 0 67.72 379.27 85.51 -379.27zm182.85 -4.23c15.81,0 30.2,2.96 43.18,8.89 12.98,5.92 24.13,13.97 33.44,24.13 9.31,10.16 16.65,22.15 22.01,35.98 5.36,13.82 8.04,28.64 8.04,44.44l0 99.05 0 99.9 0 109.21 -27.93 0 0 -34.71c-10.73,11.85 -23.43,21.3 -38.1,28.36 -14.67,7.05 -30.48,10.58 -47.41,10.58 -15.8,0 -30.62,-2.96 -44.44,-8.89 -13.83,-5.93 -25.82,-13.97 -35.98,-24.13 -10.16,-10.16 -18.2,-22.15 -24.13,-35.98 -5.93,-13.82 -8.89,-28.64 -8.89,-44.44l0 -23.71c0,-34.99 21.45,-60.39 64.34,-76.19 5.08,-2.26 13.69,-5.64 25.82,-10.16 12.14,-4.51 25.12,-9.45 38.94,-14.81 13.83,-5.36 27.24,-10.44 40.22,-15.24 12.98,-4.8 22.85,-8.61 29.63,-11.43l0 -47.41c0,-23.7 -7.2,-43.88 -21.59,-60.53 -14.39,-16.65 -33.44,-24.97 -57.15,-24.97 -11.85,0 -22.85,2.25 -33.01,6.77 -10.16,4.51 -19.19,10.58 -27.09,18.2 -7.9,7.62 -14.11,16.65 -18.63,27.09 -4.51,10.44 -6.77,21.59 -6.77,33.44l-27.94 0c0,-15.8 2.97,-30.62 8.89,-44.44 5.93,-13.83 13.97,-25.82 24.13,-35.98 10.16,-10.16 22.15,-18.21 35.98,-24.13 13.83,-5.93 28.64,-8.89 44.44,-8.89zm78.74 212.49l0 -21.16c-8.47,3.38 -18.91,7.33 -31.33,11.85 -12.41,4.51 -24.83,9.17 -37.25,13.97 -12.41,4.79 -23.7,9.17 -33.86,13.12 -10.16,3.95 -17.5,6.77 -22.01,8.47 -10.72,3.95 -21.17,9.87 -31.32,17.77 -10.16,7.9 -15.24,18.63 -15.24,32.17l0 23.71c0,11.85 2.25,23 6.77,33.44 4.51,10.44 10.58,19.47 18.2,27.09 7.62,7.62 16.65,13.68 27.09,18.2 10.44,4.51 21.59,6.77 33.44,6.77 11.85,0 23,-2.26 33.44,-6.77 10.44,-4.52 19.47,-10.58 27.09,-18.2 7.62,-7.62 13.69,-16.65 18.2,-27.09 4.52,-10.44 6.78,-21.59 6.78,-33.44l0 -99.9zm257.36 -212.49l0 27.94 -33.02 0c-11.85,0 -22.86,2.25 -33.02,6.77 -10.16,4.51 -19.19,10.58 -27.09,18.2 -7.9,7.62 -14.11,16.65 -18.62,27.09 -4.52,10.44 -6.78,21.59 -6.78,33.44l0 99.05 0 209.11 -27.93 0 0 -209.11 0 -99.05 0 -81.27 -27.94 0 0 -27.94 27.94 0 27.93 0 0 27.94 0 6.77c21.45,-24.83 49.11,-37.81 82.97,-38.94l35.56 0zm183.7 189.63c-5.08,1.7 -13.54,4.94 -25.39,9.74 -11.86,4.8 -24.7,9.73 -38.52,14.81 -13.83,5.08 -27.24,10.16 -40.22,15.24 -12.98,5.08 -23.14,8.75 -30.47,11.01l0 71.96c0,11.85 2.25,23 6.77,33.44 4.51,10.44 10.58,19.47 18.2,27.09 7.62,7.62 16.65,13.68 27.09,18.2 10.44,4.51 21.59,6.77 33.44,6.77 11.85,0 23,-2.26 33.44,-6.77 10.44,-4.52 19.47,-10.58 27.09,-18.2 7.62,-7.62 13.69,-16.65 18.2,-27.09 4.52,-10.44 6.78,-21.59 6.78,-33.44l27.94 0c0,15.8 -2.96,30.62 -8.89,44.44 -5.92,13.83 -13.97,25.82 -24.13,35.98 -10.16,10.16 -22.16,18.2 -35.98,24.13 -13.83,5.93 -28.65,8.89 -44.45,8.89 -15.8,0 -30.62,-2.96 -44.44,-8.89 -13.83,-5.93 -25.82,-13.97 -35.98,-24.13 -10.16,-10.16 -18.2,-22.15 -24.13,-35.98 -5.93,-13.82 -8.89,-28.64 -8.89,-44.44l0 -198.95c0,-15.8 2.96,-30.62 8.89,-44.44 5.93,-13.83 13.97,-25.82 24.13,-35.98 10.16,-10.16 22.15,-18.21 35.98,-24.13 13.82,-5.93 28.64,-8.89 44.44,-8.89 15.8,0 30.62,2.96 44.45,8.89 13.82,5.92 25.82,13.97 35.98,24.13 10.16,10.16 18.21,22.15 24.13,35.98 5.93,13.82 8.89,28.36 8.89,43.59l0 0.85c0,34.99 -21.45,60.39 -64.35,76.19zm-49.1 -161.69c-11.85,0 -23,2.25 -33.44,6.77 -10.44,4.51 -19.47,10.58 -27.09,18.2 -7.62,7.62 -13.69,16.65 -18.2,27.09 -4.52,10.44 -6.77,21.59 -6.77,33.44l0 97.36c8.46,-3.39 18.9,-7.48 31.32,-12.28 12.42,-4.79 24.83,-9.45 37.25,-13.97 12.42,-4.51 23.85,-8.74 34.29,-12.69 10.44,-3.96 17.92,-6.78 22.43,-8.47 10.16,-3.95 20.32,-9.88 30.48,-17.78 10.16,-7.9 15.24,-18.91 15.24,-33.02 0,-11.85 -2.26,-22.85 -6.78,-33.01 -4.51,-10.16 -10.58,-19.05 -18.2,-26.67 -7.62,-7.62 -16.65,-13.69 -27.09,-18.2 -10.44,-4.52 -21.59,-6.77 -33.44,-6.77zm530.81 -213.34l0 298.84 0 198.95 0 109.21 -27.93 0 0 -34.71c-10.73,11.85 -23.43,21.3 -38.1,28.36 -14.67,7.05 -30.48,10.58 -47.41,10.58 -15.8,0 -30.62,-2.96 -44.44,-8.89 -13.83,-5.93 -25.82,-13.97 -35.98,-24.13 -10.16,-10.16 -18.2,-22.15 -24.13,-35.98 -5.93,-13.82 -8.89,-28.64 -8.89,-44.44l0 -198.95c0,-15.8 2.96,-30.62 8.89,-44.44 5.93,-13.83 13.97,-25.82 24.13,-35.98 10.16,-10.16 22.15,-18.21 35.98,-24.13 13.82,-5.93 28.64,-8.89 44.44,-8.89 16.93,0 32.74,3.39 47.41,10.16 14.67,6.77 27.37,16.37 38.1,28.78l0 -224.34 27.93 0zm-113.44 583.29c11.85,0 23,-2.26 33.44,-6.77 10.44,-4.52 19.47,-10.58 27.09,-18.2 7.62,-7.62 13.69,-16.65 18.2,-27.09 4.52,-10.44 6.78,-21.59 6.78,-33.44l0 -198.95c0,-11.85 -2.26,-23 -6.78,-33.44 -4.51,-10.44 -10.58,-19.47 -18.2,-27.09 -7.62,-7.62 -16.65,-13.69 -27.09,-18.2 -10.44,-4.52 -21.59,-6.77 -33.44,-6.77 -11.85,0 -23,2.25 -33.44,6.77 -10.44,4.51 -19.47,10.58 -27.09,18.2 -7.62,7.62 -13.69,16.65 -18.2,27.09 -4.52,10.44 -6.77,21.59 -6.77,33.44l0 198.95c0,11.85 2.25,23 6.77,33.44 4.51,10.44 10.58,19.47 18.2,27.09 7.62,7.62 16.65,13.68 27.09,18.2 10.44,4.51 21.59,6.77 33.44,6.77zm339.47 -208.26c-5.08,1.7 -13.54,4.94 -25.39,9.74 -11.86,4.8 -24.7,9.73 -38.52,14.81 -13.83,5.08 -27.24,10.16 -40.22,15.24 -12.98,5.08 -23.14,8.75 -30.47,11.01l0 71.96c0,11.85 2.25,23 6.77,33.44 4.51,10.44 10.58,19.47 18.2,27.09 7.62,7.62 16.65,13.68 27.09,18.2 10.44,4.51 21.59,6.77 33.44,6.77 11.85,0 23,-2.26 33.44,-6.77 10.44,-4.52 19.47,-10.58 27.09,-18.2 7.62,-7.62 13.69,-16.65 18.2,-27.09 4.52,-10.44 6.78,-21.59 6.78,-33.44l27.93 0c0,15.8 -2.96,30.62 -8.89,44.44 -5.92,13.83 -13.96,25.82 -24.12,35.98 -10.16,10.16 -22.16,18.2 -35.98,24.13 -13.83,5.93 -28.65,8.89 -44.45,8.89 -15.8,0 -30.62,-2.96 -44.44,-8.89 -13.83,-5.93 -25.82,-13.97 -35.98,-24.13 -10.16,-10.16 -18.2,-22.15 -24.13,-35.98 -5.93,-13.82 -8.89,-28.64 -8.89,-44.44l0 -198.95c0,-15.8 2.96,-30.62 8.89,-44.44 5.93,-13.83 13.97,-25.82 24.13,-35.98 10.16,-10.16 22.15,-18.21 35.98,-24.13 13.82,-5.93 28.64,-8.89 44.44,-8.89 15.8,0 30.62,2.96 44.45,8.89 13.82,5.92 25.82,13.97 35.98,24.13 10.16,10.16 18.2,22.15 24.12,35.98 5.93,13.82 8.89,28.36 8.89,43.59l0 0.85c0,34.99 -21.44,60.39 -64.34,76.19zm-49.1 -161.69c-11.85,0 -23,2.25 -33.44,6.77 -10.44,4.51 -19.47,10.58 -27.09,18.2 -7.62,7.62 -13.69,16.65 -18.2,27.09 -4.52,10.44 -6.77,21.59 -6.77,33.44l0 97.36c8.46,-3.39 18.9,-7.48 31.32,-12.28 12.42,-4.79 24.83,-9.45 37.25,-13.97 12.42,-4.51 23.85,-8.74 34.29,-12.69 10.44,-3.96 17.92,-6.78 22.43,-8.47 10.16,-3.95 20.32,-9.88 30.48,-17.78 10.16,-7.9 15.24,-18.91 15.24,-33.02 0,-11.85 -2.26,-22.85 -6.78,-33.01 -4.51,-10.16 -10.58,-19.05 -18.2,-26.67 -7.62,-7.62 -16.65,-13.69 -27.09,-18.2 -10.44,-4.52 -21.59,-6.77 -33.44,-6.77zm430.06 4.23l-91.43 0 0 365.72 0 23.71 0 75.34c0,15.81 -2.68,30.62 -8.04,44.45 -5.36,13.83 -12.7,25.96 -22.01,36.4 -9.32,10.44 -20.18,18.63 -32.6,24.55 -12.41,5.93 -25.68,8.89 -39.79,8.89l0 -27.94c10.16,0 19.76,-2.25 28.79,-6.77 9.03,-4.51 16.93,-10.58 23.7,-18.2 6.77,-7.62 12.14,-16.65 16.09,-27.23 3.95,-10.44 5.92,-21.59 5.92,-33.44l0 -75.49 0 -23.7 0 -366.29 0 -4.23 0 -23.71 0 -76.19c0,-15.8 2.68,-30.62 8.05,-44.45 5.36,-13.82 12.69,-25.82 22.01,-35.97 9.31,-10.16 20.17,-18.21 32.59,-24.13 12.42,-5.93 25.68,-8.89 39.79,-8.89l0 27.94c-10.16,0 -19.75,2.25 -28.78,6.77 -9.04,4.51 -16.94,10.72 -23.71,18.62 -6.77,7.9 -12.13,16.93 -16.08,27.09 -3.95,10.16 -5.93,21.17 -5.93,33.02l0 76.19 91.43 0 0 27.94zm137.14 -32.17c15.81,0 30.2,2.96 43.18,8.89 12.98,5.92 24.13,13.97 33.44,24.13 9.31,10.16 16.65,22.15 22.01,35.98 5.36,13.82 8.04,28.64 8.04,44.44l0 99.05 0 99.9 0 109.21 -27.93 0 0 -34.71c-10.73,11.85 -23.43,21.3 -38.1,28.36 -14.67,7.05 -30.48,10.58 -47.41,10.58 -15.8,0 -30.62,-2.96 -44.44,-8.89 -13.83,-5.93 -25.82,-13.97 -35.98,-24.13 -10.16,-10.16 -18.2,-22.15 -24.13,-35.98 -5.93,-13.82 -8.89,-28.64 -8.89,-44.44l0 -23.71c0,-34.99 21.45,-60.39 64.34,-76.19 5.08,-2.26 13.69,-5.64 25.82,-10.16 12.14,-4.51 25.12,-9.45 38.94,-14.81 13.83,-5.36 27.24,-10.44 40.22,-15.24 12.98,-4.8 22.85,-8.61 29.63,-11.43l0 -47.41c0,-23.7 -7.2,-43.88 -21.59,-60.53 -14.39,-16.65 -33.44,-24.97 -57.15,-24.97 -11.85,0 -22.85,2.25 -33.01,6.77 -10.16,4.51 -19.19,10.58 -27.09,18.2 -7.9,7.62 -14.11,16.65 -18.63,27.09 -4.51,10.44 -6.77,21.59 -6.77,33.44l-27.94 0c0,-15.8 2.97,-30.62 8.89,-44.44 5.93,-13.83 13.97,-25.82 24.13,-35.98 10.16,-10.16 22.15,-18.21 35.98,-24.13 13.83,-5.93 28.64,-8.89 44.44,-8.89zm78.74 212.49l0 -21.16c-8.47,3.38 -18.91,7.33 -31.33,11.85 -12.41,4.51 -24.83,9.17 -37.25,13.97 -12.41,4.79 -23.7,9.17 -33.86,13.12 -10.16,3.95 -17.5,6.77 -22.01,8.47 -10.72,3.95 -21.17,9.87 -31.32,17.77 -10.16,7.9 -15.24,18.63 -15.24,32.17l0 23.71c0,11.85 2.25,23 6.77,33.44 4.51,10.44 10.58,19.47 18.2,27.09 7.62,7.62 16.65,13.68 27.09,18.2 10.44,4.51 21.59,6.77 33.44,6.77 11.85,0 23,-2.26 33.44,-6.77 10.44,-4.52 19.47,-10.58 27.09,-18.2 7.62,-7.62 13.69,-16.65 18.2,-27.09 4.52,-10.44 6.78,-21.59 6.78,-33.44l0 -99.9zm200.63 185.4c11.85,0 23,-2.26 33.44,-6.77 10.44,-4.52 19.47,-10.58 27.09,-18.2 7.62,-7.62 13.69,-16.65 18.2,-27.09 4.52,-10.44 6.78,-21.59 6.78,-33.44l27.93 0c0,15.8 -2.96,30.62 -8.89,44.44 -5.92,13.83 -13.96,25.82 -24.12,35.98 -10.16,10.16 -22.16,18.2 -35.98,24.13 -13.83,5.93 -28.65,8.89 -44.45,8.89 -15.8,0 -30.62,-2.96 -44.44,-8.89 -13.83,-5.93 -25.82,-13.97 -35.98,-24.13 -10.16,-10.16 -18.2,-22.15 -24.13,-35.98 -5.93,-13.82 -8.89,-28.64 -8.89,-44.44l0 -198.95c0,-15.8 2.96,-30.62 8.89,-44.44 5.93,-13.83 13.97,-25.82 24.13,-35.98 10.16,-10.16 22.15,-18.21 35.98,-24.13 13.82,-5.93 28.64,-8.89 44.44,-8.89 15.8,0 30.62,2.96 44.45,8.89 13.82,5.92 25.82,13.97 35.98,24.13 10.16,10.16 18.2,22.15 24.12,35.98 5.93,13.82 8.89,28.64 8.89,44.44l-27.93 0c0,-11.85 -2.26,-23 -6.78,-33.44 -4.51,-10.44 -10.58,-19.47 -18.2,-27.09 -7.62,-7.62 -16.65,-13.69 -27.09,-18.2 -10.44,-4.52 -21.59,-6.77 -33.44,-6.77 -11.85,0 -23,2.25 -33.44,6.77 -10.44,4.51 -19.47,10.58 -27.09,18.2 -7.62,7.62 -13.69,16.65 -18.2,27.09 -4.52,10.44 -6.77,21.59 -6.77,33.44l0 198.95c0,11.85 2.25,23 6.77,33.44 4.51,10.44 10.58,19.47 18.2,27.09 7.62,7.62 16.65,13.68 27.09,18.2 10.44,4.51 21.59,6.77 33.44,6.77zm200.64 -185.4l0 99.9c0,11.85 1.97,23 5.92,33.44 3.95,10.44 9.32,19.47 16.09,27.09 6.77,7.62 14.67,13.68 23.7,18.2 9.03,4.51 18.63,6.77 28.79,6.77l0 27.94c-14.11,0 -27.38,-2.96 -39.79,-8.89 -12.42,-5.93 -23.28,-13.97 -32.6,-24.13 -9.31,-10.16 -16.65,-22.15 -22.01,-35.98 -5.36,-13.82 -8.04,-28.64 -8.04,-44.44l0 -99.9 0 -180.32 0 -27.94 0 -118.52 27.94 0 0 118.52 91.43 0 0 27.94 -91.43 0 0 180.32zm356.41 -208.26l0 208.26 0 99.9 0 109.21 -27.93 0 0 -34.71c-10.73,11.85 -23.43,21.3 -38.1,28.36 -14.67,7.05 -30.48,10.58 -47.41,10.58 -15.8,0 -30.62,-2.96 -44.44,-8.89 -13.83,-5.93 -25.82,-13.97 -35.98,-24.13 -10.16,-10.16 -18.2,-22.15 -24.13,-35.98 -5.93,-13.82 -8.89,-28.64 -8.89,-44.44l0 -99.9 0 -208.26 27.94 0 0 208.26 0 99.9c0,11.85 2.25,23 6.77,33.44 4.51,10.44 10.58,19.47 18.2,27.09 7.62,7.62 16.65,13.68 27.09,18.2 10.44,4.51 21.59,6.77 33.44,6.77 11.85,0 23,-2.26 33.44,-6.77 10.44,-4.52 19.47,-10.58 27.09,-18.2 7.62,-7.62 13.69,-16.65 18.2,-27.09 4.52,-10.44 6.78,-21.59 6.78,-33.44l0 -99.9 0 -208.26 27.93 0zm233.66 -4.23l0 27.94 -33.02 0c-11.85,0 -22.86,2.25 -33.02,6.77 -10.16,4.51 -19.19,10.58 -27.09,18.2 -7.9,7.62 -14.11,16.65 -18.62,27.09 -4.52,10.44 -6.78,21.59 -6.78,33.44l0 99.05 0 209.11 -27.93 0 0 -209.11 0 -99.05 0 -81.27 -27.94 0 0 -27.94 27.94 0 27.93 0 0 27.94 0 6.77c21.45,-24.83 49.11,-37.81 82.97,-38.94l35.56 0zm137.14 0c15.81,0 30.2,2.96 43.18,8.89 12.98,5.92 24.13,13.97 33.44,24.13 9.31,10.16 16.65,22.15 22.01,35.98 5.36,13.82 8.04,28.64 8.04,44.44l0 99.05 0 99.9 0 109.21 -27.93 0 0 -34.71c-10.73,11.85 -23.43,21.3 -38.1,28.36 -14.67,7.05 -30.48,10.58 -47.41,10.58 -15.8,0 -30.62,-2.96 -44.44,-8.89 -13.83,-5.93 -25.82,-13.97 -35.98,-24.13 -10.16,-10.16 -18.2,-22.15 -24.13,-35.98 -5.93,-13.82 -8.89,-28.64 -8.89,-44.44l0 -23.71c0,-34.99 21.45,-60.39 64.34,-76.19 5.08,-2.26 13.69,-5.64 25.82,-10.16 12.14,-4.51 25.12,-9.45 38.94,-14.81 13.83,-5.36 27.24,-10.44 40.22,-15.24 12.98,-4.8 22.85,-8.61 29.63,-11.43l0 -47.41c0,-23.7 -7.2,-43.88 -21.59,-60.53 -14.39,-16.65 -33.44,-24.97 -57.15,-24.97 -11.85,0 -22.85,2.25 -33.01,6.77 -10.16,4.51 -19.19,10.58 -27.09,18.2 -7.9,7.62 -14.11,16.65 -18.63,27.09 -4.51,10.44 -6.77,21.59 -6.77,33.44l-27.94 0c0,-15.8 2.97,-30.62 8.89,-44.44 5.93,-13.83 13.97,-25.82 24.13,-35.98 10.16,-10.16 22.15,-18.21 35.98,-24.13 13.83,-5.93 28.64,-8.89 44.44,-8.89zm78.74 212.49l0 -21.16c-8.47,3.38 -18.91,7.33 -31.33,11.85 -12.41,4.51 -24.83,9.17 -37.25,13.97 -12.41,4.79 -23.7,9.17 -33.86,13.12 -10.16,3.95 -17.5,6.77 -22.01,8.47 -10.72,3.95 -21.17,9.87 -31.32,17.77 -10.16,7.9 -15.24,18.63 -15.24,32.17l0 23.71c0,11.85 2.25,23 6.77,33.44 4.51,10.44 10.58,19.47 18.2,27.09 7.62,7.62 16.65,13.68 27.09,18.2 10.44,4.51 21.59,6.77 33.44,6.77 11.85,0 23,-2.26 33.44,-6.77 10.44,-4.52 19.47,-10.58 27.09,-18.2 7.62,-7.62 13.69,-16.65 18.2,-27.09 4.52,-10.44 6.78,-21.59 6.78,-33.44l0 -99.9zm200.63 185.4c11.85,0 23,-2.26 33.44,-6.77 10.44,-4.52 19.47,-10.58 27.09,-18.2 7.62,-7.62 13.69,-16.65 18.2,-27.09 4.52,-10.44 6.78,-21.59 6.78,-33.44l27.93 0c0,15.8 -2.96,30.62 -8.89,44.44 -5.92,13.83 -13.96,25.82 -24.12,35.98 -10.16,10.16 -22.16,18.2 -35.98,24.13 -13.83,5.93 -28.65,8.89 -44.45,8.89 -15.8,0 -30.62,-2.96 -44.44,-8.89 -13.83,-5.93 -25.82,-13.97 -35.98,-24.13 -10.16,-10.16 -18.2,-22.15 -24.13,-35.98 -5.93,-13.82 -8.89,-28.64 -8.89,-44.44l0 -198.95c0,-15.8 2.96,-30.62 8.89,-44.44 5.93,-13.83 13.97,-25.82 24.13,-35.98 10.16,-10.16 22.15,-18.21 35.98,-24.13 13.82,-5.93 28.64,-8.89 44.44,-8.89 15.8,0 30.62,2.96 44.45,8.89 13.82,5.92 25.82,13.97 35.98,24.13 10.16,10.16 18.2,22.15 24.12,35.98 5.93,13.82 8.89,28.64 8.89,44.44l-27.93 0c0,-11.85 -2.26,-23 -6.78,-33.44 -4.51,-10.44 -10.58,-19.47 -18.2,-27.09 -7.62,-7.62 -16.65,-13.69 -27.09,-18.2 -10.44,-4.52 -21.59,-6.77 -33.44,-6.77 -11.85,0 -23,2.25 -33.44,6.77 -10.44,4.51 -19.47,10.58 -27.09,18.2 -7.62,7.62 -13.69,16.65 -18.2,27.09 -4.52,10.44 -6.77,21.59 -6.77,33.44l0 198.95c0,11.85 2.25,23 6.77,33.44 4.51,10.44 10.58,19.47 18.2,27.09 7.62,7.62 16.65,13.68 27.09,18.2 10.44,4.51 21.59,6.77 33.44,6.77zm24.55 41.48c11.85,7.34 17.78,18.07 17.78,32.17 0,12.42 -4.37,22.58 -13.12,30.48 -8.75,7.9 -19.61,11.85 -32.59,11.85 -14.11,0 -24.27,-2.54 -30.48,-7.62l-2.54 -0.84 5.92 -18.63 4.24 1.7c2.26,1.13 5.36,2.4 9.31,3.81 3.95,1.41 8.18,2.11 12.7,2.11 6.21,0 11.71,-1.69 16.51,-5.08 4.79,-3.38 7.19,-8.75 7.19,-16.08 0,-9.03 -3.24,-14.82 -9.73,-17.36 -6.49,-2.54 -12.84,-3.81 -19.05,-3.81 -7.34,0 -12.42,0.29 -15.24,0.85l-5.08 0.85 5.08 -40.64 20.32 0 -3.39 19.47 5.08 0c10.16,0 19.19,2.26 27.09,6.77z"/>
   <path class="fil16" d="M6628.83 3969.03c15.81,0 30.2,2.96 43.18,8.89 12.98,5.92 24.13,13.97 33.44,24.13 9.31,10.16 16.65,22.15 22.01,35.98 5.36,13.82 8.04,28.64 8.04,44.44l0 99.05 0 99.9 0 109.21 -27.93 0 0 -34.71c-10.73,11.85 -23.43,21.3 -38.1,28.36 -14.67,7.05 -30.48,10.58 -47.41,10.58 -15.8,0 -30.62,-2.96 -44.44,-8.89 -13.83,-5.93 -25.82,-13.97 -35.98,-24.13 -10.16,-10.16 -18.2,-22.15 -24.13,-35.98 -5.93,-13.82 -8.89,-28.64 -8.89,-44.44l0 -23.71c0,-34.99 21.45,-60.39 64.34,-76.19 5.08,-2.26 13.69,-5.64 25.82,-10.16 12.14,-4.51 25.12,-9.45 38.94,-14.81 13.83,-5.36 27.24,-10.44 40.22,-15.24 12.98,-4.8 22.85,-8.61 29.63,-11.43l0 -47.41c0,-23.7 -7.2,-43.88 -21.59,-60.53 -14.39,-16.65 -33.44,-24.97 -57.15,-24.97 -11.85,0 -22.85,2.25 -33.01,6.77 -10.16,4.51 -19.19,10.58 -27.09,18.2 -7.9,7.62 -14.11,16.65 -18.63,27.09 -4.51,10.44 -6.77,21.59 -6.77,33.44l-27.94 0c0,-15.8 2.97,-30.62 8.89,-44.44 5.93,-13.83 13.97,-25.82 24.13,-35.98 10.16,-10.16 22.15,-18.21 35.98,-24.13 13.83,-5.93 28.64,-8.89 44.44,-8.89zm78.74 212.49l0 -21.16c-8.47,3.38 -18.91,7.33 -31.33,11.85 -12.41,4.51 -24.83,9.17 -37.25,13.97 -12.41,4.79 -23.7,9.17 -33.86,13.12 -10.16,3.95 -17.5,6.77 -22.01,8.47 -10.72,3.95 -21.17,9.87 -31.32,17.77 -10.16,7.9 -15.24,18.63 -15.24,32.17l0 23.71c0,11.85 2.25,23 6.77,33.44 4.51,10.44 10.58,19.47 18.2,27.09 7.62,7.62 16.65,13.68 27.09,18.2 10.44,4.51 21.59,6.77 33.44,6.77 11.85,0 23,-2.26 33.44,-6.77 10.44,-4.52 19.47,-10.58 27.09,-18.2 7.62,-7.62 13.69,-16.65 18.2,-27.09 4.52,-10.44 6.78,-21.59 6.78,-33.44l0 -99.9zm-43.18 -282.76c-7.9,0 -15.52,-1.41 -22.86,-4.23 -7.33,-2.82 -14.67,-5.93 -22.01,-9.31 -14.11,-6.21 -25.25,-9.6 -33.44,-10.16 -8.18,-0.57 -16.22,5.36 -24.13,17.78l-21.16 -13.55c11.85,-19.75 27.09,-29.63 45.72,-29.63 7.9,0 15.37,1.41 22.43,4.23 7.05,2.83 13.97,5.65 20.74,8.47 14.67,6.77 26.67,10.3 35.98,10.58 9.31,0.29 18.77,-6.91 28.36,-21.58l22.01 13.54c-14.11,22.01 -30.76,33.3 -49.95,33.86l-1.69 0zm243.81 496.1c-15.8,0 -30.62,-2.96 -44.44,-8.89 -13.83,-5.93 -25.82,-13.97 -35.98,-24.13 -10.16,-10.16 -18.2,-22.15 -24.13,-35.98 -5.93,-13.82 -8.89,-28.64 -8.89,-44.44l0 -198.95c0,-15.8 2.96,-30.62 8.89,-44.44 5.93,-13.83 13.97,-25.82 24.13,-35.98 10.16,-10.16 22.15,-18.21 35.98,-24.13 13.82,-5.93 28.64,-8.89 44.44,-8.89 15.8,0 30.62,2.96 44.45,8.89 13.82,5.92 25.82,13.97 35.98,24.13 10.16,10.16 18.2,22.15 24.12,35.98 5.93,13.82 8.89,28.64 8.89,44.44l0 198.95c0,15.8 -2.96,30.62 -8.89,44.44 -5.92,13.83 -13.96,25.82 -24.12,35.98 -10.16,10.16 -22.16,18.2 -35.98,24.13 -13.83,5.93 -28.65,8.89 -44.45,8.89zm0 -397.89c-11.85,0 -23,2.25 -33.44,6.77 -10.44,4.51 -19.47,10.58 -27.09,18.2 -7.62,7.62 -13.69,16.65 -18.2,27.09 -4.52,10.44 -6.77,21.59 -6.77,33.44l0 198.95c0,11.85 2.25,23 6.77,33.44 4.51,10.44 10.58,19.47 18.2,27.09 7.62,7.62 16.65,13.68 27.09,18.2 10.44,4.51 21.59,6.77 33.44,6.77 11.85,0 23,-2.26 33.44,-6.77 10.44,-4.52 19.47,-10.58 27.09,-18.2 7.62,-7.62 13.69,-16.65 18.2,-27.09 4.52,-10.44 6.78,-21.59 6.78,-33.44l0 -198.95c0,-11.85 -2.26,-23 -6.78,-33.44 -4.51,-10.44 -10.58,-19.47 -18.2,-27.09 -7.62,-7.62 -16.65,-13.69 -27.09,-18.2 -10.44,-4.52 -21.59,-6.77 -33.44,-6.77zm466.46 161.69c-5.08,1.7 -13.54,4.94 -25.39,9.74 -11.86,4.8 -24.7,9.73 -38.52,14.81 -13.83,5.08 -27.24,10.16 -40.22,15.24 -12.98,5.08 -23.14,8.75 -30.47,11.01l0 71.96c0,11.85 2.25,23 6.77,33.44 4.51,10.44 10.58,19.47 18.2,27.09 7.62,7.62 16.65,13.68 27.09,18.2 10.44,4.51 21.59,6.77 33.44,6.77 11.85,0 23,-2.26 33.44,-6.77 10.44,-4.52 19.47,-10.58 27.09,-18.2 7.62,-7.62 13.69,-16.65 18.2,-27.09 4.52,-10.44 6.78,-21.59 6.78,-33.44l27.93 0c0,15.8 -2.96,30.62 -8.89,44.44 -5.92,13.83 -13.96,25.82 -24.12,35.98 -10.16,10.16 -22.16,18.2 -35.98,24.13 -13.83,5.93 -28.65,8.89 -44.45,8.89 -15.8,0 -30.62,-2.96 -44.44,-8.89 -13.83,-5.93 -25.82,-13.97 -35.98,-24.13 -10.16,-10.16 -18.2,-22.15 -24.13,-35.98 -5.93,-13.82 -8.89,-28.64 -8.89,-44.44l0 -198.95c0,-15.8 2.96,-30.62 8.89,-44.44 5.93,-13.83 13.97,-25.82 24.13,-35.98 10.16,-10.16 22.15,-18.21 35.98,-24.13 13.82,-5.93 28.64,-8.89 44.44,-8.89 15.8,0 30.62,2.96 44.45,8.89 13.82,5.92 25.82,13.97 35.98,24.13 10.16,10.16 18.2,22.15 24.12,35.98 5.93,13.82 8.89,28.36 8.89,43.59l0 0.85c0,34.99 -21.44,60.39 -64.34,76.19zm-49.1 -161.69c-11.85,0 -23,2.25 -33.44,6.77 -10.44,4.51 -19.47,10.58 -27.09,18.2 -7.62,7.62 -13.69,16.65 -18.2,27.09 -4.52,10.44 -6.77,21.59 -6.77,33.44l0 97.36c8.46,-3.39 18.9,-7.48 31.32,-12.28 12.42,-4.79 24.83,-9.45 37.25,-13.97 12.42,-4.51 23.85,-8.74 34.29,-12.69 10.44,-3.96 17.92,-6.78 22.43,-8.47 10.16,-3.95 20.32,-9.88 30.48,-17.78 10.16,-7.9 15.24,-18.91 15.24,-33.02 0,-11.85 -2.26,-22.85 -6.78,-33.01 -4.51,-10.16 -10.58,-19.05 -18.2,-26.67 -7.62,-7.62 -16.65,-13.69 -27.09,-18.2 -10.44,-4.52 -21.59,-6.77 -33.44,-6.77zm530.81 -23.71l0 109.21 0 198.95 0 192.17c0,15.8 -2.96,30.62 -8.89,44.45 -5.92,13.82 -13.96,25.82 -24.12,35.98 -10.16,10.16 -22.16,18.2 -35.98,24.12 -13.83,5.93 -28.65,8.89 -44.45,8.89 -15.8,0 -30.62,-2.96 -44.44,-8.89 -13.83,-5.92 -25.82,-13.96 -35.98,-24.12 -10.16,-10.16 -18.2,-22.16 -24.13,-35.98 -5.93,-13.83 -8.89,-28.65 -8.89,-44.45l27.94 0c0,11.85 2.25,22.86 6.77,33.02 4.51,10.16 10.58,19.19 18.2,27.09 7.62,7.9 16.65,14.11 27.09,18.62 10.44,4.52 21.59,6.78 33.44,6.78 11.85,0 23,-2.26 33.44,-6.78 10.44,-4.51 19.47,-10.72 27.09,-18.62 7.62,-7.9 13.69,-16.93 18.2,-27.09 4.52,-10.16 6.78,-21.17 6.78,-33.02l0 -117.67c-10.73,11.85 -23.43,21.3 -38.1,28.36 -14.67,7.05 -30.48,10.58 -47.41,10.58 -15.8,0 -30.62,-2.96 -44.44,-8.89 -13.83,-5.93 -25.82,-13.97 -35.98,-24.13 -10.16,-10.16 -18.2,-22.15 -24.13,-35.98 -5.93,-13.82 -8.89,-28.64 -8.89,-44.44l0 -198.95c0,-15.8 2.96,-30.62 8.89,-44.44 5.93,-13.83 13.97,-25.82 24.13,-35.98 10.16,-10.16 22.15,-18.21 35.98,-24.13 13.82,-5.93 28.64,-8.89 44.44,-8.89 16.93,0 32.74,3.39 47.41,10.16 14.67,6.77 27.37,16.37 38.1,28.78l0 -34.71 27.93 0zm-113.44 393.66c11.85,0 23,-2.26 33.44,-6.77 10.44,-4.52 19.47,-10.58 27.09,-18.2 7.62,-7.62 13.69,-16.65 18.2,-27.09 4.52,-10.44 6.78,-21.59 6.78,-33.44l0 -198.95c0,-11.85 -2.26,-23 -6.78,-33.44 -4.51,-10.44 -10.58,-19.47 -18.2,-27.09 -7.62,-7.62 -16.65,-13.69 -27.09,-18.2 -10.44,-4.52 -21.59,-6.77 -33.44,-6.77 -11.85,0 -23,2.25 -33.44,6.77 -10.44,4.51 -19.47,10.58 -27.09,18.2 -7.62,7.62 -13.69,16.65 -18.2,27.09 -4.52,10.44 -6.77,21.59 -6.77,33.44l0 198.95c0,11.85 2.25,23 6.77,33.44 4.51,10.44 10.58,19.47 18.2,27.09 7.62,7.62 16.65,13.68 27.09,18.2 10.44,4.51 21.59,6.77 33.44,6.77zm343.71 -208.26c-5.08,1.7 -13.54,4.94 -25.39,9.74 -11.86,4.8 -24.7,9.73 -38.52,14.81 -13.83,5.08 -27.24,10.16 -40.22,15.24 -12.98,5.08 -23.14,8.75 -30.47,11.01l0 71.96c0,11.85 2.25,23 6.77,33.44 4.51,10.44 10.58,19.47 18.2,27.09 7.62,7.62 16.65,13.68 27.09,18.2 10.44,4.51 21.59,6.77 33.44,6.77 11.85,0 23,-2.26 33.44,-6.77 10.44,-4.52 19.47,-10.58 27.09,-18.2 7.62,-7.62 13.69,-16.65 18.2,-27.09 4.52,-10.44 6.78,-21.59 6.78,-33.44l27.93 0c0,15.8 -2.96,30.62 -8.89,44.44 -5.92,13.83 -13.96,25.82 -24.12,35.98 -10.16,10.16 -22.16,18.2 -35.98,24.13 -13.83,5.93 -28.65,8.89 -44.45,8.89 -15.8,0 -30.62,-2.96 -44.44,-8.89 -13.83,-5.93 -25.82,-13.97 -35.98,-24.13 -10.16,-10.16 -18.2,-22.15 -24.13,-35.98 -5.93,-13.82 -8.89,-28.64 -8.89,-44.44l0 -198.95c0,-15.8 2.96,-30.62 8.89,-44.44 5.93,-13.83 13.97,-25.82 24.13,-35.98 10.16,-10.16 22.15,-18.21 35.98,-24.13 13.82,-5.93 28.64,-8.89 44.44,-8.89 15.8,0 30.62,2.96 44.45,8.89 13.82,5.92 25.82,13.97 35.98,24.13 10.16,10.16 18.2,22.15 24.12,35.98 5.93,13.82 8.89,28.36 8.89,43.59l0 0.85c0,34.99 -21.44,60.39 -64.34,76.19zm-49.1 -161.69c-11.85,0 -23,2.25 -33.44,6.77 -10.44,4.51 -19.47,10.58 -27.09,18.2 -7.62,7.62 -13.69,16.65 -18.2,27.09 -4.52,10.44 -6.77,21.59 -6.77,33.44l0 97.36c8.46,-3.39 18.9,-7.48 31.32,-12.28 12.42,-4.79 24.83,-9.45 37.25,-13.97 12.42,-4.51 23.85,-8.74 34.29,-12.69 10.44,-3.96 17.92,-6.78 22.43,-8.47 10.16,-3.95 20.32,-9.88 30.48,-17.78 10.16,-7.9 15.24,-18.91 15.24,-33.02 0,-11.85 -2.26,-22.85 -6.78,-33.01 -4.51,-10.16 -10.58,-19.05 -18.2,-26.67 -7.62,-7.62 -16.65,-13.69 -27.09,-18.2 -10.44,-4.52 -21.59,-6.77 -33.44,-6.77zm284.44 171.85c12.42,6.21 24.98,12.84 37.68,19.9 12.7,7.05 24.12,15.09 34.28,24.12 10.16,9.03 18.49,19.05 24.98,30.06 6.49,11 9.73,23.84 9.73,38.52 0,15.8 -2.96,30.62 -8.89,44.44 -5.92,13.83 -13.96,25.82 -24.12,35.98 -10.16,10.16 -22.16,18.2 -35.98,24.13 -13.83,5.93 -28.65,8.89 -44.45,8.89 -15.8,0 -30.62,-2.96 -44.44,-8.89 -13.83,-5.93 -25.82,-13.97 -35.98,-24.13 -10.16,-10.16 -18.2,-22.15 -24.13,-35.98 -5.93,-13.82 -8.89,-28.64 -8.89,-44.44l27.94 0c0,11.85 2.25,23 6.77,33.44 4.51,10.44 10.58,19.47 18.2,27.09 7.62,7.62 16.65,13.68 27.09,18.2 10.44,4.51 21.59,6.77 33.44,6.77 11.85,0 23,-2.26 33.44,-6.77 10.44,-4.52 19.47,-10.58 27.09,-18.2 7.62,-7.62 13.69,-16.65 18.2,-27.09 4.52,-10.44 6.78,-21.59 6.78,-33.44 0,-10.16 -2.54,-19.33 -7.62,-27.52 -5.08,-8.18 -11.86,-15.66 -20.32,-22.43 -8.47,-6.77 -18.2,-13.12 -29.21,-19.05 -11,-5.92 -22.43,-11.99 -34.28,-18.2 -12.99,-6.21 -25.83,-12.84 -38.52,-19.89 -12.7,-7.06 -24.13,-14.96 -34.29,-23.71 -10.16,-8.75 -18.48,-18.62 -24.97,-29.63 -6.49,-11 -9.74,-23.84 -9.74,-38.52 0,-15.8 2.96,-30.62 8.89,-44.44 5.93,-13.83 13.97,-25.82 24.13,-35.98 10.16,-10.16 22.15,-18.21 35.98,-24.13 13.82,-5.93 28.64,-8.89 44.44,-8.89 15.8,0 30.62,2.96 44.45,8.89 13.82,5.92 25.82,13.97 35.98,24.13 10.16,10.16 18.2,22.15 24.12,35.98 5.93,13.82 8.89,28.64 8.89,44.44l-27.93 0c0,-11.85 -2.26,-23 -6.78,-33.44 -4.51,-10.44 -10.58,-19.47 -18.2,-27.09 -7.62,-7.62 -16.65,-13.69 -27.09,-18.2 -10.44,-4.52 -21.59,-6.77 -33.44,-6.77 -11.85,0 -23,2.25 -33.44,6.77 -10.44,4.51 -19.47,10.58 -27.09,18.2 -7.62,7.62 -13.69,16.65 -18.2,27.09 -4.52,10.44 -6.77,21.59 -6.77,33.44 0,10.16 2.54,19.33 7.62,27.52 5.08,8.18 11.99,15.66 20.74,22.43 8.75,6.77 18.62,13.12 29.63,19.05 11,5.92 22.43,11.71 34.28,17.35zm189.64 12.7l0 99.9c0,11.85 1.97,23 5.92,33.44 3.95,10.44 9.32,19.47 16.09,27.09 6.77,7.62 14.67,13.68 23.7,18.2 9.03,4.51 18.63,6.77 28.79,6.77l0 27.94c-14.11,0 -27.38,-2.96 -39.79,-8.89 -12.42,-5.93 -23.28,-13.97 -32.6,-24.13 -9.31,-10.16 -16.65,-22.15 -22.01,-35.98 -5.36,-13.82 -8.04,-28.64 -8.04,-44.44l0 -99.9 0 -180.32 0 -27.94 0 -118.52 27.94 0 0 118.52 91.43 0 0 27.94 -91.43 0 0 180.32zm253.97 -212.49c15.81,0 30.2,2.96 43.18,8.89 12.98,5.92 24.13,13.97 33.44,24.13 9.31,10.16 16.65,22.15 22.01,35.98 5.36,13.82 8.04,28.64 8.04,44.44l0 99.05 0 99.9 0 109.21 -27.93 0 0 -34.71c-10.73,11.85 -23.43,21.3 -38.1,28.36 -14.67,7.05 -30.48,10.58 -47.41,10.58 -15.8,0 -30.62,-2.96 -44.44,-8.89 -13.83,-5.93 -25.82,-13.97 -35.98,-24.13 -10.16,-10.16 -18.2,-22.15 -24.13,-35.98 -5.93,-13.82 -8.89,-28.64 -8.89,-44.44l0 -23.71c0,-34.99 21.45,-60.39 64.34,-76.19 5.08,-2.26 13.69,-5.64 25.82,-10.16 12.14,-4.51 25.12,-9.45 38.94,-14.81 13.83,-5.36 27.24,-10.44 40.22,-15.24 12.98,-4.8 22.85,-8.61 29.63,-11.43l0 -47.41c0,-23.7 -7.2,-43.88 -21.59,-60.53 -14.39,-16.65 -33.44,-24.97 -57.15,-24.97 -11.85,0 -22.85,2.25 -33.01,6.77 -10.16,4.51 -19.19,10.58 -27.09,18.2 -7.9,7.62 -14.11,16.65 -18.63,27.09 -4.51,10.44 -6.77,21.59 -6.77,33.44l-27.94 0c0,-15.8 2.97,-30.62 8.89,-44.44 5.93,-13.83 13.97,-25.82 24.13,-35.98 10.16,-10.16 22.15,-18.21 35.98,-24.13 13.83,-5.93 28.64,-8.89 44.44,-8.89zm78.74 212.49l0 -21.16c-8.47,3.38 -18.91,7.33 -31.33,11.85 -12.41,4.51 -24.83,9.17 -37.25,13.97 -12.41,4.79 -23.7,9.17 -33.86,13.12 -10.16,3.95 -17.5,6.77 -22.01,8.47 -10.72,3.95 -21.17,9.87 -31.32,17.77 -10.16,7.9 -15.24,18.63 -15.24,32.17l0 23.71c0,11.85 2.25,23 6.77,33.44 4.51,10.44 10.58,19.47 18.2,27.09 7.62,7.62 16.65,13.68 27.09,18.2 10.44,4.51 21.59,6.77 33.44,6.77 11.85,0 23,-2.26 33.44,-6.77 10.44,-4.52 19.47,-10.58 27.09,-18.2 7.62,-7.62 13.69,-16.65 18.2,-27.09 4.52,-10.44 6.78,-21.59 6.78,-33.44l0 -99.9zm-43.18 -282.76c-7.9,0 -15.52,-1.41 -22.86,-4.23 -7.33,-2.82 -14.67,-5.93 -22.01,-9.31 -14.11,-6.21 -25.25,-9.6 -33.44,-10.16 -8.18,-0.57 -16.22,5.36 -24.13,17.78l-21.16 -13.55c11.85,-19.75 27.09,-29.63 45.72,-29.63 7.9,0 15.37,1.41 22.43,4.23 7.05,2.83 13.97,5.65 20.74,8.47 14.67,6.77 26.67,10.3 35.98,10.58 9.31,0.29 18.77,-6.91 28.36,-21.58l22.01 13.54c-14.11,22.01 -30.76,33.3 -49.95,33.86l-1.69 0zm243.81 496.1c-15.8,0 -30.62,-2.96 -44.44,-8.89 -13.83,-5.93 -25.82,-13.97 -35.98,-24.13 -10.16,-10.16 -18.2,-22.15 -24.13,-35.98 -5.93,-13.82 -8.89,-28.64 -8.89,-44.44l0 -198.95c0,-15.8 2.96,-30.62 8.89,-44.44 5.93,-13.83 13.97,-25.82 24.13,-35.98 10.16,-10.16 22.15,-18.21 35.98,-24.13 13.82,-5.93 28.64,-8.89 44.44,-8.89 15.8,0 30.62,2.96 44.45,8.89 13.82,5.92 25.82,13.97 35.98,24.13 10.16,10.16 18.2,22.15 24.12,35.98 5.93,13.82 8.89,28.64 8.89,44.44l0 198.95c0,15.8 -2.96,30.62 -8.89,44.44 -5.92,13.83 -13.96,25.82 -24.12,35.98 -10.16,10.16 -22.16,18.2 -35.98,24.13 -13.83,5.93 -28.65,8.89 -44.45,8.89zm0 -397.89c-11.85,0 -23,2.25 -33.44,6.77 -10.44,4.51 -19.47,10.58 -27.09,18.2 -7.62,7.62 -13.69,16.65 -18.2,27.09 -4.52,10.44 -6.77,21.59 -6.77,33.44l0 198.95c0,11.85 2.25,23 6.77,33.44 4.51,10.44 10.58,19.47 18.2,27.09 7.62,7.62 16.65,13.68 27.09,18.2 10.44,4.51 21.59,6.77 33.44,6.77 11.85,0 23,-2.26 33.44,-6.77 10.44,-4.52 19.47,-10.58 27.09,-18.2 7.62,-7.62 13.69,-16.65 18.2,-27.09 4.52,-10.44 6.78,-21.59 6.78,-33.44l0 -198.95c0,-11.85 -2.26,-23 -6.78,-33.44 -4.51,-10.44 -10.58,-19.47 -18.2,-27.09 -7.62,-7.62 -16.65,-13.69 -27.09,-18.2 -10.44,-4.52 -21.59,-6.77 -33.44,-6.77zm-5800.74 1285.1c12.98,0 25.12,-2.54 36.41,-7.62 11.28,-5.08 21.16,-11.85 29.63,-20.31 8.46,-8.47 15.24,-18.49 20.32,-30.06 5.07,-11.57 7.61,-23.84 7.61,-36.82l27.94 0c0,16.93 -3.24,32.87 -9.73,47.83 -6.49,14.95 -15.24,27.93 -26.25,38.94 -11,11.01 -23.84,19.75 -38.52,26.24 -14.67,6.49 -30.47,9.74 -47.41,9.74 -16.93,0 -32.87,-3.25 -47.83,-9.74 -14.95,-6.49 -27.93,-15.23 -38.94,-26.24 -11.01,-11.01 -19.75,-23.99 -26.24,-38.94 -6.49,-14.96 -9.74,-30.9 -9.74,-47.83l0 -334.4c0,-16.94 3.25,-32.88 9.74,-47.84 6.49,-14.95 15.23,-27.93 26.24,-38.94 11.01,-11 23.99,-19.75 38.94,-26.24 14.96,-6.49 30.9,-9.74 47.83,-9.74 16.94,0 32.74,3.11 47.41,9.46 14.68,6.34 27.52,14.95 38.52,25.82 11.01,10.86 19.76,23.84 26.25,38.8 6.49,14.95 9.73,30.9 9.73,47.83l-27.94 0c0,-12.98 -2.54,-25.12 -7.61,-36.4 -5.08,-11.29 -11.86,-21.17 -20.32,-29.63 -8.47,-8.47 -18.35,-15.24 -29.63,-20.32 -11.29,-5.08 -23.43,-7.62 -36.41,-7.62 -12.98,0 -25.25,2.54 -36.82,7.62 -11.57,5.08 -21.59,11.85 -30.06,20.32 -8.46,8.46 -15.23,18.48 -20.31,29.77 -5.08,11.29 -7.62,23.42 -7.62,36.4l0 334.96c0,12.99 2.54,25.26 7.62,36.83 5.08,11.57 11.85,21.73 20.31,30.2 8.47,8.46 18.49,15.23 30.06,20.31 11.57,5.08 23.84,7.62 36.82,7.62zm343.71 -208.26c-5.08,1.7 -13.54,4.94 -25.39,9.74 -11.86,4.8 -24.7,9.73 -38.52,14.81 -13.83,5.08 -27.24,10.16 -40.22,15.24 -12.98,5.08 -23.14,8.75 -30.47,11.01l0 71.96c0,11.85 2.25,23 6.77,33.44 4.51,10.44 10.58,19.47 18.2,27.09 7.62,7.62 16.65,13.68 27.09,18.2 10.44,4.51 21.59,6.77 33.44,6.77 11.85,0 23,-2.26 33.44,-6.77 10.44,-4.52 19.47,-10.58 27.09,-18.2 7.62,-7.62 13.69,-16.65 18.2,-27.09 4.52,-10.44 6.78,-21.59 6.78,-33.44l27.93 0c0,15.8 -2.96,30.62 -8.89,44.44 -5.92,13.83 -13.96,25.82 -24.12,35.98 -10.16,10.16 -22.16,18.2 -35.98,24.13 -13.83,5.93 -28.65,8.89 -44.45,8.89 -15.8,0 -30.62,-2.96 -44.44,-8.89 -13.83,-5.93 -25.82,-13.97 -35.98,-24.13 -10.16,-10.16 -18.2,-22.15 -24.13,-35.98 -5.93,-13.82 -8.89,-28.64 -8.89,-44.44l0 -198.95c0,-15.8 2.96,-30.62 8.89,-44.44 5.93,-13.83 13.97,-25.82 24.13,-35.98 10.16,-10.16 22.15,-18.21 35.98,-24.13 13.82,-5.93 28.64,-8.89 44.44,-8.89 15.8,0 30.62,2.96 44.45,8.89 13.82,5.92 25.82,13.97 35.98,24.13 10.16,10.16 18.2,22.15 24.12,35.98 5.93,13.82 8.89,28.36 8.89,43.59l0 0.85c0,34.99 -21.44,60.39 -64.34,76.19zm-49.1 -161.69c-11.85,0 -23,2.25 -33.44,6.77 -10.44,4.51 -19.47,10.58 -27.09,18.2 -7.62,7.62 -13.69,16.65 -18.2,27.09 -4.52,10.44 -6.77,21.59 -6.77,33.44l0 97.36c8.46,-3.39 18.9,-7.48 31.32,-12.28 12.42,-4.79 24.83,-9.45 37.25,-13.97 12.42,-4.51 23.85,-8.74 34.29,-12.69 10.44,-3.96 17.92,-6.78 22.43,-8.47 10.16,-3.95 20.32,-9.88 30.48,-17.78 10.16,-7.9 15.24,-18.91 15.24,-33.02 0,-11.85 -2.26,-22.85 -6.78,-33.01 -4.51,-10.16 -10.58,-19.05 -18.2,-26.67 -7.62,-7.62 -16.65,-13.69 -27.09,-18.2 -10.44,-4.52 -21.59,-6.77 -33.44,-6.77zm325.95 -27.94l0 27.94 -33.02 0c-11.85,0 -22.86,2.25 -33.02,6.77 -10.16,4.51 -19.19,10.58 -27.09,18.2 -7.9,7.62 -14.11,16.65 -18.62,27.09 -4.52,10.44 -6.78,21.59 -6.78,33.44l0 99.05 0 209.11 -27.93 0 0 -209.11 0 -99.05 0 -81.27 -27.94 0 0 -27.94 27.94 0 27.93 0 0 27.94 0 6.77c21.45,-24.83 49.11,-37.81 82.97,-38.94l35.56 0zm78.73 212.49l0 99.9c0,11.85 1.97,23 5.92,33.44 3.95,10.44 9.32,19.47 16.09,27.09 6.77,7.62 14.67,13.68 23.7,18.2 9.03,4.51 18.63,6.77 28.79,6.77l0 27.94c-14.11,0 -27.38,-2.96 -39.79,-8.89 -12.42,-5.93 -23.28,-13.97 -32.6,-24.13 -9.31,-10.16 -16.65,-22.15 -22.01,-35.98 -5.36,-13.82 -8.04,-28.64 -8.04,-44.44l0 -99.9 0 -180.32 0 -27.94 0 -118.52 27.94 0 0 118.52 91.43 0 0 27.94 -91.43 0 0 180.32zm154.07 -215.03l27.94 0 0 28.78 0 389.43 -27.94 0 0 -389.43 -27.93 0 0 -28.78 27.93 0zm6.78 -96.51c-6.21,0 -11.29,-1.98 -15.24,-5.93 -3.95,-3.95 -5.93,-9.03 -5.93,-15.23 0,-6.21 1.98,-11.29 5.93,-15.24 3.95,-3.95 9.03,-5.93 15.24,-5.93 5.64,0 10.58,1.98 14.81,5.93 4.23,3.95 6.35,9.03 6.35,15.24 0,6.2 -2.12,11.28 -6.35,15.23 -4.23,3.95 -9.17,5.93 -14.81,5.93zm257.36 -58.41c-10.16,0 -19.76,2.25 -28.79,6.77 -9.03,4.51 -16.93,10.58 -23.7,18.2 -6.78,7.62 -12.14,16.65 -16.09,27.09 -3.95,10.44 -5.92,21.59 -5.92,33.44l0 76.19 161.69 0 14.39 0 13.55 0 0 417.37 -27.94 0 0 -389.43 -161.69 0 0 365.72 0 23.71 0 75.34c0,15.81 -2.68,30.62 -8.05,44.45 -5.36,13.83 -12.7,25.96 -22.01,36.4 -9.31,10.44 -20.17,18.63 -32.59,24.55 -12.42,5.93 -25.68,8.89 -39.79,8.89l0 -27.94c10.16,0 19.75,-2.25 28.78,-6.77 9.03,-4.51 16.94,-10.72 23.71,-18.34 6.77,-7.62 12.13,-16.79 16.08,-27.23 3.95,-10.44 5.93,-21.73 5.93,-33.58l0 -75.77 0 -23.71 0 -365.72 0 -4.23 0 -23.71 0 -76.19c0,-15.8 2.68,-30.62 8.04,-44.45 5.36,-13.82 12.7,-25.82 22.01,-35.97 9.32,-10.16 20.18,-18.21 32.6,-24.13 12.41,-5.93 25.68,-8.89 39.79,-8.89l122.75 0 0 27.94 -122.75 0zm295.45 555.35c11.85,0 23,-2.26 33.44,-6.77 10.44,-4.52 19.47,-10.58 27.09,-18.2 7.62,-7.62 13.69,-16.65 18.2,-27.09 4.52,-10.44 6.78,-21.59 6.78,-33.44l27.93 0c0,15.8 -2.96,30.62 -8.89,44.44 -5.92,13.83 -13.96,25.82 -24.12,35.98 -10.16,10.16 -22.16,18.2 -35.98,24.13 -13.83,5.93 -28.65,8.89 -44.45,8.89 -15.8,0 -30.62,-2.96 -44.44,-8.89 -13.83,-5.93 -25.82,-13.97 -35.98,-24.13 -10.16,-10.16 -18.2,-22.15 -24.13,-35.98 -5.93,-13.82 -8.89,-28.64 -8.89,-44.44l0 -198.95c0,-15.8 2.96,-30.62 8.89,-44.44 5.93,-13.83 13.97,-25.82 24.13,-35.98 10.16,-10.16 22.15,-18.21 35.98,-24.13 13.82,-5.93 28.64,-8.89 44.44,-8.89 15.8,0 30.62,2.96 44.45,8.89 13.82,5.92 25.82,13.97 35.98,24.13 10.16,10.16 18.2,22.15 24.12,35.98 5.93,13.82 8.89,28.64 8.89,44.44l-27.93 0c0,-11.85 -2.26,-23 -6.78,-33.44 -4.51,-10.44 -10.58,-19.47 -18.2,-27.09 -7.62,-7.62 -16.65,-13.69 -27.09,-18.2 -10.44,-4.52 -21.59,-6.77 -33.44,-6.77 -11.85,0 -23,2.25 -33.44,6.77 -10.44,4.51 -19.47,10.58 -27.09,18.2 -7.62,7.62 -13.69,16.65 -18.2,27.09 -4.52,10.44 -6.77,21.59 -6.77,33.44l0 198.95c0,11.85 2.25,23 6.77,33.44 4.51,10.44 10.58,19.47 18.2,27.09 7.62,7.62 16.65,13.68 27.09,18.2 10.44,4.51 21.59,6.77 33.44,6.77z"/>
   <path class="fil16" d="M4950.08 4884.18c15.81,0 30.2,2.96 43.18,8.89 12.98,5.92 24.13,13.97 33.44,24.13 9.31,10.16 16.65,22.15 22.01,35.98 5.36,13.82 8.04,28.64 8.04,44.44l0 99.05 0 99.9 0 109.21 -27.93 0 0 -34.71c-10.73,11.85 -23.43,21.3 -38.1,28.36 -14.67,7.05 -30.48,10.58 -47.41,10.58 -15.8,0 -30.62,-2.96 -44.44,-8.89 -13.83,-5.93 -25.82,-13.97 -35.98,-24.13 -10.16,-10.16 -18.2,-22.15 -24.13,-35.98 -5.93,-13.82 -8.89,-28.64 -8.89,-44.44l0 -23.71c0,-34.99 21.45,-60.39 64.34,-76.19 5.08,-2.26 13.69,-5.64 25.82,-10.16 12.14,-4.51 25.12,-9.45 38.94,-14.81 13.83,-5.36 27.24,-10.44 40.22,-15.24 12.98,-4.8 22.85,-8.61 29.63,-11.43l0 -47.41c0,-23.7 -7.2,-43.88 -21.59,-60.53 -14.39,-16.65 -33.44,-24.97 -57.15,-24.97 -11.85,0 -22.85,2.25 -33.01,6.77 -10.16,4.51 -19.19,10.58 -27.09,18.2 -7.9,7.62 -14.11,16.65 -18.63,27.09 -4.51,10.44 -6.77,21.59 -6.77,33.44l-27.94 0c0,-15.8 2.97,-30.62 8.89,-44.44 5.93,-13.83 13.97,-25.82 24.13,-35.98 10.16,-10.16 22.15,-18.21 35.98,-24.13 13.83,-5.93 28.64,-8.89 44.44,-8.89zm78.74 212.49l0 -21.16c-8.47,3.38 -18.91,7.33 -31.33,11.85 -12.41,4.51 -24.83,9.17 -37.25,13.97 -12.41,4.79 -23.7,9.17 -33.86,13.12 -10.16,3.95 -17.5,6.77 -22.01,8.47 -10.72,3.95 -21.17,9.87 -31.32,17.77 -10.16,7.9 -15.24,18.63 -15.24,32.17l0 23.71c0,11.85 2.25,23 6.77,33.44 4.51,10.44 10.58,19.47 18.2,27.09 7.62,7.62 16.65,13.68 27.09,18.2 10.44,4.51 21.59,6.77 33.44,6.77 11.85,0 23,-2.26 33.44,-6.77 10.44,-4.52 19.47,-10.58 27.09,-18.2 7.62,-7.62 13.69,-16.65 18.2,-27.09 4.52,-10.44 6.78,-21.59 6.78,-33.44l0 -99.9zm314.07 -397.89l0 298.84 0 198.95 0 109.21 -27.93 0 0 -34.71c-10.73,11.85 -23.43,21.3 -38.1,28.36 -14.67,7.05 -30.48,10.58 -47.41,10.58 -15.8,0 -30.62,-2.96 -44.44,-8.89 -13.83,-5.93 -25.82,-13.97 -35.98,-24.13 -10.16,-10.16 -18.2,-22.15 -24.13,-35.98 -5.93,-13.82 -8.89,-28.64 -8.89,-44.44l0 -198.95c0,-15.8 2.96,-30.62 8.89,-44.44 5.93,-13.83 13.97,-25.82 24.13,-35.98 10.16,-10.16 22.15,-18.21 35.98,-24.13 13.82,-5.93 28.64,-8.89 44.44,-8.89 16.93,0 32.74,3.39 47.41,10.16 14.67,6.77 27.37,16.37 38.1,28.78l0 -224.34 27.93 0zm-113.44 583.29c11.85,0 23,-2.26 33.44,-6.77 10.44,-4.52 19.47,-10.58 27.09,-18.2 7.62,-7.62 13.69,-16.65 18.2,-27.09 4.52,-10.44 6.78,-21.59 6.78,-33.44l0 -198.95c0,-11.85 -2.26,-23 -6.78,-33.44 -4.51,-10.44 -10.58,-19.47 -18.2,-27.09 -7.62,-7.62 -16.65,-13.69 -27.09,-18.2 -10.44,-4.52 -21.59,-6.77 -33.44,-6.77 -11.85,0 -23,2.25 -33.44,6.77 -10.44,4.51 -19.47,10.58 -27.09,18.2 -7.62,7.62 -13.69,16.65 -18.2,27.09 -4.52,10.44 -6.77,21.59 -6.77,33.44l0 198.95c0,11.85 2.25,23 6.77,33.44 4.51,10.44 10.58,19.47 18.2,27.09 7.62,7.62 16.65,13.68 27.09,18.2 10.44,4.51 21.59,6.77 33.44,6.77zm286.14 27.94c-15.8,0 -30.62,-2.96 -44.44,-8.89 -13.83,-5.93 -25.82,-13.97 -35.98,-24.13 -10.16,-10.16 -18.2,-22.15 -24.13,-35.98 -5.93,-13.82 -8.89,-28.64 -8.89,-44.44l0 -198.95c0,-15.8 2.96,-30.62 8.89,-44.44 5.93,-13.83 13.97,-25.82 24.13,-35.98 10.16,-10.16 22.15,-18.21 35.98,-24.13 13.82,-5.93 28.64,-8.89 44.44,-8.89 15.8,0 30.62,2.96 44.45,8.89 13.82,5.92 25.82,13.97 35.98,24.13 10.16,10.16 18.2,22.15 24.12,35.98 5.93,13.82 8.89,28.64 8.89,44.44l0 198.95c0,15.8 -2.96,30.62 -8.89,44.44 -5.92,13.83 -13.96,25.82 -24.12,35.98 -10.16,10.16 -22.16,18.2 -35.98,24.13 -13.83,5.93 -28.65,8.89 -44.45,8.89zm0 -397.89c-11.85,0 -23,2.25 -33.44,6.77 -10.44,4.51 -19.47,10.58 -27.09,18.2 -7.62,7.62 -13.69,16.65 -18.2,27.09 -4.52,10.44 -6.77,21.59 -6.77,33.44l0 198.95c0,11.85 2.25,23 6.77,33.44 4.51,10.44 10.58,19.47 18.2,27.09 7.62,7.62 16.65,13.68 27.09,18.2 10.44,4.51 21.59,6.77 33.44,6.77 11.85,0 23,-2.26 33.44,-6.77 10.44,-4.52 19.47,-10.58 27.09,-18.2 7.62,-7.62 13.69,-16.65 18.2,-27.09 4.52,-10.44 6.78,-21.59 6.78,-33.44l0 -198.95c0,-11.85 -2.26,-23 -6.78,-33.44 -4.51,-10.44 -10.58,-19.47 -18.2,-27.09 -7.62,-7.62 -16.65,-13.69 -27.09,-18.2 -10.44,-4.52 -21.59,-6.77 -33.44,-6.77zm417.36 -27.94c15.8,0 30.62,2.96 44.45,8.89 13.82,5.92 25.82,13.97 35.98,24.13 10.16,10.16 18.2,22.15 24.12,35.98 5.93,13.82 8.89,28.64 8.89,44.44l0 198.95c0,15.8 -2.96,30.62 -8.89,44.44 -5.92,13.83 -13.96,25.82 -24.12,35.98 -10.16,10.16 -22.16,18.2 -35.98,24.13 -13.83,5.93 -28.65,8.89 -44.45,8.89 -16.93,0 -32.73,-3.53 -47.41,-10.58 -14.67,-7.06 -27.37,-16.51 -38.09,-28.36l0 224.34 -27.94 0 0 -298.84 0 -198.95 0 -109.21 27.94 0 0 34.71c10.72,-12.41 23.42,-22.01 38.09,-28.78 14.68,-6.77 30.48,-10.16 47.41,-10.16zm85.51 113.44c0,-11.85 -2.26,-23 -6.78,-33.44 -4.51,-10.44 -10.58,-19.47 -18.2,-27.09 -7.62,-7.62 -16.65,-13.69 -27.09,-18.2 -10.44,-4.52 -21.59,-6.77 -33.44,-6.77 -11.85,0 -23,2.25 -33.44,6.77 -10.44,4.51 -19.47,10.58 -27.09,18.2 -7.62,7.62 -13.69,16.65 -18.2,27.09 -4.52,10.44 -6.77,21.59 -6.77,33.44l0 198.95c0,11.85 2.25,23 6.77,33.44 4.51,10.44 10.58,19.47 18.2,27.09 7.62,7.62 16.65,13.68 27.09,18.2 10.44,4.51 21.59,6.77 33.44,6.77 11.85,0 23,-2.26 33.44,-6.77 10.44,-4.52 19.47,-10.58 27.09,-18.2 7.62,-7.62 13.69,-16.65 18.2,-27.09 4.52,-10.44 6.78,-21.59 6.78,-33.44l0 -198.95zm249.73 76.19c-5.08,1.7 -13.54,4.94 -25.39,9.74 -11.86,4.8 -24.7,9.73 -38.52,14.81 -13.83,5.08 -27.24,10.16 -40.22,15.24 -12.98,5.08 -23.14,8.75 -30.47,11.01l0 71.96c0,11.85 2.25,23 6.77,33.44 4.51,10.44 10.58,19.47 18.2,27.09 7.62,7.62 16.65,13.68 27.09,18.2 10.44,4.51 21.59,6.77 33.44,6.77 11.85,0 23,-2.26 33.44,-6.77 10.44,-4.52 19.47,-10.58 27.09,-18.2 7.62,-7.62 13.69,-16.65 18.2,-27.09 4.52,-10.44 6.78,-21.59 6.78,-33.44l27.93 0c0,15.8 -2.96,30.62 -8.89,44.44 -5.92,13.83 -13.96,25.82 -24.12,35.98 -10.16,10.16 -22.16,18.2 -35.98,24.13 -13.83,5.93 -28.65,8.89 -44.45,8.89 -15.8,0 -30.62,-2.96 -44.44,-8.89 -13.83,-5.93 -25.82,-13.97 -35.98,-24.13 -10.16,-10.16 -18.2,-22.15 -24.13,-35.98 -5.93,-13.82 -8.89,-28.64 -8.89,-44.44l0 -198.95c0,-15.8 2.96,-30.62 8.89,-44.44 5.93,-13.83 13.97,-25.82 24.13,-35.98 10.16,-10.16 22.15,-18.21 35.98,-24.13 13.82,-5.93 28.64,-8.89 44.44,-8.89 15.8,0 30.62,2.96 44.45,8.89 13.82,5.92 25.82,13.97 35.98,24.13 10.16,10.16 18.2,22.15 24.12,35.98 5.93,13.82 8.89,28.36 8.89,43.59l0 0.85c0,34.99 -21.44,60.39 -64.34,76.19zm-49.1 -161.69c-11.85,0 -23,2.25 -33.44,6.77 -10.44,4.51 -19.47,10.58 -27.09,18.2 -7.62,7.62 -13.69,16.65 -18.2,27.09 -4.52,10.44 -6.77,21.59 -6.77,33.44l0 97.36c8.46,-3.39 18.9,-7.48 31.32,-12.28 12.42,-4.79 24.83,-9.45 37.25,-13.97 12.42,-4.51 23.85,-8.74 34.29,-12.69 10.44,-3.96 17.92,-6.78 22.43,-8.47 10.16,-3.95 20.32,-9.88 30.48,-17.78 10.16,-7.9 15.24,-18.91 15.24,-33.02 0,-11.85 -2.26,-22.85 -6.78,-33.01 -4.51,-10.16 -10.58,-19.05 -18.2,-26.67 -7.62,-7.62 -16.65,-13.69 -27.09,-18.2 -10.44,-4.52 -21.59,-6.77 -33.44,-6.77zm196.41 393.66l-27.94 0 0 -607 27.94 0 0 607zm183.7 -421.6c15.81,0 30.2,2.96 43.18,8.89 12.98,5.92 24.13,13.97 33.44,24.13 9.31,10.16 16.65,22.15 22.01,35.98 5.36,13.82 8.04,28.64 8.04,44.44l0 99.05 0 99.9 0 109.21 -27.93 0 0 -34.71c-10.73,11.85 -23.43,21.3 -38.1,28.36 -14.67,7.05 -30.48,10.58 -47.41,10.58 -15.8,0 -30.62,-2.96 -44.44,-8.89 -13.83,-5.93 -25.82,-13.97 -35.98,-24.13 -10.16,-10.16 -18.2,-22.15 -24.13,-35.98 -5.93,-13.82 -8.89,-28.64 -8.89,-44.44l0 -23.71c0,-34.99 21.45,-60.39 64.34,-76.19 5.08,-2.26 13.69,-5.64 25.82,-10.16 12.14,-4.51 25.12,-9.45 38.94,-14.81 13.83,-5.36 27.24,-10.44 40.22,-15.24 12.98,-4.8 22.85,-8.61 29.63,-11.43l0 -47.41c0,-23.7 -7.2,-43.88 -21.59,-60.53 -14.39,-16.65 -33.44,-24.97 -57.15,-24.97 -11.85,0 -22.85,2.25 -33.01,6.77 -10.16,4.51 -19.19,10.58 -27.09,18.2 -7.9,7.62 -14.11,16.65 -18.63,27.09 -4.51,10.44 -6.77,21.59 -6.77,33.44l-27.94 0c0,-15.8 2.97,-30.62 8.89,-44.44 5.93,-13.83 13.97,-25.82 24.13,-35.98 10.16,-10.16 22.15,-18.21 35.98,-24.13 13.83,-5.93 28.64,-8.89 44.44,-8.89zm78.74 212.49l0 -21.16c-8.47,3.38 -18.91,7.33 -31.33,11.85 -12.41,4.51 -24.83,9.17 -37.25,13.97 -12.41,4.79 -23.7,9.17 -33.86,13.12 -10.16,3.95 -17.5,6.77 -22.01,8.47 -10.72,3.95 -21.17,9.87 -31.32,17.77 -10.16,7.9 -15.24,18.63 -15.24,32.17l0 23.71c0,11.85 2.25,23 6.77,33.44 4.51,10.44 10.58,19.47 18.2,27.09 7.62,7.62 16.65,13.68 27.09,18.2 10.44,4.51 21.59,6.77 33.44,6.77 11.85,0 23,-2.26 33.44,-6.77 10.44,-4.52 19.47,-10.58 27.09,-18.2 7.62,-7.62 13.69,-16.65 18.2,-27.09 4.52,-10.44 6.78,-21.59 6.78,-33.44l0 -99.9zm474.08 209.11l-39.79 -179.48 -164.24 0 -39.79 179.48 -28.78 0 126.99 -572.29 47.4 0 126.99 572.29 -28.78 0zm-198.1 -207.42l152.38 0 -76.19 -342.01 -76.19 342.01zm477.46 -115.13l27.94 0 0 27.94 0 85.5 0 90.59 0 9.31c-1.13,15.8 -5.08,30.62 -11.85,44.44 -6.77,13.83 -15.66,25.82 -26.67,35.98 -11,10.16 -23.7,18.2 -38.09,24.13 -14.4,5.93 -29.49,8.89 -45.3,8.89 -16.93,0 -32.87,-3.25 -47.83,-9.74 -14.95,-6.49 -27.93,-15.23 -38.94,-26.24 -11.01,-11.01 -19.75,-23.99 -26.24,-38.94 -6.49,-14.96 -9.74,-30.9 -9.74,-47.83l0 -334.4c0,-16.94 3.25,-32.88 9.74,-47.84 6.49,-14.95 15.23,-27.93 26.24,-38.94 11.01,-11 23.99,-19.75 38.94,-26.24 14.96,-6.49 30.9,-9.74 47.83,-9.74 16.94,0 32.74,3.11 47.41,9.46 14.68,6.34 27.52,14.95 38.52,25.82 11.01,10.86 19.76,23.84 26.25,38.8 6.49,14.95 9.73,30.9 9.73,47.83l-27.94 0c0,-12.98 -2.54,-25.12 -7.61,-36.4 -5.08,-11.29 -11.86,-21.17 -20.32,-29.63 -8.47,-8.47 -18.35,-15.24 -29.63,-20.32 -11.29,-5.08 -23.43,-7.62 -36.41,-7.62 -12.98,0 -25.25,2.54 -36.82,7.62 -11.57,5.08 -21.59,11.85 -30.06,20.32 -8.46,8.46 -15.23,18.48 -20.31,29.77 -5.08,11.29 -7.62,23.42 -7.62,36.4l0 334.96c0,12.99 2.54,25.26 7.62,36.83 5.08,11.57 11.85,21.73 20.31,30.2 8.47,8.46 18.49,15.23 30.06,20.31 11.57,5.08 23.84,7.62 36.82,7.62 12.98,0 25.12,-2.54 36.41,-7.62 11.28,-5.08 21.16,-11.85 29.63,-20.31 8.46,-8.47 15.24,-18.49 20.32,-30.06 5.07,-11.57 7.61,-23.84 7.61,-36.82l0 -90.59 0 -85.5 -115.13 0 0 -27.94 115.13 0zm309.86 -249.74l0 27.94 -114.29 0 0 544.35 -27.93 0 0 -544.35 -114.3 0 0 -27.94 114.3 0 27.93 0 114.29 0z"/>
  </g>
 </g>
</svg>
