<?xml version="1.0" encoding="UTF-8"?>
<!DOCTYPE svg PUBLIC "-//W3C//DTD SVG 1.1//EN" "http://www.w3.org/Graphics/SVG/1.1/DTD/svg11.dtd">
<!-- Creator: CorelDRAW 2019 (64 Bit) -->
<svg xmlns="http://www.w3.org/2000/svg" xml:space="preserve" width="100mm" height="100mm" version="1.1" style="shape-rendering:geometricPrecision; text-rendering:geometricPrecision; image-rendering:optimizeQuality; fill-rule:evenodd; clip-rule:evenodd"
viewBox="0 0 10000 10000"
 xmlns:xlink="http://www.w3.org/1999/xlink">
 <defs>
  <style type="text/css">
   <![CDATA[
    .fil0 {fill:white}
   ]]>
  </style>
 </defs>
 <g id="Camada_x0020_1">
  <metadata id="CorelCorpID_0Corel-Layer"/>
  <path id="ad.svg" class="fil0" d="M3072.76 5316.3l721.88 0 -360.94 -1039.45 -360.94 1039.45zm3798.44 -312.5c-258.4,0 -468.75,210.35 -468.75,468.75 0,258.4 210.35,468.75 468.75,468.75 258.4,0 468.75,-210.35 468.75,-468.75 0,-258.4 -210.35,-468.75 -468.75,-468.75zm2187.5 -3750l-8125 0c-517.58,0 -937.5,419.92 -937.5,937.5l0 5625c0,517.58 419.92,937.5 937.5,937.5l8125 0c517.58,0 937.5,-419.92 937.5,-937.5l0 -5625c0,-517.58 -419.92,-937.5 -937.5,-937.5zm-4168.36 5625l-330.86 0c-133.01,0 -251.56,-84.38 -295.31,-209.96l-143.95 -415.04 -1372.85 0 -144.14 415.04c-43.66,125.63 -162.16,209.95 -295.19,209.95 0,0 -0.11,0 -0.11,0l-330.87 0.01c-215.04,0 -365.82,-211.91 -295.31,-415.04l1048.82 -3020.12c65.49,-188.39 243.2,-314.84 442.71,-314.84 0,0 0.06,0 0.06,0l520.71 0c0.03,0 0.09,0 0.09,0 199.58,0 377.31,126.48 442.69,315.02l1048.63 3019.92c70.51,203.13 -80.27,415.04 -295.12,415.04l0 0.02zm3387.11 -312.5c0,172.66 -139.84,312.5 -312.5,312.5l-312.5 0c-94.73,0 -176.56,-44.34 -233.98,-110.94 -168.36,71.48 -353.32,110.94 -547.27,110.94 -775.39,0 -1406.25,-630.86 -1406.25,-1406.25 0,-775.39 630.86,-1406.25 1406.25,-1406.25 165.23,0 321.48,33.79 468.75,86.33l0 -711.33c0,-172.66 139.84,-312.5 312.5,-312.5l312.5 0c172.66,0 312.5,139.84 312.5,312.5l0 3125z"/>
 </g>
</svg>
