<?xml version="1.0" encoding="UTF-8"?>
<!DOCTYPE svg PUBLIC "-//W3C//DTD SVG 1.1//EN" "http://www.w3.org/Graphics/SVG/1.1/DTD/svg11.dtd">
<!-- Creator: CorelDRAW 2019 (64 Bit) -->
<svg xmlns="http://www.w3.org/2000/svg" xml:space="preserve" width="100mm" height="100mm" version="1.1" style="shape-rendering:geometricPrecision; text-rendering:geometricPrecision; image-rendering:optimizeQuality; fill-rule:evenodd; clip-rule:evenodd"
viewBox="0 0 10000 10000"
 xmlns:xlink="http://www.w3.org/1999/xlink">
 <defs>
  <style type="text/css">
   <![CDATA[
    .fil0 {fill:white}
   ]]>
  </style>
 </defs>
 <g id="Camada_x0020_1">
  <metadata id="CorelCorpID_0Corel-Layer"/>
  <g id="add-to-cart-svgrepo-com.svg">
   <g id="XMLID_753_">
    <path id="XMLID_756_" class="fil0" d="M9908.11 3604.4c-70.46,-101.9 -186.02,-163.1 -309.86,-163.1l-939.13 0.01c100.4,-291 79.57,-614.11 -67.59,-895.82 -158.82,-304.54 -442.04,-517.41 -772.44,-587.07l0 -816.29c0,-294.74 -115.25,-593.57 -353.7,-820.96 -204.4,-195.47 -480.1,-317.38 -784.64,-317.38 -725.74,0 -151.37,0 -700.23,0 -304.48,0 -580.23,121.91 -784.66,317.36 -219.06,208.83 -353.66,496.93 -353.66,820.96l0 816.26c-330.4,69.68 -613.6,282.54 -772.46,587.07 -147.15,281.73 -167.96,604.82 -67.53,895.82l-933.78 0.01 -847.32 -941.25c-95.08,-105.61 -230.31,-166.03 -372.58,-166.03l-1328.92 -0.16c-276.87,0 -501.3,224.46 -501.3,501.3 0,276.87 224.44,501.18 501.3,501.18l1105.63 0 683.59 759.76 1448.57 3766.58c55.84,145.35 195.31,241.04 350.9,241.04l3985.71 0c155.72,0 295.23,-95.69 350.9,-241.04l1503.89 -3910.33c44.79,-115.71 29.32,-245.73 -40.69,-347.92zm-5040.18 -642.27c41.35,-78.76 122.07,-127.76 210.63,-127.76l0.29 0 663.78 0 0 -1692.24c0,-131.17 106.77,-237.65 237.59,-237.65l0.33 0 700.22 0 0.31 0c130.88,0 237.65,106.48 237.65,237.65l0 1692.22 663.74 0 0.33 0c88.54,0 169.28,49 210.61,127.76 41,78.76 35.17,173 -15.94,245.93l-1251.64 1794.44c-44.6,63.64 -117.53,101.57 -194.98,101.57l-0.18 -0.01 -0.16 0c-77.45,0 -150.36,-37.92 -194.96,-101.57l-1251.62 -1794.44c-51.13,-72.9 -57.01,-167.14 -16,-245.9z"/>
    <path id="XMLID_755_" class="fil0" d="M4691.99 8499.9c-415.37,0 -751.96,336.57 -751.96,751.94 0,415.21 336.59,751.98 751.96,751.98 415.19,0 751.81,-336.77 751.81,-751.98 -0.02,-415.38 -336.62,-751.94 -751.81,-751.94z"/>
    <path id="XMLID_754_" class="fil0" d="M7455.18 8499.9c-415.23,0 -751.96,336.57 -751.96,751.94 0,415.21 336.73,751.98 751.96,751.98 415.33,0 751.77,-336.77 751.77,-751.98 0.01,-415.38 -336.44,-751.94 -751.77,-751.94z"/>
   </g>
   <g>
   </g>
   <g>
   </g>
   <g>
   </g>
   <g>
   </g>
   <g>
   </g>
   <g>
   </g>
   <g>
   </g>
   <g>
   </g>
   <g>
   </g>
   <g>
   </g>
   <g>
   </g>
   <g>
   </g>
   <g>
   </g>
   <g>
   </g>
   <g>
   </g>
  </g>
 </g>
</svg>
