<?xml version="1.0" encoding="UTF-8"?>
<!DOCTYPE svg PUBLIC "-//W3C//DTD SVG 1.1//EN" "http://www.w3.org/Graphics/SVG/1.1/DTD/svg11.dtd">
<!-- Creator: CorelDRAW 2019 (64 Bit) -->
<svg xmlns="http://www.w3.org/2000/svg" xml:space="preserve" width="100mm" height="100mm" version="1.1" style="shape-rendering:geometricPrecision; text-rendering:geometricPrecision; image-rendering:optimizeQuality; fill-rule:evenodd; clip-rule:evenodd"
viewBox="0 0 10000 10000"
 xmlns:xlink="http://www.w3.org/1999/xlink">
 <defs>
  <style type="text/css">
   <![CDATA[
    .fil0 {fill:white}
   ]]>
  </style>
 </defs>
 <g id="Camada_x0020_1">
  <metadata id="CorelCorpID_0Corel-Layer"/>
  <path id="address-book.svg" class="fil0" d="M9136.82 3128.8c128.91,0 234.38,-105.47 234.38,-234.38l0 -781.25c0,-128.91 -105.47,-234.38 -234.38,-234.38l-390.62 0.01 0 -937.5c0,-517.58 -419.92,-937.5 -937.5,-937.5l-6250 0c-517.58,0 -937.5,419.92 -937.5,937.5l0 8125c0,517.58 419.92,937.5 937.5,937.5l6250 0c517.58,0 937.5,-419.92 937.5,-937.5l0 -937.5 390.62 0c128.91,0 234.38,-105.47 234.38,-234.38l0 -781.25c0,-128.91 -105.47,-234.38 -234.38,-234.38l-390.62 0.01 0 -1250 390.62 0c128.91,0 234.38,-105.47 234.38,-234.38l0 -781.25c0,-128.91 -105.47,-234.38 -234.38,-234.38l-390.62 0.01 0 -1250 390.62 0zm-4453.12 -625c689.45,0 1250,560.55 1250,1250 0,689.45 -560.55,1250 -1250,1250 -689.45,0 -1250,-560.55 -1250,-1250 0,-689.45 560.55,-1250 1250,-1250zm2187.5 4625c0,207.03 -195.31,375 -437.5,375l-3500 0c-242.19,0 -437.5,-167.97 -437.5,-375l0 -375c0,-621.09 587.89,-1125 1312.5,-1125l97.66 0c240.23,99.61 501.95,156.25 777.34,156.25 275.39,0 539.06,-56.64 777.34,-156.25l97.66 0c724.61,0 1312.5,503.91 1312.5,1125l0 375z"/>
 </g>
</svg>
