<?xml version="1.0" encoding="UTF-8"?>
<!DOCTYPE svg PUBLIC "-//W3C//DTD SVG 1.1//EN" "http://www.w3.org/Graphics/SVG/1.1/DTD/svg11.dtd">
<!-- Creator: CorelDRAW 2019 (64 Bit) -->
<svg xmlns="http://www.w3.org/2000/svg" xml:space="preserve" width="100mm" height="100mm" version="1.1" style="shape-rendering:geometricPrecision; text-rendering:geometricPrecision; image-rendering:optimizeQuality; fill-rule:evenodd; clip-rule:evenodd"
viewBox="0 0 10000 10000"
 xmlns:xlink="http://www.w3.org/1999/xlink">
 <defs>
  <style type="text/css">
   <![CDATA[
    .fil0 {fill:white}
   ]]>
  </style>
 </defs>
 <g id="Camada_x0020_1">
  <metadata id="CorelCorpID_0Corel-Layer"/>
  <path id="arrow-alt-circle-right.svg" class="fil0" d="M4996.2 160.05c2675.78,0 4843.75,2167.97 4843.75,4843.75 0,2675.78 -2167.97,4843.75 -4843.75,4843.75 -2675.78,0 -4843.75,-2167.97 -4843.75,-4843.75 0,-2675.78 2167.97,-4843.75 4843.75,-4843.75zm-2265.63 5703.12l2265.63 0 0 1384.77c0,208.98 253.91,314.45 400.39,166.02l2232.42 -2244.14c91.8,-91.8 91.8,-238.28 0,-330.08l-2232.42 -2246.09c-148.44,-148.44 -400.39,-42.97 -400.39,166.02l0 1384.75 -2265.63 0c-128.91,0 -234.38,105.47 -234.38,234.38l0 1250c0,128.91 105.47,234.38 234.38,234.38l0 -0.01z"/>
 </g>
</svg>
