<?xml version="1.0" encoding="UTF-8"?>
<!DOCTYPE svg PUBLIC "-//W3C//DTD SVG 1.1//EN" "http://www.w3.org/Graphics/SVG/1.1/DTD/svg11.dtd">
<!-- Creator: CorelDRAW 2019 (64 Bit) -->
<svg xmlns="http://www.w3.org/2000/svg" xml:space="preserve" width="100mm" height="100mm" version="1.1" style="shape-rendering:geometricPrecision; text-rendering:geometricPrecision; image-rendering:optimizeQuality; fill-rule:evenodd; clip-rule:evenodd"
viewBox="0 0 10000 10000"
 xmlns:xlink="http://www.w3.org/1999/xlink">
 <defs>
  <style type="text/css">
   <![CDATA[
    .fil0 {fill:white}
   ]]>
  </style>
 </defs>
 <g id="Camada_x0020_1">
  <metadata id="CorelCorpID_0Corel-Layer"/>
  <path id="bahai.svg" class="fil0" d="M9688.56 3959.37l-2148.44 -301.56 816.8 -2037.89c130.27,-325 -226.56,-628.52 -519.34,-441.99l-1836.71 1169.72 -665.82 -2093.36c-52.93,-166.99 -195.9,-250.39 -338.87,-250.39 -142.97,0 -285.94,83.4 -338.87,250.39l-665.82 2093.55 -1836.72 -1169.73c-292.77,-186.52 -649.41,116.99 -519.34,441.99l816.8 2037.89 -2148.44 301.37c-342.58,48.05 -423.44,513.09 -117.77,677.15l1917.19 1028.52 -1454.69 1631.64c-213.28,239.26 -33.59,604.1 259.57,604.1 25.59,0 52.15,-2.73 79.49,-8.79l2120.51 -461.91 -80.27 2198.24c-8.4,227.54 173.24,375.39 359.57,375.39 100.59,0 202.93,-43.16 277.34,-140.23l1331.64 -1736.33 1331.64 1736.33c74.41,97.07 176.56,140.23 277.34,140.23 186.33,0 367.97,-147.85 359.57,-375.39l-80.27 -2198.24 2120.51 461.91c339.06,73.44 570.51,-335.94 338.87,-595.51l-1454.69 -1631.64 1917.19 -1028.52c305.47,-163.87 224.61,-628.91 -117.97,-676.95l0 0.01zm-3080.86 2132.03l-1013.48 -220.7 38.48 1050.59 -636.52 -829.89 -636.52 829.88 38.28 -1050.59 -1013.48 220.7 695.31 -779.88 -916.41 -491.6 1026.76 -144.14 -390.43 -974.02 877.93 558.98 318.56 -1000.58 318.16 1000.59 877.93 -558.98 -390.43 974.02 1026.76 144.14 -916.41 491.6 695.51 779.88z"/>
 </g>
</svg>
