<?xml version="1.0" encoding="UTF-8"?>
<!DOCTYPE svg PUBLIC "-//W3C//DTD SVG 1.1//EN" "http://www.w3.org/Graphics/SVG/1.1/DTD/svg11.dtd">
<!-- Creator: CorelDRAW 2019 (64 Bit Versão de avaliação) -->
<svg xmlns="http://www.w3.org/2000/svg" xml:space="preserve" width="100mm" height="100mm" version="1.1" style="shape-rendering:geometricPrecision; text-rendering:geometricPrecision; image-rendering:optimizeQuality; fill-rule:evenodd; clip-rule:evenodd"
viewBox="0 0 10000 10000"
 xmlns:xlink="http://www.w3.org/1999/xlink">
 <defs>
  <style type="text/css">
   <![CDATA[
    .fil0 {fill:#FEFEFE}
   ]]>
  </style>
 </defs>
 <g id="Camada_x0020_1">
  <metadata id="CorelCorpID_0Corel-Layer"/>
  <g id="_1597895317472">
   <g>
    <g>
     <path class="fil0" d="M9768.89 8447.28c-68.64,0 -136.36,-30.93 -180.92,-89.97l-4591.84 -6045.56 -4591.83 6045.48c-75.87,100.48 -218.18,119.52 -318.2,43.65 -100.02,-75.87 -119.52,-218.18 -43.65,-318.2l4953.68 -6522.36 4953.68 6522.36c75.87,100.02 56.83,242.25 -43.65,318.2 -40.9,31.39 -89.05,46.4 -137.27,46.4z"/>
    </g>
   </g>
   <g>
   </g>
   <g>
   </g>
   <g>
   </g>
   <g>
   </g>
   <g>
   </g>
   <g>
   </g>
   <g>
   </g>
   <g>
   </g>
   <g>
   </g>
   <g>
   </g>
   <g>
   </g>
   <g>
   </g>
   <g>
   </g>
   <g>
   </g>
   <g>
   </g>
  </g>
  <g id="_1634162835600">
   <polygon class="fil0" points="6786.8,5039.94 4996.16,9844.15 1631.47,7947.01 1631.47,4152.31 "/>
   <polygon class="fil0" points="4996.16,2255.17 1631.47,4152.31 4996.16,6049.67 4996.16,9844.15 8360.88,7947.01 8360.88,4152.31 "/>
   <g>
    <g>
     <polygon class="fil0" points="6088.29,4404.26 6993.83,4914.86 6993.83,8717.85 6370.65,9069 6370.65,5266.25 6370.65,5266.02 5465.11,4755.41 "/>
    </g>
    <g>
     <polygon class="fil0" points="4531.95,4755.41 3626.39,5266.02 3626.39,5266.25 3626.39,9069 3003.21,8717.85 3003.21,4914.86 3908.75,4404.26 "/>
    </g>
   </g>
   <polygon class="fil0" points="6147.58,1927.93 4996.16,5017.19 2832.58,3797.25 2832.58,1357.19 "/>
   <polygon class="fil0" points="4996.16,137.27 2832.58,1357.19 4996.16,2577.22 4996.16,5017.19 7159.77,3797.25 7159.77,1357.19 "/>
   <polygon class="fil0" points="7137.07,1342.67 6352.68,1785.04 5729.71,2136.19 4973.58,2562.59 2809.89,1342.67 3566.02,916.27 4189.2,564.88 4973.58,122.74 "/>
   <path class="fil0" d="M8539.38 4128.42c0,-61.72 -33.24,-118.63 -87.01,-148.96l-1143.34 -644.75 0 -1952.13c0,-61.72 -33.24,-118.67 -87.01,-148.96l-946.52 -533.73c-82.25,-46.39 -186.56,-17.3 -232.95,64.96 -46.41,82.27 -17.3,186.56 64.96,232.95l682.34 384.76 -1793.67 1011.4 -1793.66 -1011.4 1793.66 -1011.4 553.18 311.91c82.27,46.41 186.56,17.32 232.95,-64.96 46.41,-82.27 17.3,-186.56 -64.96,-232.97l-637.19 -359.28c-52.13,-29.39 -115.86,-29.39 -167.98,0l-2141.84 1207.73c-53.77,30.33 -87.01,87.27 -87.01,148.96l0 1952.28 -1143.16 644.56c-53.2,29.98 -86.19,86.05 -86.89,147.01 -0.02,0.66 -0.23,1.25 -0.23,1.91l0 555.08c0,94.45 76.56,171.02 171.02,171.02 94.45,0 171.02,-76.56 171.02,-171.02l0 -262.32 1037.15 584.84 0 3410.23 -1037.15 -584.8 -0.03 -2577.8c0,-94.45 -76.56,-171.02 -171.02,-171.02 -94.45,0 -171.02,76.56 -171.02,171.02l0.01 2677.78c0,61.72 33.24,118.67 87.01,148.96l3372.14 1901.46c26.05,14.71 55.03,22.05 83.99,22.05 28.96,0 57.95,-7.34 84,-22.05l3372.12 -1901.46c53.77,-30.31 87.01,-87.25 87.01,-148.96l0.02 -3801.92c-0.02,-0.31 0.06,-0.67 0.06,-0.98zm-519.2 -0.02l-1026.35 578.71 -559.94 -315.72 788.12 -444.39c53.77,-30.33 87.01,-87.27 87.01,-148.96l0 -70.68 711.16 401.04zm-3836.41 615.61l-559.9 315.72 -274.77 -154.94 559.92 -315.72 274.75 154.94zm728.42 410.74c26.05,14.71 55.03,22.05 83.99,22.05 28.96,0 57.95,-7.34 84,-22.05l382.58 -215.74 559.92 315.72 -1026.54 578.83 -1024.09 -577.5 559.94 -315.72 380.2 214.41zm-87.03 975.07l0 3410.15 -1027.75 -579.53 -0.01 -3410.17 1027.76 579.55zm342.02 -0.04l1032.44 -582.17 0 3410.21 -1032.44 582.17 0 -3410.21zm1203.67 -1071.38l-559.9 -315.72 274.78 -154.94 559.94 315.72 -274.82 154.94zm596.15 -3383.07l0 2022.78 -1799.8 1014.86 0 -2022.78 1799.8 -1014.86zm-2141.84 1014.88l0 2022.78 -1799.84 -1014.86 0 -2022.78 1799.84 1014.86zm-2141.84 1037.31l0 70.51c0,61.72 33.24,118.67 87.01,148.96l790.47 445.72 -559.9 315.72 -1028.59 -580.02 711.01 -400.89zm490.9 1471.33l281.15 158.55 0 3410.21 -281.15 -158.53 0 -3410.23zm3990.63 3214.72l0 -2373.39c0,-94.45 -76.56,-171.02 -171.02,-171.02 -94.45,0 -171.02,76.56 -171.02,171.02l0 2566.25 -281.15 158.53 0.01 -3410.21 281.15 -158.53 0 273.91c0,94.45 76.56,171.02 171.02,171.02 94.45,0 171.02,-76.56 171.02,-171.02l0 -466.76 1032.42 -582.15 0 3410.17 -1032.43 582.18z"/>
   <g>
   </g>
   <g>
   </g>
   <g>
   </g>
   <g>
   </g>
   <g>
   </g>
   <g>
   </g>
   <g>
   </g>
   <g>
   </g>
   <g>
   </g>
   <g>
   </g>
   <g>
   </g>
   <g>
   </g>
   <g>
   </g>
   <g>
   </g>
   <g>
   </g>
  </g>
 </g>
</svg>
