<?xml version="1.0" encoding="UTF-8"?>
<!DOCTYPE svg PUBLIC "-//W3C//DTD SVG 1.1//EN" "http://www.w3.org/Graphics/SVG/1.1/DTD/svg11.dtd">
<!-- Creator: CorelDRAW 2019 (64 Bit) -->
<svg xmlns="http://www.w3.org/2000/svg" xml:space="preserve" width="100mm" height="100mm" version="1.1" style="shape-rendering:geometricPrecision; text-rendering:geometricPrecision; image-rendering:optimizeQuality; fill-rule:evenodd; clip-rule:evenodd"
viewBox="0 0 10000 10000"
 xmlns:xlink="http://www.w3.org/1999/xlink">
 <defs>
  <style type="text/css">
   <![CDATA[
    .fil0 {fill:white}
   ]]>
  </style>
 </defs>
 <g id="Camada_x0020_1">
  <metadata id="CorelCorpID_0Corel-Layer"/>
  <g id="broken-web-link-svgrepo-com.svg">
   <g>
    <path class="fil0" d="M2497.05 2936.42c-144.8,35.31 -279.89,108.6 -388.49,211.02 -112.13,105.06 -195.13,239.27 -239.27,388.49l-1179.6 3995.26c-67.1,226.92 -41.5,467.08 71.51,675.45 113.02,208.38 301.09,359.35 528,426.46l2169.37 640.13c154.51,45.9 318.74,49.44 475.01,11.48 152.75,-37.09 294.9,-113.9 409.68,-221.63 119.19,-111.25 206.61,-252.52 252.52,-407.91l228.67 -773.46 90.95 -309.02c21.18,-70.64 3.53,-145.68 -47.68,-198.66 -50.32,-52.98 -126.25,-75.05 -196.01,-58.28 -30.01,7.07 -57.39,21.18 -82.11,41.5 -80.35,66.22 -169.52,112.12 -264,135.96 -89.17,22.08 -185.41,23.84 -286.06,6.18 -37.96,-7.06 -75.94,-5.3 -113.01,3.53 -94.48,22.96 -169.53,95.36 -196.91,188.07l-139.5 471.48 -1779.99 -525.35 1051.57 -3562.63 1190.19 351.41c45.92,13.25 95.37,15 142.17,3.52 94.47,-22.95 169.52,-95.35 196.89,-188.06l158.04 -535.06c42.38,-144.8 -40.62,-296.66 -184.53,-339.05l-1415.34 -417.62c-146.56,-45.88 -302.85,-50.3 -452.07,-13.21z"/>
    <path class="fil0" d="M8703.2 1374.51l-2169.37 -640.13c-154.51,-45.91 -318.74,-49.45 -475.01,-11.48 -152.76,37.97 -294.91,114.78 -409.69,221.61 -119.19,111.26 -206.61,252.52 -252.52,408.8l-228.68 773.45 -90.94 309.03c-21.19,70.63 -3.53,145.68 47.67,198.66 50.33,52.97 126.27,75.05 196.02,58.27 30.02,-7.06 57.39,-21.19 82.11,-41.49 80.35,-66.22 169.52,-112.14 263.99,-135.98 89.18,-22.07 185.42,-23.84 286.07,-6.18 37.97,7.07 75.93,5.3 113.02,-3.53 94.47,-22.95 169.52,-95.35 196.89,-188.06l139.51 -471.49 1780 525.35 -1051.58 3563.51 -1191.07 -351.41c-45.91,-13.24 -95.37,-15.01 -142.16,-3.53 -94.47,22.97 -169.52,95.37 -196.89,188.07l-158.05 535.06c-42.38,144.81 40.62,296.67 184.53,339.05l1415.35 417.63c147.45,43.25 303.73,47.67 452.94,10.59 144.8,-35.31 279.89,-108.61 388.49,-211.02 112.14,-105.06 195.14,-239.27 239.29,-388.49l1179.6 -3996.16c67.11,-226.91 41.49,-467.07 -71.52,-675.44 -113.02,-205.73 -300.2,-357.59 -528,-424.69z"/>
    <path class="fil0" d="M6704.23 9306.78c83,0 166.88,-25.6 238.4,-79.46 175.7,-131.56 211.01,-380.56 78.58,-556.25l-1033.04 -1372.97c-131.55,-175.7 -380.55,-211.02 -556.25,-78.58 -175.7,131.56 -211.02,380.56 -78.58,556.25l1033.04 1372.96c77.69,103.31 196.89,158.05 317.85,158.05z"/>
    <path class="fil0" d="M4357.4 2861.37c91.82,0 184.53,-31.79 259.58,-97.12 166,-143.92 184.53,-394.68 40.62,-560.67l-1170.78 -1353.53c-143.92,-165.99 -394.67,-184.54 -560.66,-40.62 -165.99,143.92 -183.65,394.67 -40.62,560.66l1170.78 1354.42c79.46,90.94 189.82,136.86 301.08,136.86z"/>
   </g>
   <g>
   </g>
   <g>
   </g>
   <g>
   </g>
   <g>
   </g>
   <g>
   </g>
   <g>
   </g>
   <g>
   </g>
   <g>
   </g>
   <g>
   </g>
   <g>
   </g>
   <g>
   </g>
   <g>
   </g>
   <g>
   </g>
   <g>
   </g>
   <g>
   </g>
  </g>
 </g>
</svg>
