<?xml version="1.0" encoding="UTF-8"?>
<!DOCTYPE svg PUBLIC "-//W3C//DTD SVG 1.1//EN" "http://www.w3.org/Graphics/SVG/1.1/DTD/svg11.dtd">
<!-- Creator: CorelDRAW 2019 (64 Bit Versão de avaliação) -->
<svg xmlns="http://www.w3.org/2000/svg" xml:space="preserve" width="100mm" height="100mm" version="1.1" style="shape-rendering:geometricPrecision; text-rendering:geometricPrecision; image-rendering:optimizeQuality; fill-rule:evenodd; clip-rule:evenodd"
viewBox="0 0 10000 10000"
 xmlns:xlink="http://www.w3.org/1999/xlink">
 <defs>
  <style type="text/css">
   <![CDATA[
    .fil0 {fill:#FEFEFE}
   ]]>
  </style>
 </defs>
 <g id="Camada_x0020_1">
  <metadata id="CorelCorpID_0Corel-Layer"/>
  <g id="_1634171247120">
   <g>
    <g>
     <polygon class="fil0" points="4131.23,2735.37 5155.69,639.99 6645.03,3298.93 7477.42,3425.4 8164.48,1632.44 9142.51,3999.64 9378.8,3991.59 8243.66,1240.53 6124.33,1875.87 5186.66,241.01 1395.57,2117.89 613.6,3661.94 624.31,3976.34 "/>
     <path class="fil0" d="M8168.9 1889.68l-643.83 1681.03 -920.65 -140.38 -1442.21 -2574.92 -980.22 2004.29 -3240.99 1146.77 179.61 5270.29 3273.51 489.84 2136.62 -422.08 0.03 0.82 360.66 -54.04 -101.72 -2984.67 874.19 11.96 96.91 2843.47 499.13 -74.37 0 0 973.37 -208.88 -163.91 -4806.65 -900.5 -2182.48zm-5077.54 1952.12l620.71 -184.2 25.19 739.27 -621.88 149.56 -24.02 -704.63zm43.07 1263.64l622.82 -122.14 25.19 739.27 -624.02 87.01 -23.99 -704.14zm-987.93 -979.96l529.2 -156.76 23.23 681.48 -530.22 127.21 -22.21 -651.93zm39.86 1169.73l530.98 -104.71 23.22 681.48 -532 74.67 -22.2 -651.44zm-852.5 -925.9l457.14 -135.24 21.55 632.07 -458.02 109.95 -20.67 -606.78zm37.06 1087.65l458.71 -89.6 21.54 632.07 -459.58 63.98 -20.67 -606.45zm32.58 1074.32l459.73 -44.43 21.54 632.07 -460.59 19.14 -20.68 -606.78zm528.84 1728.51l-462.69 -27.3 -20.68 -606.78 461.8 1.19 21.57 632.89zm288.48 -1810.77l532.47 -52 23.21 681.15 -533.47 22.45 -22.21 -651.6zm608.02 1858.45l-536.1 -30.38 -22.24 -652.42 535.11 1.32 23.23 681.48zm342.94 -1954.3l624.07 -61.21 25.16 738.45 -625.23 26.9 -24 -704.14zm706.68 2011.07l-628.51 -35.94 -24.03 -704.96 627.35 1.63 25.19 739.27zm1938.9 -4525.27l564.04 128.21 23.49 689.37 -562.93 -95.71 -24.6 -721.87zm-1044.56 -226.56l660.52 149.74 25.35 744.03 -659.2 -110.99 -26.67 -782.78zm36.62 1308.07l659.15 85.36 25.37 744.53 -657.82 -46.29 -26.7 -783.6zm776.18 3340.38l-652.88 83.56 -26.69 -783.11 654.18 -45.3 25.39 744.85zm-35.66 -1246.47l-654.56 18.85 -26.68 -782.77 655.89 19.89 25.35 744.03zm0.79 -4133.45l-479.63 -145.06 -32.3 -950.89 480.79 179.37 31.14 916.58zm301.47 2165.41l562.48 73.53 23.48 688.87 -561.36 -40.37 -24.6 -722.03zm669.76 3084.8l-557.26 70.77 -24.62 -722.36 558.39 -37.77 23.49 689.36zm-33.59 -1152.52l-558.32 15.57 -24.6 -721.87 559.44 17.43 23.48 688.87zm1978.57 -2541.93l351.48 80.23 18.64 546.86 -350.79 -59.87 -19.33 -567.22zm-633.6 -136.36l397.84 90.32 19.81 581.17 -397.06 -67.33 -20.59 -604.16zm30.09 1010.14l396.83 51.73 19.8 581.17 -396.06 -29.07 -20.57 -603.83zm486.79 2591.37l-393.37 49.9 -20.61 -604.65 394.16 -26.91 19.82 581.66zm-28.47 -971.9l-394.29 10.81 -20.57 -603.66 394.86 12.18 19.79 580.68 0.21 -0.01zm42.54 -3320.77l-282.26 -87.85 -24.74 -725.81 282.94 107.71 24.06 705.95zm130.83 1775.93l350.62 45.9 18.66 547.36 -349.93 -25.55 -19.35 -567.71zm435.38 2435.66l-347.56 44.06 -19.35 -567.71 348.27 -23.21 18.64 546.86zm-27.87 -914.89l-347.92 9.23 -19.32 -566.89 348.58 10.31 18.66 547.35z"/>
    </g>
   </g>
   <g>
   </g>
   <g>
   </g>
   <g>
   </g>
   <g>
   </g>
   <g>
   </g>
   <g>
   </g>
   <g>
   </g>
   <g>
   </g>
   <g>
   </g>
   <g>
   </g>
   <g>
   </g>
   <g>
   </g>
   <g>
   </g>
   <g>
   </g>
   <g>
   </g>
  </g>
 </g>
</svg>
