<?xml version="1.0" encoding="UTF-8"?>
<!DOCTYPE svg PUBLIC "-//W3C//DTD SVG 1.1//EN" "http://www.w3.org/Graphics/SVG/1.1/DTD/svg11.dtd">
<!-- Creator: CorelDRAW 2019 (64 Bit Versão de avaliação) -->
<svg xmlns="http://www.w3.org/2000/svg" xml:space="preserve" width="100mm" height="100mm" version="1.1" style="shape-rendering:geometricPrecision; text-rendering:geometricPrecision; image-rendering:optimizeQuality; fill-rule:evenodd; clip-rule:evenodd"
viewBox="0 0 10000 10000"
 xmlns:xlink="http://www.w3.org/1999/xlink">
 <defs>
  <style type="text/css">
   <![CDATA[
    .fil0 {fill:#FEFEFE}
   ]]>
  </style>
 </defs>
 <g id="Camada_x0020_1">
  <metadata id="CorelCorpID_0Corel-Layer"/>
  <g id="_1597918738560">
   <g id="XMLID_241_">
    <g>
     <path class="fil0" d="M8031.74 3.8l-6071.08 0c-364.57,0 -660.11,295.54 -660.11,660.11l0 8679.78c0,364.57 295.54,660.11 660.11,660.11l6071.08 0c364.57,0 660.11,-295.54 660.11,-660.11l0 -8679.78c0,-364.57 -295.54,-660.11 -660.11,-660.11zm-5683.28 7469.78l0 -939.04c0,-75.02 60.8,-135.83 135.83,-135.83l939.04 0c75.02,0 135.83,60.8 135.83,135.83l0 939.04c0,75.02 -60.8,135.83 -135.83,135.83l-939.04 0c-75.02,0 -135.83,-60.83 -135.83,-135.83zm0 -1891.3l0 -939.04c0,-75.02 60.8,-135.83 135.83,-135.83l939.04 0c75.02,0 135.83,60.8 135.83,135.83l0 939.04c0,75.02 -60.8,135.83 -135.83,135.83l-939.04 -0.01c-75.02,0 -135.83,-60.82 -135.83,-135.82zm4362.76 3573.69l-3430.04 0c-240.13,0 -434.78,-194.65 -434.78,-434.78 0,-240.13 194.65,-434.78 434.78,-434.78l3430.04 0c240.13,0 434.78,194.65 434.78,434.78 0,240.13 -194.65,434.78 -434.78,434.78zm-2184.54 -2757.28l939.04 0c75.02,0 135.83,60.8 135.83,135.83l0 939.04c0,75.02 -60.8,135.83 -135.83,135.83l-939.04 0c-75.02,0 -135.83,-60.8 -135.83,-135.83l0 -939.04c0,-75 60.81,-135.83 135.83,-135.83zm-135.83 -816.41l0 -939.04c0,-75.02 60.8,-135.83 135.83,-135.83l939.04 0c75.02,0 135.83,60.8 135.83,135.83l0 939.04c0,75.02 -60.8,135.83 -135.83,135.83l-939.04 -0.01c-75.02,0 -135.83,-60.82 -135.83,-135.82zm3117.26 2027.13l-939.04 0c-75.02,0 -135.83,-60.8 -135.83,-135.83l0 -939.04c0,-75.02 60.8,-135.83 135.83,-135.83l939.04 0c75.02,0 135.83,60.8 135.83,135.83l0 939.04 0 0c0,75.02 -60.81,135.83 -135.83,135.83zm0 -1891.31l-939.04 0c-75.02,0 -135.83,-60.8 -135.83,-135.83l0 -939.04c0,-75.02 60.8,-135.83 135.83,-135.83l939.04 0.01c75.02,0 135.83,60.8 135.83,135.83l0 939.04 0 0c0,75.02 -60.81,135.82 -135.83,135.82zm183.74 -2461.32c0,256.5 -207.93,464.41 -464.41,464.41l-4462.46 0c-256.5,0 -464.43,-207.93 -464.43,-464.41l0 -1897.26c0,-256.48 207.93,-464.42 464.43,-464.42l4462.46 0c256.48,0 464.41,207.94 464.41,464.42l0 1897.26z"/>
    </g>
   </g>
   <g>
   </g>
   <g>
   </g>
   <g>
   </g>
   <g>
   </g>
   <g>
   </g>
   <g>
   </g>
   <g>
   </g>
   <g>
   </g>
   <g>
   </g>
   <g>
   </g>
   <g>
   </g>
   <g>
   </g>
   <g>
   </g>
   <g>
   </g>
   <g>
   </g>
  </g>
 </g>
</svg>
