<?xml version="1.0" encoding="UTF-8"?>
<!DOCTYPE svg PUBLIC "-//W3C//DTD SVG 1.1//EN" "http://www.w3.org/Graphics/SVG/1.1/DTD/svg11.dtd">
<!-- Creator: CorelDRAW 2019 (64 Bit Versão de avaliação) -->
<svg xmlns="http://www.w3.org/2000/svg" xml:space="preserve" width="100mm" height="100mm" version="1.1" style="shape-rendering:geometricPrecision; text-rendering:geometricPrecision; image-rendering:optimizeQuality; fill-rule:evenodd; clip-rule:evenodd"
viewBox="0 0 10000 10000"
 xmlns:xlink="http://www.w3.org/1999/xlink">
 <defs>
  <style type="text/css">
   <![CDATA[
    .fil0 {fill:#FEFEFE}
   ]]>
  </style>
 </defs>
 <g id="Camada_x0020_1">
  <metadata id="CorelCorpID_0Corel-Layer"/>
  <g id="_1634171205488">
   <g>
    <g>
     <path class="fil0" d="M3630.71 4870.93c0,91.99 -73.59,165.58 -165.58,165.58l-621.42 0c-91.99,0 -165.58,-73.59 -165.58,-165.58l0 -621.42c0,-91.99 73.59,-165.58 165.58,-165.58l621.42 0c91.99,0 165.58,73.59 165.58,165.58l0 621.42zm1298.03 -619.38c0,-91.99 -73.59,-165.58 -165.58,-165.58l-621.42 0c-91.99,0 -165.58,73.59 -165.58,165.58l0 621.42c0,91.99 73.59,165.58 165.58,165.58l621.43 0c91.99,0 165.58,-73.59 165.58,-165.58l-0.01 -621.42zm1298.04 0c0,-91.99 -73.59,-165.58 -165.58,-165.58l-621.42 0c-91.99,0 -165.58,73.59 -165.58,165.58l0 621.42c0,91.99 73.59,165.58 165.58,165.58l621.42 0c91.99,0 165.58,-73.59 165.58,-165.58l0 -621.42zm-2596.07 1263.29c0,-91.99 -73.59,-165.58 -165.58,-165.58l-621.42 0c-91.99,0 -165.58,73.59 -165.58,165.58l0 621.42c0,91.99 73.59,165.58 165.58,165.58l621.42 0c91.99,0 165.58,-73.59 165.58,-165.58l0 -621.42zm1298.03 0c0,-91.99 -73.59,-165.58 -165.58,-165.58l-621.42 0c-91.99,0 -165.58,73.59 -165.58,165.58l0.01 621.42c0,91.99 73.59,165.58 165.58,165.58l621.42 0c91.99,0 165.58,-73.59 165.58,-165.58l-0.01 -621.42zm1132.46 -165.58l-621.42 0c-91.99,0 -165.58,73.59 -165.58,165.58l0 621.42c0,91.99 73.59,165.58 165.58,165.58l621.42 0c91.99,0 165.58,-73.59 165.58,-165.58l0 -621.42c0,-91.99 -73.59,-165.58 -165.58,-165.58zm-3896.15 1263.29l-619.38 0c-91.99,0 -165.58,73.59 -165.58,165.58l0 621.42c0,91.99 73.59,165.58 165.58,165.58l621.42 -0.01c91.99,0 165.58,-73.59 165.58,-165.58l0 -621.42c0,-91.98 -75.64,-165.57 -167.62,-165.57zm167.62 -1097.71c0,-91.99 -73.59,-165.58 -165.58,-165.58l-621.42 0c-91.99,0 -165.58,73.59 -165.58,165.58l0 621.42c0,91.99 73.59,165.58 165.58,165.58l621.42 0c91.99,0 165.58,-73.59 165.58,-165.58l0 -621.42zm2430.5 1097.71l-621.43 0c-91.99,0 -165.58,73.59 -165.58,165.58l0 621.42c0,91.99 73.59,165.58 165.58,165.58l621.43 -0.01c91.99,0 165.58,-73.59 165.58,-165.58l0 -621.42c-0.01,-91.98 -73.6,-165.57 -165.58,-165.57zm-1298.04 0l-621.42 0c-91.99,0 -165.58,73.59 -165.58,165.58l0 621.42c0,91.99 73.59,165.58 165.58,165.58l621.42 -0.01c91.99,0 165.58,-73.59 165.58,-165.58l0 -621.42c0,-91.98 -73.59,-165.57 -165.58,-165.57zm3894.11 -1574c91.99,0 165.58,-73.59 165.58,-165.58l0 -621.42c0,-91.99 -73.59,-165.58 -165.58,-165.58l-621.42 0c-91.99,0 -165.58,73.59 -165.58,165.58l0 621.42c0,91.99 73.59,165.58 165.58,165.58l621.42 0zm-6387.98 3875.72l4715.86 0c-75.63,-237.12 -118.56,-490.6 -120.61,-752.25l-4595.25 0c-122.65,0 -220.77,-100.16 -220.77,-220.77l0 -4441.95 7393.71 0 0 2066.64c261.65,2.04 515.13,40.88 752.25,116.52l0 -3738.76c0,-537.61 -437.45,-975.06 -975.06,-975.06l-1091.58 0 0 -600.98c0,-196.24 -159.44,-355.68 -355.68,-355.68l-553.97 0c-196.24,0 -355.68,159.44 -355.68,355.68l0 603.03 -2236.31 -0.01 0 -603.02c0,-196.24 -159.44,-355.68 -355.68,-355.68l-553.97 0c-196.24,0 -355.68,159.44 -355.68,355.68l0 603.03 -1091.58 -0.01c-537.61,0 -975.06,437.45 -975.06,975.07l0 5995.5c0,535.57 437.45,973.02 975.06,973.02zm9024.94 -780.87c0,1028.21 -834.01,1862.22 -1862.22,1862.22 -1028.21,0 -1862.23,-834.01 -1862.23,-1862.22 0,-1028.21 834.01,-1862.22 1862.22,-1862.22 1028.21,0 1862.23,834.01 1862.23,1862.22zm-921.91 -482.42c0,-59.28 -22.49,-116.52 -65.41,-157.4 -87.9,-87.9 -228.95,-87.9 -316.84,0l-809.5 809.48 -310.71 -310.71c-87.9,-87.9 -228.95,-87.9 -316.84,0 -42.93,42.93 -65.41,98.12 -65.41,157.4 0,59.28 22.49,116.52 65.41,157.4l468.11 468.11c87.9,87.9 228.95,87.9 316.84,0l966.88 -966.88c44.98,-40.88 67.47,-98.12 67.47,-157.4z"/>
    </g>
   </g>
   <g>
   </g>
   <g>
   </g>
   <g>
   </g>
   <g>
   </g>
   <g>
   </g>
   <g>
   </g>
   <g>
   </g>
   <g>
   </g>
   <g>
   </g>
   <g>
   </g>
   <g>
   </g>
   <g>
   </g>
   <g>
   </g>
   <g>
   </g>
   <g>
   </g>
  </g>
 </g>
</svg>
