<?xml version="1.0" encoding="UTF-8"?>
<!DOCTYPE svg PUBLIC "-//W3C//DTD SVG 1.1//EN" "http://www.w3.org/Graphics/SVG/1.1/DTD/svg11.dtd">
<!-- Creator: CorelDRAW 2019 (64 Bit) -->
<svg xmlns="http://www.w3.org/2000/svg" xml:space="preserve" width="100mm" height="100mm" version="1.1" style="shape-rendering:geometricPrecision; text-rendering:geometricPrecision; image-rendering:optimizeQuality; fill-rule:evenodd; clip-rule:evenodd"
viewBox="0 0 10000 10000"
 xmlns:xlink="http://www.w3.org/1999/xlink">
 <defs>
  <style type="text/css">
   <![CDATA[
    .fil0 {fill:white}
   ]]>
  </style>
 </defs>
 <g id="Camada_x0020_1">
  <metadata id="CorelCorpID_0Corel-Layer"/>
  <path id="cash-register.svg" class="fil0" d="M9980.21 7402.15l-521.47 -3124.88c-50.77,-300.77 -310.53,-521.46 -617.16,-521.46l-4781.08 -0.01 0 -1249.96 1874.94 0c171.87,0 312.48,-140.62 312.48,-312.49l0 -1876.88c0,-171.87 -140.62,-312.48 -312.48,-312.48l-4999.82 0c-171.87,0 -312.49,140.62 -312.49,312.48l0 1874.93c0,171.88 140.63,312.49 312.49,312.49l1874.93 0 0 1249.96 -1658.14 0c-304.68,0 -566.39,220.69 -617.16,521.46l-521.47 3124.88c-11.72,68.36 -17.57,136.72 -17.57,205.07l0 1773.38c0,345.69 279.28,624.97 624.97,624.97l8749.68 0c345.69,0 624.97,-279.28 624.97,-624.97l0 -1771.42c1.95,-68.35 -3.9,-136.71 -15.62,-205.07zm-4513.51 -2554.59c0,-171.88 140.63,-312.49 312.49,-312.49l312.49 0c171.87,0 312.49,140.62 312.49,312.49l0 312.48c0,171.88 -140.63,312.49 -312.49,312.49l-312.49 0c-171.87,0 -312.49,-140.62 -312.49,-312.49l0 -312.48zm-624.97 1249.95l312.48 0c171.88,0 312.49,140.62 312.49,312.49l0 312.49c0,171.87 -140.62,312.48 -312.49,312.48l-312.48 0c-171.88,0 -312.49,-140.62 -312.49,-312.48l0 -312.49c0,-171.88 140.62,-312.49 312.49,-312.49zm-624.98 -1562.44c171.87,0 312.49,140.62 312.49,312.49l0 312.48c0,171.88 -140.63,312.49 -312.49,312.49l-312.49 0c-171.87,0 -312.49,-140.62 -312.49,-312.49l0 -312.48c0,-171.88 140.63,-312.49 312.49,-312.49l312.49 0zm-2656.15 -2968.64l0 -624.98 3749.86 0 0 624.98 -3749.86 0zm781.22 3906.1l-312.49 0c-171.87,0 -312.49,-140.62 -312.49,-312.49l0 -312.48c0,-171.88 140.63,-312.49 312.49,-312.49l312.49 0c171.87,0 312.49,140.62 312.49,312.49l0 312.48c0,171.88 -140.63,312.49 -312.49,312.49zm312.49 1249.96l0 -312.49c0,-171.88 140.62,-312.49 312.49,-312.49l312.48 0c171.88,0 312.49,140.62 312.49,312.49l0 312.49c0,171.87 -140.62,312.48 -312.49,312.48l-312.48 0c-171.88,0 -312.49,-140.62 -312.49,-312.48zm4218.59 2187.42c0,85.93 -70.31,156.24 -156.24,156.24l-3437.38 0c-85.93,0 -156.24,-70.31 -156.24,-156.24l0 -312.49c0,-85.94 70.31,-156.25 156.24,-156.25l3437.38 0c85.93,0 156.24,70.31 156.24,156.25l0 312.49zm468.73 -2187.42c0,171.87 -140.62,312.48 -312.49,312.48l-312.48 0c-171.88,0 -312.49,-140.62 -312.49,-312.48l0 -312.49c0,-171.88 140.62,-312.49 312.49,-312.49l312.48 0c171.88,0 312.49,140.62 312.49,312.49l0 312.49zm937.47 -1562.45c0,171.88 -140.63,312.49 -312.49,312.49l-312.49 0c-171.87,0 -312.49,-140.62 -312.49,-312.49l0 -312.48c0,-171.88 140.63,-312.49 312.49,-312.49l312.49 0c171.87,0 312.49,140.62 312.49,312.49l0 312.48z"/>
 </g>
</svg>
