<?xml version="1.0" encoding="UTF-8"?>
<!DOCTYPE svg PUBLIC "-//W3C//DTD SVG 1.1//EN" "http://www.w3.org/Graphics/SVG/1.1/DTD/svg11.dtd">
<!-- Creator: CorelDRAW 2019 (64 Bit) -->
<svg xmlns="http://www.w3.org/2000/svg" xml:space="preserve" width="100mm" height="100mm" version="1.1" style="shape-rendering:geometricPrecision; text-rendering:geometricPrecision; image-rendering:optimizeQuality; fill-rule:evenodd; clip-rule:evenodd"
viewBox="0 0 10000 10000"
 xmlns:xlink="http://www.w3.org/1999/xlink">
 <defs>
  <style type="text/css">
   <![CDATA[
    .fil0 {fill:white}
   ]]>
  </style>
 </defs>
 <g id="Camada_x0020_1">
  <metadata id="CorelCorpID_0Corel-Layer"/>
  <path id="check-circle.svg" class="fil0" d="M9839.95 5003.8c0,2675.14 -2168.61,4843.75 -4843.75,4843.75 -2675.14,0 -4843.75,-2168.61 -4843.75,-4843.75 0,-2675.14 2168.61,-4843.75 4843.75,-4843.75 2675.14,0 4843.75,2168.61 4843.75,4843.75zm-5404.02 2564.73l3593.75 -3593.75c122.03,-122.03 122.03,-319.9 0,-441.93l-441.93 -441.93c-122.03,-122.05 -319.9,-122.05 -441.95,0l-2930.85 2930.81 -1368.34 -1368.34c-122.03,-122.03 -319.9,-122.03 -441.95,0l-441.93 441.93c-122.03,122.03 -122.03,319.9 0,441.93l2031.25 2031.25c122.05,122.05 319.9,122.05 441.95,0.02l0 0.01z"/>
 </g>
</svg>
