<?xml version="1.0" encoding="UTF-8"?>
<!DOCTYPE svg PUBLIC "-//W3C//DTD SVG 1.1//EN" "http://www.w3.org/Graphics/SVG/1.1/DTD/svg11.dtd">
<!-- Creator: CorelDRAW 2018 (64 Bit) -->
<svg xmlns="http://www.w3.org/2000/svg" xml:space="preserve" width="50mm" height="50mm" version="1.1" style="shape-rendering:geometricPrecision; text-rendering:geometricPrecision; image-rendering:optimizeQuality; fill-rule:evenodd; clip-rule:evenodd"
viewBox="0 0 5000 5000"
 xmlns:xlink="http://www.w3.org/1999/xlink">
 <defs>
  <style type="text/css">
   <![CDATA[
    .fil0 {fill:#02C402}
   ]]>
  </style>
 </defs>
 <g id="Camada_x0020_1">
  <metadata id="CorelCorpID_0Corel-Layer"/>
  <g>
   <path class="fil0" d="M2500 100c-1325.49,0 -2400,1074.51 -2400,2400 0,1325.49 1074.51,2400 2400,2400 1325.49,0 2400,-1074.51 2400,-2400 0,-1325.49 -1074.51,-2400 -2400,-2400zm0 464.52c1069.66,0 1935.48,865.65 1935.48,1935.48 0,1069.66 -865.65,1935.48 -1935.48,1935.48 -1069.66,0 -1935.48,-865.65 -1935.48,-1935.48 0,-1069.66 865.65,-1935.48 1935.48,-1935.48l0 0zm1356.81 1260.65l-218.09 -219.86c-45.16,-45.53 -118.69,-45.83 -164.23,-0.65l-1367.92 1356.92 -578.63 -583.32c-45.16,-45.54 -118.69,-45.83 -164.23,-0.67l-219.86 218.09c-45.53,45.16 -45.83,118.69 -0.65,164.24l878.52 885.64c45.17,45.53 118.7,45.83 164.23,0.65l1670.21 -1656.81c45.53,-45.17 45.82,-118.7 0.65,-164.23l0 0z"/>
  </g>
 </g>
</svg>
