<?xml version="1.0" encoding="UTF-8"?>
<!DOCTYPE svg PUBLIC "-//W3C//DTD SVG 1.1//EN" "http://www.w3.org/Graphics/SVG/1.1/DTD/svg11.dtd">
<!-- Creator: CorelDRAW 2019 (64 Bit) -->
<svg xmlns="http://www.w3.org/2000/svg" xml:space="preserve" width="100mm" height="100mm" version="1.1" style="shape-rendering:geometricPrecision; text-rendering:geometricPrecision; image-rendering:optimizeQuality; fill-rule:evenodd; clip-rule:evenodd"
viewBox="0 0 10000 10000"
 xmlns:xlink="http://www.w3.org/1999/xlink">
 <defs>
  <style type="text/css">
   <![CDATA[
    .fil0 {fill:#FEFEFE}
   ]]>
  </style>
 </defs>
 <g id="Camada_x0020_1">
  <metadata id="CorelCorpID_0Corel-Layer"/>
  <g id="clean-floors-svgrepo-com.svg">
   <g>
    <g>
     <path class="fil0" d="M9543.45 -2569.62l-118.9 -43.26c-20.98,-7.57 -43,-11.38 -65.01,-11.38 -79.43,0 -151.32,50.11 -178.38,124.72l-3216.97 8820.9c-43.05,-5.32 -86.55,-9.37 -130.07,-12.67 -43.76,-3.28 -88.05,-5.05 -132.32,-6.06 -688.45,-16.96 -1422.16,234.79 -1961.57,834.42l1547.42 300.83 125.73 24.55 125.73 24.55 503 97.9 125.76 24.55 125.73 24.55 1382.45 268.68c-3.04,-55.91 -7.59,-110.07 -14.68,-162.19 -73.9,-545.73 -452.62,-967.26 -965.73,-1209.36 -37.94,-17.99 -76.44,-35.43 -115.86,-51.36 -38.97,-15.69 -78.71,-29.87 -118.69,-43.76l3195.76 -8762.19c35.64,-98.43 -15.21,-207.46 -113.4,-243.42z"/>
     <path class="fil0" d="M5351.16 7965.9l-1942.6 -377.77c-711.2,1139.32 -969.04,2556.91 -1608.61,3272.66 -238.34,266.94 -716.78,925.75 -1475.79,1054.29l4137.69 506.02 1133.21 -1686.8 -499.93 1764.24 1090.22 133.32c0,0 1283.23,-2534.63 1470.98,-4217.64l-1649.36 -320.81 -655.81 -127.51z"/>
    </g>
   </g>
   <g>
   </g>
   <g>
   </g>
   <g>
   </g>
   <g>
   </g>
   <g>
   </g>
   <g>
   </g>
   <g>
   </g>
   <g>
   </g>
   <g>
   </g>
   <g>
   </g>
   <g>
   </g>
   <g>
   </g>
   <g>
   </g>
   <g>
   </g>
   <g>
   </g>
  </g>
 </g>
</svg>
