<?xml version="1.0" encoding="UTF-8"?>
<!DOCTYPE svg PUBLIC "-//W3C//DTD SVG 1.1//EN" "http://www.w3.org/Graphics/SVG/1.1/DTD/svg11.dtd">
<!-- Creator: CorelDRAW 2018 (64 Bit) -->
<svg xmlns="http://www.w3.org/2000/svg" xml:space="preserve" width="100mm" height="100mm" version="1.1" style="shape-rendering:geometricPrecision; text-rendering:geometricPrecision; image-rendering:optimizeQuality; fill-rule:evenodd; clip-rule:evenodd"
viewBox="0 0 10000 10000"
 xmlns:xlink="http://www.w3.org/1999/xlink">
 <defs>
  <style type="text/css">
   <![CDATA[
    .fil0 {fill:#00007D}
   ]]>
  </style>
 </defs>
 <g id="Camada_x0020_1">
  <metadata id="CorelCorpID_0Corel-Layer"/>
  <g id="_2650406357056">
   <g id="clean-floors-svgrepo-com.svg">
    <g>
     <g>
      <path class="fil0" d="M7839.03 271.6l-74.23 -27.01c-13.1,-4.72 -26.85,-7.1 -40.59,-7.1 -49.59,0 -94.47,31.29 -111.37,77.87l-2008.48 5507.24c-26.88,-3.32 -54.04,-5.85 -81.21,-7.91 -27.32,-2.05 -54.97,-3.15 -82.61,-3.78 -429.83,-10.59 -887.92,146.59 -1224.69,520.96l966.12 187.82 78.49 15.33 78.5 15.32 314.05 61.13 78.51 15.32 78.5 15.33 863.12 167.75c-1.9,-34.91 -4.74,-68.72 -9.17,-101.26 -46.13,-340.72 -282.58,-603.9 -602.94,-755.05 -23.69,-11.24 -47.72,-22.12 -72.34,-32.07 -24.33,-9.8 -49.14,-18.65 -74.1,-27.32l1995.24 -5470.59c22.25,-61.45 -9.49,-129.53 -70.8,-151.98z"/>
      <path class="fil0" d="M5221.62 6849.35l-1212.85 -235.85c-444.03,711.32 -605.01,1596.38 -1004.32,2043.25 -148.8,166.66 -447.51,577.98 -921.39,658.24l2583.33 315.92 707.5 -1053.13 -312.12 1101.48 680.67 83.24c0,0 801.17,-1582.47 918.39,-2633.24l-1029.76 -200.3 -409.45 -79.61z"/>
     </g>
    </g>
    <g>
    </g>
    <g>
    </g>
    <g>
    </g>
    <g>
    </g>
    <g>
    </g>
    <g>
    </g>
    <g>
    </g>
    <g>
    </g>
    <g>
    </g>
    <g>
    </g>
    <g>
    </g>
    <g>
    </g>
    <g>
    </g>
    <g>
    </g>
    <g>
    </g>
   </g>
  </g>
 </g>
</svg>
