<?xml version="1.0" encoding="UTF-8"?>
<!DOCTYPE svg PUBLIC "-//W3C//DTD SVG 1.1//EN" "http://www.w3.org/Graphics/SVG/1.1/DTD/svg11.dtd">
<!-- Creator: CorelDRAW 2018 (64 Bit) -->
<svg xmlns="http://www.w3.org/2000/svg" xml:space="preserve" width="100mm" height="100mm" version="1.1" style="shape-rendering:geometricPrecision; text-rendering:geometricPrecision; image-rendering:optimizeQuality; fill-rule:evenodd; clip-rule:evenodd"
viewBox="0 0 10000 10000"
 xmlns:xlink="http://www.w3.org/1999/xlink">
 <defs>
  <style type="text/css">
   <![CDATA[
    .fil0 {fill:white}
   ]]>
  </style>
 </defs>
 <g id="Camada_x0020_1">
  <metadata id="CorelCorpID_0Corel-Layer"/>
  <path class="fil0" d="M8859.38 843.75l-7718.76 0c-491.69,0 -890.62,398.93 -890.62,890.62l0 6531.26c0,491.69 398.93,890.62 890.62,890.62l7718.76 0c491.69,0 890.62,-398.93 890.62,-890.62l0 -6531.26c0,-491.69 -398.93,-890.62 -890.62,-890.62zm0 7310.55c0,61.23 -50.1,111.33 -111.33,111.33l-7496.1 0c-61.23,0 -111.33,-50.1 -111.33,-111.33l0 -6308.6c0,-61.23 50.1,-111.33 111.33,-111.33l7496.1 0c61.23,0 111.33,50.1 111.33,111.33l0 6308.59 0 0.01zm-1994.63 -4293.56l-1139.26 1139.26 1139.26 1139.26c85.35,85.35 85.35,224.51 0,311.72l-413.77 413.77c-85.35,85.35 -224.52,85.35 -311.72,0l-1139.26 -1139.26 -1139.26 1139.26c-85.35,85.35 -224.51,85.35 -311.72,0l-413.77 -413.77c-85.35,-85.35 -85.35,-224.52 0,-311.72l1139.26 -1139.26 -1139.26 -1139.26c-85.35,-85.35 -85.35,-224.51 0,-311.72l413.77 -413.77c85.35,-85.35 224.52,-85.35 311.72,0l1139.26 1139.26 1139.26 -1139.26c85.35,-85.35 224.51,-85.35 311.72,0l413.77 413.77c87.2,85.35 87.2,224.52 0,311.72z"/>
 </g>
</svg>
