<?xml version="1.0" encoding="UTF-8"?>
<!DOCTYPE svg PUBLIC "-//W3C//DTD SVG 1.1//EN" "http://www.w3.org/Graphics/SVG/1.1/DTD/svg11.dtd">
<!-- Creator: CorelDRAW 2019 (64 Bit Versão de avaliação) -->
<svg xmlns="http://www.w3.org/2000/svg" xml:space="preserve" width="100mm" height="100mm" version="1.1" style="shape-rendering:geometricPrecision; text-rendering:geometricPrecision; image-rendering:optimizeQuality; fill-rule:evenodd; clip-rule:evenodd"
viewBox="0 0 10000 10000"
 xmlns:xlink="http://www.w3.org/1999/xlink">
 <defs>
  <style type="text/css">
   <![CDATA[
    .fil0 {fill:#FEFEFE}
   ]]>
  </style>
 </defs>
 <g id="Camada_x0020_1">
  <metadata id="CorelCorpID_0Corel-Layer"/>
  <g id="_1597917813104">
   <g>
    <g>
     <path class="fil0" d="M9768.89 8447.28c-68.64,0 -136.36,-30.93 -180.92,-89.97l-4591.84 -6045.56 -4591.83 6045.48c-75.87,100.48 -218.18,119.52 -318.2,43.65 -100.02,-75.87 -119.52,-218.18 -43.65,-318.2l4953.68 -6522.36 4953.68 6522.36c75.87,100.02 56.83,242.25 -43.65,318.2 -40.9,31.39 -89.05,46.4 -137.27,46.4z"/>
    </g>
   </g>
   <g>
   </g>
   <g>
   </g>
   <g>
   </g>
   <g>
   </g>
   <g>
   </g>
   <g>
   </g>
   <g>
   </g>
   <g>
   </g>
   <g>
   </g>
   <g>
   </g>
   <g>
   </g>
   <g>
   </g>
   <g>
   </g>
   <g>
   </g>
   <g>
   </g>
  </g>
  <g id="_1598952516352">
   <g>
    <g>
     <g>
      <path class="fil0" d="M5138.7 91.23c-92.09,-33.34 -192.91,-33.34 -284.99,0l-4330.84 1575 4473.33 1704.16 4473.34 -1704.16 -4330.84 -1575z"/>
      <path class="fil0" d="M5412.86 4103.48l0 5837.9 4309.16 -1566.66c164.59,-60 274.16,-216.66 274.16,-391.66l0 -5625.42 -4583.32 1745.84z"/>
      <path class="fil0" d="M-3.79 7983.06c0,175 109.59,331.66 274.16,391.66l4309.16 1566.66 0 -5837.9 -4583.32 -1745.84 0 5625.42z"/>
     </g>
    </g>
   </g>
   <g>
   </g>
   <g>
   </g>
   <g>
   </g>
   <g>
   </g>
   <g>
   </g>
   <g>
   </g>
   <g>
   </g>
   <g>
   </g>
   <g>
   </g>
   <g>
   </g>
   <g>
   </g>
   <g>
   </g>
   <g>
   </g>
   <g>
   </g>
   <g>
   </g>
  </g>
 </g>
</svg>
