<?xml version="1.0" encoding="UTF-8"?>
<!DOCTYPE svg PUBLIC "-//W3C//DTD SVG 1.1//EN" "http://www.w3.org/Graphics/SVG/1.1/DTD/svg11.dtd">
<!-- Creator: CorelDRAW 2018 (64 Bit) -->
<svg xmlns="http://www.w3.org/2000/svg" xml:space="preserve" width="100mm" height="100mm" version="1.1" style="shape-rendering:geometricPrecision; text-rendering:geometricPrecision; image-rendering:optimizeQuality; fill-rule:evenodd; clip-rule:evenodd"
viewBox="0 0 10000 10000"
 xmlns:xlink="http://www.w3.org/1999/xlink">
 <defs>
  <style type="text/css">
   <![CDATA[
    .fil0 {fill:white}
   ]]>
  </style>
 </defs>
 <g id="Camada_x0020_1">
  <metadata id="CorelCorpID_0Corel-Layer"/>
  <path id="dolly.svg" class="fil0" d="M4892.55 5377.02c-312.5,86.81 -602.43,232.63 -859.38,428.81l-2803.82 -934.02c-145.83,-48.61 -223.96,-206.6 -175.35,-350.69l1048.62 -3145.84c48.61,-145.83 206.6,-223.96 350.69,-175.35l1060.76 354.17 -574.65 1725.69 1053.83 348.96 574.65 -1725.69 1069.43 355.9c145.83,48.61 223.96,206.6 175.35,350.69l-920.13 2767.36 0 0.01zm-4878.47 845.47l177.08 -527.78c48.61,-145.83 206.6,-223.95 350.69,-175.35l3706.6 1236.11c298.61,-381.94 756.94,-631.94 1276.03,-642.36l1725.7 -5177.07c76.39,-227.43 288.19,-380.2 527.78,-380.2l1944.44 0c152.78,0 277.78,125 277.78,277.77l0 555.56c0,152.78 -125,277.78 -277.78,277.78l-1543.4 0 -1600.69 4803.81c453.12,354.17 723.96,930.56 625,1571.18 -105.9,684.03 -657.99,1255.21 -1342.01,1375 -1045.13,185.76 -1949.64,-604.17 -1968.74,-1607.64l-3703.12 -1236.11c-144.1,-48.61 -223.96,-204.86 -175.35,-350.69l-0.01 -0.01zm5541.66 2388.89c460.07,0 833.33,-373.26 833.33,-833.33 0,-460.07 -373.26,-833.33 -833.33,-833.33 -460.07,0 -833.32,373.26 -833.32,833.33 0,460.07 373.25,833.33 833.32,833.33z"/>
 </g>
</svg>
