<?xml version="1.0" encoding="UTF-8"?>
<!DOCTYPE svg PUBLIC "-//W3C//DTD SVG 1.1//EN" "http://www.w3.org/Graphics/SVG/1.1/DTD/svg11.dtd">
<!-- Creator: CorelDRAW 2019 (64 Bit) -->
<svg xmlns="http://www.w3.org/2000/svg" xml:space="preserve" width="100mm" height="100mm" version="1.1" style="shape-rendering:geometricPrecision; text-rendering:geometricPrecision; image-rendering:optimizeQuality; fill-rule:evenodd; clip-rule:evenodd"
viewBox="0 0 10000 10000"
 xmlns:xlink="http://www.w3.org/1999/xlink">
 <defs>
  <style type="text/css">
   <![CDATA[
    .fil0 {fill:white}
   ]]>
  </style>
 </defs>
 <g id="Camada_x0020_1">
  <metadata id="CorelCorpID_0Corel-Layer"/>
  <path id="dolly.svg" class="fil0" d="M5103.66 5380.81c312.5,86.81 602.43,232.64 859.38,428.82l2803.82 -934.03c145.83,-48.61 223.96,-206.6 175.35,-350.69l-1048.62 -3145.84c-48.61,-145.83 -206.6,-223.96 -350.69,-175.35l-1060.76 354.17 574.65 1725.69 -1053.83 348.96 -574.65 -1725.69 -1069.44 355.9c-145.83,48.61 -223.96,206.6 -175.35,350.69l920.14 2767.36 0 0.01zm4878.47 845.48l-177.08 -527.78c-48.61,-145.83 -206.6,-223.96 -350.69,-175.35l-3706.6 1236.11c-298.61,-381.94 -756.94,-631.94 -1276.04,-642.36l-1725.7 -5177.08c-76.39,-227.43 -288.19,-380.2 -527.78,-380.2l-1944.44 0c-152.78,0 -277.78,125 -277.78,277.77l0 555.56c0,152.78 125,277.78 277.78,277.78l1543.4 0 1600.69 4803.82c-453.12,354.17 -723.96,930.56 -625,1571.18 105.9,684.03 657.99,1255.21 1342.01,1375 1045.14,185.76 1949.65,-604.17 1968.75,-1607.64l3703.12 -1236.11c144.1,-48.61 223.96,-204.86 175.35,-350.69l0.01 -0.01zm-5541.67 2388.89c-460.07,0 -833.33,-373.26 -833.33,-833.33 0,-460.07 373.26,-833.33 833.33,-833.33 460.07,0 833.33,373.26 833.33,833.33 0,460.07 -373.26,833.33 -833.33,833.33z"/>
 </g>
</svg>
