<?xml version="1.0" encoding="UTF-8"?>
<!DOCTYPE svg PUBLIC "-//W3C//DTD SVG 1.1//EN" "http://www.w3.org/Graphics/SVG/1.1/DTD/svg11.dtd">
<!-- Creator: CorelDRAW 2019 (64 Bit) -->
<svg xmlns="http://www.w3.org/2000/svg" xml:space="preserve" width="100mm" height="100mm" version="1.1" style="shape-rendering:geometricPrecision; text-rendering:geometricPrecision; image-rendering:optimizeQuality; fill-rule:evenodd; clip-rule:evenodd"
viewBox="0 0 10000 10000"
 xmlns:xlink="http://www.w3.org/1999/xlink">
 <defs>
  <style type="text/css">
   <![CDATA[
    .fil0 {fill:white}
   ]]>
  </style>
 </defs>
 <g id="Camada_x0020_1">
  <metadata id="CorelCorpID_0Corel-Layer"/>
  <g id="download-button-svgrepo-com.svg">
   <g>
    <path class="fil0" d="M8489.93 6376.81l0 2284.34 -6987.46 0 0 -2284.34 -1342.98 0 0 2955.83c0,370.61 300.22,671.16 672.49,671.16l8328.44 0c371.94,0 672.49,-300.22 672.49,-671.16l0 -2955.83 -1342.98 0z"/>
    <path class="fil0" d="M4873.28 6150.31l-1922.74 -2323.37c0,0 -292.55,-276.2 24.68,-276.2 317.23,0 1083.46,0 1083.46,0 0,0 0,-185.8 0,-472.35 0,-816.93 0,-2303.69 0,-2909.8 0,0 -43.03,-164.79 205.15,-164.79 250.18,0 1345.99,0 1525.12,0 178.8,0 174.79,138.77 174.79,138.77 0,587.76 0,2125.89 0,2916.14 0,256.19 0,422.31 0,422.31 0,0 614.45,0 1000.07,0 384.95,0 95.07,289.21 95.07,289.21 0,0 -1635.87,2171.59 -1864.03,2399.43 -164.12,165.12 -321.57,-19.35 -321.57,-19.35z"/>
    <g>
    </g>
    <g>
    </g>
    <g>
    </g>
    <g>
    </g>
    <g>
    </g>
    <g>
    </g>
    <g>
    </g>
    <g>
    </g>
    <g>
    </g>
    <g>
    </g>
    <g>
    </g>
    <g>
    </g>
    <g>
    </g>
    <g>
    </g>
    <g>
    </g>
   </g>
   <g>
   </g>
   <g>
   </g>
   <g>
   </g>
   <g>
   </g>
   <g>
   </g>
   <g>
   </g>
   <g>
   </g>
   <g>
   </g>
   <g>
   </g>
   <g>
   </g>
   <g>
   </g>
   <g>
   </g>
   <g>
   </g>
   <g>
   </g>
   <g>
   </g>
  </g>
 </g>
</svg>
