<?xml version="1.0" encoding="UTF-8"?>
<!DOCTYPE svg PUBLIC "-//W3C//DTD SVG 1.1//EN" "http://www.w3.org/Graphics/SVG/1.1/DTD/svg11.dtd">
<!-- Creator: CorelDRAW 2018 (64 Bit) -->
<svg xmlns="http://www.w3.org/2000/svg" xml:space="preserve" width="100mm" height="100mm" version="1.1" style="shape-rendering:geometricPrecision; text-rendering:geometricPrecision; image-rendering:optimizeQuality; fill-rule:evenodd; clip-rule:evenodd"
viewBox="0 0 10000 10000"
 xmlns:xlink="http://www.w3.org/1999/xlink">
 <defs>
  <style type="text/css">
   <![CDATA[
    .fil0 {fill:#00007D}
   ]]>
  </style>
 </defs>
 <g id="Camada_x0020_1">
  <metadata id="CorelCorpID_0Corel-Layer"/>
  <g id="_2650406303408">
   <g id="download-button-svgrepo-com.svg">
    <g>
     <path class="fil0" d="M8415.37 6342.22l0 2233.1 -6830.74 0 0 -2233.1 -1312.85 0 0 2889.53c0,362.3 293.48,656.11 657.4,656.11l8141.64 0c363.6,0 657.41,-293.49 657.41,-656.11l0 -2889.53 -1312.86 0z"/>
     <path class="fil0" d="M4879.84 6120.8l-1879.62 -2271.26c0,0 -285.98,-270 24.13,-270 310.12,0 1059.16,0 1059.16,0 0,0 0,-181.64 0,-461.76 0,-798.61 0,-2252.02 0,-2844.54 0,0 -42.06,-161.09 200.55,-161.09 244.57,0 1315.8,0 1490.91,0 174.79,0 170.87,135.66 170.87,135.66 0,574.57 0,2078.21 0,2850.73 0,250.45 0,412.84 0,412.84 0,0 600.67,0 977.64,0 376.32,0 92.94,282.72 92.94,282.72 0,0 -1599.18,2122.89 -1822.22,2345.62 -160.44,161.41 -314.36,-18.92 -314.36,-18.92z"/>
     <g>
     </g>
     <g>
     </g>
     <g>
     </g>
     <g>
     </g>
     <g>
     </g>
     <g>
     </g>
     <g>
     </g>
     <g>
     </g>
     <g>
     </g>
     <g>
     </g>
     <g>
     </g>
     <g>
     </g>
     <g>
     </g>
     <g>
     </g>
     <g>
     </g>
    </g>
    <g>
    </g>
    <g>
    </g>
    <g>
    </g>
    <g>
    </g>
    <g>
    </g>
    <g>
    </g>
    <g>
    </g>
    <g>
    </g>
    <g>
    </g>
    <g>
    </g>
    <g>
    </g>
    <g>
    </g>
    <g>
    </g>
    <g>
    </g>
    <g>
    </g>
   </g>
  </g>
 </g>
</svg>
