<?xml version="1.0" encoding="UTF-8"?>
<!DOCTYPE svg PUBLIC "-//W3C//DTD SVG 1.1//EN" "http://www.w3.org/Graphics/SVG/1.1/DTD/svg11.dtd">
<!-- Creator: CorelDRAW 2019 (64 Bit) -->
<svg xmlns="http://www.w3.org/2000/svg" xml:space="preserve" width="100mm" height="100mm" version="1.1" style="shape-rendering:geometricPrecision; text-rendering:geometricPrecision; image-rendering:optimizeQuality; fill-rule:evenodd; clip-rule:evenodd"
viewBox="0 0 10000 10000"
 xmlns:xlink="http://www.w3.org/1999/xlink">
 <defs>
  <style type="text/css">
   <![CDATA[
    .fil0 {fill:white}
   ]]>
  </style>
 </defs>
 <g id="Camada_x0020_1">
  <metadata id="CorelCorpID_0Corel-Layer"/>
  <path id="edit.svg" class="fil0" d="M6985.78 2002.94l1565.97 1565.97c65.97,65.97 65.97,173.61 0,239.58l-3791.66 3791.67 -1611.11 178.82c-215.28,24.31 -397.57,-157.99 -373.26,-373.26l178.82 -1611.11 3791.66 -3791.67c65.97,-65.97 173.61,-65.97 239.58,0zm2812.5 -397.57l-847.22 -847.22c-263.89,-263.89 -692.71,-263.89 -958.33,0l-614.58 614.58c-65.97,65.97 -65.97,173.61 0,239.58l1565.97 1565.97c65.97,65.97 173.61,65.97 239.58,0l614.58 -614.58c263.89,-265.63 263.89,-694.44 0,-958.33zm-3135.41 4963.54l0 1767.36 -5555.56 0 0 -5555.55 3989.58 0c55.56,0 107.64,-22.57 147.57,-60.76l694.44 -694.44c131.94,-131.94 38.19,-355.9 -147.57,-355.9l-4961.8 -0.01c-460.07,0 -833.33,373.26 -833.33,833.33l0 6111.11c0,460.07 373.26,833.33 833.33,833.33l6111.11 0c460.07,0 833.33,-373.26 833.33,-833.33l0.01 -2739.58c0,-185.76 -223.96,-277.78 -355.9,-147.57l-694.44 694.44c-38.19,39.93 -60.76,92.01 -60.76,147.57l-0.01 0z"/>
 </g>
</svg>
