<?xml version="1.0" encoding="UTF-8"?>
<!DOCTYPE svg PUBLIC "-//W3C//DTD SVG 1.1//EN" "http://www.w3.org/Graphics/SVG/1.1/DTD/svg11.dtd">
<!-- Creator: CorelDRAW 2019 (64 Bit) -->
<svg xmlns="http://www.w3.org/2000/svg" xml:space="preserve" width="100mm" height="100mm" version="1.1" style="shape-rendering:geometricPrecision; text-rendering:geometricPrecision; image-rendering:optimizeQuality; fill-rule:evenodd; clip-rule:evenodd"
viewBox="0 0 10000 10000"
 xmlns:xlink="http://www.w3.org/1999/xlink">
 <defs>
  <style type="text/css">
   <![CDATA[
    .fil0 {fill:white}
   ]]>
  </style>
 </defs>
 <g id="Camada_x0020_1">
  <metadata id="CorelCorpID_0Corel-Layer"/>
  <path id="exchange-alt.svg" class="fil0" d="M-3.8 3285.1l0 -312.5c0,-258.89 209.86,-468.75 468.75,-468.75l7031.25 0 0 -937.5c0,-417.32 505.84,-625.82 800.21,-331.46l1562.5 1562.5c183.05,183.07 183.05,479.86 0,662.91l-1562.5 1562.5c-293.26,293.2 -800.21,87.61 -800.21,-331.45l0 -937.5 -7031.25 0c-258.89,0 -468.75,-209.86 -468.75,-468.75zm9531.25 2968.75l-7031.25 0 0 -937.5c0,-416.29 -505.12,-626.56 -800.21,-331.46l-1562.5 1562.5c-183.05,183.07 -183.05,479.86 0,662.91l1562.5 1562.5c293.51,293.49 800.21,87.24 800.21,-331.45l0 -937.5 7031.25 0c258.89,0 468.75,-209.86 468.75,-468.75l0 -312.5c0,-258.89 -209.86,-468.75 -468.75,-468.75z"/>
 </g>
</svg>
