<?xml version="1.0" encoding="UTF-8"?>
<!DOCTYPE svg PUBLIC "-//W3C//DTD SVG 1.1//EN" "http://www.w3.org/Graphics/SVG/1.1/DTD/svg11.dtd">
<!-- Creator: CorelDRAW 2019 (64 Bit) -->
<svg xmlns="http://www.w3.org/2000/svg" xml:space="preserve" width="100mm" height="100mm" version="1.1" style="shape-rendering:geometricPrecision; text-rendering:geometricPrecision; image-rendering:optimizeQuality; fill-rule:evenodd; clip-rule:evenodd"
viewBox="0 0 10000 10000"
 xmlns:xlink="http://www.w3.org/1999/xlink">
 <defs>
  <style type="text/css">
   <![CDATA[
    .fil0 {fill:white}
   ]]>
  </style>
 </defs>
 <g id="Camada_x0020_1">
  <metadata id="CorelCorpID_0Corel-Layer"/>
  <path id="eye.svg" class="fil0" d="M4996.19 3059.36c-183.62,2.82 -367.03,32.21 -542.45,86.76 81.33,142.8 124.77,304.37 125.83,468.77 -0.03,536.87 -435.4,972.24 -972.25,972.24 -164.42,-1.03 -325.99,-44.47 -468.77,-125.73 -50.09,174.39 -75.9,355.75 -75.9,537.36 0,1070.92 868.48,1939.4 1939.39,1939.4 1070.93,0 1939.41,-868.48 1939.41,-1939.4 0,-1070.93 -868.48,-1939.41 -1939.41,-1939.41 -1.89,0 -4.03,0 -5.9,0l0.05 0.01zm3081.94 3093.05c916.15,-3239.06 -947.74,-4481.94 -3081.94,-4481.94 -2134.2,0 -3998.61,1243.75 -4939.58,3080.03 -39.61,78.54 -60.39,165.42 -60.39,253.38 0,87.97 20.78,174.85 60.41,253.35 941.47,1837.02 2805.36,3079.9 4939.56,3079.9 2134.2,0 3998.61,-1243.75 4939.58,-3080.03 39.63,-78.55 60.41,-165.43 60.41,-253.39 0,-87.97 -20.78,-174.85 -60.41,-253.35l-1857.64 1402.05zm-3081.94 1351.39c-1712.67,0 -3282.81,-954.86 -4130.73,-2500 847.92,-1545.14 2417.88,-2500 4130.73,-2500 1712.85,0 3282.81,954.86 4130.73,2500 -847.74,1545.14 -2417.88,2500 -4130.73,2500z"/>
 </g>
</svg>
