<?xml version="1.0" encoding="UTF-8"?>
<!DOCTYPE svg PUBLIC "-//W3C//DTD SVG 1.1//EN" "http://www.w3.org/Graphics/SVG/1.1/DTD/svg11.dtd">
<!-- Creator: CorelDRAW 2018 (64 Bit) -->
<svg xmlns="http://www.w3.org/2000/svg" xml:space="preserve" width="100mm" height="100mm" version="1.1" style="shape-rendering:geometricPrecision; text-rendering:geometricPrecision; image-rendering:optimizeQuality; fill-rule:evenodd; clip-rule:evenodd"
viewBox="0 0 10000 10000"
 xmlns:xlink="http://www.w3.org/1999/xlink">
 <defs>
  <style type="text/css">
   <![CDATA[
    .fil0 {fill:#00007D}
   ]]>
  </style>
 </defs>
 <g id="Camada_x0020_1">
  <metadata id="CorelCorpID_0Corel-Layer"/>
  <path id="eye.svg" class="fil0" d="M4999.99 3152.78c-174.44,2.67 -348.68,30.59 -515.33,82.42 77.26,135.66 118.53,289.15 119.54,445.33 -0.03,510.03 -413.63,923.63 -923.64,923.63 -156.2,-0.98 -309.69,-42.24 -445.33,-119.44 -47.59,165.67 -72.11,337.96 -72.11,510.49 0,1017.38 825.06,1842.44 1842.43,1842.44 1017.39,0 1842.44,-825.06 1842.44,-1842.44 0,-1017.39 -825.05,-1842.44 -1842.44,-1842.44 -1.8,0 -3.83,0 -5.61,0l0.05 0.01zm2927.86 2938.4c870.34,-3077.11 -900.36,-4257.85 -2927.86,-4257.85 -2027.5,0 -3798.69,1181.56 -4692.62,2926.03 -37.63,74.62 -57.37,157.15 -57.37,240.72 0,83.57 19.74,166.1 57.39,240.68 894.4,1745.17 2665.1,2925.91 4692.6,2925.91 2027.5,0 3798.7,-1181.56 4692.62,-2926.03 37.65,-74.63 57.39,-157.16 57.39,-240.73 0,-83.57 -19.74,-166.1 -57.39,-240.68l-1764.76 1331.95zm-2927.86 1283.83c-1627.04,0 -3118.68,-907.12 -3924.21,-2375.01 805.53,-1467.89 2297,-2375.01 3924.21,-2375.01 1627.21,0 3118.68,907.12 3924.21,2375.01 -805.36,1467.89 -2297,2375.01 -3924.21,2375.01z"/>
 </g>
</svg>
