<?xml version="1.0" encoding="UTF-8"?>
<!DOCTYPE svg PUBLIC "-//W3C//DTD SVG 1.1//EN" "http://www.w3.org/Graphics/SVG/1.1/DTD/svg11.dtd">
<!-- Creator: CorelDRAW 2019 (64 Bit) -->
<svg xmlns="http://www.w3.org/2000/svg" xml:space="preserve" width="100mm" height="100mm" version="1.1" style="shape-rendering:geometricPrecision; text-rendering:geometricPrecision; image-rendering:optimizeQuality; fill-rule:evenodd; clip-rule:evenodd"
viewBox="0 0 10000 10000"
 xmlns:xlink="http://www.w3.org/1999/xlink">
 <defs>
  <style type="text/css">
   <![CDATA[
    .fil0 {fill:white}
   ]]>
  </style>
 </defs>
 <g id="Camada_x0020_1">
  <metadata id="CorelCorpID_0Corel-Layer"/>
  <path id="database.svg" class="fil0" d="M9371.2 1432.37l0 892.85c0,786.84 -1959.63,1428.58 -4375,1428.58 -2415.37,0 -4375,-641.74 -4375,-1428.57l0 -892.86c0,-786.83 1959.63,-1428.57 4375,-1428.57 2415.37,0 4375,641.74 4375,1428.57zm0 2008.93l0 2008.93c0,786.83 -1959.63,1428.57 -4375,1428.57 -2415.37,0 -4375,-641.74 -4375,-1428.57l0 -2008.93c939.94,647.32 2660.31,948.67 4375,948.67 1714.69,0 3435.04,-301.35 4375,-948.67zm0 3125l0 2008.93c0,786.83 -1959.63,1428.57 -4375,1428.57 -2415.37,0 -4375,-641.74 -4375,-1428.57l0 -2008.93c939.94,647.32 2660.31,948.67 4375,948.67 1714.69,0 3435.04,-301.35 4375,-948.67z"/>
  <path id="eye.svg" class="fil0" d="M9935.77 5490.42c-941.49,-1836.98 -2805.38,-3079.86 -4939.58,-3079.86 -2134.2,0 -3998.61,1243.75 -4939.58,3080.03 -39.61,78.54 -60.39,165.42 -60.39,253.38 0,87.97 20.78,174.85 60.41,253.35 941.47,1837.02 2805.36,3079.9 4939.56,3079.9 2134.2,0 3998.61,-1243.75 4939.58,-3080.03 39.63,-78.55 60.41,-165.43 60.41,-253.39 0,-87.97 -20.78,-174.85 -60.41,-253.35l0 -0.03zm-4939.58 2753.47c-1380.46,-0.01 -2499.98,-1119.53 -2499.98,-2500 0,-1380.48 1119.52,-2500 2499.98,-2500 1380.48,0 2500,1119.52 2500,2500 0,0.29 0,0.9 0,1.21 0,1379.8 -1118.98,2498.78 -2498.78,2498.78 -0.31,0 -0.92,0 -1.22,0l0 0.01zm2500 -6666.67c-148.39,2.06 -296.87,24.49 -439.49,65.9 104.91,142.46 161.71,315.18 161.71,492.26 0,458.72 -372.01,830.73 -830.73,830.73 -177.08,0 -349.8,-56.8 -492.39,-161.66 9.04,-69.71 13.51,-140.77 13.51,-211.21 0,-918.21 -744.64,-1662.85 -1662.83,-1662.85 -918.21,0 -1662.85,744.64 -1662.85,1662.85 0,918.21 744.64,1662.85 1662.85,1662.85 260.46,0 517.88,-61.51 750.3,-178.85l2499.92 -2500.02z"/>
 </g>
</svg>
