<?xml version="1.0" encoding="UTF-8"?>
<!DOCTYPE svg PUBLIC "-//W3C//DTD SVG 1.1//EN" "http://www.w3.org/Graphics/SVG/1.1/DTD/svg11.dtd">
<!-- Creator: CorelDRAW 2019 (64 Bit) -->
<svg xmlns="http://www.w3.org/2000/svg" xml:space="preserve" width="100mm" height="100mm" version="1.1" style="shape-rendering:geometricPrecision; text-rendering:geometricPrecision; image-rendering:optimizeQuality; fill-rule:evenodd; clip-rule:evenodd"
viewBox="0 0 10000 10000"
 xmlns:xlink="http://www.w3.org/1999/xlink">
 <defs>
  <style type="text/css">
   <![CDATA[
    .fil0 {fill:white}
   ]]>
  </style>
 </defs>
 <g id="Camada_x0020_1">
  <metadata id="CorelCorpID_0Corel-Layer"/>
  <path id="facebook.svg" class="fil0" d="M9839.95 5033.09c0,-2675.78 -2167.97,-4843.75 -4843.75,-4843.75 -2675.78,0 -4843.75,2167.97 -4843.75,4843.75 0,2417.58 1771.29,4421.48 4086.91,4785.16l0 -3384.96 -1230.46 0 0 -1400.2 1230.46 0 0 -1067.19c0,-1213.87 722.66,-1884.38 1829.49,-1884.38 530.08,0 1084.38,94.53 1084.38,94.53l0 1191.41 -610.94 0.01c-601.56,0 -789.26,373.44 -789.26,756.45l0.01 909.17 1343.36 0 -214.84 1400.2 -1128.52 0 0 3384.96c2315.62,-363.68 4086.91,-2367.58 4086.91,-4785.16z"/>
 </g>
</svg>
