<?xml version="1.0" encoding="UTF-8"?>
<!DOCTYPE svg PUBLIC "-//W3C//DTD SVG 1.1//EN" "http://www.w3.org/Graphics/SVG/1.1/DTD/svg11.dtd">
<!-- Creator: CorelDRAW 2018 (64 Bit) -->
<svg xmlns="http://www.w3.org/2000/svg" xml:space="preserve" width="100mm" height="100mm" version="1.1" style="shape-rendering:geometricPrecision; text-rendering:geometricPrecision; image-rendering:optimizeQuality; fill-rule:evenodd; clip-rule:evenodd"
viewBox="0 0 10000 10000"
 xmlns:xlink="http://www.w3.org/1999/xlink">
 <defs>
  <style type="text/css">
   <![CDATA[
    .fil0 {fill:white}
   ]]>
  </style>
 </defs>
 <g id="Camada_x0020_1">
  <metadata id="CorelCorpID_0Corel-Layer"/>
  <path class="fil0" d="M5625 2656.25l0 -2656.25 -3906.25 0c-259.76,0 -468.75,208.99 -468.75,468.75l0 9062.5c0,259.76 208.99,468.75 468.75,468.75l6562.5 0c259.76,0 468.75,-208.99 468.75,-468.75l0 -6406.25 -2656.25 0c-257.81,0 -468.75,-210.94 -468.75,-468.75zm-3125 -1250c0,-86.33 69.92,-156.25 156.25,-156.25l1562.5 0c86.33,0 156.25,69.92 156.25,156.25l0 312.5c0,86.33 -69.92,156.25 -156.25,156.25l-1562.5 0c-86.33,0 -156.25,-69.92 -156.25,-156.25l0 -312.5zm0 1250c0,-86.33 69.92,-156.25 156.25,-156.25l1562.5 0c86.33,0 156.25,69.92 156.25,156.25l0 312.5c0,86.33 -69.92,156.25 -156.25,156.25l-1562.5 0c-86.33,0 -156.25,-69.92 -156.25,-156.25l0 -312.5zm3765.82 4843.75l921.68 0c172.66,0 312.5,139.84 312.5,312.5 0,172.66 -139.84,312.5 -312.5,312.5l-921.68 0c-321.29,0 -610.74,-178.51 -754.69,-466.01 -57.62,-115.63 -158,-127.35 -198.63,-127.35 -40.62,0 -141.01,11.53 -195.7,120.9l-149.81 299.61c-52.87,105.79 -161.01,172.65 -279.29,172.65 -0.04,0 -0.15,0 -0.19,0 -7.42,0 -14.65,-0.39 -22.26,-0.97 -125.98,-8.79 -234.38,-92.78 -274.03,-212.7l-328.72 -985.54 -207.23 622.65c-115.03,344.92 -437.11,576.76 -800.78,576.76l-241.99 0c-172.66,0 -312.5,-139.84 -312.5,-312.5 0,-172.66 139.84,-312.5 312.5,-312.5l241.99 0c94.34,0 177.93,-60.16 207.82,-149.61l355.27 -1067.19c64.46,-191.6 242.97,-320.51 444.92,-320.51 201.96,0 380.47,128.71 444.73,320.51l271.09 813.28c386.13,-316.21 1055.67,-189.45 1289.07,276.57 39.45,79.29 116.4,126.95 198.44,126.95l-0.01 0zm2347.46 -5449.22l-1912.11 -1914.06c-87.89,-87.89 -207.03,-136.72 -332.03,-136.72l-119.14 0 0 2500 2500 0 0 -119.14c0,-123.05 -48.83,-242.19 -136.72,-330.08z"/>
 </g>
</svg>
