<?xml version="1.0" encoding="UTF-8"?>
<!DOCTYPE svg PUBLIC "-//W3C//DTD SVG 1.1//EN" "http://www.w3.org/Graphics/SVG/1.1/DTD/svg11.dtd">
<!-- Creator: CorelDRAW 2018 (64 Bit) -->
<svg xmlns="http://www.w3.org/2000/svg" xml:space="preserve" width="100mm" height="100mm" version="1.1" style="shape-rendering:geometricPrecision; text-rendering:geometricPrecision; image-rendering:optimizeQuality; fill-rule:evenodd; clip-rule:evenodd"
viewBox="0 0 10000 10000"
 xmlns:xlink="http://www.w3.org/1999/xlink">
 <defs>
  <style type="text/css">
   <![CDATA[
    .fil0 {fill:white}
   ]]>
  </style>
 </defs>
 <g id="Camada_x0020_1">
  <metadata id="CorelCorpID_0Corel-Layer"/>
  <path class="fil0" d="M5000 0c-2762.1,0 -5000,2237.9 -5000,5000 0,2762.1 2237.9,5000 5000,5000 2762.1,0 5000,-2237.9 5000,-5000 0,-2762.1 -2237.9,-5000 -5000,-5000zm1612.9 3387.1c356.86,0 645.17,288.3 645.17,645.16 0,356.85 -288.31,645.16 -645.17,645.16 -356.85,0 -645.16,-288.31 -645.16,-645.16 0,-356.86 288.31,-645.16 645.16,-645.16zm-3225.8 0c356.85,0 645.16,288.3 645.16,645.16 0,356.85 -288.31,645.16 -645.16,645.16 -356.86,0 -645.17,-288.31 -645.17,-645.16 0,-356.86 288.31,-645.16 645.17,-645.16zm3431.45 4399.19c-451.62,-540.32 -1114.92,-850.8 -1818.55,-850.8 -703.63,0 -1366.93,310.48 -1818.55,850.8 -272.17,328.63 -768.14,-84.68 -495.96,-413.3 574.59,-687.5 1419.35,-1082.67 2314.51,-1082.67 895.16,0 1739.92,395.17 2312.5,1084.68 274.2,326.61 -221.78,739.92 -493.95,411.29z"/>
 </g>
</svg>
