<?xml version="1.0" encoding="UTF-8"?>
<!DOCTYPE svg PUBLIC "-//W3C//DTD SVG 1.1//EN" "http://www.w3.org/Graphics/SVG/1.1/DTD/svg11.dtd">
<!-- Creator: CorelDRAW 2019 (64 Bit) -->
<svg xmlns="http://www.w3.org/2000/svg" xml:space="preserve" width="100mm" height="100mm" version="1.1" style="shape-rendering:geometricPrecision; text-rendering:geometricPrecision; image-rendering:optimizeQuality; fill-rule:evenodd; clip-rule:evenodd"
viewBox="0 0 10000 10000"
 xmlns:xlink="http://www.w3.org/1999/xlink">
 <defs>
  <style type="text/css">
   <![CDATA[
    .fil0 {fill:white}
   ]]>
  </style>
 </defs>
 <g id="Camada_x0020_1">
  <metadata id="CorelCorpID_0Corel-Layer"/>
  <path id="home.svg" class="fil0" d="M4863.59 3132.87l-3200.86 2636.29 0 2845.31c0.01,153.38 124.4,277.77 277.79,277.77l1945.49 -5.03c152.85,-0.75 276.39,-124.93 276.39,-277.78 0,0 0,0 0,0l-0.02 -1661.63c0.02,-153.4 124.41,-277.79 277.8,-277.79l1111.09 0.02c153.39,-0.02 277.78,124.37 277.78,277.76l0 1660.42c-0.01,0.26 -0.01,0.6 -0.01,0.87 0,153.39 124.39,277.78 277.78,277.78 0,0 0,0 0,0l1944.8 5.39c153.39,-0.01 277.78,-124.4 277.78,-277.79l-0.01 -2847.21 -3200.17 -2634.38c-37.6,-30.3 -84.5,-46.86 -132.81,-46.86 -48.29,0 -95.19,16.56 -132.78,46.87l-0.04 -0.01zm5056.08 1791.84l-1451.39 -1196.35 0 -2404.69c0,-115.04 -93.29,-208.33 -208.33,-208.33l-972.22 0c-115.04,0 -208.33,93.29 -208.33,208.33l0 1260.59 -1554.35 -1278.82c-149.01,-122.7 -336.41,-189.85 -529.49,-189.85 -193.1,0 -380.5,67.15 -529.54,189.84l-4394.61 3619.28c-47.84,39.55 -75.59,98.47 -75.59,160.58 0,48.48 16.94,95.48 47.84,132.82l442.71 538.19c39.55,48.1 98.61,76 160.9,76 48.4,0 95.35,-16.91 132.66,-47.71l4083.68 -3363.54c37.61,-30.28 84.51,-46.84 132.8,-46.84 48.31,0 95.21,16.56 132.8,46.87l4083.86 3363.53c37.34,30.88 84.34,47.82 132.82,47.82 62.11,0 121.04,-27.75 160.59,-75.62l442.71 -538.19c30.62,-37.25 47.38,-84.02 47.38,-132.27 0,-62.69 -28.26,-122.07 -76.89,-161.62l-0.01 -0.02z"/>
 </g>
</svg>
