<?xml version="1.0" encoding="UTF-8"?>
<!DOCTYPE svg PUBLIC "-//W3C//DTD SVG 1.1//EN" "http://www.w3.org/Graphics/SVG/1.1/DTD/svg11.dtd">
<!-- Creator: CorelDRAW 2019 (64 Bit) -->
<svg xmlns="http://www.w3.org/2000/svg" xml:space="preserve" width="100mm" height="100mm" version="1.1" style="shape-rendering:geometricPrecision; text-rendering:geometricPrecision; image-rendering:optimizeQuality; fill-rule:evenodd; clip-rule:evenodd"
viewBox="0 0 10000 10000"
 xmlns:xlink="http://www.w3.org/1999/xlink">
 <defs>
  <style type="text/css">
   <![CDATA[
    .fil0 {fill:white}
   ]]>
  </style>
 </defs>
 <g id="Camada_x0020_1">
  <metadata id="CorelCorpID_0Corel-Layer"/>
  <g id="menu-interface-symbol-of-three-horizontal-straight-lines-svgrepo-com.svg">
   <g>
    <g>
     <path class="fil0" d="M8753.77 1295.05l-7515.13 0c-161.74,0 -292.85,131.11 -292.85,292.76l0 1561.61c0,161.73 131.11,292.74 292.85,292.74l7515.13 0.01c161.74,0 292.85,-131.12 292.85,-292.75l0 -1561.52c-0.09,-161.74 -131.11,-292.85 -292.85,-292.85z"/>
     <path class="fil0" d="M8753.77 3930.29l-7515.13 0c-161.74,0 -292.85,131.11 -292.85,292.76l0 1561.59c0,161.74 131.11,292.76 292.85,292.76l7515.13 0.01c161.74,0 292.85,-131.11 292.85,-292.76l0 -1561.6c-0.09,-161.74 -131.11,-292.76 -292.85,-292.76z"/>
     <path class="fil0" d="M8753.77 6565.43l-7515.13 0c-161.74,0 -292.85,131.12 -292.85,292.76l0 1561.6c0,161.73 131.11,292.76 292.85,292.76l7515.13 0c161.74,0 292.85,-131.11 292.85,-292.76l0 -1561.6c-0.09,-161.64 -131.11,-292.76 -292.85,-292.76z"/>
    </g>
   </g>
   <g>
   </g>
   <g>
   </g>
   <g>
   </g>
   <g>
   </g>
   <g>
   </g>
   <g>
   </g>
   <g>
   </g>
   <g>
   </g>
   <g>
   </g>
   <g>
   </g>
   <g>
   </g>
   <g>
   </g>
   <g>
   </g>
   <g>
   </g>
   <g>
   </g>
  </g>
 </g>
</svg>
