<?xml version="1.0" encoding="UTF-8"?>
<!DOCTYPE svg PUBLIC "-//W3C//DTD SVG 1.1//EN" "http://www.w3.org/Graphics/SVG/1.1/DTD/svg11.dtd">
<!-- Creator: CorelDRAW 2019 (64 Bit) -->
<svg xmlns="http://www.w3.org/2000/svg" xml:space="preserve" width="100mm" height="100mm" version="1.1" style="shape-rendering:geometricPrecision; text-rendering:geometricPrecision; image-rendering:optimizeQuality; fill-rule:evenodd; clip-rule:evenodd"
viewBox="0 0 10000 10000"
 xmlns:xlink="http://www.w3.org/1999/xlink">
 <defs>
  <style type="text/css">
   <![CDATA[
    .fil0 {fill:white}
   ]]>
  </style>
 </defs>
 <g id="Camada_x0020_1">
  <metadata id="CorelCorpID_0Corel-Layer"/>
  <path id="instagram.svg" class="fil0" d="M4997.16 2759.66c-1242.19,0 -2244.14,1001.95 -2244.14,2244.14 0,1242.19 1001.95,2244.14 2244.14,2244.14 1242.19,0 2244.14,-1001.96 2244.14,-2244.14 0,-1242.18 -1001.95,-2244.14 -2244.14,-2244.14zm0 3703.12c-802.73,0 -1458.98,-654.3 -1458.98,-1458.98 0,-804.68 654.3,-1458.98 1458.98,-1458.98 804.68,0 1458.98,654.3 1458.98,1458.98 0,804.68 -656.25,1458.98 -1458.98,1458.98zm2859.38 -3794.92c0,291.02 -234.38,523.44 -523.44,523.44 -291.02,0 -523.44,-234.38 -523.44,-523.44 0,-289.06 234.38,-523.44 523.44,-523.44 289.06,0 523.44,234.38 523.44,523.44zm1486.33 531.25c-33.2,-701.17 -193.36,-1322.27 -707.03,-1833.98 -511.72,-511.72 -1132.81,-671.87 -1833.98,-707.03 -722.66,-41.02 -2888.67,-41.02 -3611.33,0 -699.22,33.2 -1320.31,193.36 -1833.98,705.08 -513.67,511.72 -671.88,1132.81 -707.03,1833.98 -41.02,722.66 -41.02,2888.67 0,3611.33 33.2,701.17 193.36,1322.27 707.03,1833.98 513.67,511.71 1132.81,671.88 1833.98,707.03 722.66,41.02 2888.67,41.02 3611.33,0 701.17,-33.2 1322.27,-193.36 1833.98,-707.03 511.72,-511.72 671.88,-1132.81 707.03,-1833.98 41.02,-722.66 41.02,-2886.72 0,-3609.38zm-933.6 4384.76c-152.34,382.81 -447.27,677.73 -832.03,832.03 -576.17,228.52 -1943.36,175.78 -2580.08,175.78 -636.72,0 -2005.86,50.78 -2580.08,-175.78 -382.81,-152.34 -677.73,-447.27 -832.03,-832.03 -228.52,-576.17 -175.78,-1943.36 -175.78,-2580.08 0,-636.72 -50.78,-2005.86 175.78,-2580.08 152.34,-382.81 447.27,-677.73 832.03,-832.03 576.17,-228.52 1943.36,-175.78 2580.08,-175.78 636.72,0 2005.86,-50.78 2580.08,175.78 382.81,152.34 677.73,447.27 832.03,832.03 228.52,576.17 175.78,1943.36 175.78,2580.08 0,636.72 52.73,2005.86 -175.78,2580.08z"/>
 </g>
</svg>
