<?xml version="1.0" encoding="UTF-8"?>
<!DOCTYPE svg PUBLIC "-//W3C//DTD SVG 1.1//EN" "http://www.w3.org/Graphics/SVG/1.1/DTD/svg11.dtd">
<!-- Creator: CorelDRAW 2018 (64 Bit) -->
<svg xmlns="http://www.w3.org/2000/svg" xml:space="preserve" width="100mm" height="100mm" version="1.1" style="shape-rendering:geometricPrecision; text-rendering:geometricPrecision; image-rendering:optimizeQuality; fill-rule:evenodd; clip-rule:evenodd"
viewBox="0 0 10000 10000"
 xmlns:xlink="http://www.w3.org/1999/xlink">
 <defs>
  <style type="text/css">
   <![CDATA[
    .fil0 {fill:white}
   ]]>
  </style>
 </defs>
 <g id="Camada_x0020_1">
  <metadata id="CorelCorpID_0Corel-Layer"/>
  <path class="fil0" d="M8958.33 1833.33l-7916.66 0c-437.23,0 -791.67,354.44 -791.67,791.67l0 4750c0,437.23 354.44,791.67 791.67,791.67l7916.66 0c437.23,0 791.67,-354.44 791.67,-791.67l0 -4750c0,-437.23 -354.44,-791.67 -791.67,-791.67zm131.95 5541.67c0,72.75 -59.19,131.95 -131.95,131.95l-7916.66 0c-72.76,0 -131.95,-59.2 -131.95,-131.95l0 -4750c0,-72.75 59.19,-131.95 131.95,-131.95l7916.66 0c72.76,0 131.95,59.2 131.95,131.95l0 4750zm-6036.46 -2144.1l0 -461.8c0,-109.3 -88.62,-197.92 -197.92,-197.92l-461.8 0c-109.3,0 -197.92,88.62 -197.92,197.92l0 461.8c0,109.3 88.62,197.92 197.92,197.92l461.8 0c109.3,0 197.92,-88.62 197.92,-197.92zm1583.33 0l0 -461.8c0,-109.3 -88.61,-197.92 -197.91,-197.92l-461.81 0c-109.3,0 -197.92,88.62 -197.92,197.92l0 461.8c0,109.3 88.62,197.92 197.92,197.92l461.81 0c109.3,0 197.91,-88.62 197.91,-197.92zm1583.34 0l0 -461.8c0,-109.3 -88.62,-197.92 -197.92,-197.92l-461.81 0c-109.3,0 -197.91,88.62 -197.91,197.92l0 461.8c0,109.3 88.61,197.92 197.91,197.92l461.81 0c109.3,0 197.92,-88.62 197.92,-197.92zm1583.33 0l0 -461.8c0,-109.3 -88.62,-197.92 -197.92,-197.92l-461.8 0c-109.3,0 -197.92,88.62 -197.92,197.92l0 461.8c0,109.3 88.62,197.92 197.92,197.92l461.8 0c109.3,0 197.92,-88.62 197.92,-197.92zm-5541.67 1352.44l0 -461.81c0,-109.3 -88.61,-197.92 -197.91,-197.92l-461.81 0c-109.3,0 -197.92,88.62 -197.92,197.92l0 461.81c0,109.29 88.62,197.91 197.92,197.91l461.81 0c109.3,0 197.91,-88.62 197.91,-197.91zm6333.34 0l0 -461.81c0,-109.3 -88.62,-197.92 -197.92,-197.92l-461.81 0c-109.3,0 -197.91,88.62 -197.91,197.92l0 461.81c0,109.29 88.61,197.91 197.91,197.91l461.81 0c109.3,0 197.92,-88.62 197.92,-197.91zm-6333.34 -2704.87l0 -461.81c0,-109.29 -88.61,-197.91 -197.91,-197.91l-461.81 0c-109.3,0 -197.92,88.62 -197.92,197.91l0 461.81c0,109.3 88.62,197.92 197.92,197.92l461.81 0c109.3,0 197.91,-88.62 197.91,-197.92zm1583.34 0l0 -461.81c0,-109.29 -88.62,-197.91 -197.92,-197.91l-461.81 0c-109.3,0 -197.91,88.62 -197.91,197.91l0 461.81c0,109.3 88.61,197.92 197.91,197.92l461.81 0c109.3,0 197.92,-88.62 197.92,-197.92zm1583.33 0l0 -461.81c0,-109.29 -88.62,-197.91 -197.92,-197.91l-461.8 0c-109.3,0 -197.92,88.62 -197.92,197.91l0 461.81c0,109.3 88.62,197.92 197.92,197.92l461.8 0c109.3,0 197.92,-88.62 197.92,-197.92zm1583.33 0l0 -461.81c0,-109.29 -88.61,-197.91 -197.91,-197.91l-461.81 0c-109.3,0 -197.92,88.62 -197.92,197.91l0 461.81c0,109.3 88.62,197.92 197.92,197.92l461.81 0c109.3,0 197.91,-88.62 197.91,-197.92zm1583.34 0l0 -461.81c0,-109.29 -88.62,-197.91 -197.92,-197.91l-461.81 0c-109.3,0 -197.91,88.62 -197.91,197.91l0 461.81c0,109.3 88.61,197.92 197.91,197.92l461.81 0c109.3,0 197.92,-88.62 197.92,-197.92zm-1616.32 2605.91l0 -263.89c0,-109.3 -88.62,-197.92 -197.92,-197.92l-3562.5 0c-109.3,0 -197.92,88.62 -197.92,197.92l0 263.89c0,109.3 88.62,197.91 197.92,197.91l3562.5 0c109.3,0 197.92,-88.61 197.92,-197.91z"/>
 </g>
</svg>
