<?xml version="1.0" encoding="UTF-8"?>
<!DOCTYPE svg PUBLIC "-//W3C//DTD SVG 1.1//EN" "http://www.w3.org/Graphics/SVG/1.1/DTD/svg11.dtd">
<!-- Creator: CorelDRAW 2019 (64 Bit) -->
<svg xmlns="http://www.w3.org/2000/svg" xml:space="preserve" width="100mm" height="100mm" version="1.1" style="shape-rendering:geometricPrecision; text-rendering:geometricPrecision; image-rendering:optimizeQuality; fill-rule:evenodd; clip-rule:evenodd"
viewBox="0 0 10000 10000"
 xmlns:xlink="http://www.w3.org/1999/xlink">
 <defs>
  <style type="text/css">
   <![CDATA[
    .fil0 {fill:white}
   ]]>
  </style>
 </defs>
 <g id="Camada_x0020_1">
  <metadata id="CorelCorpID_0Corel-Layer"/>
  <path id="c.svg" class="fil0" d="M6375.33 3624.72c1166.93,1168.14 1150.92,3040.98 7.03,4191.21 -2.15,2.34 -4.69,4.88 -7.03,7.23l-1312.5 1312.5c-1157.62,1157.62 -3041,1157.46 -4198.44,0 -1157.62,-1157.42 -1157.62,-3041.02 0,-4198.44l724.73 -724.73c192.19,-192.19 523.16,-64.45 533.09,207.15 12.66,346.13 74.73,693.89 189.26,1029.71 38.79,113.71 11.07,239.49 -73.89,324.45l-255.61 255.61c-547.38,547.38 -564.55,1438.67 -22.56,1991.41 547.34,558.18 1446.99,561.5 1998.54,9.96l1312.5 -1312.3c550.61,-550.61 548.3,-1440.57 0,-1988.87 -72.29,-72.15 -145.1,-128.2 -201.97,-167.36 -81.57,-56.05 -131.89,-147.33 -135.68,-246.21 -7.73,-206.39 65.39,-419.06 228.48,-582.15l411.21 -411.23c107.83,-107.83 276.99,-121.07 402.03,-33.81 142.72,99.54 277.61,212.61 400.87,335.87l-0.06 0zm2752.64 -2752.78c-1157.44,-1157.46 -3040.82,-1157.62 -4198.44,0l-1312.5 1312.5c-2.34,2.34 -4.88,4.88 -7.03,7.23 -1143.87,1150.23 -1159.9,3023.07 7.03,4191.21 123.2,123.24 258.06,236.3 400.93,335.9 125.04,87.27 294.22,74 402.03,-33.81l411.21 -411.23c163.09,-163.09 236.21,-375.76 228.48,-582.15 -3.92,-98.94 -54.24,-190.22 -135.79,-246.24 -56.88,-39.16 -129.69,-95.21 -201.97,-167.36 -548.3,-548.3 -550.61,-1438.26 0,-1988.87l1312.5 -1312.3c551.54,-551.54 1451.17,-548.22 1998.54,9.96 541.99,552.73 524.84,1444.02 -22.56,1991.41l-255.61 255.61c-84.96,84.96 -112.68,210.74 -73.89,324.45 114.53,335.82 176.6,683.57 189.26,1029.71 9.94,271.6 340.9,399.34 533.09,207.15l724.73 -724.73c1157.64,-1157.4 1157.64,-3041 0.02,-4198.42l-0.03 -0.02z"/>
 </g>
</svg>
