<?xml version="1.0" encoding="UTF-8"?>
<!DOCTYPE svg PUBLIC "-//W3C//DTD SVG 1.1//EN" "http://www.w3.org/Graphics/SVG/1.1/DTD/svg11.dtd">
<!-- Creator: CorelDRAW 2019 (64 Bit) -->
<svg xmlns="http://www.w3.org/2000/svg" xml:space="preserve" width="100mm" height="100mm" version="1.1" style="shape-rendering:geometricPrecision; text-rendering:geometricPrecision; image-rendering:optimizeQuality; fill-rule:evenodd; clip-rule:evenodd"
viewBox="0 0 10000 10000"
 xmlns:xlink="http://www.w3.org/1999/xlink">
 <defs>
  <style type="text/css">
   <![CDATA[
    .fil0 {fill:#E6E6E6}
   ]]>
  </style>
 </defs>
 <g id="Camada_x0020_1">
  <metadata id="CorelCorpID_0Corel-Layer"/>
  <path id="lock.svg" class="fil0" d="M8433.7 4378.8l-468.75 0 0 -1406.25c0,-1636.72 -1332.03,-2968.75 -2968.75,-2968.75 -1636.72,0 -2968.75,1332.03 -2968.75,2968.75l0 1406.25 -468.75 0c-517.58,0 -937.5,419.92 -937.5,937.5l0 3750c0,517.58 419.92,937.5 937.5,937.5l6875 0c517.58,0 937.5,-419.92 937.5,-937.5l0 -3750c0,-517.58 -419.92,-937.5 -937.5,-937.5zm-2031.25 0l-2812.5 0 0 -1406.25c0,-775.39 630.86,-1406.25 1406.25,-1406.25 775.39,0 1406.25,630.86 1406.25,1406.25l0 1406.25z"/>
 </g>
</svg>
