<?xml version="1.0" encoding="UTF-8"?>
<!DOCTYPE svg PUBLIC "-//W3C//DTD SVG 1.1//EN" "http://www.w3.org/Graphics/SVG/1.1/DTD/svg11.dtd">
<!-- Creator: CorelDRAW 2018 (64 Bit) -->
<svg xmlns="http://www.w3.org/2000/svg" xml:space="preserve" width="100mm" height="100mm" version="1.1" style="shape-rendering:geometricPrecision; text-rendering:geometricPrecision; image-rendering:optimizeQuality; fill-rule:evenodd; clip-rule:evenodd"
viewBox="0 0 10000 10000"
 xmlns:xlink="http://www.w3.org/1999/xlink">
 <defs>
  <style type="text/css">
   <![CDATA[
    .fil0 {fill:#00007D}
   ]]>
  </style>
 </defs>
 <g id="Camada_x0020_1">
  <metadata id="CorelCorpID_0Corel-Layer"/>
  <path class="fil0" d="M4406.24 2031.29l296.88 -593.76 593.76 -296.88 -593.76 -296.88 -296.88 -593.77 -296.88 593.77 -593.76 296.88 593.76 296.88 296.88 593.76zm-2671.92 1187.52l494.68 -989.54 989.72 -494.86 -989.72 -494.87 -494.68 -989.54 -494.68 989.54 -989.72 494.87 989.72 494.86 494.68 989.54zm6531.36 2375.04l-494.68 989.54 -989.72 494.86 989.72 494.87 494.68 989.53 494.68 -989.53 989.72 -494.87 -989.72 -494.86 -494.68 -989.54zm1310.36 -3595.41l-1574.39 -1574.39c-115.79,-116.15 -267.75,-174.05 -419.72,-174.05 -151.97,0 -303.93,57.9 -419.9,174.05l-6738.07 6738.07c-231.94,231.94 -231.94,607.86 0,839.62l1574.4 1574.39c115.97,115.97 267.93,173.87 419.71,173.87 151.97,0 303.93,-57.9 419.9,-173.87l6738.07 -6738.25c231.94,-231.57 231.94,-607.68 0,-839.43l0 -0.01zm-2656.52 2026.77l-944.64 -944.64 1606.86 -1606.86 944.64 944.64 -1606.86 1606.86z"/>
 </g>
</svg>
