<?xml version="1.0" encoding="UTF-8"?>
<!DOCTYPE svg PUBLIC "-//W3C//DTD SVG 1.1//EN" "http://www.w3.org/Graphics/SVG/1.1/DTD/svg11.dtd">
<!-- Creator: CorelDRAW 2018 (64 Bit) -->
<svg xmlns="http://www.w3.org/2000/svg" xml:space="preserve" width="100mm" height="100mm" version="1.1" style="shape-rendering:geometricPrecision; text-rendering:geometricPrecision; image-rendering:optimizeQuality; fill-rule:evenodd; clip-rule:evenodd"
viewBox="0 0 10000 10000"
 xmlns:xlink="http://www.w3.org/1999/xlink">
 <defs>
  <style type="text/css">
   <![CDATA[
    .fil0 {fill:#00007D}
   ]]>
  </style>
 </defs>
 <g id="Camada_x0020_1">
  <metadata id="CorelCorpID_0Corel-Layer"/>
  <path id="money-bill-alt.svg" class="fil0" d="M5000 3337.5c-787.02,0 -1425,744.27 -1425,1662.5 0,918.09 637.98,1662.5 1425,1662.5 786.72,0 1425,-744.12 1425,-1662.5 0,-918.23 -637.98,-1662.5 -1425,-1662.5zm593.75 2493.75c0,65.61 -53.14,118.75 -118.75,118.75l-950 0c-65.61,0 -118.75,-53.14 -118.75,-118.75l0 -237.5c0,-65.61 53.14,-118.75 118.75,-118.75l237.5 0 0 -822.94 -6.97 4.6c-19.47,13.02 -42.41,19.97 -65.85,19.97 -39.7,0 -76.78,-19.87 -98.76,-52.91l-131.81 -197.57c-13.02,-19.48 -19.97,-42.42 -19.97,-65.86 0,-39.7 19.87,-76.78 52.9,-98.76l227.56 -151.71c58.49,-39 127.26,-59.82 197.56,-59.82 0,0 0,0 0,0l201.59 0c65.61,0 118.75,53.14 118.75,118.75l0 1306.25 237.5 0c65.61,0 118.75,53.14 118.75,118.75l0 237.5zm3681.25 -3681.25l-8550 0c-262.29,0 -475,212.71 -475,475l0 4750c0,262.29 212.71,475 475,475l8550 0c262.29,0 475,-212.71 475,-475l0 -4750c0,-262.29 -212.71,-475 -475,-475zm-237.5 4037.5c-524.72,0 -950,425.28 -950,950l-6175 0c0,-524.72 -425.28,-950 -950,-950l0 -2375c524.72,0 950,-425.28 950,-950l6175 0c0,524.72 425.28,950 950,950l0 2375z"/>
 </g>
</svg>
