<?xml version="1.0" encoding="UTF-8"?>
<!DOCTYPE svg PUBLIC "-//W3C//DTD SVG 1.1//EN" "http://www.w3.org/Graphics/SVG/1.1/DTD/svg11.dtd">
<!-- Creator: CorelDRAW 2019 (64 Bit) -->
<svg xmlns="http://www.w3.org/2000/svg" xml:space="preserve" width="100mm" height="100mm" version="1.1" style="shape-rendering:geometricPrecision; text-rendering:geometricPrecision; image-rendering:optimizeQuality; fill-rule:evenodd; clip-rule:evenodd"
viewBox="0 0 10000 10000"
 xmlns:xlink="http://www.w3.org/1999/xlink">
 <defs>
  <style type="text/css">
   <![CDATA[
    .fil0 {fill:white}
   ]]>
  </style>
 </defs>
 <g id="Camada_x0020_1">
  <metadata id="CorelCorpID_0Corel-Layer"/>
  <path id="money-bill-alt.svg" class="fil0" d="M4996.2 3253.8c-828.44,0 -1500,783.44 -1500,1750 0,966.41 671.56,1750 1500,1750 828.13,0 1500,-783.28 1500,-1750 0,-966.56 -671.56,-1750 -1500,-1750zm625 2625c0,69.06 -55.94,125 -125,125l-1000 0c-69.06,0 -125,-55.94 -125,-125l0 -250c0,-69.06 55.94,-125 125,-125l250 0 0 -866.25 -7.34 4.84c-20.49,13.7 -44.64,21.02 -69.31,21.02 -41.79,0 -80.82,-20.92 -103.96,-55.69l-138.75 -207.97c-13.7,-20.51 -21.02,-44.66 -21.02,-69.33 0,-41.79 20.92,-80.82 55.69,-103.96l239.53 -159.69c61.57,-41.05 133.96,-62.97 207.96,-62.97 0,0 0,0 0,0l212.2 0c69.06,0 125,55.94 125,125l0 1375 250 0c69.06,0 125,55.94 125,125l0 250zm3875 -3875l-9000 0c-276.09,0 -500,223.91 -500,500l0 5000c0,276.09 223.91,500 500,500l9000 0c276.09,0 500,-223.91 500,-500l0 -5000c0,-276.09 -223.91,-500 -500,-500zm-250 4250c-552.34,0 -1000,447.66 -1000,1000l-6500 0c0,-552.34 -447.66,-1000 -1000,-1000l0 -2500c552.34,0 1000,-447.66 1000,-1000l6500 0c0,552.34 447.66,1000 1000,1000l0 2500z"/>
 </g>
</svg>
