<?xml version="1.0" encoding="UTF-8"?>
<!DOCTYPE svg PUBLIC "-//W3C//DTD SVG 1.1//EN" "http://www.w3.org/Graphics/SVG/1.1/DTD/svg11.dtd">
<!-- Creator: CorelDRAW 2019 (64 Bit) -->
<svg xmlns="http://www.w3.org/2000/svg" xml:space="preserve" width="100mm" height="100mm" version="1.1" style="shape-rendering:geometricPrecision; text-rendering:geometricPrecision; image-rendering:optimizeQuality; fill-rule:evenodd; clip-rule:evenodd"
viewBox="0 0 10000 10000"
 xmlns:xlink="http://www.w3.org/1999/xlink">
 <defs>
  <style type="text/css">
   <![CDATA[
    .fil0 {fill:white}
   ]]>
  </style>
 </defs>
 <g id="Camada_x0020_1">
  <metadata id="CorelCorpID_0Corel-Layer"/>
  <g id="money-svgrepo-com_x0020__x0028_1_x0029_.svg">
   <g>
    <g>
     <path class="fil0" d="M9578.82 7777.84l-1735.98 1551.39 -2055.39 0.01 0 -506.07 1999.39 0c62.22,0 120.3,-22.81 165.92,-64.3l1957.9 -1765.02c101.63,-91.26 109.92,-248.89 18.67,-350.51 -91.25,-101.62 -248.89,-109.92 -350.51,-18.67l-1887.39 1702.8 -1903.98 0 0 -506.07 1760.87 0c62.22,0 122.37,-22.81 168,-64.3l2198.5 -2005.61c76.74,-68.44 101.63,-178.37 64.3,-273.77 -37.33,-95.4 -128.59,-159.7 -232.29,-159.7l-7304.83 0c-62.22,0 -122.37,22.81 -168,64.3l-2196.42 2005.61c-76.74,68.44 -101.63,178.37 -64.3,273.77 37.33,95.4 128.59,159.7 232.29,159.7l2080.29 0 0 506.07 -2080.28 0c-136.89,0 -248.89,112 -248.89,248.89 0,136.89 112,248.89 248.89,248.89l2080.28 -0.01 0 506.07 -2080.28 0c-136.89,0 -248.89,112 -248.89,248.89 0,136.89 112,248.89 248.89,248.89l2329.16 -0.01 2965.9 0 2399.68 0c62.22,0 120.3,-22.81 165.92,-64.3l1806.5 -1615.69c101.63,-91.26 112,-248.89 18.67,-350.51 -93.34,-103.7 -250.96,-111.99 -352.59,-20.74zm-2717.01 -1964.12l-1653.02 1507.84 -2047.09 -0.01 1653.02 -1507.84 2047.09 0.01 0 0zm589.03 1509.91l-1503.69 0 1653.02 -1507.84 1503.69 0 -1653.02 1507.84zm-4911.35 -1509.91l1534.79 0 -1653.02 1507.84 -1534.79 -0.01 1653.02 -1507.83zm282.07 3515.52l0 -1507.84 2468.12 0 0 1507.84 -2468.12 0 0 0z"/>
     <path class="fil0" d="M4711.02 2681.9l620.14 0c236.44,0 429.33,192.89 429.33,429.33 0,236.44 -192.89,429.33 -429.33,429.33l-1111.69 0c-136.89,0 -248.89,112 -248.89,248.89 0,136.89 112,248.89 248.89,248.89l553.77 -0.01 0 406.51c0,136.89 112,248.89 248.89,248.89 136.89,0 248.89,-112 248.89,-248.89l0 -406.51 66.36 0c2.07,0 4.15,0 6.22,0 506.07,-6.22 914.66,-421.03 914.66,-927.1 0,-512.29 -416.88,-927.1 -927.1,-927.1l-620.14 0c-236.44,0 -429.33,-192.89 -429.33,-429.33 0,-236.44 192.89,-429.33 429.33,-429.33l1093.02 0c136.89,0 248.89,-112 248.89,-248.89 0,-136.89 -112,-248.89 -248.89,-248.89l-533.03 0.01 0 -400.29c0,-136.89 -112,-248.89 -248.89,-248.89 -136.89,0 -248.89,112 -248.89,248.89l0 398.22 -60.14 -0.01c-512.29,0 -927.1,416.88 -927.1,927.1 0,510.22 412.74,929.18 925.03,929.18z"/>
    </g>
   </g>
   <g>
   </g>
   <g>
   </g>
   <g>
   </g>
   <g>
   </g>
   <g>
   </g>
   <g>
   </g>
   <g>
   </g>
   <g>
   </g>
   <g>
   </g>
   <g>
   </g>
   <g>
   </g>
   <g>
   </g>
   <g>
   </g>
   <g>
   </g>
   <g>
   </g>
  </g>
 </g>
</svg>
