<?xml version="1.0" encoding="UTF-8"?>
<!DOCTYPE svg PUBLIC "-//W3C//DTD SVG 1.1//EN" "http://www.w3.org/Graphics/SVG/1.1/DTD/svg11.dtd">
<!-- Creator: CorelDRAW 2019 (64 Bit) -->
<svg xmlns="http://www.w3.org/2000/svg" xml:space="preserve" width="100mm" height="100mm" version="1.1" style="shape-rendering:geometricPrecision; text-rendering:geometricPrecision; image-rendering:optimizeQuality; fill-rule:evenodd; clip-rule:evenodd"
viewBox="0 0 10000 10000"
 xmlns:xlink="http://www.w3.org/1999/xlink">
 <defs>
  <style type="text/css">
   <![CDATA[
    .fil0 {fill:white}
   ]]>
  </style>
 </defs>
 <g id="Camada_x0020_1">
  <metadata id="CorelCorpID_0Corel-Layer"/>
  <path id="money-check-alt.svg" class="fil0" d="M9496.2 1503.8l-9000 0c-276.09,0 -500,223.91 -500,500l0 6000c0,276.09 223.91,500 500,500l9000 0c276.09,0 500,-223.91 500,-500l0 -6000c0,-276.09 -223.91,-500 -500,-500zm-6750 4623.13l0 251.87c0,69.06 -55.94,125 -125,125l-250 0c-69.06,0 -125,-55.94 -125,-125l0 -254.53c-176.41,-9.06 -347.97,-70.63 -490.16,-177.34 -60.94,-45.78 -64.06,-137.03 -8.91,-189.69l183.59 -175.16c43.28,-41.25 107.66,-43.13 158.28,-11.41 60.47,37.81 129.06,58.13 200.31,58.13l439.23 0c101.56,0 184.38,-92.5 184.38,-206.09 0,-92.97 -56.41,-174.84 -137.03,-198.91l-703.12 -210.94c-290.47,-87.19 -493.44,-365.94 -493.44,-677.97 0,-383.13 297.66,-694.38 666.72,-704.22l-0.01 -251.87c0,-69.06 55.94,-125 125,-125l250 0c69.06,0 125,55.94 125,125l0 254.53c176.41,9.06 347.97,70.47 490.16,177.34 60.94,45.78 64.06,137.03 8.91,189.69l-183.59 175.16c-43.28,41.25 -107.66,43.13 -158.28,11.41 -60.47,-37.97 -129.06,-58.13 -200.31,-58.13l-439.23 0c-101.56,0 -184.38,92.5 -184.38,206.09 0,92.97 56.41,174.84 137.03,198.91l703.13 210.94c290.47,87.19 493.44,365.94 493.44,677.97 0,383.28 -297.66,694.38 -666.72,704.22zm3750 -248.13c0,69.06 -55.94,125 -125,125l-1750 0c-69.06,0 -125,-55.94 -125,-125l0 -250c0,-69.06 55.94,-125 125,-125l1750 0c69.06,0 125,55.94 125,125l0 250zm2500 0c0,69.06 -55.94,125 -125,125l-1250 0c-69.06,0 -125,-55.94 -125,-125l0 -250c0,-69.06 55.94,-125 125,-125l1250 0c69.06,0 125,55.94 125,125l0 250zm0 -1500c0,69.06 -55.94,125 -125,125l-4250 0c-69.06,0 -125,-55.94 -125,-125l0 -250c0,-69.06 55.94,-125 125,-125l4250 0c69.06,0 125,55.94 125,125l0 250z"/>
 </g>
</svg>
