<?xml version="1.0" encoding="UTF-8"?>
<!DOCTYPE svg PUBLIC "-//W3C//DTD SVG 1.1//EN" "http://www.w3.org/Graphics/SVG/1.1/DTD/svg11.dtd">
<!-- Creator: CorelDRAW 2018 (64 Bit) -->
<svg xmlns="http://www.w3.org/2000/svg" xml:space="preserve" width="100mm" height="100mm" version="1.1" style="shape-rendering:geometricPrecision; text-rendering:geometricPrecision; image-rendering:optimizeQuality; fill-rule:evenodd; clip-rule:evenodd"
viewBox="0 0 10000 10000"
 xmlns:xlink="http://www.w3.org/1999/xlink">
 <defs>
  <style type="text/css">
   <![CDATA[
    .fil0 {fill:none}
    .fil1 {fill:#00007D}
   ]]>
  </style>
 </defs>
 <g id="Camada_x0020_1">
  <metadata id="CorelCorpID_0Corel-Layer"/>
  <rect class="fil0" width="10000" height="10000"/>
  <path id="bahai.svg" class="fil1" d="M6443.3 3020.57l-1272.38 -178.6 483.74 -1206.91c77.15,-192.47 -134.18,-372.23 -307.57,-261.76l-1087.77 692.75 -394.32 -1239.76c-31.35,-98.9 -116.02,-148.29 -200.69,-148.29 -84.67,0 -169.34,49.39 -200.69,148.29l-394.32 1239.87 -1087.77 -692.75c-173.39,-110.47 -384.6,69.28 -307.57,261.76l483.74 1206.91 -1272.38 178.48c-202.89,28.46 -250.78,303.87 -69.75,401.03l1135.42 609.13 -861.51 966.31c-126.32,141.7 -19.9,357.77 153.72,357.77 15.16,0 30.89,-1.62 47.08,-5.21l1255.84 -273.56 -47.54 1301.88c-4.97,134.75 102.6,222.32 212.95,222.32 59.57,0 120.18,-25.56 164.25,-83.05l788.64 -1028.32 788.65 1028.32c44.07,57.49 104.56,83.05 164.25,83.05 110.35,0 217.92,-87.57 212.95,-222.32l-47.54 -1301.88 1255.84 273.56c200.8,43.5 337.87,-198.95 200.69,-352.68l-861.52 -966.31 1135.43 -609.13c180.91,-97.05 133.02,-372.46 -69.87,-400.91l0 0.01zm-1824.59 1262.66l-600.22 -130.71 22.79 622.2 -376.97 -491.49 -376.97 491.48 22.67 -622.19 -600.22 130.7 411.79 -461.87 -542.73 -291.14 608.08 -85.37 -231.22 -576.85 519.94 331.05 188.66 -592.58 188.43 592.59 519.94 -331.05 -231.23 576.85 608.08 85.36 -542.73 291.15 411.91 461.87z"/>
 </g>
</svg>
