<?xml version="1.0" encoding="UTF-8"?>
<!DOCTYPE svg PUBLIC "-//W3C//DTD SVG 1.1//EN" "http://www.w3.org/Graphics/SVG/1.1/DTD/svg11.dtd">
<!-- Creator: CorelDRAW 2019 (64 Bit) -->
<svg xmlns="http://www.w3.org/2000/svg" xml:space="preserve" width="100mm" height="100mm" version="1.1" style="shape-rendering:geometricPrecision; text-rendering:geometricPrecision; image-rendering:optimizeQuality; fill-rule:evenodd; clip-rule:evenodd"
viewBox="0 0 10000 10000"
 xmlns:xlink="http://www.w3.org/1999/xlink">
 <defs>
  <style type="text/css">
   <![CDATA[
    .fil0 {fill:white}
   ]]>
  </style>
 </defs>
 <g id="Camada_x0020_1">
  <metadata id="CorelCorpID_0Corel-Layer"/>
  <path id="phone-square.svg" class="fil0" d="M8433.7 628.8l-6875 0c-517.77,0 -937.5,419.73 -937.5,937.5l0 6875c0,517.77 419.73,937.5 937.5,937.5l6875 0c517.77,0 937.5,-419.73 937.5,-937.5l0 -6875c0,-517.77 -419.73,-937.5 -937.5,-937.5zm-5976.56 7500c-137.36,0 -255.02,-95.18 -285.47,-227.09l-292.93 -1269.53c-4.95,-21.57 -7.49,-43.75 -7.49,-65.89 0,-117.17 69.85,-223.15 177.55,-269.29l1367.15 -585.92c36.47,-15.59 75.74,-23.67 115.41,-23.67 87.84,0 171.15,39.49 226.76,107.45l605.41 739.94c955.94,-448.5 1724.55,-1227.7 2163.69,-2163.67l-739.96 -605.41c-67.99,-55.62 -107.48,-138.89 -107.48,-226.74 0,-39.67 8.08,-78.94 23.68,-115.39l585.94 -1367.15c46.13,-107.72 152.11,-177.57 269.28,-177.57 22.14,0 44.32,2.54 65.88,7.51l1269.53 292.93c132.88,30.59 227.11,149.03 227.11,285.42 0,0 0,0 0,0 0,3130.7 -2537.99,5664.06 -5664.06,5664.06l0 0.01z"/>
 </g>
</svg>
