<?xml version="1.0" encoding="UTF-8"?>
<!DOCTYPE svg PUBLIC "-//W3C//DTD SVG 1.1//EN" "http://www.w3.org/Graphics/SVG/1.1/DTD/svg11.dtd">
<!-- Creator: CorelDRAW 2018 (64 Bit) -->
<svg xmlns="http://www.w3.org/2000/svg" xml:space="preserve" width="100mm" height="100mm" version="1.1" style="shape-rendering:geometricPrecision; text-rendering:geometricPrecision; image-rendering:optimizeQuality; fill-rule:evenodd; clip-rule:evenodd"
viewBox="0 0 10000 10000"
 xmlns:xlink="http://www.w3.org/1999/xlink">
 <defs>
  <style type="text/css">
   <![CDATA[
    .fil0 {fill:white}
   ]]>
  </style>
 </defs>
 <g id="Camada_x0020_1">
  <metadata id="CorelCorpID_0Corel-Layer"/>
  <path class="fil0" d="M8126.54 2222.32l-1474.52 -1474.52c-158.17,-158.17 -372.58,-247.8 -595.78,-247.8l-3586.99 0c-465.73,1.76 -843.59,379.61 -843.59,845.34l0 7311.07c0,465.73 377.86,843.59 843.59,843.59l5061.51 0c465.73,0 843.58,-377.86 843.58,-843.59l0 -5836.55c0,-223.2 -89.63,-439.37 -247.8,-597.54l0 0zm-1840.92 2462.41c-322.34,-323.1 -751.61,-500.82 -1207.8,-500.82 -941.63,0 -1707.86,766.23 -1707.86,1707.85 0,300.8 78.48,594.67 227.72,853.93l-242.33 884.7 905.47 -237.72c249.25,136.16 530.04,207.71 816.22,207.71l0.78 0c940.85,0 1724,-766.22 1724,-1707.84 0,-456.2 -193.86,-884.7 -516.2,-1207.81zm-1207.8 2627.93c-255.42,0 -505.44,-68.47 -723.15,-197.71l-51.54 -30.77 -536.97 140.78 143.09 -523.89 -33.85 -53.85c-142.32,-226.18 -216.95,-486.98 -216.95,-755.46 0,-782.38 636.99,-1419.36 1420.14,-1419.36 379.26,0 735.45,147.71 1003.16,416.19 267.72,268.49 432.35,624.68 431.58,1003.94 0,783.16 -653.14,1420.13 -1435.51,1420.13zm778.53 -1063.17c-42.31,-21.54 -252.33,-124.63 -291.56,-138.48 -39.24,-14.61 -67.7,-21.54 -96.17,21.54 -28.46,43.09 -110.01,138.48 -135.4,167.72 -24.61,28.46 -50,32.3 -92.31,10.76 -250.79,-125.39 -415.43,-223.86 -580.83,-507.73 -43.85,-75.4 43.86,-70.01 125.4,-233.1 13.85,-28.47 6.92,-53.08 -3.85,-74.62 -10.77,-21.55 -96.16,-231.57 -131.55,-316.96 -34.61,-83.08 -70,-71.54 -96.16,-73.08 -24.61,-1.54 -53.08,-1.54 -81.55,-1.54 -28.46,0 -74.62,10.77 -113.85,53.08 -39.24,43.09 -149.25,146.17 -149.25,356.19 0,210.02 153.09,413.11 173.86,441.58 21.54,28.46 300.8,459.27 729.31,644.67 270.79,116.94 376.96,126.94 512.35,106.94 82.31,-12.31 252.33,-103.09 287.72,-203.1 35.38,-100.01 35.38,-185.4 24.62,-203.09 -10.01,-19.23 -38.47,-30 -80.78,-50.78l0 0zm1605.87 -3498.17l-1337.44 0 0 -1337.44 1337.44 1337.44zm-4992.97 5905.09l0 -7311.07 2811.95 0 0 1827.77c0,233.74 188.05,421.79 421.79,421.79l1827.77 0 0 5061.51 -5061.51 0z"/>
 </g>
</svg>
