<?xml version="1.0" encoding="UTF-8"?>
<!DOCTYPE svg PUBLIC "-//W3C//DTD SVG 1.1//EN" "http://www.w3.org/Graphics/SVG/1.1/DTD/svg11.dtd">
<!-- Creator: CorelDRAW 2019 (64 Bit) -->
<svg xmlns="http://www.w3.org/2000/svg" xml:space="preserve" width="100mm" height="100mm" version="1.1" style="shape-rendering:geometricPrecision; text-rendering:geometricPrecision; image-rendering:optimizeQuality; fill-rule:evenodd; clip-rule:evenodd"
viewBox="0 0 10000 10000"
 xmlns:xlink="http://www.w3.org/1999/xlink">
 <defs>
  <style type="text/css">
   <![CDATA[
    .fil0 {fill:white}
   ]]>
  </style>
 </defs>
 <g id="Camada_x0020_1">
  <metadata id="CorelCorpID_0Corel-Layer"/>
  <path id="print.svg" class="fil0" d="M8746.2 3753.8l0 -2241.21c0,-165.82 -65.82,-324.61 -183.01,-441.99l-883.98 -883.79c-117.19,-117.19 -276.17,-183.01 -441.99,-183.01l-5366.02 0c-345.12,0 -625,279.88 -625,625l0 3125c-690.43,0 -1250,559.57 -1250,1250l0 2187.5c0,172.66 139.84,312.5 312.5,312.5l937.5 0 0 1875c0,345.12 279.88,625 625,625l6250 0c345.12,0 625,-279.88 625,-625l0 -1875 937.5 0c172.66,0 312.5,-139.84 312.5,-312.5l0 -2187.5c0,-690.43 -559.57,-1250 -1250,-1250zm-1250 5000l-5000 0 0 -1875 5000 0 0 1875zm0 -4375l-5000 0 0 -3125 3750 0 0 937.5c0,172.66 139.84,312.5 312.5,312.5l937.5 0 0 1875zm937.5 1406.25c-258.79,0 -468.75,-209.96 -468.75,-468.75 0,-258.98 209.96,-468.75 468.75,-468.75 258.79,0 468.75,209.77 468.75,468.75 0,258.79 -209.96,468.75 -468.75,468.75z"/>
 </g>
</svg>
