<?xml version="1.0" encoding="UTF-8"?>
<!DOCTYPE svg PUBLIC "-//W3C//DTD SVG 1.1//EN" "http://www.w3.org/Graphics/SVG/1.1/DTD/svg11.dtd">
<!-- Creator: CorelDRAW 2018 (64 Bit) -->
<svg xmlns="http://www.w3.org/2000/svg" xml:space="preserve" width="100mm" height="100mm" version="1.1" style="shape-rendering:geometricPrecision; text-rendering:geometricPrecision; image-rendering:optimizeQuality; fill-rule:evenodd; clip-rule:evenodd"
viewBox="0 0 10000 10000"
 xmlns:xlink="http://www.w3.org/1999/xlink">
 <defs>
  <style type="text/css">
   <![CDATA[
    .fil0 {fill:white}
   ]]>
  </style>
 </defs>
 <g id="Camada_x0020_1">
  <metadata id="CorelCorpID_0Corel-Layer"/>
  <path class="fil0" d="M6687.5 4859.37l0 492.19c0,116.02 -94.92,210.94 -210.94,210.94l-2953.12 0c-116.02,0 -210.94,-94.92 -210.94,-210.94l0 -492.19c0,-116.01 94.92,-210.93 210.94,-210.93l2953.12 0c116.02,0 210.94,94.92 210.94,210.93zm-210.94 1265.63l-2953.12 0c-116.02,0 -210.94,94.92 -210.94,210.94l0 492.19c0,116.01 94.92,210.93 210.94,210.93l2953.12 0c116.02,0 210.94,-94.92 210.94,-210.93l0 -492.19c0,-116.02 -94.92,-210.94 -210.94,-210.94zm1898.44 -3306.45l0 5837.7c0,465.82 -377.93,843.75 -843.75,843.75l-5062.5 0c-465.82,0 -843.75,-377.93 -843.75,-843.75l0 -7312.5c0,-465.82 377.93,-843.75 843.75,-843.75l3587.7 0c223.24,0 437.69,89.65 595.9,247.85l1474.8 1474.8c158.2,156.45 247.85,372.66 247.85,595.9zm-2250 -1406.25l0 1337.7 1337.7 0 -1337.7 -1337.7zm1406.25 7243.95l0 -5062.5 -1828.12 0c-233.79,0 -421.88,-188.09 -421.88,-421.88l0 -1828.12 -2812.5 0 0 7312.5 5062.5 0z"/>
 </g>
</svg>
