<?xml version="1.0" encoding="UTF-8"?>
<!DOCTYPE svg PUBLIC "-//W3C//DTD SVG 1.1//EN" "http://www.w3.org/Graphics/SVG/1.1/DTD/svg11.dtd">
<!-- Creator: CorelDRAW 2018 (64 Bit) -->
<svg xmlns="http://www.w3.org/2000/svg" xml:space="preserve" width="100mm" height="100mm" version="1.1" style="shape-rendering:geometricPrecision; text-rendering:geometricPrecision; image-rendering:optimizeQuality; fill-rule:evenodd; clip-rule:evenodd"
viewBox="0 0 10000 10000"
 xmlns:xlink="http://www.w3.org/1999/xlink">
 <defs>
  <style type="text/css">
   <![CDATA[
    .fil0 {fill:white}
   ]]>
  </style>
 </defs>
 <g id="Camada_x0020_1">
  <metadata id="CorelCorpID_0Corel-Layer"/>
  <path class="fil0" d="M8126.54 2222.32l-1474.52 -1474.52c-158.17,-158.17 -372.58,-247.8 -595.78,-247.8l-3586.99 0c-465.73,1.76 -843.59,379.61 -843.59,845.34l0 7311.07c0,465.73 377.86,843.59 843.59,843.59l5061.51 0c465.73,0 843.58,-377.86 843.58,-843.59l0 -5836.55c0,-223.2 -89.63,-439.37 -247.8,-597.54l0 0zm-1497.88 3720.81c-11.68,292.02 -97.56,544.18 -257.66,756.49 -159.41,211.63 -398.51,317.44 -716.64,317.44 -104.44,0 -195.13,-29.54 -271.4,-87.95 -76.27,-58.4 -130.55,-140.16 -162.84,-245.98 -59.09,109.94 -132.61,192.39 -220.56,247.36 -87.95,54.97 -191.01,82.45 -309.2,82.45 -188.95,0 -334.61,-79.7 -435.61,-239.79 -101.69,-160.1 -138.8,-371.72 -112,-634.88 33.67,-341.49 129.86,-614.95 289.27,-820.39 158.72,-205.45 351.79,-308.51 578.53,-308.51 155.97,0 281.03,17.18 375.16,52.22 94.82,35.04 198.57,88.64 311.25,160.78l-6.18 8.25 10.3 0 -103.06 1153.63c-8.93,127.11 0,214.37 28.17,261.1 28.17,47.4 66.65,70.77 114.74,70.77 154.6,0 278.28,-72.84 371.72,-219.19 93.45,-146.35 144.98,-331.18 155.97,-555.17 21.3,-472.72 -70.08,-841.69 -274.83,-1107.6 -204.76,-265.22 -520.82,-397.83 -948.88,-397.83 -406.76,0 -731.76,142.23 -974.31,427.38 -243.23,285.14 -374.46,667.16 -394.39,1146.07 -23.36,474.79 74.89,849.25 293.39,1123.4 219.19,274.15 533.88,411.57 944.07,411.57 114.06,0 232.24,-13.74 353.17,-40.54 121.61,-26.79 226.05,-60.46 313.32,-100.31l76.26 299.57c-90.01,57.72 -204.07,102.38 -342.86,134.67 -138.79,32.3 -274.84,48.79 -407.45,48.79 -531.81,0 -941.32,-166.97 -1229.21,-500.9 -287.89,-333.93 -420.5,-791.53 -397.83,-1372.13 24.74,-572.35 195.82,-1030.64 514.64,-1374.87 318.81,-344.24 738.62,-516.02 1258.76,-516.02 519.44,0 917.27,162.85 1194.17,487.84 276.21,325 404.01,768.86 382.02,1332.28zm-2033.12 193.08c-13.05,171.77 -0.68,301.63 37.8,389.58 37.79,88.64 100.31,132.61 186.2,132.61 74.89,0 142.91,-17.87 204.07,-52.91 61.15,-35.04 115.43,-99.62 164.21,-193.76 0,-5.49 0,-9.62 0,-13.05 0,-3.44 0.69,-8.25 2.07,-13.74l88.63 -1003.16c-30.92,-9.62 -61.84,-16.5 -92.76,-21.99 -30.92,-5.5 -63.21,-8.25 -96.88,-8.25 -149.1,0 -262.47,65.28 -340.11,195.14 -77.64,130.55 -128.49,327.06 -153.23,589.53zm2866.68 -3384.89l-1337.44 0 0 -1337.44 1337.44 1337.44zm-4992.97 5905.09l0 -7311.07 2811.95 0 0 1827.77c0,233.74 188.05,421.79 421.79,421.79l1827.77 0 0 5061.51 -5061.51 0z"/>
 </g>
</svg>
