<?xml version="1.0" encoding="UTF-8"?>
<!DOCTYPE svg PUBLIC "-//W3C//DTD SVG 1.1//EN" "http://www.w3.org/Graphics/SVG/1.1/DTD/svg11.dtd">
<!-- Creator: CorelDRAW 2018 (64 Bit) -->
<svg xmlns="http://www.w3.org/2000/svg" xml:space="preserve" width="100mm" height="100mm" version="1.1" style="shape-rendering:geometricPrecision; text-rendering:geometricPrecision; image-rendering:optimizeQuality; fill-rule:evenodd; clip-rule:evenodd"
viewBox="0 0 10000 10000"
 xmlns:xlink="http://www.w3.org/1999/xlink">
 <defs>
  <style type="text/css">
   <![CDATA[
    .fil0 {fill:#00007D}
   ]]>
  </style>
 </defs>
 <g id="Camada_x0020_1">
  <metadata id="CorelCorpID_0Corel-Layer"/>
  <path id="print.svg" class="fil0" d="M8562.5 3812.5l0 -2129.15c0,-157.53 -62.53,-308.38 -173.86,-419.89l-839.78 -839.6c-111.33,-111.33 -262.36,-173.86 -419.89,-173.86l-5097.72 0c-327.86,0 -593.75,265.89 -593.75,593.75l0 2968.75c-655.91,0 -1187.5,531.59 -1187.5,1187.5l0 2078.12c0,164.03 132.85,296.88 296.88,296.88l890.62 0 0 1781.25c0,327.86 265.89,593.75 593.75,593.75l5937.5 0c327.86,0 593.75,-265.89 593.75,-593.75l0 -1781.25 890.62 0c164.03,0 296.88,-132.85 296.88,-296.88l0 -2078.12c0,-655.91 -531.59,-1187.5 -1187.5,-1187.5zm-1187.5 4750l-4750 0 0 -1781.25 4750 0 0 1781.25zm0 -4156.25l-4750 0 0 -2968.75 3562.5 0 0 890.63c0,164.02 132.85,296.87 296.87,296.87l890.63 0 0 1781.25zm890.62 1335.94c-245.85,0 -445.31,-199.46 -445.31,-445.32 0,-246.03 199.46,-445.31 445.31,-445.31 245.86,0 445.32,199.28 445.32,445.31 0,245.86 -199.46,445.32 -445.32,445.32z"/>
 </g>
</svg>
