<?xml version="1.0" encoding="UTF-8"?>
<!DOCTYPE svg PUBLIC "-//W3C//DTD SVG 1.1//EN" "http://www.w3.org/Graphics/SVG/1.1/DTD/svg11.dtd">
<!-- Creator: CorelDRAW 2018 (64 Bit) -->
<svg xmlns="http://www.w3.org/2000/svg" xml:space="preserve" width="215mm" height="95mm" version="1.1" style="shape-rendering:geometricPrecision; text-rendering:geometricPrecision; image-rendering:optimizeQuality; fill-rule:evenodd; clip-rule:evenodd"
viewBox="0 0 21500 9500"
 xmlns:xlink="http://www.w3.org/1999/xlink">
 <defs>
  <style type="text/css">
   <![CDATA[
    .fil0 {fill:#0000CC}
    .fil2 {fill:white}
    .fil1 {fill:white;fill-rule:nonzero}
   ]]>
  </style>
 </defs>
 <g id="Camada_x0020_1">
  <metadata id="CorelCorpID_0Corel-Layer"/>
  <rect class="fil0" x="12310.87" y="250" width="9000" height="9000"/>
  <path class="fil1" d="M189.14 7780.28c406.96,209.77 780.37,230.75 948.19,218.16 562.2,-29.37 906.23,-411.16 906.23,-910.42 0,-478.29 -402.77,-746.81 -868.47,-918.82 -172.02,-58.74 -318.86,-134.26 -335.64,-302.08 -12.59,-167.82 83.91,-323.06 297.88,-335.64 92.3,-4.2 281.1,-8.39 612.54,125.86l75.52 -578.98c-385.99,-134.26 -591.57,-134.26 -746.8,-125.86 -499.27,25.17 -847.5,411.16 -847.5,914.62 0,503.46 419.56,742.61 889.45,914.62 167.83,58.74 297.89,134.26 310.47,306.28 16.79,163.62 -134.25,289.49 -310.47,302.07 -138.45,12.59 -511.85,4.2 -855.88,-239.14l-75.52 629.33 0 0zm2580.24 -3587.17l-205.58 541.22 528.64 0 390.18 -541.22 -713.24 0zm377.6 3780.16l0 -2999.8 -599.96 0 0 2999.8 599.96 0 0 0zm675.48 -2999.8l0 0 0 2999.8 1552.34 0 0 -599.96 -952.38 0 0 -2399.84 -599.96 0zm2668.35 2999.8l0 -2999.8 -599.96 0 0 2999.8 599.96 0 0 0zm2584.44 -2303.34l0 0 71.33 -616.74c-180.41,-79.72 -381.8,-117.48 -591.57,-117.48 -2030.63,0 -2034.83,3045.95 0,3045.95 209.77,0 474.09,-50.35 658.7,-125.86l-79.72 -620.94c-113.28,58.74 -318.86,134.26 -578.98,134.26 -1187.33,0 -1187.33,-1829.25 0,-1829.25 260.12,0 406.96,71.32 520.24,130.06zm348.23 2303.34l679.67 0 117.48 -323.06 994.34 0 121.67 323.06 675.47 0 -1262.85 -3108.88 -62.93 0 -1262.85 3108.88 0 0zm1015.31 -885.25l281.1 -780.37 272.71 780.37 -553.81 0 0 0z"/>
  <path class="fil1" d="M12992.79 7326.97l314.96 -795.02 313.69 795.02 -628.65 0zm1071.88 635l-756.92 -1846.58 -759.46 1846.58 193.04 0 186.27 -469.9 758.61 0 185.42 469.9 193.04 0z"/>
  <path id="1" class="fil1" d="M15169.57 7403.17c0,108.8 -37.68,203.62 -113.03,284.48 -75.78,81.28 -169.33,121.92 -280.67,121.92 -111.34,0 -204.89,-40.64 -280.67,-121.92 -75.35,-80.86 -113.03,-175.68 -113.03,-284.48 0,-108.8 37.68,-203.62 113.03,-284.48 75.78,-81.28 169.33,-121.92 280.67,-121.92 111.34,0 204.89,40.64 280.67,121.92 75.35,80.86 113.03,175.68 113.03,284.48zm177.8 1193.8l0 -1752.6 -177.8 0 0 190.92c-10.16,-13.12 -20.74,-25.82 -31.75,-38.52 -105.41,-118.53 -235.37,-177.8 -389.89,-177.8 -154.52,0 -284.48,59.27 -389.89,177.8 -102.45,115.15 -153.67,250.61 -153.67,406.4 0,155.79 51.22,291.25 153.67,406.4 105.41,118.53 235.37,177.8 389.89,177.8 154.52,0 284.48,-59.27 389.89,-177.8 11.01,-12.7 21.59,-25.4 31.75,-38.52l0 825.92 177.8 0z"/>
  <path id="2" class="fil1" d="M16500.53 7770.62l0 191.35 177.8 0 0 -1117.6 -177.8 0 0 467.36c0,155.36 -28.79,276.86 -86.36,364.07 -58,87.63 -156.21,131.23 -294.64,131.23 -76.2,0 -130.81,-25.82 -163.83,-77.47 -33.02,-51.65 -49.53,-113.88 -49.53,-186.69l0 -698.5 -177.8 0 0 698.5c0,129.54 35.14,235.8 105.41,318.35 70.27,82.55 168.06,123.61 293.37,123.61 165.1,0 289.56,-71.54 373.38,-214.21z"/>
  <path id="3" class="fil1" d="M17910.23 7403.17c0,108.8 -37.68,203.62 -113.03,284.48 -75.78,81.28 -169.33,121.92 -280.67,121.92 -111.34,0 -204.89,-40.64 -280.67,-121.92 -75.35,-80.86 -113.03,-175.68 -113.03,-284.48 0,-108.8 37.68,-203.62 113.03,-284.48 75.78,-81.28 169.33,-121.92 280.67,-121.92 111.34,0 204.89,40.64 280.67,121.92 75.35,80.86 113.03,175.68 113.03,284.48zm177.8 558.8l0 -1117.6 -177.8 0 0 190.92c-10.16,-13.12 -20.74,-25.82 -31.75,-38.52 -105.41,-118.53 -235.37,-177.8 -389.89,-177.8 -154.52,0 -284.48,59.27 -389.89,177.8 -102.45,115.15 -153.67,250.61 -153.67,406.4 0,155.79 51.22,291.25 153.67,406.4 105.41,118.53 235.37,177.8 389.89,177.8 154.52,0 284.48,-59.27 389.89,-177.8 11.01,-12.7 21.59,-25.4 31.75,-38.52l0 190.92 177.8 0z"/>
  <path class="fil2" d="M17039.15 1541.52c-62.03,-224.84 -386.25,-235.31 -456.56,0 -365.39,1232.5 -1146.72,1567.42 -1146.72,2436.09 0,769.07 615,1391.33 1375,1391.33 760,0 1375,-622.26 1375,-1391.33 0,-873.04 -779.61,-1197.96 -1146.72,-2436.09zm-228.28 3327.42c-482.42,0 -875,-392.58 -875,-875 0,-69.06 55.94,-125 125,-125 69.06,0 125,55.94 125,125 0,344.61 280.39,625 625,625 69.06,0 125,55.94 125,125 0,69.06 -55.94,125 -125,125l0 0z"/>
  <path class="fil1" d="M1188.98 8884.03c55.99,13.33 93.88,28.25 113.88,44.45 13.87,11.32 20.85,25.93 20.85,43.92 0,17.99 -3.7,32.17 -11.22,42.65 -19.15,26.77 -52.91,40.21 -101.17,40.21 -67.74,0 -105.63,-22.86 -113.78,-68.58l-52.59 0c15.24,72.82 70.69,109.23 166.26,109.23 42.44,0 78,-9.42 106.79,-28.26 34.29,-22.23 51.43,-55.04 51.54,-98.43 -0.11,-35.35 -13.87,-62.76 -41.49,-82.12 -19.79,-14.08 -51.75,-26.78 -95.67,-38.1 -44.03,-11.43 -72.82,-20.75 -86.36,-27.94 -28.9,-14.5 -43.29,-35.04 -43.18,-61.49 -0.11,-14.08 3.07,-25.72 9.31,-34.82 16.62,-24.77 45.72,-37.15 87.42,-37.15 59.05,0 92.92,18.63 101.49,55.88l48.05 0c-15.77,-62.65 -65.62,-93.98 -149.54,-93.98 -38.31,0 -71.65,10.05 -100.01,30.16 -28.37,20.11 -42.55,50.48 -42.55,91.02 -0.11,55.14 43.92,92.92 131.97,113.35zm473.19 62.65c0,27.52 -9.95,51.22 -29.85,71.12 -19.9,19.9 -43.81,29.84 -71.75,29.84 -27.94,0 -51.86,-9.94 -71.76,-29.84 -19.9,-19.9 -29.84,-43.6 -29.84,-71.12 0,-27.94 9.94,-51.86 29.84,-71.76 19.9,-19.89 43.82,-29.84 71.76,-29.84 27.94,0 51.85,9.95 71.75,29.84 19.9,19.9 29.85,43.82 29.85,71.76zm44.45 0c0,-40.22 -14.29,-74.61 -42.87,-103.19 -28.57,-28.57 -62.97,-42.86 -103.18,-42.86 -40.22,0 -74.62,14.29 -103.19,42.86 -28.58,28.58 -42.86,62.97 -42.86,103.19 0,40.43 14.28,74.72 42.86,102.87 28.78,28.36 63.18,42.55 103.19,42.55 40,0 74.4,-14.19 103.18,-42.55 28.58,-28.15 42.87,-62.44 42.87,-102.87zm226.06 -294.01l0 -41.27 -31.75 0c-31.33,0 -53.66,7.73 -67,23.18 -13.33,15.45 -20,37.36 -20,65.72l0 107.95 -56.51 0 0 41.27 56.51 0 0 238.13 44.45 0 0 -238.13 74.3 0 0 -41.27 -74.3 0 0 -120.65c0,-9.74 2.33,-17.99 6.99,-24.77 4.65,-6.77 14.39,-10.16 29.21,-10.16l38.1 0zm31.75 196.85l69.85 0 0 238.13 44.45 0 0 -238.13 69.22 0 0 -41.27 -69.22 0 0 -108.59 -44.45 0 0 108.59 -69.85 0 0 41.27zm516.9 273.69l132.71 -314.96 -49.53 0 -83.82 215.26 -90.17 -229.87 -90.17 229.87 -83.82 -215.26 -49.53 0 133.99 314.96 89.53 -225.43 90.81 225.43zm408.94 -175.26c0,27.2 -9.42,50.91 -28.26,71.12 -18.95,20.32 -42.34,30.48 -70.17,30.48 -27.83,0 -51.22,-10.16 -70.17,-30.48 -18.84,-20.21 -28.25,-43.92 -28.25,-71.12 0,-27.2 9.41,-50.91 28.25,-71.12 18.95,-20.32 42.34,-30.48 70.17,-30.48 27.83,0 51.22,10.16 70.17,30.48 18.84,20.21 28.26,43.92 28.26,71.12zm44.45 139.7l0 -279.4 -44.45 0 0 47.73c-2.54,-3.28 -5.19,-6.46 -7.94,-9.63 -26.35,-29.63 -58.85,-44.45 -97.47,-44.45 -38.63,0 -71.12,14.82 -97.48,44.45 -25.61,28.79 -38.41,62.65 -38.41,101.6 0,38.95 12.8,72.81 38.41,101.6 26.36,29.63 58.85,44.45 97.48,44.45 38.62,0 71.12,-14.82 97.47,-44.45 2.75,-3.18 5.4,-6.35 7.94,-9.63l0 47.73 44.45 0zm238.76 -221.62l0 -57.78c-8.89,-3.81 -18.21,-5.72 -27.94,-5.72 -31.23,0 -54.3,17.36 -69.22,52.07l-1.9 11.43 0 -57.78 -44.45 0 0 279.4 44.45 0 0 -139.7c0,-22.97 5.29,-43.6 15.87,-61.91 5.5,-9.53 12.38,-17.57 20.64,-24.13 8.25,-6.56 18.2,-9.85 29.74,-9.85 11.64,0 22.54,4.66 32.81,13.97zm327.03 75.57c0,-38.42 -14.72,-71.65 -44.14,-99.7 -28.89,-27.51 -62.86,-41.27 -101.91,-41.27 -40.22,0 -74.62,14.29 -103.19,42.86 -28.58,28.58 -42.86,62.97 -42.86,103.19 0,40.43 14.28,74.72 42.86,102.87 13.33,13.12 28.78,23.49 46.35,31.11 17.57,7.63 38.74,11.44 63.5,11.44 24.77,0 49.11,-7.73 73.03,-23.18 23.92,-15.45 41.8,-36.52 53.66,-63.19l-50.8 0c-9.74,13.13 -21.91,23.39 -36.52,30.8 -14.6,7.41 -29.95,11.11 -46.03,11.11 -23.82,0 -45.41,-7.83 -64.77,-23.49 -19.05,-15.35 -30.7,-35.03 -34.93,-59.06l245.75 0 0 -23.49zm-46.99 -14.61l-198.12 0c2.54,-11.85 6.98,-22.75 13.33,-32.7 20.96,-32.81 49.53,-49.21 85.73,-49.21 23.7,0 44.76,7.62 63.18,22.86 18.84,15.66 30.8,35.35 35.88,59.05zm513.72 20.96c0,27.2 -9.42,50.91 -28.26,71.12 -18.95,20.32 -42.34,30.48 -70.17,30.48 -27.83,0 -51.22,-10.16 -70.17,-30.48 -18.84,-20.21 -28.25,-43.92 -28.25,-71.12 0,-27.2 9.41,-50.91 28.25,-71.12 18.95,-20.32 42.34,-30.48 70.17,-30.48 27.83,0 51.22,10.16 70.17,30.48 18.84,20.21 28.26,43.92 28.26,71.12zm44.45 139.7l0 -476.25 -44.45 0 0 244.58c-2.54,-3.28 -5.19,-6.46 -7.94,-9.63 -26.35,-29.63 -58.85,-44.45 -97.47,-44.45 -38.63,0 -71.12,14.82 -97.48,44.45 -25.61,28.79 -38.41,62.65 -38.41,101.6 0,38.95 12.8,72.81 38.41,101.6 26.36,29.63 58.85,44.45 97.48,44.45 38.62,0 71.12,-14.82 97.47,-44.45 2.75,-3.18 5.4,-6.35 7.94,-9.63l0 47.73 44.45 0zm368.3 -146.05c0,-38.42 -14.72,-71.65 -44.14,-99.7 -28.89,-27.51 -62.86,-41.27 -101.91,-41.27 -40.22,0 -74.62,14.29 -103.19,42.86 -28.58,28.58 -42.86,62.97 -42.86,103.19 0,40.43 14.28,74.72 42.86,102.87 13.33,13.12 28.78,23.49 46.35,31.11 17.57,7.63 38.74,11.44 63.5,11.44 24.77,0 49.11,-7.73 73.03,-23.18 23.92,-15.45 41.8,-36.52 53.66,-63.19l-50.8 0c-9.74,13.13 -21.91,23.39 -36.52,30.8 -14.6,7.41 -29.95,11.11 -46.03,11.11 -23.82,0 -45.41,-7.83 -64.77,-23.49 -19.05,-15.35 -30.7,-35.03 -34.93,-59.06l245.75 0 0 -23.49zm-46.99 -14.61l-198.12 0c2.54,-11.85 6.98,-22.75 13.33,-32.7 20.96,-32.81 49.53,-49.21 85.73,-49.21 23.7,0 44.76,7.62 63.18,22.86 18.84,15.66 30.8,35.35 35.88,59.05zm517.53 20.96c0,27.2 -9.42,50.91 -28.26,71.12 -18.95,20.32 -42.34,30.48 -70.17,30.48 -27.2,0 -50.48,-10.16 -69.85,-30.48 -19.05,-20 -28.57,-43.71 -28.57,-71.12 0,-27.41 9.52,-51.12 28.57,-71.12 19.37,-20.32 42.65,-30.48 69.85,-30.48 27.83,0 51.22,10.16 70.17,30.48 18.84,20.21 28.26,43.92 28.26,71.12zm-197.91 177.8l-45.41 0c4.77,29.63 18.31,55.67 40.75,78.11 28.36,28.36 62.44,42.54 102.24,42.54 39.79,0 73.87,-14.18 102.23,-42.54 28.36,-28.37 42.55,-62.45 42.55,-102.24l0 -293.37 -44.45 0 0 46.88c-2.12,-2.85 -4.56,-5.82 -7.31,-8.78 -27.73,-29.63 -60.22,-44.45 -97.47,-44.45 -38.95,0 -71.65,14.82 -98.11,44.45 -25.61,28.79 -38.41,62.65 -38.41,101.6 0,38.95 12.8,72.81 38.41,101.6 26.46,29.63 59.16,44.45 98.11,44.45 38.52,0 71.01,-14.82 97.47,-44.45 2.75,-2.96 5.19,-5.93 7.31,-8.78l0 60.85c0,27.52 -9.85,51.12 -29.53,70.8 -19.69,19.69 -43.29,29.53 -70.8,29.53 -27.52,0 -51.12,-9.84 -70.81,-29.53 -13.76,-13.76 -22.65,-29.31 -26.77,-46.67zm610.66 -184.15c0,-38.42 -14.72,-71.65 -44.14,-99.7 -28.89,-27.51 -62.86,-41.27 -101.91,-41.27 -40.22,0 -74.62,14.29 -103.19,42.86 -28.58,28.58 -42.86,62.97 -42.86,103.19 0,40.43 14.28,74.72 42.86,102.87 13.33,13.12 28.78,23.49 46.35,31.11 17.57,7.63 38.74,11.44 63.5,11.44 24.77,0 49.11,-7.73 73.03,-23.18 23.92,-15.45 41.8,-36.52 53.66,-63.19l-50.8 0c-9.74,13.13 -21.91,23.39 -36.52,30.8 -14.6,7.41 -29.95,11.11 -46.03,11.11 -23.82,0 -45.41,-7.83 -64.77,-23.49 -19.05,-15.35 -30.7,-35.03 -34.93,-59.06l245.75 0 0 -23.49zm-46.99 -14.61l-198.12 0c2.54,-11.85 6.98,-22.75 13.33,-32.7 20.96,-32.81 49.53,-49.21 85.73,-49.21 23.7,0 44.76,7.62 63.18,22.86 18.84,15.66 30.8,35.35 35.88,59.05zm160.55 120.87c-11.32,-7.41 -19.26,-20.22 -24.02,-38.32l-46.99 0c9.63,57.58 46.88,86.37 111.65,86.37 15.13,0 29.21,-1.8 42.23,-5.4 13.12,-3.6 25.08,-8.89 35.87,-16.09 21.59,-14.29 32.39,-36.51 32.39,-66.67 0,-30.06 -14.39,-51.97 -43.18,-65.73 -12.38,-5.92 -25.72,-10.47 -40.01,-13.65 -14.18,-3.17 -27.41,-6.67 -39.68,-10.48 -12.28,-3.91 -22.65,-8.68 -30.8,-14.5 -8.47,-5.82 -12.7,-15.13 -12.7,-27.62 0,-12.59 5.08,-21.91 15.24,-28.04 9.95,-6.04 21.8,-9 35.67,-9 13.75,0 25.5,2.54 35.13,7.73 9.74,5.08 17.04,15.45 21.7,31l47.73 0c-6.03,-28.25 -17.99,-47.83 -35.77,-58.84 -18.1,-11.11 -40.64,-16.72 -67.63,-16.72 -26.99,0 -50.27,7.2 -69.85,21.48 -19.47,14.29 -29.21,35.25 -29.21,62.97 0,13.87 3.6,25.93 10.79,36.2 7.1,10.16 17.89,18.63 32.28,25.19 12.49,5.71 25.83,10.37 40.01,13.76 14.07,3.38 27.3,7.09 39.58,11.11 29.1,9.52 43.71,23.07 43.71,40.85 0,30.37 -20.32,45.61 -61.07,45.61 -17.56,0 -31.96,-3.7 -43.07,-11.21zm179.81 -198.34l69.85 0 0 238.13 44.45 0 0 -238.13 69.22 0 0 -41.27 -69.22 0 0 -108.59 -44.45 0 0 108.59 -69.85 0 0 41.27zm466.1 98.43c0,27.2 -9.42,50.91 -28.26,71.12 -18.95,20.32 -42.34,30.48 -70.17,30.48 -27.83,0 -51.22,-10.16 -70.17,-30.48 -18.84,-20.21 -28.25,-43.92 -28.25,-71.12 0,-27.2 9.41,-50.91 28.25,-71.12 18.95,-20.32 42.34,-30.48 70.17,-30.48 27.83,0 51.22,10.16 70.17,30.48 18.84,20.21 28.26,43.92 28.26,71.12zm44.45 139.7l0 -279.4 -44.45 0 0 47.73c-2.54,-3.28 -5.19,-6.46 -7.94,-9.63 -26.35,-29.63 -58.85,-44.45 -97.47,-44.45 -38.63,0 -71.12,14.82 -97.48,44.45 -25.61,28.79 -38.41,62.65 -38.41,101.6 0,38.95 12.8,72.81 38.41,101.6 26.36,29.63 58.85,44.45 97.48,44.45 38.62,0 71.12,-14.82 97.47,-44.45 2.75,-3.18 5.4,-6.35 7.94,-9.63l0 47.73 44.45 0zm-247.65 -328.93l31.11 0c-0.85,-8.04 -0.42,-15.24 1.27,-21.59 3.39,-14.82 12.07,-22.23 26.04,-22.23 8.46,0 15.24,2.65 20.32,7.94 5.08,5.29 10.26,11.22 15.55,17.78 5.29,6.56 11.75,12.49 19.37,17.78 7.62,5.29 19.58,7.94 35.88,7.94 16.3,0 28.78,-4.13 37.46,-12.38 17.36,-16.51 24.45,-38.84 21.28,-67l-31.12 0c0,15.88 -1.06,26.36 -3.17,31.44 -1.7,4.02 -4.45,7.09 -8.26,9.2 -3.81,2.12 -9.52,3.18 -17.14,3.18 -7.62,0 -13.87,-2.65 -18.74,-7.94 -4.87,-5.29 -9.95,-11.11 -15.24,-17.46 -5.29,-6.35 -11.74,-12.17 -19.36,-17.46 -7.62,-5.29 -19.27,-7.94 -34.93,-7.94 -15.66,0 -27.83,4.13 -36.51,12.38 -16.72,15.88 -24.66,38 -23.81,66.36zm571.5 187.96c0,27.52 -9.95,51.22 -29.85,71.12 -19.9,19.9 -43.81,29.84 -71.75,29.84 -27.94,0 -51.86,-9.94 -71.76,-29.84 -19.9,-19.9 -29.84,-43.6 -29.84,-71.12 0,-27.94 9.94,-51.86 29.84,-71.76 19.9,-19.89 43.82,-29.84 71.76,-29.84 27.94,0 51.85,9.95 71.75,29.84 19.9,19.9 29.85,43.82 29.85,71.76zm44.45 0c0,-40.22 -14.29,-74.61 -42.87,-103.19 -28.57,-28.57 -62.97,-42.86 -103.18,-42.86 -40.22,0 -74.62,14.29 -103.19,42.86 -28.58,28.58 -42.86,62.97 -42.86,103.19 0,40.43 14.28,74.72 42.86,102.87 28.78,28.36 63.18,42.55 103.19,42.55 40,0 74.4,-14.19 103.18,-42.55 28.58,-28.15 42.87,-62.44 42.87,-102.87zm508.63 -38.1c-8.78,-31.64 -25.61,-57.04 -50.48,-76.2 -25.83,-19.9 -54.72,-29.85 -86.68,-29.85 -39.9,0 -73.77,14.4 -101.6,43.18 -27.52,28.47 -41.27,62.55 -41.27,102.24 0,39.48 13.75,73.66 41.27,102.55 12.7,13.34 27.73,23.92 45.09,31.75 17.35,7.83 34.92,11.75 52.7,11.75 17.78,0 33.66,-2.43 47.63,-7.3 44.76,-15.56 75.03,-45.72 90.8,-90.49l-50.16 0c-8.47,15.66 -20.22,28.15 -35.25,37.46 -15.03,9.32 -31.43,13.97 -49.21,13.97 -27.2,0 -50.16,-9.84 -68.9,-29.52 -18.84,-19.79 -28.25,-43.18 -28.25,-70.17 0,-26.56 9.41,-49.74 28.25,-69.53 8.68,-9.1 18.95,-16.3 30.8,-21.59 11.85,-5.29 26.04,-7.94 42.55,-7.94 16.51,0 32.8,5.5 48.89,16.51 16.09,11.01 27.94,25.4 35.56,43.18l48.26 0zm298.46 38.1c0,27.52 -9.95,51.22 -29.85,71.12 -19.9,19.9 -43.81,29.84 -71.75,29.84 -27.94,0 -51.86,-9.94 -71.76,-29.84 -19.9,-19.9 -29.84,-43.6 -29.84,-71.12 0,-27.94 9.94,-51.86 29.84,-71.76 19.9,-19.89 43.82,-29.84 71.76,-29.84 27.94,0 51.85,9.95 71.75,29.84 19.9,19.9 29.85,43.82 29.85,71.76zm44.45 0c0,-40.22 -14.29,-74.61 -42.87,-103.19 -28.57,-28.57 -62.97,-42.86 -103.18,-42.86 -40.22,0 -74.62,14.29 -103.19,42.86 -28.58,28.58 -42.86,62.97 -42.86,103.19 0,40.43 14.28,74.72 42.86,102.87 28.78,28.36 63.18,42.55 103.19,42.55 40,0 74.4,-14.19 103.18,-42.55 28.58,-28.15 42.87,-62.44 42.87,-102.87zm430.53 139.7l44.45 0 0 -174.63c0,-31.64 -7.73,-57.46 -23.18,-77.47 -7.83,-10.16 -17.68,-18.3 -29.53,-24.44 -11.85,-6.14 -27.52,-9.21 -46.99,-9.21 -19.47,0 -36.51,5.29 -51.12,15.87 -13.23,9.53 -24.13,22.02 -32.7,37.26 -3.28,-6.99 -7.2,-13.55 -11.75,-19.48 -7.83,-10.16 -17.67,-18.3 -29.52,-24.44 -11.86,-6.14 -27.52,-9.21 -46.99,-9.21 -19.48,0 -36.52,5.29 -51.12,15.87 -12.6,9.11 -23.07,20.75 -31.43,35.04l0 -44.56 -44.45 0 0 279.4 44.45 0 0 -142.98c2.32,-22.65 8.04,-41.81 17.14,-57.68 6.77,-11.85 15.88,-21.59 27.31,-29.21 11.43,-7.62 23.7,-11.43 36.83,-11.43 13.12,0 22.86,2.01 29.21,6.03 18.2,11.54 27.3,31.75 27.3,60.64l0 174.63 44.45 0 0 -174.63c0,-3.7 -0.11,-7.19 -0.32,-10.68 2.12,-5.51 4.55,-10.59 7.31,-15.35 6.77,-11.85 15.87,-21.59 27.3,-29.21 11.43,-7.62 23.71,-11.43 36.83,-11.43 13.12,0 22.86,2.01 29.21,6.03 18.2,11.54 27.31,31.75 27.31,60.64l0 174.63zm403.23 -144.78c0,-38.42 -14.72,-71.65 -44.14,-99.7 -28.89,-27.51 -62.86,-41.27 -101.91,-41.27 -40.22,0 -74.62,14.29 -103.19,42.86 -28.58,28.58 -42.86,62.97 -42.86,103.19 0,40.43 14.28,74.72 42.86,102.87 13.33,13.12 28.78,23.49 46.35,31.11 17.57,7.63 38.74,11.44 63.5,11.44 24.77,0 49.11,-7.73 73.03,-23.18 23.92,-15.45 41.8,-36.52 53.66,-63.19l-50.8 0c-9.74,13.13 -21.91,23.39 -36.52,30.8 -14.6,7.41 -29.95,11.11 -46.03,11.11 -23.82,0 -45.41,-7.83 -64.77,-23.49 -19.05,-15.35 -30.7,-35.03 -34.93,-59.06l245.75 0 0 -23.49zm-46.99 -14.61l-198.12 0c2.54,-11.85 6.98,-22.75 13.33,-32.7 20.96,-32.81 49.53,-49.21 85.73,-49.21 23.7,0 44.76,7.62 63.18,22.86 18.84,15.66 30.8,35.35 35.88,59.05zm263.53 -60.96l0 -57.78c-8.89,-3.81 -18.21,-5.72 -27.94,-5.72 -31.23,0 -54.3,17.36 -69.22,52.07l-1.9 11.43 0 -57.78 -44.45 0 0 279.4 44.45 0 0 -139.7c0,-22.97 5.29,-43.6 15.87,-61.91 5.5,-9.53 12.38,-17.57 20.64,-24.13 8.25,-6.56 18.2,-9.85 29.74,-9.85 11.64,0 22.54,4.66 32.81,13.97zm314.96 42.55c-8.78,-31.64 -25.61,-57.04 -50.48,-76.2 -25.83,-19.9 -54.72,-29.85 -86.68,-29.85 -39.9,0 -73.77,14.4 -101.6,43.18 -27.52,28.47 -41.27,62.55 -41.27,102.24 0,39.48 13.75,73.66 41.27,102.55 12.7,13.34 27.73,23.92 45.09,31.75 17.35,7.83 34.92,11.75 52.7,11.75 17.78,0 33.66,-2.43 47.63,-7.3 44.76,-15.56 75.03,-45.72 90.8,-90.49l-50.16 0c-8.47,15.66 -20.22,28.15 -35.25,37.46 -15.03,9.32 -31.43,13.97 -49.21,13.97 -27.2,0 -50.16,-9.84 -68.9,-29.52 -18.84,-19.79 -28.25,-43.18 -28.25,-70.17 0,-26.56 9.41,-49.74 28.25,-69.53 8.68,-9.1 18.95,-16.3 30.8,-21.59 11.85,-5.29 26.04,-7.94 42.55,-7.94 16.51,0 32.8,5.5 48.89,16.51 16.09,11.01 27.94,25.4 35.56,43.18l48.26 0zm114.94 -196.85c-5.5,-5.5 -12.17,-8.26 -20,-8.26 -7.83,0 -14.5,2.76 -20,8.26 -5.51,5.5 -8.26,12.17 -8.26,20 0,7.83 2.75,14.5 8.26,20 5.5,5.51 12.17,8.26 20,8.26 7.83,0 14.5,-2.75 20,-8.26 5.5,-5.5 8.26,-12.17 8.26,-20 0,-7.83 -2.76,-14.5 -8.26,-20zm2.54 375.92l0 -279.4 -44.45 0 0 279.4 44.45 0zm320.05 -139.7c0,27.2 -9.42,50.91 -28.26,71.12 -18.95,20.32 -42.34,30.48 -70.17,30.48 -27.83,0 -51.22,-10.16 -70.17,-30.48 -18.84,-20.21 -28.25,-43.92 -28.25,-71.12 0,-27.2 9.41,-50.91 28.25,-71.12 18.95,-20.32 42.34,-30.48 70.17,-30.48 27.83,0 51.22,10.16 70.17,30.48 18.84,20.21 28.26,43.92 28.26,71.12zm44.45 139.7l0 -279.4 -44.45 0 0 47.73c-2.54,-3.28 -5.19,-6.46 -7.94,-9.63 -26.35,-29.63 -58.85,-44.45 -97.47,-44.45 -38.63,0 -71.12,14.82 -97.48,44.45 -25.61,28.79 -38.41,62.65 -38.41,101.6 0,38.95 12.8,72.81 38.41,101.6 26.36,29.63 58.85,44.45 97.48,44.45 38.62,0 71.12,-14.82 97.47,-44.45 2.75,-3.18 5.4,-6.35 7.94,-9.63l0 47.73 44.45 0zm139.7 0l0 -476.25 -44.45 0 0 476.25 44.45 0zm488.95 -139.7c0,27.2 -9.42,50.91 -28.26,71.12 -18.95,20.32 -42.34,30.48 -70.17,30.48 -27.83,0 -51.22,-10.16 -70.17,-30.48 -18.84,-20.21 -28.25,-43.92 -28.25,-71.12 0,-27.2 9.41,-50.91 28.25,-71.12 18.95,-20.32 42.34,-30.48 70.17,-30.48 27.83,0 51.22,10.16 70.17,30.48 18.84,20.21 28.26,43.92 28.26,71.12zm44.45 139.7l0 -476.25 -44.45 0 0 244.58c-2.54,-3.28 -5.19,-6.46 -7.94,-9.63 -26.35,-29.63 -58.85,-44.45 -97.47,-44.45 -38.63,0 -71.12,14.82 -97.48,44.45 -25.61,28.79 -38.41,62.65 -38.41,101.6 0,38.95 12.8,72.81 38.41,101.6 26.36,29.63 58.85,44.45 97.48,44.45 38.62,0 71.12,-14.82 97.47,-44.45 2.75,-3.18 5.4,-6.35 7.94,-9.63l0 47.73 44.45 0zm368.3 -146.05c0,-38.42 -14.72,-71.65 -44.14,-99.7 -28.89,-27.51 -62.86,-41.27 -101.91,-41.27 -40.22,0 -74.62,14.29 -103.19,42.86 -28.58,28.58 -42.86,62.97 -42.86,103.19 0,40.43 14.28,74.72 42.86,102.87 13.33,13.12 28.78,23.49 46.35,31.11 17.57,7.63 38.74,11.44 63.5,11.44 24.77,0 49.11,-7.73 73.03,-23.18 23.92,-15.45 41.8,-36.52 53.66,-63.19l-50.8 0c-9.74,13.13 -21.91,23.39 -36.52,30.8 -14.6,7.41 -29.95,11.11 -46.03,11.11 -23.82,0 -45.41,-7.83 -64.77,-23.49 -19.05,-15.35 -30.7,-35.03 -34.93,-59.06l245.75 0 0 -23.49zm-46.99 -14.61l-198.12 0c2.54,-11.85 6.98,-22.75 13.33,-32.7 20.96,-32.81 49.53,-49.21 85.73,-49.21 23.7,0 44.76,7.62 63.18,22.86 18.84,15.66 30.8,35.35 35.88,59.05zm513.72 20.96c0,27.2 -9.42,50.91 -28.26,71.12 -18.95,20.32 -42.34,30.48 -70.17,30.48 -27.83,0 -51.22,-10.16 -70.17,-30.48 -18.84,-20.21 -28.25,-43.92 -28.25,-71.12 0,-27.2 9.41,-50.91 28.25,-71.12 18.95,-20.32 42.34,-30.48 70.17,-30.48 27.83,0 51.22,10.16 70.17,30.48 18.84,20.21 28.26,43.92 28.26,71.12zm44.45 139.7l0 -279.4 -44.45 0 0 47.73c-2.54,-3.28 -5.19,-6.46 -7.94,-9.63 -26.35,-29.63 -58.85,-44.45 -97.47,-44.45 -38.63,0 -71.12,14.82 -97.48,44.45 -25.61,28.79 -38.41,62.65 -38.41,101.6 0,38.95 12.8,72.81 38.41,101.6 26.36,29.63 58.85,44.45 97.48,44.45 38.62,0 71.12,-14.82 97.47,-44.45 2.75,-3.18 5.4,-6.35 7.94,-9.63l0 47.73 44.45 0zm-74.3 -432.44l-54.61 0 -50.8 90.81 35.56 0 69.85 -90.81zm395.61 292.74c0,27.2 -9.42,50.91 -28.26,71.12 -18.95,20.32 -42.34,30.48 -70.17,30.48 -27.2,0 -50.48,-10.16 -69.85,-30.48 -19.05,-20 -28.57,-43.71 -28.57,-71.12 0,-27.41 9.52,-51.12 28.57,-71.12 19.37,-20.32 42.65,-30.48 69.85,-30.48 27.83,0 51.22,10.16 70.17,30.48 18.84,20.21 28.26,43.92 28.26,71.12zm-197.91 177.8l-45.41 0c4.77,29.63 18.31,55.67 40.75,78.11 28.36,28.36 62.44,42.54 102.24,42.54 39.79,0 73.87,-14.18 102.23,-42.54 28.36,-28.37 42.55,-62.45 42.55,-102.24l0 -293.37 -44.45 0 0 46.88c-2.12,-2.85 -4.56,-5.82 -7.31,-8.78 -27.73,-29.63 -60.22,-44.45 -97.47,-44.45 -38.95,0 -71.65,14.82 -98.11,44.45 -25.61,28.79 -38.41,62.65 -38.41,101.6 0,38.95 12.8,72.81 38.41,101.6 26.46,29.63 59.16,44.45 98.11,44.45 38.52,0 71.01,-14.82 97.47,-44.45 2.75,-2.96 5.19,-5.93 7.31,-8.78l0 60.85c0,27.52 -9.85,51.12 -29.53,70.8 -19.69,19.69 -43.29,29.53 -70.8,29.53 -27.52,0 -51.12,-9.84 -70.81,-29.53 -13.76,-13.76 -22.65,-29.31 -26.77,-46.67zm530.65 -85.94l0 47.84 44.45 0 0 -279.4 -44.45 0 0 116.84c0,38.84 -7.2,69.21 -21.59,91.02 -14.5,21.9 -39.06,32.8 -73.66,32.8 -19.05,0 -32.71,-6.45 -40.96,-19.36 -8.26,-12.91 -12.38,-28.47 -12.38,-46.68l0 -174.62 -44.45 0 0 174.62c0,32.39 8.78,58.95 26.35,79.59 17.57,20.64 42.01,30.91 73.34,30.91 41.28,0 72.39,-17.89 93.35,-53.56zm352.43 -91.86c0,27.2 -9.42,50.91 -28.26,71.12 -18.95,20.32 -42.34,30.48 -70.17,30.48 -27.83,0 -51.22,-10.16 -70.17,-30.48 -18.84,-20.21 -28.25,-43.92 -28.25,-71.12 0,-27.2 9.41,-50.91 28.25,-71.12 18.95,-20.32 42.34,-30.48 70.17,-30.48 27.83,0 51.22,10.16 70.17,30.48 18.84,20.21 28.26,43.92 28.26,71.12zm44.45 139.7l0 -279.4 -44.45 0 0 47.73c-2.54,-3.28 -5.19,-6.46 -7.94,-9.63 -26.35,-29.63 -58.85,-44.45 -97.47,-44.45 -38.63,0 -71.12,14.82 -97.48,44.45 -25.61,28.79 -38.41,62.65 -38.41,101.6 0,38.95 12.8,72.81 38.41,101.6 26.36,29.63 58.85,44.45 97.48,44.45 38.62,0 71.12,-14.82 97.47,-44.45 2.75,-3.18 5.4,-6.35 7.94,-9.63l0 47.73 44.45 0zm135.78 -39.79c-11.32,-7.41 -19.26,-20.22 -24.02,-38.32l-46.99 0c9.63,57.58 46.88,86.37 111.65,86.37 15.13,0 29.21,-1.8 42.23,-5.4 13.12,-3.6 25.08,-8.89 35.87,-16.09 21.59,-14.29 32.39,-36.51 32.39,-66.67 0,-30.06 -14.39,-51.97 -43.18,-65.73 -12.38,-5.92 -25.72,-10.47 -40.01,-13.65 -14.18,-3.17 -27.41,-6.67 -39.68,-10.48 -12.28,-3.91 -22.65,-8.68 -30.8,-14.5 -8.47,-5.82 -12.7,-15.13 -12.7,-27.62 0,-12.59 5.08,-21.91 15.24,-28.04 9.95,-6.04 21.8,-9 35.67,-9 13.75,0 25.5,2.54 35.13,7.73 9.74,5.08 17.04,15.45 21.7,31l47.73 0c-6.03,-28.25 -17.99,-47.83 -35.77,-58.84 -18.1,-11.11 -40.64,-16.72 -67.63,-16.72 -26.99,0 -50.27,7.2 -69.85,21.48 -19.47,14.29 -29.21,35.25 -29.21,62.97 0,13.87 3.6,25.93 10.79,36.2 7.1,10.16 17.89,18.63 32.28,25.19 12.49,5.71 25.83,10.37 40.01,13.76 14.07,3.38 27.3,7.09 39.58,11.11 29.1,9.52 43.71,23.07 43.71,40.85 0,30.37 -20.32,45.61 -61.07,45.61 -17.56,0 -31.96,-3.7 -43.07,-11.21z"/>
 </g>
</svg>
