<?xml version="1.0" encoding="UTF-8"?>
<!DOCTYPE svg PUBLIC "-//W3C//DTD SVG 1.1//EN" "http://www.w3.org/Graphics/SVG/1.1/DTD/svg11.dtd">
<!-- Creator: CorelDRAW 2019 (64 Bit) -->
<svg xmlns="http://www.w3.org/2000/svg" xml:space="preserve" width="100mm" height="100mm" version="1.1" style="shape-rendering:geometricPrecision; text-rendering:geometricPrecision; image-rendering:optimizeQuality; fill-rule:evenodd; clip-rule:evenodd"
viewBox="0 0 10000 10000"
 xmlns:xlink="http://www.w3.org/1999/xlink">
 <defs>
  <style type="text/css">
   <![CDATA[
    .fil0 {fill:white}
   ]]>
  </style>
 </defs>
 <g id="Camada_x0020_1">
  <metadata id="CorelCorpID_0Corel-Layer"/>
  <path id="save.svg" class="fil0" d="M9096.61 2541.71l-1638.32 -1638.32c-175.69,-175.7 -414.32,-274.59 -662.92,-274.59l-5236.67 0c-517.77,0 -937.5,419.73 -937.5,937.5l0 6875c0,517.77 419.73,937.5 937.5,937.5l6875 0c517.77,0 937.5,-419.73 937.5,-937.5l0 -5236.68c0,-248.59 -98.89,-487.22 -274.58,-662.91l-0.01 0zm-4100.41 5587.09c-690.35,0 -1250,-559.65 -1250,-1250 0,-690.35 559.65,-1250 1250,-1250 690.35,0 1250,559.65 1250,1250 0,690.35 -559.65,1250 -1250,1250zm1875 -5947.66l0 1963.28c0,129.43 -104.94,234.38 -234.38,234.38l-4531.25 0c-129.43,0 -234.38,-104.94 -234.38,-234.38l0.01 -2031.25c0,-129.43 104.94,-234.38 234.38,-234.38l4463.28 0.01c62.17,0 121.78,24.69 165.72,68.65l67.97 67.97c43.94,43.9 68.65,103.57 68.65,165.7 0,0 0,0.03 0,0.03l0 -0.01z"/>
 </g>
</svg>
