<?xml version="1.0" encoding="UTF-8"?>
<!DOCTYPE svg PUBLIC "-//W3C//DTD SVG 1.1//EN" "http://www.w3.org/Graphics/SVG/1.1/DTD/svg11.dtd">
<!-- Creator: CorelDRAW 2019 (64 Bit) -->
<svg xmlns="http://www.w3.org/2000/svg" xml:space="preserve" width="100mm" height="100mm" version="1.1" style="shape-rendering:geometricPrecision; text-rendering:geometricPrecision; image-rendering:optimizeQuality; fill-rule:evenodd; clip-rule:evenodd"
viewBox="0 0 10000 10000"
 xmlns:xlink="http://www.w3.org/1999/xlink">
 <defs>
  <style type="text/css">
   <![CDATA[
    .fil0 {fill:white}
   ]]>
  </style>
 </defs>
 <g id="Camada_x0020_1">
  <metadata id="CorelCorpID_0Corel-Layer"/>
  <path id="search.svg" class="fil0" d="M9859.85 8649.79l-1947.26 -1947.26c-87.89,-87.89 -207.03,-136.72 -332.03,-136.72l-318.37 0c539.06,-689.45 859.38,-1556.64 859.38,-2500 0,-2244.14 -1818.36,-4062.5 -4062.5,-4062.5 -2244.14,0 -4062.5,1818.36 -4062.5,4062.5 0,2244.14 1818.36,4062.5 4062.5,4062.5 943.36,0 1810.55,-320.31 2500,-859.37l0 318.36c0,125 48.83,244.14 136.72,332.03l1947.27 1947.27c183.59,183.59 480.47,183.59 662.11,0l552.73 -552.73c183.59,-183.59 183.59,-480.47 1.95,-664.06l0 -0.02zm-5800.78 -2083.98c-1380.86,0 -2500,-1117.19 -2500,-2500 0,-1380.86 1117.19,-2500 2500,-2500 1380.86,0 2500,1117.19 2500,2500 0,1380.86 -1117.19,2500 -2500,2500z"/>
 </g>
</svg>
