<?xml version="1.0" encoding="UTF-8"?>
<!DOCTYPE svg PUBLIC "-//W3C//DTD SVG 1.1//EN" "http://www.w3.org/Graphics/SVG/1.1/DTD/svg11.dtd">
<!-- Creator: CorelDRAW 2019 (64 Bit Versão de avaliação) -->
<svg xmlns="http://www.w3.org/2000/svg" xml:space="preserve" width="100mm" height="100mm" version="1.1" style="shape-rendering:geometricPrecision; text-rendering:geometricPrecision; image-rendering:optimizeQuality; fill-rule:evenodd; clip-rule:evenodd"
viewBox="0 0 10000 10000"
 xmlns:xlink="http://www.w3.org/1999/xlink">
 <defs>
  <style type="text/css">
   <![CDATA[
    .fil0 {fill:#FEFEFE}
   ]]>
  </style>
 </defs>
 <g id="Camada_x0020_1">
  <metadata id="CorelCorpID_0Corel-Layer"/>
  <g id="_1634171819392">
   <g>
    <path class="fil0" d="M9897.92 5909.84c-135.4,-240.38 -391.09,-389.69 -667.29,-389.69 -130.46,0 -260.01,34.11 -374.57,98.61l-2229.6 1255.63c-29.11,16.38 -50.11,44.1 -58.09,76.54 -38.89,158.74 -130.43,380.37 -345.49,534.71 -238.04,170.82 -560.06,206.41 -952.43,105.78 -2.36,-0.59 -4.7,-1.26 -6.77,-1.91l-1286.17 -399.37c-77.77,-24.14 -121.38,-107.07 -97.24,-184.82 19.34,-62.2 76,-103.98 141.01,-103.98 14.77,0 29.57,2.26 43.88,6.69l1279.49 397.29c2.04,0.62 4.14,1.21 6.23,1.75 301.74,76.16 537.39,54.97 699.73,-61.44 205.09,-147.16 241.21,-405.86 245.48,-443.86 0.16,-1.21 0.3,-2.42 0.38,-3.65 0.08,-0.62 0.11,-0.97 0.13,-1.05 0.03,-0.4 0.05,-0.81 0.08,-1.18 0.03,-0.27 0.03,-0.51 0.05,-0.78 24.41,-318.98 -181.43,-613.53 -489.83,-700.62l-5.67 -1.72c-9.4,-3.06 -955.92,-312.21 -1559,-484.3 -67,-19.09 -251.63,-63.54 -518.65,-63.54 -373.44,0 -930.55,88.49 -1464.91,510.91l-2217.6 1793.83c-50.73,41.01 -59.73,114.89 -20.36,166.9l1200.73 1586.05c19.47,25.67 48.37,42.54 80.3,46.83 5.34,0.73 10.69,1.07 16.06,1.07 26.51,0 52.47,-8.73 73.72,-25.11l1546.63 -1190.88c34.75,-26.72 81.34,-36.79 124.04,-26.72l2498.03 590.32c185.24,43.77 385.45,15.52 551.14,-77.88l3495.43 -1968.57c367.48,-207.01 498.07,-674.34 291.13,-1041.84z"/>
    <path class="fil0" d="M8508.69 357.07l-4565.32 0c-148.29,0 -268.55,120.23 -268.55,268.55l0 1222c0,148.32 120.26,268.55 268.55,268.55l100.31 0 0 2594.8c0,148.32 120.23,268.55 268.55,268.55l3827.5 -0.01c148.32,0 268.55,-120.23 268.55,-268.55l0 -2594.82 100.39 0c148.29,0 268.55,-120.23 268.55,-268.55l-0.01 -1221.98c0.03,-148.32 -120.23,-268.54 -268.52,-268.54zm-1717.77 2397.11l-1129.84 0c-118.46,0 -214.84,-96.38 -214.84,-214.84 0,-118.46 96.38,-214.84 214.84,-214.84l1129.84 0.01c118.46,0 214.84,96.38 214.84,214.84 0,118.45 -96.38,214.83 -214.84,214.83zm1449.22 -1175.14l-100.38 0 -3827.53 0 -100.31 0 0 -684.88 4028.22 0 0 684.88z"/>
   </g>
   <g>
   </g>
   <g>
   </g>
   <g>
   </g>
   <g>
   </g>
   <g>
   </g>
   <g>
   </g>
   <g>
   </g>
   <g>
   </g>
   <g>
   </g>
   <g>
   </g>
   <g>
   </g>
   <g>
   </g>
   <g>
   </g>
   <g>
   </g>
   <g>
   </g>
  </g>
 </g>
</svg>
