<?xml version="1.0" encoding="UTF-8"?>
<!DOCTYPE svg PUBLIC "-//W3C//DTD SVG 1.1//EN" "http://www.w3.org/Graphics/SVG/1.1/DTD/svg11.dtd">
<!-- Creator: CorelDRAW 2018 (64 Bit) -->
<svg xmlns="http://www.w3.org/2000/svg" xml:space="preserve" width="100mm" height="100mm" version="1.1" style="shape-rendering:geometricPrecision; text-rendering:geometricPrecision; image-rendering:optimizeQuality; fill-rule:evenodd; clip-rule:evenodd"
viewBox="0 0 10000 10000"
 xmlns:xlink="http://www.w3.org/1999/xlink">
 <defs>
  <style type="text/css">
   <![CDATA[
    .fil0 {fill:black}
   ]]>
  </style>
 </defs>
 <g id="Camada_x0020_1">
  <metadata id="CorelCorpID_0Corel-Layer"/>
  <path class="fil0" d="M8126.55 2222.32l-1474.52 -1474.52c-158.17,-158.17 -372.58,-247.8 -595.78,-247.8l-3586.99 0c-465.73,1.76 -843.59,379.61 -843.59,845.34l0 7311.07c0,465.73 377.86,843.59 843.59,843.59l5061.51 0c465.73,0 843.58,-377.86 843.58,-843.59l0 -5836.55c0,-223.2 -89.63,-439.37 -247.8,-597.54l0 0zm-3482.6 3930.75l-750.21 0 -145.83 460.05 -432.99 0 735.68 -2137.88 439 0 732.67 2137.88 -432.98 0 -145.34 -460.05zm-644.97 -330.76l539.23 0 -264.6 -846.43 -8.52 0 -266.11 846.43zm2625.49 -3l242.05 0 0 330.75 -242.05 0 0 463.06 -427.48 0 0 -463.06 -871.98 0 -19.05 -257.08 887.03 -1417.74 431.48 0 0 1344.07zm-919.1 0l491.62 0 0 -771.26 -8.52 -3.01 -34.07 60.14 -449.03 714.13zm1756.85 -3067.99l-1337.43 0 0 -1337.44 1337.43 1337.44zm-4992.96 5905.09l0 -7311.07 2811.95 0 0 1827.77c0,233.74 188.05,421.79 421.79,421.79l1827.77 0 0 5061.51 -5061.51 0z"/>
 </g>
</svg>
