<?xml version="1.0" encoding="UTF-8"?>
<!DOCTYPE svg PUBLIC "-//W3C//DTD SVG 1.1//EN" "http://www.w3.org/Graphics/SVG/1.1/DTD/svg11.dtd">
<!-- Creator: CorelDRAW 2018 (64 Bit) -->
<svg xmlns="http://www.w3.org/2000/svg" xml:space="preserve" width="215mm" height="93mm" version="1.1" style="shape-rendering:geometricPrecision; text-rendering:geometricPrecision; image-rendering:optimizeQuality; fill-rule:evenodd; clip-rule:evenodd"
viewBox="0 0 21500 9300"
 xmlns:xlink="http://www.w3.org/1999/xlink">
 <defs>
  <style type="text/css">
   <![CDATA[
    .fil0 {fill:#666666}
    .fil4 {fill:white}
    .fil1 {fill:black;fill-rule:nonzero}
    .fil3 {fill:#1A1A1A;fill-rule:nonzero}
    .fil2 {fill:white;fill-rule:nonzero}
   ]]>
  </style>
 </defs>
 <g id="Camada_x0020_1">
  <metadata id="CorelCorpID_0Corel-Layer"/>
  <g id="_2171354155776">
   <polygon class="fil0" points="21310.87,9150 12310.87,9150 12310.87,150 21310.87,150 "/>
   <path class="fil1" d="M189.14 7680.28c406.96,209.77 780.37,230.75 948.19,218.16 562.2,-29.37 906.23,-411.16 906.23,-910.42 0,-478.29 -402.77,-746.81 -868.47,-918.82 -172.02,-58.74 -318.86,-134.26 -335.64,-302.08 -12.59,-167.82 83.91,-323.06 297.88,-335.64 92.3,-4.2 281.1,-8.39 612.54,125.86l75.52 -578.98c-385.99,-134.26 -591.57,-134.26 -746.8,-125.86 -499.27,25.17 -847.5,411.16 -847.5,914.62 0,503.46 419.56,742.61 889.45,914.62 167.83,58.74 297.89,134.26 310.47,306.28 16.79,163.62 -134.25,289.49 -310.47,302.07 -138.45,12.59 -511.85,4.2 -855.88,-239.14l-75.52 629.33 0 0zm2580.24 -3587.17l-205.58 541.22 528.64 0 390.18 -541.22 -713.24 0zm377.6 3780.16l0 -2999.8 -599.96 0 0 2999.8 599.96 0 0 0zm675.48 -2999.8l0 0 0 2999.8 1552.34 0 0 -599.96 -952.38 0 0 -2399.84 -599.96 0zm2668.35 2999.8l0 -2999.8 -599.96 0 0 2999.8 599.96 0 0 0zm2584.44 -2303.34l0 0 71.33 -616.74c-180.41,-79.72 -381.8,-117.48 -591.57,-117.48 -2030.63,0 -2034.83,3045.95 0,3045.95 209.77,0 474.09,-50.35 658.7,-125.86l-79.72 -620.94c-113.28,58.74 -318.86,134.26 -578.98,134.26 -1187.33,0 -1187.33,-1829.25 0,-1829.25 260.12,0 406.96,71.32 520.24,130.06zm348.23 2303.34l679.67 0 117.48 -323.06 994.34 0 121.67 323.06 675.47 0 -1262.85 -3108.88 -62.93 0 -1262.85 3108.88 0 0zm1015.31 -885.25l281.1 -780.37 272.71 780.37 -553.81 0 0 0z"/>
   <path class="fil2" d="M14417.73 7054.25l-899.16 0 0 154.94 701.04 0c-51.22,149.86 -140.12,269.66 -267.55,359.83 -127.42,90.17 -269.24,135.47 -425.87,135.47 -197.27,0 -365.34,-70.27 -503.77,-210.4 -138.43,-140.12 -207.43,-307.76 -207.43,-503.34 0,-196.43 69.43,-364.07 208.28,-502.92 138.85,-138.85 306.49,-208.28 502.92,-208.28 148.17,0 282.36,41.49 402.59,124.88 120.65,83.4 208.28,195.16 262.89,334.86l187.96 0c-58,-190.5 -165.95,-344.59 -323.85,-461.86 -158.33,-117.26 -340.78,-175.68 -547.37,-175.68 -110.07,0 -219.29,23.28 -327.66,69.85 -108.37,46.57 -202.78,110.07 -283.21,190.5 -80.43,80.43 -143.93,174.84 -190.5,283.21 -46.57,108.37 -69.85,223.94 -69.85,346.71 0,122.77 23.28,238.34 69.85,346.71 46.57,108.37 110.07,202.78 190.5,283.21 80.43,80.43 174.84,143.93 283.21,190.5 108.37,46.57 223.52,69.85 345.44,69.85 209.55,0 397.93,-67.73 566,-203.2 168.06,-135.47 270.51,-308.19 307.76,-518.16l17.78 -106.68zm1397 223.52c0,-153.67 -58.84,-286.6 -176.53,-398.78 -115.57,-110.07 -251.46,-165.1 -407.67,-165.1 -160.87,0 -298.45,57.15 -412.75,171.45 -114.3,114.3 -171.45,251.88 -171.45,412.75 0,161.71 57.15,298.87 171.45,411.48 53.34,52.49 115.15,93.98 185.42,124.46 70.27,30.48 154.94,45.72 254,45.72 99.06,0 196.43,-30.9 292.1,-92.71 95.67,-61.81 167.22,-146.05 214.63,-252.73l-203.2 0c-38.95,52.49 -87.63,93.56 -146.05,123.19 -58.42,29.63 -119.8,44.45 -184.15,44.45 -95.25,0 -181.61,-31.33 -259.08,-93.98 -76.2,-61.38 -122.77,-140.12 -139.7,-236.22l982.98 0 0 -93.98zm-187.96 -58.42l-792.48 0c10.16,-47.41 27.94,-91.02 53.34,-130.81 83.82,-131.23 198.12,-196.85 342.9,-196.85 94.83,0 179.07,30.48 252.73,91.44 75.35,62.65 123.19,141.39 143.51,236.22zm642.2 483.45c-45.3,-29.64 -77.05,-80.86 -96.1,-153.25l-187.96 0c38.52,230.29 187.54,345.44 446.62,345.44 60.53,0 116.84,-7.2 168.91,-21.59 52.49,-14.39 100.33,-35.56 143.51,-64.35 86.36,-57.15 129.54,-146.05 129.54,-266.7 0,-120.22 -57.58,-207.85 -172.72,-262.89 -49.53,-23.7 -102.87,-41.91 -160.02,-54.61 -56.73,-12.7 -109.65,-26.67 -158.75,-41.91 -49.11,-15.66 -90.6,-34.71 -123.19,-57.99 -33.87,-23.29 -50.8,-60.54 -50.8,-110.49 0,-50.38 20.32,-87.63 60.96,-112.19 39.79,-24.13 87.2,-35.98 142.66,-35.98 55.03,0 102.02,10.16 140.55,30.9 38.94,20.32 68.15,61.81 86.78,124.04l190.92 0c-24.13,-113.03 -71.96,-191.35 -143.08,-235.37 -72.39,-44.45 -162.56,-66.89 -270.51,-66.89 -107.95,0 -201.09,28.79 -279.4,85.94 -77.9,57.15 -116.84,140.97 -116.84,251.88 0,55.46 14.39,103.72 43.18,144.78 28.36,40.64 71.54,74.51 129.11,100.75 49.96,22.86 103.3,41.49 160.02,55.04 56.31,13.54 109.22,28.36 158.33,44.45 116.42,38.1 174.84,92.28 174.84,163.4 0,121.5 -81.28,182.46 -244.27,182.46 -70.27,0 -127.84,-14.82 -172.29,-44.87zm719.24 -793.33l279.4 0 0 952.5 177.8 0 0 -952.5 276.86 0 0 -165.1 -276.86 0 0 -434.34 -177.8 0 0 434.34 -279.4 0 0 165.1z"/>
   <path class="fil3" d="M5492.5 8785.72l-224.79 0 0 38.73 175.26 0c-12.81,37.47 -35.03,67.42 -66.89,89.96 -31.85,22.55 -67.31,33.87 -106.46,33.87 -49.32,0 -91.34,-17.57 -125.95,-52.6 -34.6,-35.03 -51.85,-76.94 -51.85,-125.84 0,-49.1 17.35,-91.01 52.07,-125.73 34.71,-34.71 76.62,-52.07 125.73,-52.07 37.04,0 70.59,10.38 100.64,31.23 30.17,20.84 52.07,48.78 65.73,83.71l46.99 0c-14.5,-47.63 -41.49,-86.15 -80.97,-115.46 -39.58,-29.32 -85.19,-43.93 -136.84,-43.93 -27.52,0 -54.82,5.83 -81.91,17.47 -27.1,11.64 -50.7,27.51 -70.81,47.62 -20.11,20.11 -35.98,43.71 -47.62,70.8 -11.64,27.1 -17.46,55.99 -17.46,86.68 0,30.69 5.82,59.59 17.46,86.68 11.64,27.09 27.51,50.69 47.62,70.8 20.11,20.11 43.71,35.99 70.81,47.63 27.09,11.64 55.88,17.46 86.36,17.46 52.38,0 99.48,-16.93 141.49,-50.8 42.02,-33.87 67.63,-77.05 76.95,-129.54l4.44 -26.67zm349.26 55.88c0,-38.42 -14.72,-71.65 -44.14,-99.7 -28.89,-27.51 -62.86,-41.27 -101.91,-41.27 -40.22,0 -74.62,14.29 -103.19,42.86 -28.58,28.58 -42.86,62.97 -42.86,103.19 0,40.43 14.28,74.72 42.86,102.87 13.33,13.12 28.78,23.49 46.35,31.11 17.57,7.63 38.74,11.44 63.5,11.44 24.77,0 49.11,-7.73 73.03,-23.18 23.92,-15.45 41.8,-36.52 53.66,-63.19l-50.8 0c-9.74,13.13 -21.91,23.39 -36.52,30.8 -14.6,7.41 -29.95,11.11 -46.03,11.11 -23.82,0 -45.41,-7.83 -64.77,-23.49 -19.05,-15.35 -30.7,-35.03 -34.93,-59.06l245.75 0 0 -23.49zm-46.99 -14.61l-198.12 0c2.54,-11.85 6.98,-22.75 13.33,-32.7 20.96,-32.81 49.53,-49.21 85.73,-49.21 23.7,0 44.76,7.62 63.18,22.86 18.84,15.66 30.8,35.35 35.88,59.05zm160.55 120.87c-11.32,-7.41 -19.26,-20.22 -24.02,-38.32l-46.99 0c9.63,57.58 46.88,86.37 111.65,86.37 15.13,0 29.21,-1.8 42.23,-5.4 13.12,-3.6 25.08,-8.89 35.87,-16.09 21.59,-14.29 32.39,-36.51 32.39,-66.67 0,-30.06 -14.39,-51.97 -43.18,-65.73 -12.38,-5.92 -25.72,-10.47 -40.01,-13.65 -14.18,-3.17 -27.41,-6.67 -39.68,-10.48 -12.28,-3.91 -22.65,-8.68 -30.8,-14.5 -8.47,-5.82 -12.7,-15.13 -12.7,-27.62 0,-12.59 5.08,-21.91 15.24,-28.04 9.95,-6.04 21.8,-9 35.67,-9 13.75,0 25.5,2.54 35.13,7.73 9.74,5.08 17.04,15.45 21.7,31l47.73 0c-6.03,-28.25 -17.99,-47.83 -35.77,-58.84 -18.1,-11.11 -40.64,-16.72 -67.63,-16.72 -26.99,0 -50.27,7.2 -69.85,21.48 -19.47,14.29 -29.21,35.25 -29.21,62.97 0,13.87 3.6,25.93 10.79,36.2 7.1,10.16 17.89,18.63 32.28,25.19 12.49,5.71 25.83,10.37 40.01,13.76 14.07,3.38 27.3,7.09 39.58,11.11 29.1,9.52 43.71,23.07 43.71,40.85 0,30.37 -20.32,45.61 -61.07,45.61 -17.56,0 -31.96,-3.7 -43.07,-11.21zm179.81 -198.34l69.85 0 0 238.13 44.45 0 0 -238.13 69.22 0 0 -41.27 -69.22 0 0 -108.59 -44.45 0 0 108.59 -69.85 0 0 41.27zm466.1 98.43c0,27.2 -9.42,50.91 -28.26,71.12 -18.95,20.32 -42.34,30.48 -70.17,30.48 -27.83,0 -51.22,-10.16 -70.17,-30.48 -18.84,-20.21 -28.25,-43.92 -28.25,-71.12 0,-27.2 9.41,-50.91 28.25,-71.12 18.95,-20.32 42.34,-30.48 70.17,-30.48 27.83,0 51.22,10.16 70.17,30.48 18.84,20.21 28.26,43.92 28.26,71.12zm44.45 139.7l0 -279.4 -44.45 0 0 47.73c-2.54,-3.28 -5.19,-6.46 -7.94,-9.63 -26.35,-29.63 -58.85,-44.45 -97.47,-44.45 -38.63,0 -71.12,14.82 -97.48,44.45 -25.61,28.79 -38.41,62.65 -38.41,101.6 0,38.95 12.8,72.81 38.41,101.6 26.36,29.63 58.85,44.45 97.48,44.45 38.62,0 71.12,-14.82 97.47,-44.45 2.75,-3.18 5.4,-6.35 7.94,-9.63l0 47.73 44.45 0zm-247.65 -328.93l31.11 0c-0.85,-8.04 -0.42,-15.24 1.27,-21.59 3.39,-14.82 12.07,-22.23 26.04,-22.23 8.46,0 15.24,2.65 20.32,7.94 5.08,5.29 10.26,11.22 15.55,17.78 5.29,6.56 11.75,12.49 19.37,17.78 7.62,5.29 19.58,7.94 35.88,7.94 16.3,0 28.78,-4.13 37.46,-12.38 17.36,-16.51 24.45,-38.84 21.28,-67l-31.12 0c0,15.88 -1.06,26.36 -3.17,31.44 -1.7,4.02 -4.45,7.09 -8.26,9.2 -3.81,2.12 -9.52,3.18 -17.14,3.18 -7.62,0 -13.87,-2.65 -18.74,-7.94 -4.87,-5.29 -9.95,-11.11 -15.24,-17.46 -5.29,-6.35 -11.74,-12.17 -19.36,-17.46 -7.62,-5.29 -19.27,-7.94 -34.93,-7.94 -15.66,0 -27.83,4.13 -36.51,12.38 -16.72,15.88 -24.66,38 -23.81,66.36zm571.5 187.96c0,27.52 -9.95,51.22 -29.85,71.12 -19.9,19.9 -43.81,29.84 -71.75,29.84 -27.94,0 -51.86,-9.94 -71.76,-29.84 -19.9,-19.9 -29.84,-43.6 -29.84,-71.12 0,-27.94 9.94,-51.86 29.84,-71.76 19.9,-19.89 43.82,-29.84 71.76,-29.84 27.94,0 51.85,9.95 71.75,29.84 19.9,19.9 29.85,43.82 29.85,71.76zm44.45 0c0,-40.22 -14.29,-74.61 -42.87,-103.19 -28.57,-28.57 -62.97,-42.86 -103.18,-42.86 -40.22,0 -74.62,14.29 -103.19,42.86 -28.58,28.58 -42.86,62.97 -42.86,103.19 0,40.43 14.28,74.72 42.86,102.87 28.78,28.36 63.18,42.55 103.19,42.55 40,0 74.4,-14.19 103.18,-42.55 28.58,-28.15 42.87,-62.44 42.87,-102.87zm469.9 1.27c0,27.2 -9.42,50.91 -28.26,71.12 -18.95,20.32 -42.34,30.48 -70.17,30.48 -27.83,0 -51.22,-10.16 -70.17,-30.48 -18.84,-20.21 -28.25,-43.92 -28.25,-71.12 0,-27.2 9.41,-50.91 28.25,-71.12 18.95,-20.32 42.34,-30.48 70.17,-30.48 27.83,0 51.22,10.16 70.17,30.48 18.84,20.21 28.26,43.92 28.26,71.12zm44.45 139.7l0 -476.25 -44.45 0 0 244.58c-2.54,-3.28 -5.19,-6.46 -7.94,-9.63 -26.35,-29.63 -58.85,-44.45 -97.47,-44.45 -38.63,0 -71.12,14.82 -97.48,44.45 -25.61,28.79 -38.41,62.65 -38.41,101.6 0,38.95 12.8,72.81 38.41,101.6 26.36,29.63 58.85,44.45 97.48,44.45 38.62,0 71.12,-14.82 97.47,-44.45 2.75,-3.18 5.4,-6.35 7.94,-9.63l0 47.73 44.45 0zm323.85 -140.97c0,27.52 -9.95,51.22 -29.85,71.12 -19.9,19.9 -43.81,29.84 -71.75,29.84 -27.94,0 -51.86,-9.94 -71.76,-29.84 -19.9,-19.9 -29.84,-43.6 -29.84,-71.12 0,-27.94 9.94,-51.86 29.84,-71.76 19.9,-19.89 43.82,-29.84 71.76,-29.84 27.94,0 51.85,9.95 71.75,29.84 19.9,19.9 29.85,43.82 29.85,71.76zm44.45 0c0,-40.22 -14.29,-74.61 -42.87,-103.19 -28.57,-28.57 -62.97,-42.86 -103.18,-42.86 -40.22,0 -74.62,14.29 -103.19,42.86 -28.58,28.58 -42.86,62.97 -42.86,103.19 0,40.43 14.28,74.72 42.86,102.87 28.78,28.36 63.18,42.55 103.19,42.55 40,0 74.4,-14.19 103.18,-42.55 28.58,-28.15 42.87,-62.44 42.87,-102.87zm560.07 -1.91l0 -288.92 -44.45 0 0 295.27c0,17.36 -3.18,32.18 -9.53,44.45 -18.41,35.56 -53.97,53.34 -106.68,53.34 -33.97,0 -61.17,-7.62 -81.6,-22.86 -23.49,-17.46 -35.24,-42.43 -35.24,-74.93l0 -295.27 -44.45 0 0 288.92c0,46.78 15.24,83.61 45.72,110.49 28.79,25.4 67.31,38.11 115.57,38.11 47.84,0 86.15,-12.71 114.94,-38.11 30.48,-26.88 45.72,-63.71 45.72,-110.49zm278.77 142.88l44.45 0 0 -174.63c0,-32.38 -8.47,-58.52 -25.4,-78.42 -8.47,-9.95 -18.84,-17.78 -31.12,-23.49 -12.28,-5.72 -28.36,-8.58 -48.26,-8.58 -19.9,0 -37.46,5.19 -52.7,15.56 -14.4,9.84 -26.25,22.54 -35.56,38.21l0 -48.05 -44.45 0 0 279.4 44.45 0 0 -116.84c0,-35.56 6.66,-63.82 20,-84.77 7.41,-11.64 17.04,-21.06 28.89,-28.26 11.85,-7.2 27.31,-10.8 46.36,-10.8 19.05,0 32.7,6.46 40.95,19.37 8.26,12.91 12.39,28.47 12.39,46.67l0 174.63zm175.26 -375.92c-5.5,-5.5 -12.17,-8.26 -20,-8.26 -7.83,0 -14.5,2.76 -20,8.26 -5.51,5.5 -8.26,12.17 -8.26,20 0,7.83 2.75,14.5 8.26,20 5.5,5.51 12.17,8.26 20,8.26 7.83,0 14.5,-2.75 20,-8.26 5.5,-5.5 8.26,-12.17 8.26,-20 0,-7.83 -2.76,-14.5 -8.26,-20zm2.54 375.92l0 -279.4 -44.45 0 0 279.4 44.45 0zm185.43 26.67l128.27 -306.07 -48.26 0 -80.01 207.64 -80.65 -207.64 -48.26 0 128.91 306.07zm455.3 -172.72c0,-38.42 -14.72,-71.65 -44.14,-99.7 -28.89,-27.51 -62.86,-41.27 -101.91,-41.27 -40.22,0 -74.62,14.29 -103.19,42.86 -28.58,28.58 -42.86,62.97 -42.86,103.19 0,40.43 14.28,74.72 42.86,102.87 13.33,13.12 28.78,23.49 46.35,31.11 17.57,7.63 38.74,11.44 63.5,11.44 24.77,0 49.11,-7.73 73.03,-23.18 23.92,-15.45 41.8,-36.52 53.66,-63.19l-50.8 0c-9.74,13.13 -21.91,23.39 -36.52,30.8 -14.6,7.41 -29.95,11.11 -46.03,11.11 -23.82,0 -45.41,-7.83 -64.77,-23.49 -19.05,-15.35 -30.7,-35.03 -34.93,-59.06l245.75 0 0 -23.49zm-46.99 -14.61l-198.12 0c2.54,-11.85 6.98,-22.75 13.33,-32.7 20.96,-32.81 49.53,-49.21 85.73,-49.21 23.7,0 44.76,7.62 63.18,22.86 18.84,15.66 30.8,35.35 35.88,59.05zm263.53 -60.96l0 -57.78c-8.89,-3.81 -18.21,-5.72 -27.94,-5.72 -31.23,0 -54.3,17.36 -69.22,52.07l-1.9 11.43 0 -57.78 -44.45 0 0 279.4 44.45 0 0 -139.7c0,-22.97 5.29,-43.6 15.87,-61.91 5.5,-9.53 12.38,-17.57 20.64,-24.13 8.25,-6.56 18.2,-9.85 29.74,-9.85 11.64,0 22.54,4.66 32.81,13.97zm94.51 181.83c-11.32,-7.41 -19.26,-20.22 -24.02,-38.32l-46.99 0c9.63,57.58 46.88,86.37 111.65,86.37 15.13,0 29.21,-1.8 42.23,-5.4 13.12,-3.6 25.08,-8.89 35.87,-16.09 21.59,-14.29 32.39,-36.51 32.39,-66.67 0,-30.06 -14.39,-51.97 -43.18,-65.73 -12.38,-5.92 -25.72,-10.47 -40.01,-13.65 -14.18,-3.17 -27.41,-6.67 -39.68,-10.48 -12.28,-3.91 -22.65,-8.68 -30.8,-14.5 -8.47,-5.82 -12.7,-15.13 -12.7,-27.62 0,-12.59 5.08,-21.91 15.24,-28.04 9.95,-6.04 21.8,-9 35.67,-9 13.75,0 25.5,2.54 35.13,7.73 9.74,5.08 17.04,15.45 21.7,31l47.73 0c-6.03,-28.25 -17.99,-47.83 -35.77,-58.84 -18.1,-11.11 -40.64,-16.72 -67.63,-16.72 -26.99,0 -50.27,7.2 -69.85,21.48 -19.47,14.29 -29.21,35.25 -29.21,62.97 0,13.87 3.6,25.93 10.79,36.2 7.1,10.16 17.89,18.63 32.28,25.19 12.49,5.71 25.83,10.37 40.01,13.76 14.07,3.38 27.3,7.09 39.58,11.11 29.1,9.52 43.71,23.07 43.71,40.85 0,30.37 -20.32,45.61 -61.07,45.61 -17.56,0 -31.96,-3.7 -43.07,-11.21zm443.34 -101.18c0,27.52 -9.95,51.22 -29.85,71.12 -19.9,19.9 -43.81,29.84 -71.75,29.84 -27.94,0 -51.86,-9.94 -71.76,-29.84 -19.9,-19.9 -29.84,-43.6 -29.84,-71.12 0,-27.94 9.94,-51.86 29.84,-71.76 19.9,-19.89 43.82,-29.84 71.76,-29.84 27.94,0 51.85,9.95 71.75,29.84 19.9,19.9 29.85,43.82 29.85,71.76zm44.45 0c0,-40.22 -14.29,-74.61 -42.87,-103.19 -28.57,-28.57 -62.97,-42.86 -103.18,-42.86 -40.22,0 -74.62,14.29 -103.19,42.86 -28.58,28.58 -42.86,62.97 -42.86,103.19 0,40.43 14.28,74.72 42.86,102.87 28.78,28.36 63.18,42.55 103.19,42.55 40,0 74.4,-14.19 103.18,-42.55 28.58,-28.15 42.87,-62.44 42.87,-102.87zm367.55 -62.65c55.99,13.33 93.88,28.25 113.88,44.45 13.87,11.32 20.85,25.93 20.85,43.92 0,17.99 -3.7,32.17 -11.22,42.65 -19.15,26.77 -52.91,40.21 -101.17,40.21 -67.74,0 -105.63,-22.86 -113.78,-68.58l-52.59 0c15.24,72.82 70.69,109.23 166.26,109.23 42.44,0 78,-9.42 106.79,-28.26 34.29,-22.23 51.43,-55.04 51.54,-98.43 -0.11,-35.35 -13.87,-62.76 -41.49,-82.12 -19.79,-14.08 -51.75,-26.78 -95.67,-38.1 -44.03,-11.43 -72.82,-20.75 -86.36,-27.94 -28.9,-14.5 -43.29,-35.04 -43.18,-61.49 -0.11,-14.08 3.07,-25.72 9.31,-34.82 16.62,-24.77 45.72,-37.15 87.42,-37.15 59.05,0 92.92,18.63 101.49,55.88l48.05 0c-15.77,-62.65 -65.62,-93.98 -149.54,-93.98 -38.31,0 -71.65,10.05 -100.01,30.16 -28.37,20.11 -42.55,50.48 -42.55,91.02 -0.11,55.14 43.92,92.92 131.97,113.35zm292.21 203.62l0 -279.4 -44.45 0 0 279.4 44.45 0zm73.03 -432.44l-54.61 0 -50.8 90.81 35.56 0 69.85 -90.81zm69.22 432.44l0 -476.25 -44.45 0 0 476.25 44.45 0zm140.33 -375.92c-5.5,-5.5 -12.17,-8.26 -20,-8.26 -7.83,0 -14.5,2.76 -20,8.26 -5.51,5.5 -8.26,12.17 -8.26,20 0,7.83 2.75,14.5 8.26,20 5.5,5.51 12.17,8.26 20,8.26 7.83,0 14.5,-2.75 20,-8.26 5.5,-5.5 8.26,-12.17 8.26,-20 0,-7.83 -2.76,-14.5 -8.26,-20zm2.54 375.92l0 -279.4 -44.45 0 0 279.4 44.45 0zm358.78 -179.07c-8.78,-31.64 -25.61,-57.04 -50.48,-76.2 -25.83,-19.9 -54.72,-29.85 -86.68,-29.85 -39.9,0 -73.77,14.4 -101.6,43.18 -27.52,28.47 -41.27,62.55 -41.27,102.24 0,39.48 13.75,73.66 41.27,102.55 12.7,13.34 27.73,23.92 45.09,31.75 17.35,7.83 34.92,11.75 52.7,11.75 17.78,0 33.66,-2.43 47.63,-7.3 44.76,-15.56 75.03,-45.72 90.8,-90.49l-50.16 0c-8.47,15.66 -20.22,28.15 -35.25,37.46 -15.03,9.32 -31.43,13.97 -49.21,13.97 -27.2,0 -50.16,-9.84 -68.9,-29.52 -18.84,-19.79 -28.25,-43.18 -28.25,-70.17 0,-26.56 9.41,-49.74 28.25,-69.53 8.68,-9.1 18.95,-16.3 30.8,-21.59 11.85,-5.29 26.04,-7.94 42.55,-7.94 16.51,0 32.8,5.5 48.89,16.51 16.09,11.01 27.94,25.4 35.56,43.18l48.26 0zm292.11 39.37c0,27.2 -9.42,50.91 -28.26,71.12 -18.95,20.32 -42.34,30.48 -70.17,30.48 -27.83,0 -51.22,-10.16 -70.17,-30.48 -18.84,-20.21 -28.25,-43.92 -28.25,-71.12 0,-27.2 9.41,-50.91 28.25,-71.12 18.95,-20.32 42.34,-30.48 70.17,-30.48 27.83,0 51.22,10.16 70.17,30.48 18.84,20.21 28.26,43.92 28.26,71.12zm44.45 139.7l0 -279.4 -44.45 0 0 47.73c-2.54,-3.28 -5.19,-6.46 -7.94,-9.63 -26.35,-29.63 -58.85,-44.45 -97.47,-44.45 -38.63,0 -71.12,14.82 -97.48,44.45 -25.61,28.79 -38.41,62.65 -38.41,101.6 0,38.95 12.8,72.81 38.41,101.6 26.36,29.63 58.85,44.45 97.48,44.45 38.62,0 71.12,-14.82 97.47,-44.45 2.75,-3.18 5.4,-6.35 7.94,-9.63l0 47.73 44.45 0z"/>
   <path class="fil4" d="M16373.37 3860.6l-875 0c-167.18,0 -250.78,201.56 -132.81,320.31l257.03 242.19 -775 775.78c-48.44,48.43 -48.44,128.12 0,176.56l198.44 198.44c48.44,48.43 128.12,48.43 176.56,0l775.78 -775.78 242.97 257.81c117.97,117.97 319.53,34.38 319.53,-132.81l0 -875c0,-103.91 -83.59,-187.5 -187.5,-187.5zm875 -500l875 0c167.19,0 250.78,-202.34 132.81,-320.31l-257.81 -242.19 775.78 -775.78c48.44,-48.44 48.44,-128.12 0,-176.56l-198.44 -198.44c-48.44,-48.44 -128.12,-48.44 -176.56,0l-775.78 775.78 -242.97 -257.81c-117.97,-117.97 -319.53,-34.38 -319.53,132.81l0 875c0,103.9 83.59,187.5 187.5,187.5zm750 1062.5l257.81 -242.97c117.97,-117.97 34.38,-319.53 -132.81,-319.53l-875 0c-103.91,0 -187.5,83.59 -187.5,187.5l0 875c0,167.18 202.34,250.78 320.31,132.81l242.19 -257.03 775.78 775.78c48.44,48.44 128.12,48.44 176.56,0l198.44 -198.44c48.44,-48.44 48.44,-128.12 0,-176.56l-775.78 -776.56zm-1757.81 -2257.03l-242.19 257.03 -775.78 -775.78c-48.44,-48.44 -128.12,-48.44 -176.56,0l-198.44 198.44c-48.44,48.44 -48.44,128.12 0,176.56l775.78 775.78 -257.81 242.97c-117.97,117.97 -34.37,319.53 132.81,319.53l875 0c103.91,0 187.5,-83.6 187.5,-187.5l0 -875c0,-166.41 -202.34,-250 -320.31,-132.03z"/>
  </g>
 </g>
</svg>
