<?xml version="1.0" encoding="UTF-8"?>
<!DOCTYPE svg PUBLIC "-//W3C//DTD SVG 1.1//EN" "http://www.w3.org/Graphics/SVG/1.1/DTD/svg11.dtd">
<!-- Creator: CorelDRAW 2018 (64 Bit) -->
<svg xmlns="http://www.w3.org/2000/svg" xml:space="preserve" width="100mm" height="100mm" version="1.1" style="shape-rendering:geometricPrecision; text-rendering:geometricPrecision; image-rendering:optimizeQuality; fill-rule:evenodd; clip-rule:evenodd"
viewBox="0 0 10000 10000"
 xmlns:xlink="http://www.w3.org/1999/xlink">
 <defs>
  <style type="text/css">
   <![CDATA[
    .fil0 {fill:white}
   ]]>
  </style>
 </defs>
 <g id="Camada_x0020_1">
  <metadata id="CorelCorpID_0Corel-Layer"/>
  <path class="fil0" d="M8408.02 3728.53l11.53 -11.91 519.31 -519.12c58.58,-58.54 91.55,-138.12 91.55,-220.99 0,-82.86 -32.97,-162.44 -91.56,-221l-442.94 -442.93c-58.55,-58.58 -138.13,-91.55 -220.99,-91.55 -82.86,0 -162.44,32.97 -221,91.56l-482.01 482.01c-558.82,-459.36 -1232.48,-760.46 -1947.04,-870.85l0.08 -673.81 624.97 0c172.55,0 312.49,-139.94 312.49,-312.49l0 -624.97c0,-172.55 -139.94,-312.48 -312.49,-312.48l-2499.88 0c-172.31,0.5 -311.99,140.18 -312.48,312.5l-0.01 624.95c0.5,172.31 140.18,311.99 312.51,312.49l624.95 0 0 673.8c-1931.39,299.9 -3375.53,1933.92 -3435.51,3887.69 -67.45,2225.29 1770.74,4153.32 3996.42,4188.09 2273.53,34.57 4126.37,-1796.79 4126.37,-4062.31 0.01,-3.08 0.01,-6.52 0.01,-9.47 0,-780.97 -227.41,-1545.24 -654.25,-2199l-0.03 -0.21zm-3791.42 3645.14c0.76,-0.01 1.58,-0.03 2.37,-0.03 87.45,0 158.76,70.2 160.13,157.63l0 435.72c-1.37,87.44 -72.68,157.63 -160.13,157.63 -0.79,0 -1.61,-0.02 -2.37,-0.02l-1618.09 0.01c-1.17,-0.02 -2.51,0.01 -3.72,0.01 -177.52,0 -321.47,-143.95 -321.47,-321.46 0,-7.54 0.27,-15.19 0.78,-22.69 54.29,-687.86 286.51,-1121.23 750.94,-1784.48 398.81,-570.09 529.27,-728.88 529.27,-1217.53 0,-330.45 -34.96,-474 -238.46,-474 -183.39,0 -247.84,144.53 -247.84,442.95l0 102.15c-1.35,87.45 -72.66,157.64 -160.11,157.64 -0.85,0 -1.75,-0.02 -2.57,-0.02l-486.3 0c-0.81,0 -1.71,0.02 -2.56,0.02 -87.45,0 -158.76,-70.19 -160.13,-157.63l0 -79.48c0,-533.18 165.62,-1176.51 1102.1,-1176.51 839.81,0 1085.3,504.86 1085.3,1191.35 0,694.89 -242.96,1000.15 -670.87,1588.01 -225.77,292.96 -480.64,694.69 -515.79,999.95l959.52 0.78zm2727.02 -492.75c0,686.69 -240.22,1243.69 -1117.72,1243.69 -851.13,0 -1069.68,-576.54 -1069.68,-1239.2l0 -2057.13c0,-795.47 382.4,-1234.7 1097.61,-1234.7 718.71,0 1089.79,442.16 1089.79,1197.21l0 2090.13zm-1096.24 -2550.47c-183.78,0 -258.38,146.48 -258.38,390.61l0 2264.54c0,256.04 70.11,402.13 258.38,402.13 188.28,0 253.9,-156.24 253.9,-415.41l0 -2264.34c0.39,-220.11 -58.4,-377.53 -253.9,-377.53z"/>
 </g>
</svg>
