<?xml version="1.0" encoding="UTF-8"?>
<!DOCTYPE svg PUBLIC "-//W3C//DTD SVG 1.1//EN" "http://www.w3.org/Graphics/SVG/1.1/DTD/svg11.dtd">
<!-- Creator: CorelDRAW 2019 (64 Bit Versão de avaliação) -->
<svg xmlns="http://www.w3.org/2000/svg" xml:space="preserve" width="100mm" height="100mm" version="1.1" style="shape-rendering:geometricPrecision; text-rendering:geometricPrecision; image-rendering:optimizeQuality; fill-rule:evenodd; clip-rule:evenodd"
viewBox="0 0 10000 10000"
 xmlns:xlink="http://www.w3.org/1999/xlink">
 <defs>
  <style type="text/css">
   <![CDATA[
    .fil0 {fill:#FEFEFE}
   ]]>
  </style>
 </defs>
 <g id="Camada_x0020_1">
  <metadata id="CorelCorpID_0Corel-Layer"/>
  <g id="_1634162564064">
   <g>
    <g>
     <path class="fil0" d="M0.44 1100.85l0 6556.93 4059.06 0 0 -6556.93 -4059.06 0zm312.24 6244.73l0 -5932.48 3434.57 0 0 5932.46 -3434.57 0 0 0.02z"/>
    </g>
   </g>
   <g>
    <g>
     <polygon class="fil0" points="2419.95,3.8 2419.95,950.3 2728.58,950.3 2728.58,312.43 8201.84,312.43 8201.84,9695.17 2728.58,9695.17 2728.58,7822.73 2419.95,7822.73 2419.95,10003.8 8510.48,10003.8 8510.48,3.8 "/>
    </g>
   </g>
   <g>
    <g>
     <rect class="fil0" x="6473.37" y="785.69" width="1255.14" height="308.63"/>
    </g>
   </g>
   <g>
    <g>
     <rect class="fil0" x="4600.93" y="2205.45" width="308.63" height="308.63"/>
    </g>
   </g>
   <g>
    <g>
     <rect class="fil0" x="5238.8" y="2205.45" width="2489.71" height="308.63"/>
    </g>
   </g>
   <g>
    <g>
     <rect class="fil0" x="4600.93" y="2822.72" width="308.63" height="308.63"/>
    </g>
   </g>
   <g>
    <g>
     <rect class="fil0" x="5238.8" y="2822.72" width="2489.71" height="308.63"/>
    </g>
   </g>
   <g>
    <g>
     <rect class="fil0" x="4600.93" y="3440.01" width="308.63" height="308.63"/>
    </g>
   </g>
   <g>
    <g>
     <rect class="fil0" x="5238.8" y="3440.01" width="2489.71" height="308.63"/>
    </g>
   </g>
   <g>
    <g>
     <rect class="fil0" x="4600.93" y="4077.89" width="308.63" height="308.63"/>
    </g>
   </g>
   <g>
    <g>
     <rect class="fil0" x="5238.8" y="4077.89" width="2489.71" height="308.63"/>
    </g>
   </g>
   <g>
    <g>
     <rect class="fil0" x="4600.93" y="4695.16" width="308.63" height="308.63"/>
    </g>
   </g>
   <g>
    <g>
     <rect class="fil0" x="5238.8" y="4695.16" width="2489.71" height="308.63"/>
    </g>
   </g>
   <g>
    <g>
     <rect class="fil0" x="4600.93" y="5312.44" width="308.63" height="308.63"/>
    </g>
   </g>
   <g>
    <g>
     <rect class="fil0" x="5238.8" y="5312.44" width="2489.71" height="308.63"/>
    </g>
   </g>
   <g>
    <g>
     <rect class="fil0" x="4600.93" y="5950.31" width="308.63" height="308.63"/>
    </g>
   </g>
   <g>
    <g>
     <rect class="fil0" x="5238.8" y="5950.31" width="2489.71" height="308.63"/>
    </g>
   </g>
   <g>
    <g>
     <rect class="fil0" x="4600.93" y="6567.6" width="308.63" height="308.63"/>
    </g>
   </g>
   <g>
    <g>
     <rect class="fil0" x="5238.8" y="6567.6" width="2489.71" height="308.63"/>
    </g>
   </g>
   <g>
    <g>
     <rect class="fil0" x="5691.47" y="7349.49" width="473.24" height="308.63"/>
    </g>
   </g>
   <g>
    <g>
     <rect class="fil0" x="6473.37" y="7349.49" width="1255.14" height="308.63"/>
    </g>
   </g>
   <g>
    <g>
     <rect class="fil0" x="5691.47" y="7822.73" width="473.24" height="308.63"/>
    </g>
   </g>
   <g>
    <g>
     <rect class="fil0" x="6473.37" y="7822.73" width="1255.14" height="308.63"/>
    </g>
   </g>
   <g>
    <g>
     <rect class="fil0" x="6473.37" y="8275.41" width="1255.14" height="308.63"/>
    </g>
   </g>
   <g>
    <g>
     <rect class="fil0" x="3201.74" y="9057.3" width="1707.81" height="308.63"/>
    </g>
   </g>
   <g>
    <g>
     <path class="fil0" d="M8675.09 2657.26l0 1564.65 308.63 0 0 -1254.26 227.64 1.29 0 4688.87 780.6 -0.01 0 -4995.78 -1316.87 -4.76zm1004.63 4688.32l-156.12 0 0 -4371.29 156.12 0 0 4371.29z"/>
    </g>
   </g>
   <g>
    <g>
     <polygon class="fil0" points="9210.07,1732.2 9210.07,2514.09 9518.72,2514.09 9518.72,2040.83 9683.33,2040.83 9683.33,2514.09 9991.96,2514.09 9991.96,1732.2 "/>
    </g>
   </g>
   <g>
    <g>
     <polygon class="fil0" points="9683.33,8275.4 9683.33,8572.55 9613.07,8814.48 9518.72,8566.16 9518.72,8275.4 9210.07,8275.4 9210.07,8622.82 9437.74,9221.91 9816.18,9221.91 9991.96,8616.44 9991.96,8275.4 "/>
    </g>
   </g>
   <g>
    <g>
     <rect class="fil0" x="9209.99" y="7822.73" width="781.89" height="308.63"/>
    </g>
   </g>
   <g>
    <g>
     <path class="fil0" d="M468.8 1569.21l0 3434.59 3122.36 0 0 -3434.59 -3122.36 0zm2810.11 3122.34l-2497.87 0 0 -2810.09 2497.87 0 0 2810.09z"/>
    </g>
   </g>
   <g>
    <g>
     <rect class="fil0" x="547.51" y="5312.44" width="308.63" height="308.63"/>
    </g>
   </g>
   <g>
    <g>
     <rect class="fil0" x="1164.8" y="5312.44" width="308.63" height="308.63"/>
    </g>
   </g>
   <g>
    <g>
     <rect class="fil0" x="1802.59" y="5312.44" width="308.63" height="308.63"/>
    </g>
   </g>
   <g>
    <g>
     <rect class="fil0" x="2419.88" y="5312.44" width="308.63" height="308.63"/>
    </g>
   </g>
   <g>
    <g>
     <rect class="fil0" x="547.51" y="5785.69" width="308.63" height="308.63"/>
    </g>
   </g>
   <g>
    <g>
     <rect class="fil0" x="1164.8" y="5785.69" width="308.63" height="308.63"/>
    </g>
   </g>
   <g>
    <g>
     <rect class="fil0" x="1802.59" y="5785.69" width="308.63" height="308.63"/>
    </g>
   </g>
   <g>
    <g>
     <rect class="fil0" x="2419.88" y="5785.69" width="308.63" height="308.63"/>
    </g>
   </g>
   <g>
    <g>
     <rect class="fil0" x="547.51" y="6258.93" width="308.63" height="308.63"/>
    </g>
   </g>
   <g>
    <g>
     <rect class="fil0" x="1164.8" y="6258.93" width="308.63" height="308.63"/>
    </g>
   </g>
   <g>
    <g>
     <rect class="fil0" x="1802.59" y="6258.93" width="308.63" height="308.63"/>
    </g>
   </g>
   <g>
    <g>
     <rect class="fil0" x="2419.88" y="6258.93" width="308.63" height="308.63"/>
    </g>
   </g>
   <g>
    <g>
     <rect class="fil0" x="547.51" y="6732.19" width="308.63" height="308.63"/>
    </g>
   </g>
   <g>
    <g>
     <rect class="fil0" x="1164.8" y="6732.19" width="308.63" height="308.63"/>
    </g>
   </g>
   <g>
    <g>
     <rect class="fil0" x="1802.59" y="6732.19" width="308.63" height="308.63"/>
    </g>
   </g>
   <g>
    <g>
     <rect class="fil0" x="2419.88" y="6732.19" width="308.63" height="308.63"/>
    </g>
   </g>
   <g>
    <g>
     <rect class="fil0" x="3037.14" y="5312.44" width="308.63" height="781.89"/>
    </g>
   </g>
   <g>
    <g>
     <rect class="fil0" x="3037.14" y="6258.93" width="308.63" height="781.89"/>
    </g>
   </g>
   <g>
    <g>
     <rect class="fil0" x="1802.59" y="2040.84" width="308.63" height="308.63"/>
    </g>
   </g>
   <g>
    <g>
     <rect class="fil0" x="2255.26" y="2040.84" width="329.22" height="308.63"/>
    </g>
   </g>
   <g>
    <g>
     <rect class="fil0" x="2728.51" y="2040.84" width="308.63" height="308.63"/>
    </g>
   </g>
   <g>
   </g>
   <g>
   </g>
   <g>
   </g>
   <g>
   </g>
   <g>
   </g>
   <g>
   </g>
   <g>
   </g>
   <g>
   </g>
   <g>
   </g>
   <g>
   </g>
   <g>
   </g>
   <g>
   </g>
   <g>
   </g>
   <g>
   </g>
   <g>
   </g>
  </g>
 </g>
</svg>
