<?xml version="1.0" encoding="UTF-8"?>
<!DOCTYPE svg PUBLIC "-//W3C//DTD SVG 1.1//EN" "http://www.w3.org/Graphics/SVG/1.1/DTD/svg11.dtd">
<!-- Creator: CorelDRAW 2019 (64 Bit) -->
<svg xmlns="http://www.w3.org/2000/svg" xml:space="preserve" width="100mm" height="100mm" version="1.1" style="shape-rendering:geometricPrecision; text-rendering:geometricPrecision; image-rendering:optimizeQuality; fill-rule:evenodd; clip-rule:evenodd"
viewBox="0 0 10000 10000"
 xmlns:xlink="http://www.w3.org/1999/xlink">
 <defs>
  <style type="text/css">
   <![CDATA[
    .fil0 {fill:white}
   ]]>
  </style>
 </defs>
 <g id="Camada_x0020_1">
  <metadata id="CorelCorpID_0Corel-Layer"/>
  <path id="tools.svg" class="fil0" d="M9784 7731.83l-2287.11 -2287.11c-451.17,-451.17 -1125,-539.06 -1667.97,-271.48l-2082.03 -2082.04 0 -1212.89 -2500 -1875 -1250 1250 1875 2500 1212.89 0 2082.03 2082.03c-265.62,542.97 -179.69,1216.8 271.48,1667.97l2287.11 2287.11c285.16,285.16 746.09,285.16 1029.3,0l1029.3 -1029.3c283.2,-285.16 283.2,-746.09 0,-1029.3l0 0.01zm-3308.59 -3333.99c552.73,0 1072.27,214.84 1462.89,605.47l378.91 378.91c308.59,-134.77 601.56,-322.27 855.47,-576.17 724.61,-724.61 970.7,-1744.14 740.23,-2669.92 -42.97,-175.78 -263.67,-236.33 -392.58,-107.42l-1453.13 1453.13 -1326.17 -220.7 -220.7 -1326.19 1453.13 -1453.13c128.91,-128.91 66.41,-349.61 -111.33,-394.53 -925.78,-228.52 -1945.31,17.58 -2667.97,740.23 -556.64,556.64 -818.36,1291.02 -804.69,2023.44l1603.52 1603.52c158.2,-37.11 322.27,-56.64 482.42,-56.64zm-2029.3 1601.56l-1107.42 -1107.42 -2976.57 2978.52c-488.28,488.28 -488.28,1279.3 0,1767.58 488.28,488.28 1279.3,488.28 1767.58,0l2414.06 -2414.06c-148.44,-388.67 -193.36,-812.5 -97.66,-1224.61l0.01 -0.01zm-3199.22 3222.66c-257.81,0 -468.75,-210.94 -468.75,-468.75 0,-259.77 208.98,-468.75 468.75,-468.75 259.77,0 468.75,208.98 468.75,468.75 0,257.81 -208.98,468.75 -468.75,468.75z"/>
 </g>
</svg>
