<?xml version="1.0" encoding="UTF-8"?>
<!DOCTYPE svg PUBLIC "-//W3C//DTD SVG 1.1//EN" "http://www.w3.org/Graphics/SVG/1.1/DTD/svg11.dtd">
<!-- Creator: CorelDRAW 2019 (64 Bit) -->
<svg xmlns="http://www.w3.org/2000/svg" xml:space="preserve" width="100mm" height="100mm" version="1.1" style="shape-rendering:geometricPrecision; text-rendering:geometricPrecision; image-rendering:optimizeQuality; fill-rule:evenodd; clip-rule:evenodd"
viewBox="0 0 10000 10000"
 xmlns:xlink="http://www.w3.org/1999/xlink">
 <defs>
  <style type="text/css">
   <![CDATA[
    .fil0 {fill:white}
   ]]>
  </style>
 </defs>
 <g id="Camada_x0020_1">
  <metadata id="CorelCorpID_0Corel-Layer"/>
  <path id="trash.svg" class="fil0" d="M9058.69 628.8l-2343.75 0 -183.59 -365.23c-79.26,-159.16 -241.78,-259.77 -419.59,-259.77 -0.06,0 -0.29,0 -0.34,0l-2232.42 0c-0.58,0 -1.2,0 -1.77,0 -176.92,0 -338.45,100.9 -416.17,259.78l-183.62 365.22 -2343.75 0c-172.55,0 -312.49,139.94 -312.49,312.5l0 625c0,172.56 139.94,312.5 312.5,312.5l8124.99 0c172.56,0 312.5,-139.94 312.5,-312.5l0 -625c0,-172.56 -139.94,-312.5 -312.5,-312.5zm-7398.44 8496.09c30.91,493.87 440.66,878.9 935.57,878.9l4800.76 0.01c494.9,-0.01 904.65,-385.04 935.55,-878.91l414.06 -6621.09 -7500 0 414.06 6621.09z"/>
 </g>
</svg>
