<?xml version="1.0" encoding="UTF-8"?>
<!DOCTYPE svg PUBLIC "-//W3C//DTD SVG 1.1//EN" "http://www.w3.org/Graphics/SVG/1.1/DTD/svg11.dtd">
<!-- Creator: CorelDRAW 2019 (64 Bit) -->
<svg xmlns="http://www.w3.org/2000/svg" xml:space="preserve" width="100mm" height="100mm" version="1.1" style="shape-rendering:geometricPrecision; text-rendering:geometricPrecision; image-rendering:optimizeQuality; fill-rule:evenodd; clip-rule:evenodd"
viewBox="0 0 10000 10000"
 xmlns:xlink="http://www.w3.org/1999/xlink">
 <defs>
  <style type="text/css">
   <![CDATA[
    .fil0 {fill:white}
   ]]>
  </style>
 </defs>
 <g id="Camada_x0020_1">
  <metadata id="CorelCorpID_0Corel-Layer"/>
  <path id="trash-alt.svg" class="fil0" d="M1775.86 4919.06c0.01,280.77 227.71,508.47 508.48,508.47l3050.85 0c280.77,0 508.47,-227.7 508.47,-508.48l0 -3559.31 -4067.8 0 0 3559.32zm6440.68 -2203.39c0,-93.59 75.9,-169.49 169.5,-169.49 93.59,0 169.49,75.9 169.49,169.49l0 2372.88c0,93.59 -75.9,169.49 -169.49,169.49 -93.6,0 -169.5,-75.9 -169.5,-169.49l0 -2372.88zm-677.96 2372.88c0,-93.6 75.9,-169.5 169.49,-169.5 93.59,0 169.49,75.9 169.49,169.5l0 2372.88c0,93.59 -75.9,169.49 -169.49,169.49 -93.59,0 -169.49,-75.9 -169.49,-169.49l0 -2372.88zm-677.97 2372.88c0,-93.59 75.9,-169.49 169.49,-169.49 93.6,0 169.49,75.9 169.49,169.49l0 2372.88c0,93.59 -75.89,169.49 -169.49,169.49 -93.59,0 -169.49,-75.9 -169.49,-169.49l0 -2372.88zm-847.46 -7118.64l-1271.18 0 -99.58 -198.1c-42.99,-86.32 -131.13,-140.89 -227.57,-140.89 -0.03,0 -0.16,0 -0.19,0l-1210.8 0c-0.31,0 -0.65,0 -0.96,0 -95.96,0 -183.57,54.73 -225.72,140.9l-99.59 198.09 -1271.19 0c-93.58,0 -169.48,75.9 -169.48,169.49l0 338.98c0,93.59 75.9,169.49 169.49,169.49l4406.77 0c93.6,0 169.5,-75.9 169.5,-169.49l0 -338.98c0,-93.59 -75.9,-169.49 -169.5,-169.49z"/>
 </g>
</svg>
