<?xml version="1.0" encoding="UTF-8"?>
<!DOCTYPE svg PUBLIC "-//W3C//DTD SVG 1.1//EN" "http://www.w3.org/Graphics/SVG/1.1/DTD/svg11.dtd">
<!-- Creator: CorelDRAW 2018 (64 Bit) -->
<svg xmlns="http://www.w3.org/2000/svg" xml:space="preserve" width="100mm" height="100mm" version="1.1" style="shape-rendering:geometricPrecision; text-rendering:geometricPrecision; image-rendering:optimizeQuality; fill-rule:evenodd; clip-rule:evenodd"
viewBox="0 0 10000 10000"
 xmlns:xlink="http://www.w3.org/1999/xlink">
 <defs>
  <style type="text/css">
   <![CDATA[
    .fil0 {fill:#00007D}
   ]]>
  </style>
 </defs>
 <g id="Camada_x0020_1">
  <metadata id="CorelCorpID_0Corel-Layer"/>
  <path id="trash.svg" class="fil0" d="M8859.38 843.75l-2226.57 0 -174.41 -346.97c-75.3,-151.2 -229.69,-246.78 -398.61,-246.78 -0.06,0 -0.28,0 -0.32,0l-2120.81 0c-0.55,0 -1.14,0 -1.68,0 -168.07,0 -321.53,95.86 -395.36,246.79l-174.44 346.96 -2226.56 0c-163.93,0 -296.87,132.94 -296.87,296.88l0 593.75c0,163.93 132.94,296.87 296.88,296.87l7718.75 0c163.93,0 296.87,-132.94 296.87,-296.87l0 -593.75c0,-163.94 -132.94,-296.88 -296.87,-296.88zm-7028.53 8071.29c29.36,469.18 418.63,834.96 888.79,834.96l4560.73 0.01c470.15,-0.01 859.42,-365.79 888.77,-834.97l393.36 -6290.04 -7125.01 0 393.36 6290.04z"/>
 </g>
</svg>
