<?xml version="1.0" encoding="UTF-8"?>
<!DOCTYPE svg PUBLIC "-//W3C//DTD SVG 1.1//EN" "http://www.w3.org/Graphics/SVG/1.1/DTD/svg11.dtd">
<!-- Creator: CorelDRAW 2019 (64 Bit) -->
<svg xmlns="http://www.w3.org/2000/svg" xml:space="preserve" width="100mm" height="100mm" version="1.1" style="shape-rendering:geometricPrecision; text-rendering:geometricPrecision; image-rendering:optimizeQuality; fill-rule:evenodd; clip-rule:evenodd"
viewBox="0 0 10000 10000"
 xmlns:xlink="http://www.w3.org/1999/xlink">
 <defs>
  <style type="text/css">
   <![CDATA[
    .fil0 {fill:white}
   ]]>
  </style>
 </defs>
 <g id="Camada_x0020_1">
  <metadata id="CorelCorpID_0Corel-Layer"/>
  <path id="truck.svg" class="fil0" d="M9746.2 6503.8l-250 0 0 -1689.06c0,-198.44 -79.69,-389.06 -220.31,-529.69l-1560.94 -1560.94c-140.63,-140.63 -331.25,-220.31 -529.69,-220.31l-689.06 0 0 -750c0,-414.06 -335.94,-750 -750,-750l-5000 0c-414.06,0 -750,335.94 -750,750l0 5000c0,414.06 335.94,750 750,750l250 0c0,828.13 671.88,1500 1500,1500 828.12,0 1500,-671.88 1500,-1500l2000 0c0,828.13 671.88,1500 1500,1500 828.12,0 1500,-671.88 1500,-1500l750 0c137.5,0 250,-112.5 250,-250l0 -500c0,-137.5 -112.5,-250 -250,-250zm-7250 1750c-414.06,0 -750,-335.94 -750,-750 0,-414.06 335.94,-750 750,-750 414.06,0 750,335.94 750,750 0,414.06 -335.94,750 -750,750zm5000 0c-414.06,0 -750,-335.94 -750,-750 0,-414.06 335.94,-750 750,-750 414.06,0 750,335.94 750,750 0,414.06 -335.94,750 -750,750zm1250 -3250l-2250 0 0 -1750 689.06 0 1560.94 1560.94 0 189.06z"/>
 </g>
</svg>
