<?xml version="1.0" encoding="UTF-8"?>
<!DOCTYPE svg PUBLIC "-//W3C//DTD SVG 1.1//EN" "http://www.w3.org/Graphics/SVG/1.1/DTD/svg11.dtd">
<!-- Creator: CorelDRAW 2019 (64 Bit) -->
<svg xmlns="http://www.w3.org/2000/svg" xml:space="preserve" width="100mm" height="100mm" version="1.1" style="shape-rendering:geometricPrecision; text-rendering:geometricPrecision; image-rendering:optimizeQuality; fill-rule:evenodd; clip-rule:evenodd"
viewBox="0 0 10000 10000"
 xmlns:xlink="http://www.w3.org/1999/xlink">
 <defs>
  <style type="text/css">
   <![CDATA[
    .fil0 {fill:white}
   ]]>
  </style>
 </defs>
 <g id="Camada_x0020_1">
  <metadata id="CorelCorpID_0Corel-Layer"/>
  <path id="twitter.svg" class="fil0" d="M8968.29 2967c6.35,88.83 6.35,177.68 6.35,266.5 0,2709.37 -2062.17,5831.21 -5831.21,5831.21 -1161.17,0 -2239.84,-336.31 -3147.21,-920.04 164.98,19.02 323.59,25.37 494.92,25.37 958.11,0 1840.1,-323.59 2544.41,-875.62 -901.02,-19.04 -1656.09,-609.14 -1916.25,-1421.33 126.91,19.02 253.81,31.72 387.07,31.72 184,0 368.03,-25.39 539.34,-69.79 -939.08,-190.37 -1643.42,-1015.23 -1643.42,-2011.43l0 -25.37c272.83,152.29 590.12,247.46 926.39,260.14 -552.03,-368.03 -913.69,-996.19 -913.69,-1706.86 0,-380.7 101.5,-729.69 279.18,-1034.26 1008.89,1243.65 2525.39,2055.82 4225.88,2144.67 -31.72,-152.29 -50.76,-310.9 -50.76,-469.53 0,-1129.45 913.71,-2049.49 2049.49,-2049.49 590.1,0 1123.09,247.46 1497.46,647.21 463.18,-88.83 907.34,-260.16 1300.76,-494.92 -152.3,475.9 -475.9,875.64 -901.02,1129.43 412.44,-44.39 812.19,-158.63 1180.2,-317.25 -279.14,406.07 -628.14,767.73 -1027.89,1059.63l0 0.01z"/>
 </g>
</svg>
