<?xml version="1.0" encoding="UTF-8"?>
<!DOCTYPE svg PUBLIC "-//W3C//DTD SVG 1.1//EN" "http://www.w3.org/Graphics/SVG/1.1/DTD/svg11.dtd">
<!-- Creator: CorelDRAW 2019 (64 Bit) -->
<svg xmlns="http://www.w3.org/2000/svg" xml:space="preserve" width="100mm" height="100mm" version="1.1" style="shape-rendering:geometricPrecision; text-rendering:geometricPrecision; image-rendering:optimizeQuality; fill-rule:evenodd; clip-rule:evenodd"
viewBox="0 0 10000 10000"
 xmlns:xlink="http://www.w3.org/1999/xlink">
 <defs>
  <style type="text/css">
   <![CDATA[
    .fil0 {fill:white}
   ]]>
  </style>
 </defs>
 <g id="Camada_x0020_1">
  <metadata id="CorelCorpID_0Corel-Layer"/>
  <g id="update-arrow-svgrepo-com.svg">
   <g>
    <path class="fil0" d="M8532.55 1336.64c-561.64,-560.93 -1222.18,-960.08 -1926.53,-1198.87l0 1508.3c339.1,168.84 660.54,388.56 942.42,671.14 1407.98,1408.69 1407.98,3699.05 0,5107.03 -1407.98,1405.86 -3696.93,1405.86 -5107.03,0 -1406.57,-1409.4 -1406.57,-3698.34 0,-5107.03 3.53,-4.24 14.84,-11.3 19.78,-17.66l1.42 0 834.33 832.92 -4.94 -2645 -2643.59 -3.53 830.8 830.8c-4.95,8.48 -12.72,16.95 -19.08,21.9 -1951.96,1951.25 -1951.96,5116.92 0,7068.17 1954.79,1953.37 5118.33,1953.37 7072.41,0 1950.55,-1951.25 1952.67,-5116.92 0.01,-7068.17z"/>
   </g>
   <g>
   </g>
   <g>
   </g>
   <g>
   </g>
   <g>
   </g>
   <g>
   </g>
   <g>
   </g>
   <g>
   </g>
   <g>
   </g>
   <g>
   </g>
   <g>
   </g>
   <g>
   </g>
   <g>
   </g>
   <g>
   </g>
   <g>
   </g>
   <g>
   </g>
  </g>
 </g>
</svg>
