<?xml version="1.0" encoding="UTF-8"?>
<!DOCTYPE svg PUBLIC "-//W3C//DTD SVG 1.1//EN" "http://www.w3.org/Graphics/SVG/1.1/DTD/svg11.dtd">
<!-- Creator: CorelDRAW 2019 (64 Bit) -->
<svg xmlns="http://www.w3.org/2000/svg" xml:space="preserve" width="100mm" height="100mm" version="1.1" style="shape-rendering:geometricPrecision; text-rendering:geometricPrecision; image-rendering:optimizeQuality; fill-rule:evenodd; clip-rule:evenodd"
viewBox="0 0 10000 10000"
 xmlns:xlink="http://www.w3.org/1999/xlink">
 <defs>
  <style type="text/css">
   <![CDATA[
    .fil0 {fill:#E6E6E6}
   ]]>
  </style>
 </defs>
 <g id="Camada_x0020_1">
  <metadata id="CorelCorpID_0Corel-Layer"/>
  <path id="user-alt.svg" class="fil0" d="M4996.2 5628.8c1552.73,0 2812.5,-1259.77 2812.5,-2812.5 0,-1552.73 -1259.77,-2812.5 -2812.5,-2812.5 -1552.73,0 -2812.5,1259.77 -2812.5,2812.5 0,1552.73 1259.77,2812.5 2812.5,2812.5zm2500 625l-1076.17 0c-433.59,199.22 -916.02,312.5 -1423.83,312.5 -507.81,0 -988.28,-113.28 -1423.83,-312.5l-1076.17 0c-1380.86,0 -2500,1119.14 -2500,2500l0 312.5c0,517.58 419.92,937.5 937.5,937.5l8125 0c517.58,0 937.5,-419.92 937.5,-937.5l0 -312.5c0,-1380.86 -1119.14,-2500 -2500,-2500z"/>
 </g>
</svg>
