<?xml version="1.0" encoding="UTF-8"?>
<!DOCTYPE svg PUBLIC "-//W3C//DTD SVG 1.1//EN" "http://www.w3.org/Graphics/SVG/1.1/DTD/svg11.dtd">
<!-- Creator: CorelDRAW 2018 (64 Bit) -->
<svg xmlns="http://www.w3.org/2000/svg" xml:space="preserve" width="100mm" height="100mm" version="1.1" style="shape-rendering:geometricPrecision; text-rendering:geometricPrecision; image-rendering:optimizeQuality; fill-rule:evenodd; clip-rule:evenodd"
viewBox="0 0 10000 10000"
 xmlns:xlink="http://www.w3.org/1999/xlink">
 <defs>
  <style type="text/css">
   <![CDATA[
    .fil0 {fill:#00007D}
   ]]>
  </style>
 </defs>
 <g id="Camada_x0020_1">
  <metadata id="CorelCorpID_0Corel-Layer"/>
  <path id="user-circle.svg" class="fil0" d="M5000 250c-2623.99,0 -4750,2126.01 -4750,4750 0,2623.99 2126.01,4750 4750,4750 2623.99,0 4750,-2126.01 4750,-4750 0,-2623.99 -2126.01,-4750 -4750,-4750zm0 1838.71c930.85,0 1685.48,754.64 1685.48,1685.48 0,930.85 -754.63,1685.49 -1685.48,1685.49 -930.85,0 -1685.48,-754.64 -1685.48,-1685.49 0,-930.84 754.63,-1685.48 1685.48,-1685.48zm0 6588.71c-1124.29,0 -2131.76,-509.48 -2805.95,-1306.25 360.08,-678.03 1064.92,-1145.36 1886.6,-1145.36 45.97,0 91.93,7.66 135.98,21.06 249,80.44 509.48,132.16 783.37,132.16 273.89,0 536.3,-51.71 783.37,-132.16 44.05,-13.4 90.02,-21.06 135.98,-21.06 821.68,0 1526.52,467.33 1886.6,1145.36 -674.19,796.77 -1681.66,1306.25 -2805.95,1306.25z"/>
 </g>
</svg>
