<?xml version="1.0" encoding="UTF-8"?>
<!DOCTYPE svg PUBLIC "-//W3C//DTD SVG 1.1//EN" "http://www.w3.org/Graphics/SVG/1.1/DTD/svg11.dtd">
<!-- Creator: CorelDRAW 2019 (64 Bit) -->
<svg xmlns="http://www.w3.org/2000/svg" xml:space="preserve" width="100mm" height="100mm" version="1.1" style="shape-rendering:geometricPrecision; text-rendering:geometricPrecision; image-rendering:optimizeQuality; fill-rule:evenodd; clip-rule:evenodd"
viewBox="0 0 10000 10000"
 xmlns:xlink="http://www.w3.org/1999/xlink">
 <defs>
  <style type="text/css">
   <![CDATA[
    .fil0 {fill:white}
   ]]>
  </style>
 </defs>
 <g id="Camada_x0020_1">
  <metadata id="CorelCorpID_0Corel-Layer"/>
  <path id="users.svg" class="fil0" d="M1496.2 4503.8c551.56,0 1000,-448.44 1000,-1000 0,-551.56 -448.44,-1000 -1000,-1000 -551.56,0 -1000,448.44 -1000,1000 0,551.56 448.44,1000 1000,1000zm7000 0c551.56,0 1000,-448.44 1000,-1000 0,-551.56 -448.44,-1000 -1000,-1000 -551.56,0 -1000,448.44 -1000,1000 0,551.56 448.44,1000 1000,1000zm500 500l-1000 0c-275,0 -523.44,110.94 -704.69,290.63 629.69,345.31 1076.56,968.75 1173.44,1709.37l1031.25 0c276.56,0 500,-223.44 500,-500l0 -500c0,-551.56 -448.44,-1000 -1000,-1000zm-4000 0c967.19,0 1750,-782.81 1750,-1750 0,-967.19 -782.81,-1750 -1750,-1750 -967.19,0 -1750,782.81 -1750,1750 0,967.19 782.81,1750 1750,1750zm1200 500l-129.69 0c-325,156.25 -685.94,250 -1070.31,250 -384.37,0 -743.75,-93.75 -1070.31,-250l-129.69 0c-993.75,0 -1800,806.25 -1800,1800l0 450c0,414.06 335.94,750 750,750l4500 0c414.06,0 750,-335.94 750,-750l0 -450c0,-993.75 -806.25,-1800 -1800,-1800zm-3495.31 -209.37c-181.25,-179.69 -429.69,-290.63 -704.69,-290.63l-1000 0c-551.56,0 -1000,448.44 -1000,1000l0 500c0,276.56 223.44,500 500,500l1029.69 0c98.44,-740.63 545.31,-1364.06 1175,-1709.37z"/>
 </g>
</svg>
