<?xml version="1.0" encoding="UTF-8"?>
<!DOCTYPE svg PUBLIC "-//W3C//DTD SVG 1.1//EN" "http://www.w3.org/Graphics/SVG/1.1/DTD/svg11.dtd">
<!-- Creator: CorelDRAW 2019 (64 Bit) -->
<svg xmlns="http://www.w3.org/2000/svg" xml:space="preserve" width="100mm" height="100mm" version="1.1" style="shape-rendering:geometricPrecision; text-rendering:geometricPrecision; image-rendering:optimizeQuality; fill-rule:evenodd; clip-rule:evenodd"
viewBox="0 0 10000 10000"
 xmlns:xlink="http://www.w3.org/1999/xlink">
 <defs>
  <style type="text/css">
   <![CDATA[
    .fil0 {fill:white}
   ]]>
  </style>
 </defs>
 <g id="Camada_x0020_1">
  <metadata id="CorelCorpID_0Corel-Layer"/>
  <path id="user-circle.svg" class="fil0" d="M4996.2 160.05c-2675.78,0 -4843.75,2167.97 -4843.75,4843.75 0,2675.78 2167.97,4843.75 4843.75,4843.75 2675.78,0 4843.75,-2167.97 4843.75,-4843.75 0,-2675.78 -2167.97,-4843.75 -4843.75,-4843.75zm0 1875c949.22,0 1718.75,769.53 1718.75,1718.75 0,949.22 -769.53,1718.75 -1718.75,1718.75 -949.22,0 -1718.75,-769.53 -1718.75,-1718.75 0,-949.22 769.53,-1718.75 1718.75,-1718.75zm0 6718.75c-1146.48,0 -2173.83,-519.53 -2861.33,-1332.03 367.19,-691.41 1085.94,-1167.97 1923.83,-1167.97 46.88,0 93.75,7.81 138.67,21.48 253.91,82.03 519.53,134.77 798.83,134.77 279.3,0 546.88,-52.73 798.83,-134.77 44.92,-13.67 91.8,-21.48 138.67,-21.48 837.89,0 1556.64,476.56 1923.83,1167.97 -687.5,812.5 -1714.85,1332.03 -2861.33,1332.03z"/>
 </g>
</svg>
