<?xml version="1.0" encoding="UTF-8"?>
<!DOCTYPE svg PUBLIC "-//W3C//DTD SVG 1.1//EN" "http://www.w3.org/Graphics/SVG/1.1/DTD/svg11.dtd">
<!-- Creator: CorelDRAW 2019 (64 Bit) -->
<svg xmlns="http://www.w3.org/2000/svg" xml:space="preserve" width="100mm" height="100mm" version="1.1" style="shape-rendering:geometricPrecision; text-rendering:geometricPrecision; image-rendering:optimizeQuality; fill-rule:evenodd; clip-rule:evenodd"
viewBox="0 0 10000 10000"
 xmlns:xlink="http://www.w3.org/1999/xlink">
 <defs>
  <style type="text/css">
   <![CDATA[
    .fil0 {fill:white}
   ]]>
  </style>
 </defs>
 <g id="Camada_x0020_1">
  <metadata id="CorelCorpID_0Corel-Layer"/>
  <path id="whatsapp.svg" class="fil0" d="M8060.65 1900.28c-818.36,-820.31 -1908.2,-1271.48 -3066.4,-1271.48 -2390.62,0 -4335.94,1945.31 -4335.94,4335.94 0,763.67 199.22,1509.77 578.13,2167.97l-615.24 2246.09 2298.83 -603.52c632.81,345.7 1345.7,527.34 2072.27,527.34l1.95 0.01c2388.67,0 4376.95,-1945.31 4376.95,-4335.94 0,-1158.2 -492.19,-2246.09 -1310.55,-3066.41zm-3066.4 6671.88c-648.44,0 -1283.2,-173.83 -1835.94,-501.95l-130.86 -78.13 -1363.28 357.42 363.28 -1330.08 -85.94 -136.72c-361.33,-574.22 -550.78,-1236.33 -550.78,-1917.97 0,-1986.33 1617.19,-3603.52 3605.47,-3603.52 962.89,0 1867.19,375 2546.87,1056.64 679.69,681.64 1097.66,1585.94 1095.7,2548.83 0,1988.28 -1658.2,3605.47 -3644.53,3605.47l0.01 0.01zm1976.56 -2699.22c-107.42,-54.69 -640.63,-316.41 -740.23,-351.56 -99.61,-37.11 -171.88,-54.69 -244.14,54.69 -72.27,109.38 -279.3,351.56 -343.75,425.78 -62.5,72.27 -126.95,82.03 -234.38,27.34 -636.72,-318.36 -1054.69,-568.36 -1474.61,-1289.06 -111.33,-191.41 111.33,-177.73 318.36,-591.8 35.16,-72.27 17.58,-134.77 -9.77,-189.45 -27.34,-54.69 -244.14,-587.89 -333.98,-804.69 -87.89,-210.94 -177.73,-181.64 -244.14,-185.55 -62.5,-3.91 -134.77,-3.91 -207.03,-3.91 -72.27,0 -189.45,27.34 -289.06,134.77 -99.61,109.38 -378.91,371.09 -378.91,904.3 0,533.2 388.67,1048.83 441.41,1121.09 54.69,72.27 763.67,1166.02 1851.56,1636.72 687.5,296.88 957.03,322.27 1300.78,271.48 208.98,-31.25 640.63,-261.72 730.47,-515.62 89.84,-253.91 89.84,-470.7 62.5,-515.62 -25.39,-48.83 -97.66,-76.17 -205.08,-128.91z"/>
 </g>
</svg>
