<?xml version="1.0" encoding="UTF-8"?>
<!DOCTYPE svg PUBLIC "-//W3C//DTD SVG 1.1//EN" "http://www.w3.org/Graphics/SVG/1.1/DTD/svg11.dtd">
<!-- Creator: CorelDRAW 2018 (64 Bit) -->
<svg xmlns="http://www.w3.org/2000/svg" xml:space="preserve" width="100mm" height="100mm" version="1.1" style="shape-rendering:geometricPrecision; text-rendering:geometricPrecision; image-rendering:optimizeQuality; fill-rule:evenodd; clip-rule:evenodd"
viewBox="0 0 10000 10000"
 xmlns:xlink="http://www.w3.org/1999/xlink">
 <defs>
  <style type="text/css">
   <![CDATA[
    .fil0 {fill:white}
   ]]>
  </style>
 </defs>
 <g id="Camada_x0020_1">
  <metadata id="CorelCorpID_0Corel-Layer"/>
  <path class="fil0" d="M8859.37 843.75l-7718.74 0c-491.71,0 -890.63,398.92 -890.63,890.63l0 6531.24c0,491.71 398.92,890.63 890.63,890.63l7718.74 0c491.71,0 890.63,-398.92 890.63,-890.63l0 -6531.24c0,-491.71 -398.92,-890.63 -890.63,-890.63zm-1551.16 5390.14c89.06,89.06 89.06,233.78 0,322.85l-751.47 751.47c-89.07,89.06 -233.79,89.06 -322.85,0l-1233.89 -1245.03 -1233.89 1245.03c-89.06,89.06 -233.78,89.06 -322.85,0l-751.47 -751.47c-89.06,-89.07 -89.06,-233.79 0,-322.85l1245.03 -1233.89 -1245.03 -1233.89c-89.06,-89.06 -89.06,-233.78 0,-322.85l751.47 -751.47c89.07,-89.06 233.79,-89.06 322.85,0l1233.89 1245.03 1233.89 -1245.03c89.06,-89.06 233.78,-89.06 322.85,0l751.47 751.47c89.06,89.07 89.06,233.79 0,322.85l-1245.03 1233.89 1245.03 1233.89z"/>
 </g>
</svg>
