<?xml version="1.0" encoding="UTF-8"?>
<!DOCTYPE svg PUBLIC "-//W3C//DTD SVG 1.1//EN" "http://www.w3.org/Graphics/SVG/1.1/DTD/svg11.dtd">
<!-- Creator: CorelDRAW 2019 (64 Bit) -->
<svg xmlns="http://www.w3.org/2000/svg" xml:space="preserve" width="100mm" height="100mm" version="1.1" style="shape-rendering:geometricPrecision; text-rendering:geometricPrecision; image-rendering:optimizeQuality; fill-rule:evenodd; clip-rule:evenodd"
viewBox="0 0 10000 10000"
 xmlns:xlink="http://www.w3.org/1999/xlink">
 <defs>
  <style type="text/css">
   <![CDATA[
    .fil0 {fill:white}
   ]]>
  </style>
 </defs>
 <g id="Camada_x0020_1">
  <metadata id="CorelCorpID_0Corel-Layer"/>
  <path id="youtube.svg" class="fil0" d="M9538.82 2713.57c-109.05,-410.59 -430.33,-733.96 -838.26,-843.7 -739.41,-199.4 -3704.36,-199.4 -3704.36,-199.4 0,0 -2964.93,0 -3704.36,199.41 -407.93,109.76 -729.22,433.11 -838.26,843.7 -198.13,744.22 -198.13,2296.96 -198.13,2296.96 0,0 0,1552.74 198.13,2296.96 109.05,410.59 430.33,720.49 838.26,830.23 739.43,199.4 3704.36,199.4 3704.36,199.4 0,0 2964.93,0 3704.36,-199.41 407.93,-109.74 729.22,-419.64 838.26,-830.23 198.13,-744.22 198.13,-2296.96 198.13,-2296.96 0,0 0,-1552.74 -198.13,-2296.96zm-5512.32 3706.74l0 -2819.55 2478.11 1409.81 -2478.11 1409.74z"/>
 </g>
</svg>
