<?xml version="1.0" encoding="utf-8"?>
<!-- Generator: Adobe Illustrator 27.5.0, SVG Export Plug-In . SVG Version: 6.00 Build 0)  -->
<svg version="1.1" id="Layer_1" xmlns="http://www.w3.org/2000/svg" xmlns:xlink="http://www.w3.org/1999/xlink" x="0px" y="0px"
	 viewBox="0 0 600 400" style="enable-background:new 0 0 600 400;" xml:space="preserve">
<g>
	<g>
		<g>
			<path style="fill:#E5F2F8;" d="M356.467,334.976c-79.016-33.755-90.014-33.869-163.133-8.541
				c-79.212,27.438-125.204,6.463-129.317-32.121c-7.006-65.72,145.675-49.822,132.677-133.507
				c-9.577-61.658,33.58-90.659,90.559-99.276c56.378-8.526,81.873,24.097,75.421,83.129c-3.569,32.656-2.207,38.055,42.864,51.604
				c46.621,14.015,127.092-7.127,131.681,67.998C541.565,335.411,430.336,366.533,356.467,334.976z"/>
		</g>
	</g>
	<g>
		<path style="fill:#FBC96A;" d="M184.77,103.104l0.002-0.241c-0.804,0.004-1.557,0.08-2.335,0.121
			c-0.778-0.04-1.531-0.116-2.335-0.121l0.001,0.241c-46.885,4.669-45.799,75.702-25.939,97.44
			c19.092,20.898,16.398,39.639,16.398,39.639l10.349,0.373l0.001,0.11l1.526-0.055l1.526,0.055l0.001-0.11l10.348-0.373
			c0,0-2.694-18.741,16.398-39.639C230.569,178.805,231.655,107.772,184.77,103.104z"/>
		<path style="fill:#FCD880;" d="M167.438,221.515l55.611-53.324c1.835-15.857-0.458-33.462-8.486-46.411l-67.317,67.558
			c1.923,4.434,4.243,8.278,6.918,11.206C161.047,208.079,165.072,215.318,167.438,221.515z"/>
		<path style="fill:#FCD880;" d="M184.771,102.862c-0.804,0.004-1.557,0.08-2.335,0.121c-0.778-0.04-1.531-0.116-2.335-0.121
			l0.001,0.241c-26.974,2.686-38.048,27.339-38.826,51.933l52.264-50.114c-2.72-0.874-5.629-1.505-8.771-1.818L184.771,102.862z"/>
		<g>
			<g>
				<g>
					<path style="fill:#AACEF2;" d="M162.991,228.715h38.891c0,0,3.332,37.893-17.11,43.378
						C164.329,277.578,163.149,237.191,162.991,228.715z"/>
				</g>
			</g>
		</g>
		<g>
			<g>
				<g>
					<path style="fill:#F0F8FF;" d="M202.721,237.69h-40.885c-0.822,0-1.496-0.673-1.496-1.496l0,0c0-0.823,0.673-1.496,1.496-1.496
						h40.885c0.822,0,1.496,0.673,1.496,1.496l0,0C204.217,237.017,203.543,237.69,202.721,237.69z"/>
				</g>
			</g>
		</g>
		<g>
			<g>
				<g>
					<path style="fill:#F0F8FF;" d="M202.721,243.673h-40.885c-0.822,0-1.496-0.673-1.496-1.496l0,0
						c0-0.823,0.673-1.496,1.496-1.496h40.885c0.822,0,1.496,0.673,1.496,1.496l0,0C204.217,243,203.543,243.673,202.721,243.673z"
						/>
				</g>
			</g>
		</g>
		<g>
			<g>
				<g>
					<path style="fill:#F0F8FF;" d="M202.721,249.656h-40.885c-0.822,0-1.496-0.673-1.496-1.496l0,0
						c0-0.823,0.673-1.496,1.496-1.496h40.885c0.822,0,1.496,0.673,1.496,1.496l0,0
						C204.217,248.983,203.543,249.656,202.721,249.656z"/>
				</g>
			</g>
		</g>
		<g>
			<g>
				<g>
					<path style="fill:#F0F8FF;" d="M200.587,255.639H163.83c-0.822,0-1.496-0.673-1.496-1.496l0,0c0-0.822,0.673-1.496,1.496-1.496
						h36.757c0.823,0,1.496,0.673,1.496,1.496l0,0C202.083,254.966,201.41,255.639,200.587,255.639z"/>
				</g>
			</g>
		</g>
		<g>
			<g>
				<g>
					<path style="fill:#F0F8FF;" d="M198.981,261.623h-33.032c-0.823,0-1.496-0.673-1.496-1.496l0,0
						c0-0.823,0.673-1.496,1.496-1.496h33.032c0.823,0,1.496,0.673,1.496,1.496l0,0
						C200.477,260.949,199.804,261.623,198.981,261.623z"/>
				</g>
			</g>
		</g>
		<g>
			<g>
				<g>
					<path style="fill:#F0F8FF;" d="M195.367,267.606h-26.426c-0.823,0-1.496-0.673-1.496-1.496l0,0
						c0-0.823,0.673-1.496,1.496-1.496h26.426c0.823,0,1.496,0.673,1.496,1.496l0,0
						C196.862,266.933,196.189,267.606,195.367,267.606z"/>
				</g>
			</g>
		</g>
		<g>
			<path style="fill:#E1A139;" d="M191.101,156.298c0,5.566-4.512,10.077-10.077,10.077c-5.565,0-10.077-4.512-10.077-10.077
				c0-5.565,4.512-10.077,10.077-10.077C186.59,146.221,191.101,150.732,191.101,156.298z"/>
			<polygon style="fill:#E1A139;" points="190.764,185.185 171.284,185.185 175.711,156.298 186.337,156.298 			"/>
			<path style="fill:#E7F4FA;" d="M193.251,156.298c0,5.566-4.512,10.077-10.077,10.077c-5.565,0-10.077-4.512-10.077-10.077
				c0-5.565,4.512-10.077,10.077-10.077C188.739,146.221,193.251,150.732,193.251,156.298z"/>
			<polygon style="fill:#E7F4FA;" points="192.914,185.185 173.434,185.185 177.861,156.298 188.486,156.298 			"/>
		</g>
	</g>
	<g>
		<path style="fill:#D65838;" d="M390.817,168.163c0,36.888-29.908,66.793-66.795,66.793c-36.889,0-66.793-29.905-66.793-66.793
			c0-36.888,29.904-66.793,66.793-66.793C360.909,101.369,390.817,131.275,390.817,168.163z"/>
		<path style="fill:#D65838;" d="M386.908,168.058c0,34.265-28.158,62.044-62.886,62.044c-34.73,0-62.883-27.779-62.883-62.044
			c0-34.264,28.154-62.043,62.883-62.043C358.749,106.015,386.908,133.794,386.908,168.058z"/>
		<path style="fill:#F1F1F1;" d="M380.637,168.163c0,31.266-25.348,56.612-56.615,56.612c-31.264,0-56.609-25.346-56.609-56.612
			c0-31.265,25.345-56.611,56.609-56.611C355.289,111.551,380.637,136.898,380.637,168.163z"/>
		<path style="fill:#D65838;" d="M372.037,168.787c0,26.52-21.495,48.012-48.015,48.012c-26.518,0-48.013-21.493-48.013-48.012
			c0-26.514,21.495-48.011,48.013-48.011C350.542,120.776,372.037,142.273,372.037,168.787z"/>
		
			<ellipse transform="matrix(0.9994 -0.0347 0.0347 0.9994 -5.6607 11.343)" style="fill:#F1F1F1;" cx="324.022" cy="168.787" rx="38.019" ry="38.02"/>
		<path style="fill:#D65838;" d="M353.055,168.787c0,16.036-12.998,29.034-29.033,29.034c-16.035,0-29.031-12.998-29.031-29.034
			c0-16.033,12.996-29.032,29.031-29.032C340.057,139.755,353.055,152.754,353.055,168.787z"/>
		<path style="fill:#D65838;" d="M344.07,168.787c0,11.075-8.975,20.051-20.048,20.051c-11.073,0-20.05-8.977-20.05-20.051
			c0-11.072,8.977-20.049,20.05-20.049C335.094,148.739,344.07,157.715,344.07,168.787z"/>
		<path style="fill:#D65838;" d="M337.332,168.787c0,7.354-5.96,13.313-13.31,13.313c-7.352,0-13.312-5.959-13.312-13.313
			c0-7.35,5.96-13.311,13.312-13.311C331.372,155.476,337.332,161.437,337.332,168.787z"/>
		<path style="opacity:0.2;" d="M331.043,168.787c0,3.879-3.143,7.022-7.02,7.022c-3.878,0-7.021-3.143-7.021-7.022
			c0-3.877,3.143-7.021,7.021-7.021C327.9,161.766,331.043,164.91,331.043,168.787z"/>
		<path style="opacity:0.2;" d="M367.098,117.132c5.353,9.418,8.396,20.115,8.396,31.47c0,37.664-33.292,68.197-74.36,68.197
			c-9.726,0-19.006-1.731-27.521-4.845c12.246,14.084,30.28,23.001,50.409,23.001c36.887,0,66.795-29.905,66.795-66.793
			C390.817,147.693,381.598,129.385,367.098,117.132z"/>
		<g>
			
				<ellipse transform="matrix(0.7071 -0.7071 0.7071 0.7071 -17.7464 274.524)" style="fill:#892F17;" cx="322.507" cy="158.684" rx="10.156" ry="10.156"/>
			<polygon style="fill:#892F17;" points="332.323,187.799 312.69,187.799 317.152,158.684 327.861,158.684 			"/>
			
				<ellipse transform="matrix(0.1542 -0.988 0.988 0.1542 117.8137 454.9986)" style="fill:#E7F4FA;" cx="324.673" cy="158.684" rx="10.156" ry="10.156"/>
			<polygon style="fill:#E7F4FA;" points="334.49,187.799 314.857,187.799 319.319,158.684 330.028,158.684 			"/>
		</g>
	</g>
	<g>
		<g>
			<rect x="385.66" y="87.228" style="fill:#AACEF2;" width="7.571" height="171.051"/>
		</g>
		<g>
			<rect x="436.03" y="87.228" style="fill:#AACEF2;" width="7.571" height="171.051"/>
		</g>
		<g>
			<rect x="385.66" y="99.82" style="fill:#AACEF2;" width="56.596" height="5.877"/>
		</g>
		<g>
			<rect x="385.66" y="127.524" style="fill:#AACEF2;" width="56.596" height="5.877"/>
		</g>
		<g>
			<rect x="385.66" y="155.227" style="fill:#AACEF2;" width="56.596" height="5.877"/>
		</g>
		<g>
			<rect x="385.66" y="182.93" style="fill:#AACEF2;" width="56.596" height="5.877"/>
		</g>
		<g>
			<rect x="385.66" y="208.115" style="fill:#AACEF2;" width="56.596" height="5.876"/>
		</g>
		<g>
			<rect x="385.66" y="235.818" style="fill:#AACEF2;" width="56.596" height="5.876"/>
		</g>
	</g>
	<path style="fill:#CDE1E8;" d="M575.047,339.571c0,5.864-123.143,10.618-275.047,10.618c-151.905,0-275.047-4.754-275.047-10.618
		c0-5.864,123.142-10.618,275.047-10.618C451.904,328.953,575.047,333.707,575.047,339.571z"/>
	<g>
		<g>
			<g>
				<g>
					<polygon style="fill:#142480;" points="171.526,336.301 428.927,336.301 475.022,149.275 222.315,149.275 					"/>
				</g>
			</g>
		</g>
		<g>
			<g>
				<g>
					<path style="fill:#142480;" d="M429.624,337.184H170.36l0.306-1.107l50.967-187.692h254.514L429.624,337.184z M172.679,335.411
						h255.559l45.646-185.254H222.997L172.679,335.411z"/>
				</g>
			</g>
		</g>
	</g>
	<g>
		<g>
			<g>
				<g>
					<polygon style="fill:#355DDC;" points="162.208,336.301 419.61,336.301 465.704,149.275 212.998,149.275 					"/>
				</g>
			</g>
		</g>
		<g>
			<g>
				<g>
					<path style="fill:#355DDC;" d="M420.306,337.184H161.043l0.306-1.107l50.967-187.692h254.514L420.306,337.184z
						 M163.362,335.411h255.559l45.646-185.254H213.679L163.362,335.411z"/>
				</g>
			</g>
		</g>
	</g>
	<g>
		<g>
			<g>
				<g>
					<polygon style="fill:#E7F4FA;" points="181.275,323.257 402.742,323.257 443.549,162.334 224.974,162.334 					"/>
				</g>
			</g>
		</g>
		<g>
			<g>
				<g>
					<path style="fill:#E7F4FA;" d="M403.431,324.14H180.117l0.298-1.115l43.877-161.581h220.391L403.431,324.14z M182.436,322.367
						h219.625l40.351-159.151H225.655L182.436,322.367z"/>
				</g>
			</g>
		</g>
	</g>
	<g>
		<g>
			<g>
				<g>
					<polygon style="fill:#142480;" points="425.06,336.348 58.196,336.348 58.196,314.974 429.896,314.974 					"/>
				</g>
			</g>
		</g>
		<g>
			<g>
				<g>
					<path style="fill:#142480;" d="M425.786,337.238H57.292v-23.146h373.723L425.786,337.238z M59.091,335.458H424.34l4.44-19.593
						H59.091V335.458z"/>
				</g>
			</g>
		</g>
	</g>
	<g>
		<g>
			<g>
				<g>
					<g>
						<g>
							<path style="fill:#D4E6ED;" d="M376.433,287.154c-1.499,4.118-5.676,7.457-9.342,7.457H221.364
								c-3.671,0-5.424-3.339-3.925-7.457l37.349-102.614c1.498-4.117,5.682-7.455,9.353-7.455h145.727
								c3.666,0,5.413,3.339,3.915,7.455L376.433,287.154z"/>
						</g>
					</g>
					<g>
						<g>
							<path style="fill:#BFD7F5;" d="M409.867,177.085H264.14c-3.671,0-7.855,3.339-9.353,7.455l-5.037,13.84h158.995l5.038-13.84
								C415.28,180.424,413.533,177.085,409.867,177.085z"/>
						</g>
					</g>
					<g>
						<g>
							<path style="fill:#FFFFFF;" d="M269.692,187.805c-0.74,2.033-2.817,3.693-4.643,3.693c-1.82,0-2.691-1.66-1.951-3.693
								c0.748-2.055,2.823-3.704,4.643-3.704C269.567,184.1,270.44,185.749,269.692,187.805z"/>
						</g>
					</g>
					<g>
						<g>
							<path style="fill:#FFFFFF;" d="M278.021,187.805c-0.74,2.033-2.823,3.693-4.649,3.693c-1.815,0-2.691-1.66-1.951-3.693
								c0.748-2.055,2.828-3.704,4.643-3.704C277.89,184.1,278.769,185.749,278.021,187.805z"/>
						</g>
					</g>
					<g>
						<g>
							<path style="fill:#FFFFFF;" d="M286.052,187.805c-0.74,2.033-2.817,3.693-4.643,3.693c-1.815,0-2.686-1.66-1.946-3.693
								c0.748-2.055,2.823-3.704,4.638-3.704C285.927,184.1,286.8,185.749,286.052,187.805z"/>
						</g>
					</g>
				</g>
			</g>
			<g>
				<g>
					<g>
						<g>
							<path style="fill:#FFFFFF;" d="M370.013,287.154c-1.499,4.118-5.677,7.457-9.342,7.457H214.944
								c-3.671,0-5.424-3.339-3.925-7.457l37.349-102.614c1.498-4.117,5.682-7.455,9.353-7.455h145.727
								c3.666,0,5.413,3.339,3.915,7.455L370.013,287.154z"/>
						</g>
					</g>
					<g>
						<g>
							<path style="fill:#C9E1F9;" d="M403.447,177.085H257.72c-3.671,0-7.855,3.339-9.353,7.455l-5.037,13.84h158.995l5.038-13.84
								C408.86,180.424,407.113,177.085,403.447,177.085z"/>
						</g>
					</g>
					<g>
						<g>
							<path style="fill:#FFFFFF;" d="M263.272,187.805c-0.74,2.033-2.817,3.693-4.643,3.693c-1.82,0-2.69-1.66-1.95-3.693
								c0.748-2.055,2.823-3.704,4.643-3.704C263.147,184.1,264.021,185.749,263.272,187.805z"/>
						</g>
					</g>
					<g>
						<g>
							<path style="fill:#FFFFFF;" d="M271.601,187.805c-0.74,2.033-2.823,3.693-4.649,3.693c-1.815,0-2.691-1.66-1.951-3.693
								c0.748-2.055,2.828-3.704,4.643-3.704C271.47,184.1,272.349,185.749,271.601,187.805z"/>
						</g>
					</g>
					<g>
						<g>
							<path style="fill:#FFFFFF;" d="M279.632,187.805c-0.74,2.033-2.817,3.693-4.643,3.693c-1.815,0-2.686-1.66-1.946-3.693
								c0.748-2.055,2.823-3.704,4.638-3.704C279.507,184.1,280.38,185.749,279.632,187.805z"/>
						</g>
					</g>
				</g>
			</g>
		</g>
	</g>
	<g>
		<polygon style="fill:#E8A32B;" points="503.82,160.972 488.894,160.896 496.275,177.087 		"/>
	</g>
	<g>
		<polygon style="fill:#E8A32B;" points="251.508,110.406 236.583,110.33 243.964,126.521 		"/>
	</g>
	<g>
		<g>
			<g>
				<g>
					<polygon style="fill:#97A33F;" points="111.77,182.268 111.076,166.962 127.988,173.864 					"/>
				</g>
			</g>
		</g>
	</g>
	<g>
		<g>
			<g>
				<g>
					<polygon style="fill:#97A33F;" points="529.016,278.365 528.323,263.06 545.234,269.962 					"/>
				</g>
			</g>
		</g>
	</g>
	<g>
		<g>
			<g>
				<g>
					<g>
						<g>
							<path style="fill:#BCB326;" d="M420.646,237.643c0.854-1.265,3.894-2.591,7.24-0.242c3.348,2.354,7.103,18.035,5.107,32.951
								c-1.998,14.913,6.716,13.656,1.452,23.182c-2.078,3.759-12.317,0.148-10.347-9.706
								C430.381,252.388,415.258,245.623,420.646,237.643z"/>
						</g>
					</g>
				</g>
			</g>
		</g>
		<g>
			<g>
				<g>
					<g>
						<g>
							<path style="fill:#AA9B1A;" d="M397.049,226.59c0,0,1.634-6.738,8.987-3.771c7.35,2.964,11.436,8.894,12.253,21.293
								c0.816,12.401,5.445,15.906,9.257,24.262c3.812,8.356,3.539,26.687-4.902,27.764c-8.439,1.079-8.6-16.484-14.158-20.485
								c-8.987-6.471-3.074-15.605-2.451-21.026C407.396,242.766,393.51,240.34,397.049,226.59z"/>
						</g>
					</g>
				</g>
			</g>
		</g>
		<g>
			<g>
				<g>
					<g>
						<g>
							<path style="fill:#AA9B1A;" d="M436.333,281.044c0,0,2.042,2.897,5.92-3.102c3.646-5.639,7.966-10.813,6.606-18.818
								c-1.363-8,11.88-30.842,0.242-37.058c-6.259-3.347-19.644-3.831-18.036,21.779
								C433.012,274.906,430.886,273.498,436.333,281.044z"/>
						</g>
					</g>
				</g>
			</g>
		</g>
		<g>
			<g>
				<g>
					<g>
						<g>
							<path style="fill:#BCB326;" d="M395.05,273.762c1.012-1.753,4.358-4.132,8.171,0c0,0,2.903,2.841,3.992,7.98
								c1.089,5.14,3.228,9.813,5.971,12.149c2.741,2.334,8.009,7.19,2.924,8.086C411.026,302.875,386.299,288.997,395.05,273.762z"
								/>
						</g>
					</g>
				</g>
			</g>
		</g>
		<g>
			<g>
				<g>
					<g>
						<g>
							<path style="fill:#BCB326;" d="M452.284,254.211c-0.242-2.228-0.136-7.21,5.623-7.471c5.757-0.264,11.615,5.533,7.07,17.027
								c-4.539,11.495-4.678,26.524-17.332,27.667c-12.656,1.141-1.724-9.889-0.826-10.894
								C451.854,274.916,453.579,266.158,452.284,254.211z"/>
						</g>
					</g>
				</g>
			</g>
		</g>
		<g>
			<g>
				<g>
					<g>
						<g>
							<path style="fill:#BCB326;" d="M428.043,315.012l-0.464-0.277c14.413-23.389,14.58-85.275,14.58-85.895h0.545
								C442.703,229.463,442.535,291.499,428.043,315.012z"/>
						</g>
					</g>
				</g>
			</g>
		</g>
		<g>
			<g>
				<g>
					<g>
						<g>
							<path style="fill:#BCB326;" d="M442.098,239.251c-0.121,0-0.239-0.007-0.362-0.015c-3.633-0.338-5.743-5.587-5.83-5.807
								l0.505-0.197c0.024,0.054,2.077,5.159,5.376,5.468c1.997,0.173,4.099-1.428,6.221-4.794l0.464,0.286
								C446.351,237.552,444.209,239.251,442.098,239.251z"/>
						</g>
					</g>
				</g>
			</g>
		</g>
		<g>
			<g>
				<g>
					<g>
						<g>
							<path style="fill:#BCB326;" d="M441.389,249.18c-0.121,0-0.239-0.005-0.359-0.015c-3.634-0.336-5.745-5.582-5.833-5.807
								l0.508-0.197c0.021,0.054,2.076,5.162,5.374,5.466c2.007,0.178,4.098-1.428,6.221-4.792l0.462,0.289
								C445.642,247.483,443.501,249.18,441.389,249.18z"/>
						</g>
					</g>
				</g>
			</g>
		</g>
		<g>
			<g>
				<g>
					<g>
						<g>
							<path style="fill:#BCB326;" d="M441.389,260.709c-0.121,0-0.239-0.007-0.359-0.017c-3.634-0.336-5.745-5.582-5.833-5.802
								l0.508-0.197c0.021,0.049,2.076,5.16,5.374,5.464c2.007,0.163,4.098-1.428,6.221-4.792l0.462,0.287
								C445.642,259.01,443.501,260.709,441.389,260.709z"/>
						</g>
					</g>
				</g>
			</g>
		</g>
		<g>
			<g>
				<g>
					<g>
						<g>
							<path style="fill:#BCB326;" d="M440.061,269.391c-0.089,0-0.175-0.003-0.264-0.01c-2.628-0.245-4.145-4.014-4.206-4.174
								l0.506-0.195c0.014,0.037,1.457,3.618,3.753,3.831c1.373,0.122,2.849-1,4.339-3.364l0.465,0.287
								C443.133,268.171,441.591,269.391,440.061,269.391z"/>
						</g>
					</g>
				</g>
			</g>
		</g>
		<g>
			<g>
				<g>
					<g>
						<g>
							<path style="fill:#BCB326;" d="M437.612,320.461c-13.37-14.301-30.492-89.548-30.664-90.304l0.534-0.121
								c0.169,0.758,17.259,75.862,30.53,90.059L437.612,320.461z"/>
						</g>
					</g>
				</g>
			</g>
		</g>
		<g>
			<g>
				<g>
					<g>
						<g>
							<path style="fill:#BCB326;" d="M414.979,264.021c-1.708,0-3.669-1.141-5.848-3.401l0.395-0.373
								c2.486,2.581,4.622,3.623,6.345,3.105c2.844-0.862,3.713-5.723,3.723-5.77l0.534,0.087c-0.037,0.215-0.938,5.243-4.101,6.197
								C415.69,263.97,415.342,264.021,414.979,264.021z"/>
						</g>
					</g>
				</g>
			</g>
		</g>
		<g>
			<g>
				<g>
					<g>
						<g>
							<path style="fill:#AA9B1A;" d="M398.423,284.793c-0.705,0-1.553-0.22-2.539-0.659l0.22-0.492
								c1.614,0.716,2.765,0.81,3.432,0.269c1.1-0.886,0.588-3.243,0.585-3.27l0.531-0.116c0.025,0.111,0.587,2.712-0.773,3.806
								C399.496,284.64,399.01,284.793,398.423,284.793z"/>
						</g>
					</g>
				</g>
			</g>
		</g>
		<g>
			<g>
				<g>
					<g>
						<g>
							<path style="fill:#AA9B1A;" d="M404.025,292.136c-0.703,0-1.551-0.217-2.538-0.657l0.221-0.491
								c1.61,0.716,2.758,0.805,3.427,0.271c1.099-0.887,0.589-3.246,0.582-3.27l0.532-0.114c0.026,0.109,0.588,2.71-0.773,3.801
								C405.096,291.988,404.611,292.136,404.025,292.136z"/>
						</g>
					</g>
				</g>
			</g>
		</g>
		<g>
			<g>
				<g>
					<g>
						<g>
							<path style="fill:#AA9B1A;" d="M400.877,288.352c-0.705,0-1.551-0.22-2.539-0.659l0.221-0.489
								c1.608,0.711,2.757,0.81,3.425,0.269c1.1-0.884,0.59-3.245,0.586-3.27l0.532-0.116c0.026,0.111,0.588,2.712-0.773,3.806
								C401.948,288.199,401.461,288.352,400.877,288.352z"/>
						</g>
					</g>
				</g>
			</g>
		</g>
		<g>
			<g>
				<g>
					<g>
						<g>
							<path style="fill:#AA9B1A;" d="M407.055,295.26c-0.701,0-1.551-0.218-2.538-0.659l0.221-0.489
								c1.613,0.714,2.766,0.803,3.428,0.272c1.098-0.884,0.587-3.248,0.583-3.273l0.531-0.116c0.026,0.111,0.589,2.712-0.771,3.806
								C408.128,295.107,407.643,295.26,407.055,295.26z"/>
						</g>
					</g>
				</g>
			</g>
		</g>
		<g>
			<g>
				<g>
					<g>
						<g>
							<path style="fill:#BCB326;" d="M410.433,246.591c-1.709,0-3.669-1.139-5.847-3.396l0.395-0.373
								c2.486,2.581,4.622,3.621,6.345,3.1c2.844-0.859,3.714-5.723,3.723-5.77l0.535,0.089c-0.037,0.217-0.939,5.244-4.101,6.197
								C411.143,246.542,410.795,246.591,410.433,246.591z"/>
						</g>
					</g>
				</g>
			</g>
		</g>
		<g>
			<g>
				<g>
					<g>
						<g>
							<path style="fill:#BCB326;" d="M407.6,236.492c-1.708,0-3.669-1.141-5.847-3.401l0.395-0.373
								c2.485,2.581,4.622,3.626,6.342,3.105c2.845-0.862,3.716-5.725,3.724-5.772l0.536,0.089
								c-0.035,0.215-0.938,5.241-4.101,6.197C408.311,236.438,407.962,236.492,407.6,236.492z"/>
						</g>
					</g>
				</g>
			</g>
		</g>
		<g>
			<g>
				<g>
					<g>
						<g>
							<path style="fill:#BCB326;" d="M412.977,256.115c-1.428,0-3.064-0.949-4.881-2.83l0.398-0.37
								c2.046,2.124,3.802,2.983,5.209,2.556c2.327-0.701,3.049-4.705,3.054-4.745l0.537,0.092
								c-0.031,0.175-0.784,4.369-3.432,5.169C413.578,256.073,413.283,256.115,412.977,256.115z"/>
						</g>
					</g>
				</g>
			</g>
		</g>
		<g>
			<g>
				<g>
					<g>
						<g>
							<path style="fill:#BCB326;" d="M417.426,272.659c-1.707,0-3.667-1.141-5.846-3.401l0.396-0.37
								c2.482,2.578,4.618,3.621,6.34,3.102c2.844-0.857,3.717-5.72,3.724-5.77l0.537,0.089c-0.034,0.215-0.937,5.239-4.101,6.199
								C418.139,272.609,417.788,272.659,417.426,272.659z"/>
						</g>
					</g>
				</g>
			</g>
		</g>
		<g>
			<g>
				<g>
					<g>
						<g>
							<path style="fill:#BCB326;" d="M419.546,282.832c-1.709,0-3.672-1.136-5.85-3.396l0.395-0.37
								c2.486,2.579,4.625,3.621,6.345,3.1c2.844-0.859,3.715-5.718,3.724-5.77l0.536,0.091c-0.035,0.213-0.939,5.239-4.101,6.194
								C420.257,282.785,419.906,282.832,419.546,282.832z"/>
						</g>
					</g>
				</g>
			</g>
		</g>
		<g>
			<g>
				<g>
					<g>
						<g>
							<path style="fill:#BCB326;" d="M422.508,290.241c-1.235,0-2.649-0.817-4.211-2.438l0.395-0.373
								c1.741,1.813,3.237,2.544,4.424,2.183c1.973-0.595,2.586-4.004,2.592-4.036l0.536,0.089
								c-0.026,0.153-0.676,3.771-2.969,4.463C423.028,290.204,422.771,290.241,422.508,290.241z"/>
						</g>
					</g>
				</g>
			</g>
		</g>
		<g>
			<g>
				<g>
					<g>
						<g>
							<path style="fill:#AA9B1A;" d="M446.157,307.57c-20.475,0-32.764-7.513-39.494-13.861
								c-7.386-6.968-9.851-14.086-9.875-14.158l0.514-0.17c0.026,0.069,2.46,7.081,9.759,13.957
								c6.652,6.271,18.821,13.693,39.095,13.693c0.242,0,0.485,0,0.728,0l0.006,0.534
								C446.647,307.57,446.399,307.57,446.157,307.57z"/>
						</g>
					</g>
				</g>
			</g>
		</g>
		<g>
			<g>
				<g>
					<g>
						<g>
							<path style="fill:#AA9B1A;" d="M457.927,259.232c-1.599,0-3.007-1.872-3.073-1.956l0.439-0.319
								c0.013,0.017,1.477,1.964,2.875,1.712c0.844-0.141,1.532-1.065,2.051-2.734l0.517,0.156
								c-0.577,1.885-1.411,2.929-2.477,3.112C458.149,259.22,458.037,259.232,457.927,259.232z"/>
						</g>
					</g>
				</g>
			</g>
		</g>
		<g>
			<g>
				<g>
					<g>
						<g>
							<path style="fill:#AA9B1A;" d="M457.946,265.528c-1.733,0-2.985-2.304-3.038-2.403l0.482-0.255
								c0.01,0.022,1.153,2.117,2.555,2.117c0.01,0,0.021,0,0.031,0c0.858-0.017,1.677-0.827,2.435-2.406l0.491,0.232
								c-0.854,1.776-1.835,2.69-2.916,2.715C457.975,265.528,457.96,265.528,457.946,265.528z"/>
						</g>
					</g>
				</g>
			</g>
		</g>
		<g>
			<g>
				<g>
					<g>
						<g>
							<path style="fill:#AA9B1A;" d="M455.998,274.686c-1.731,0-2.986-2.304-3.038-2.405l0.481-0.25
								c0.01,0.02,1.152,2.114,2.554,2.114c0.012,0,0.022,0,0.032,0c0.858-0.02,1.677-0.827,2.434-2.408l0.494,0.232
								c-0.854,1.783-1.837,2.694-2.918,2.717C456.025,274.686,456.01,274.686,455.998,274.686z"/>
						</g>
					</g>
				</g>
			</g>
		</g>
		<g>
			<g>
				<g>
					<g>
						<g>
							<path style="fill:#AA9B1A;" d="M452.278,283.733c-0.312,0-0.603-0.064-0.871-0.19c-1.583-0.743-1.661-3.404-1.662-3.512
								l0.545-0.015c0,0.022,0.07,2.44,1.351,3.04c0.778,0.363,1.873,0.005,3.265-1.072l0.336,0.427
								C454.102,283.291,453.109,283.733,452.278,283.733z"/>
						</g>
					</g>
				</g>
			</g>
		</g>
		<g>
			<g>
				<g>
					<g>
						<g>
							<path style="fill:#AA9B1A;" d="M422.369,311.737l-0.266-0.471c38.741-21.266,35.656-54.434,35.62-54.765l0.54-0.059
								c0.01,0.087,0.858,8.546-3.139,19.539C451.441,286.109,442.766,300.538,422.369,311.737z"/>
						</g>
					</g>
				</g>
			</g>
		</g>
		<g>
			<g>
				<g>
					<g>
						<g>
							<g>
								<g>
									<path style="fill:#FFC662;" d="M418.561,303.332c0,0,0.246,29.186,3.941,33.894h21.667c0,0,2.95-6.59,2.707-33.894H418.561
										z"/>
								</g>
							</g>
						</g>
					</g>
				</g>
			</g>
			<g>
				<g>
					<g>
						<g>
							<g>
								<g>
									<path style="fill:#EAAD49;" d="M446.876,303.332h-2.238c-2.557,14.762-8.868,25.232-16.266,25.232
										c-3.242,0-6.265-2.038-8.868-5.537c0.577,6.37,1.499,12.295,2.997,14.199h21.667
										C444.169,337.226,447.119,330.636,446.876,303.332z"/>
								</g>
							</g>
						</g>
					</g>
				</g>
			</g>
		</g>
	</g>
	<g>
		<path style="fill:#DAE8F2;" d="M104.242,215.933h43.842c0,0,2.968-11.99-7.992-12.371c-1.899-0.066-5.48,0.374-6.851,5.024
			c0,0,1.598-20.551-9.819-15.984c-11.417,4.567-5.734,15.608-5.734,15.608S101.501,198.162,104.242,215.933z"/>
	</g>
	<g>
		<path style="fill:#DAE8F2;" d="M456.622,125.388h47.797c0,0,3.236-13.072-8.713-13.487c-2.07-0.072-5.975,0.408-7.469,5.477
			c0,0,1.743-22.405-10.704-17.426c-12.447,4.979-6.252,17.016-6.252,17.016S453.635,106.014,456.622,125.388z"/>
	</g>
	<g>
		<path style="fill:#DAE8F2;" d="M356.148,76.049h33.325c0,0,2.257-9.114-6.075-9.403c-1.444-0.05-4.166,0.284-5.207,3.819
			c0,0,1.215-15.621-7.463-12.15c-8.678,3.471-4.359,11.864-4.359,11.864S354.065,62.541,356.148,76.049z"/>
	</g>
	<g>
		<g>
			<path style="fill:#E1A139;" d="M442.481,244.138l16.244-5.941c1.079-0.395,2.286,0.166,2.681,1.245l46.567-17.03
				c2.904-1.062,4.411-4.307,3.349-7.21c-1.062-2.904-4.306-4.411-7.21-3.349l-46.574,17.032c0.346,1.061-0.207,2.224-1.263,2.61
				l-16.244,5.941c-1.056,0.386-2.229-0.145-2.649-1.18l-0.142,0.052c-2.904,1.062-4.411,4.306-3.349,7.21
				c1.062,2.904,4.307,4.41,7.21,3.349l0.135-0.049C440.841,245.74,441.401,244.533,442.481,244.138z"/>
			<path style="fill:#FBC96A;" d="M442.085,243.055l16.244-5.941c1.079-0.395,2.286,0.165,2.681,1.245l46.567-17.03
				c2.904-1.062,4.41-4.306,3.349-7.21c-1.062-2.904-4.306-4.411-7.21-3.349l-46.574,17.032c0.346,1.061-0.207,2.224-1.263,2.61
				l-16.244,5.941c-1.056,0.387-2.229-0.145-2.649-1.18l-0.142,0.052c-2.904,1.062-4.411,4.306-3.349,7.21
				c1.062,2.904,4.306,4.411,7.21,3.349l0.135-0.05C440.445,244.656,441.005,243.45,442.085,243.055z"/>
			<path style="fill:#3D446D;" d="M499.845,229.156l-6.888-18.834c-2.913-7.966,0.997-16.81,8.851-20.014l28.743-11.729
				c8.273-3.376,17.697,0.791,20.766,9.183l7.673,20.982c3.069,8.392-1.442,17.655-9.942,20.413l-29.529,9.581
				C511.452,241.356,502.759,237.122,499.845,229.156z"/>
			<path style="fill:#4E5487;" d="M499.272,227.587l-6.576-17.983c-2.782-7.606,1.237-16.154,9.096-19.345l28.761-11.681
				c8.279-3.362,17.591,0.501,20.521,8.515l7.326,20.034c2.93,8.013-1.692,16.973-10.187,19.744l-29.511,9.629
				C510.639,239.131,502.053,235.192,499.272,227.587z"/>
			<path style="fill:#FCD880;" d="M461.01,238.36l4.537-1.659l-10.644-5.93l-15.268,5.583c-1.056,0.387-2.229-0.145-2.649-1.18
				l-0.142,0.052c-1.404,0.514-2.472,1.543-3.09,2.792l8.76,4.88l15.816-5.784C459.408,236.72,460.615,237.28,461.01,238.36z"/>
			<polygon style="fill:#FCD880;" points="475.735,232.975 496.357,225.433 483.384,218.207 462.762,225.748 			"/>
			<path style="fill:#60639D;" d="M492.202,207.911l42.152,23.481l13.859-4.522c6.714-2.191,10.992-8.25,11.049-14.649
				l-47.035-26.201l-10.437,4.239C494.511,193.215,490.537,200.768,492.202,207.911z"/>
			<path style="fill:#3D446D;" d="M544.911,213.048l-7.426-20.305c-0.517-1.414,0.217-2.995,1.631-3.512l0,0
				c1.415-0.517,2.995,0.217,3.513,1.632l7.426,20.305c0.517,1.414-0.217,2.995-1.631,3.512l0,0
				C547.009,215.197,545.429,214.463,544.911,213.048z"/>
			<path style="fill:#FFFFFF;" d="M544.911,213.048l-6.73-18.402c-0.517-1.415,0.217-2.995,1.631-3.512l0,0
				c1.415-0.517,2.995,0.217,3.513,1.632l6.73,18.402c0.517,1.414-0.217,2.995-1.631,3.512l0,0
				C547.009,215.197,545.429,214.463,544.911,213.048z"/>
		</g>
		<g>
			<g>
				<g>
					<g>
						<path style="fill:#CC8B6E;" d="M481.613,308.313c0.286,2.122,9.502,26.795,9.502,26.795l2.784-0.019
							c0,0,2.133-20.762-3.624-26.404C490.275,308.685,481.527,307.681,481.613,308.313z"/>
					</g>
				</g>
			</g>
			<g>
				<g>
					<path style="fill:#CC8B6E;" d="M493.947,334.575c0,0,1.348,3.986-0.334,4.751c-1.206,0.549-9.652-0.792-8.168-2.191
						c0.915-0.863,3.713-0.504,5.671-2.027C493.07,333.585,493.947,334.575,493.947,334.575z"/>
				</g>
			</g>
			<g>
				<g>
					<g>
						<path style="fill:#CC8B6E;" d="M498.166,307.041c0.286,2.122,9.503,26.795,9.503,26.795l2.784-0.02
							c0,0,2.134-20.763-3.624-26.404C506.828,307.413,498.081,306.409,498.166,307.041z"/>
					</g>
				</g>
			</g>
			<g>
				<g>
					<path style="fill:#CC8B6E;" d="M510.5,333.303c0,0,1.348,3.986-0.334,4.751c-1.205,0.549-9.651-0.792-8.168-2.191
						c0.915-0.864,3.712-0.504,5.671-2.027C509.623,332.313,510.5,333.303,510.5,333.303z"/>
				</g>
			</g>
			<path style="fill:#CC8B6E;" d="M490.549,248.316c0,0,7.314,5.754-0.421,9.968c-7.733,4.212-16.836,7.522-17.431,3.172
				C472.102,257.107,486.979,249.505,490.549,248.316z"/>
			<path style="fill:#CC8B6E;" d="M529.1,237.059c0,0-10.097,8.532-14.017,10.457c-2.761,1.356-11.296,2.628-11.296,2.628v0.001
				c-0.953-0.47-1.915-0.858-2.763-1.205c-4.116-1.705-12.624-2.316-13.84,4.322c-1.036,5.617,1.007,12.911-2.208,21.536
				c-0.178,0.503-5.995,10.066-5.069,22.991c0.795,11.203,12.336,3.722,13.722-3.761c0.166,2.798,0.41,5.979,0.761,9.47
				c1.038,10.221,12.466-4.796,10.304-24.042c0.015-0.006,0.023-0.006,0.023-0.012c0,0-0.008,0.007-0.023,0.007
				c-0.015-0.175-0.038-0.333-0.055-0.514c-0.376-6.771-0.898-11.105,2.48-17.104c0.092-0.163,0.171-0.319,0.255-0.477
				c3.978-2.499,8.939-5.75,10.457-7.325c2.539-2.633,9.322-10.307,12.617-14.557c1.294-1.668,6.255-4.578,6.326-5.58
				C537.002,230.741,529.1,237.059,529.1,237.059z"/>
			<path style="fill:#7F8344;" d="M483.867,277.027c7.397,5.432,16.909,3.743,20.927,2.887c1.099,9.687,3.687,23.44,4.431,28.434
				c-3.246,1.182-12.372,2.736-13.314,2.736c-2.714-10.412-2.713-11.032-2.877-13.829c-0.596,3.225,0,0,0.163,13.234
				c-1.142,0.802-9.525-0.291-11.984-2.141c-0.119-1.002-1.245-9.646-1.306-10.559C479.229,288.291,482.178,280.626,483.867,277.027
				z"/>
			<path style="fill:#D65838;" d="M501.909,249.299c0,0-5.03,10.626-12.414,9.016c-2.211-0.488-4.981-3.028,1.827-10.593
				l-3.565,1.141c0,0-4.427,6.984-6.542,18.121c-2.117,11.138-0.947,18.517-0.947,18.517s1.894,1.908,12.08,2.827
				c4.547,0.407,10.926-0.385,14.279-1.434c0,0-2.67-14.587-1.849-18.936c0,0-6.038-0.009-5.404-8.08
				c0.53-6.66,4.671-9.773,4.671-9.773L501.909,249.299z"/>
			<path style="fill:#CC8B6E;" d="M476.796,263.277c0,0-8.154,1.465-17.575-11.48c-9.421-12.944-6.272-13.571-5.755-13.348
				c0.75,0.324,3.693,1.289,4.69,5.206c0.995,3.917,9.711,8.527,9.711,8.527S477.451,256.447,476.796,263.277z"/>
			<g style="opacity:0.3;">
				<path style="fill:#892F17;" d="M492.348,288.327c4.547,0.407,10.926-0.385,14.279-1.434c0,0-2.67-14.587-1.849-18.936
					c0,0-1.704-0.426-2.299-0.57c0.919,8.189-10.349,13.13-22.515,13.856c0.064,2.715,0.304,4.257,0.304,4.257
					S482.162,287.409,492.348,288.327z"/>
			</g>
			<path style="fill:#7F8344;" d="M480.84,285.876c0,0,11.275,4.597,25.028,1.236l0.173,1.827c0,0-12.865,4.719-25.688-1.036
				L480.84,285.876z"/>
			<g>
				<g>
					<g>
						<g>
							<g>
								<path style="fill:#CC8B6E;" d="M496.711,242.65c0,0-5.878,1.311-5.551,1.81c0.329,0.498-0.245,1.503-0.26,2.476
									c-0.019,1.055-0.694,2.173-1.599,3.239c-0.634,0.746,0.492,1.638,1.494,1.833c4.315,0.843,7.04-0.832,6.127-2.282
									C494.873,246.466,496.711,242.65,496.711,242.65z"/>
							</g>
						</g>
					</g>
				</g>
			</g>
			<g>
				<g>
					<g>
						<g>
							<g>
								<g>
									<g>
										<path style="fill:#C1775D;" d="M490.901,246.936c0.015-0.973,0.588-1.978,0.26-2.476
											c-0.327-0.499,6.014-1.912,6.014-1.912s-0.962,1.023-1.126,2.56c-1.867,1.694-3.908,2.565-5.499,3.209
											C490.746,247.889,490.894,247.317,490.901,246.936z"/>
									</g>
								</g>
							</g>
						</g>
					</g>
				</g>
			</g>
			<g>
				<g>
					<g>
						<g>
							<g>
								<g>
									<g>
										<g>
											<g>
												<g>
													<path style="fill:#CC8B6E;" d="M490.608,234.616c-2.469,1.938-4.575,8.63-1.991,11.818
														c1.419,1.751,6.583-0.109,9.004-3.92c0.315-0.495,1.087-3.33-0.203-6.421
														C496.84,234.693,493.175,232.602,490.608,234.616z"/>
												</g>
											</g>
										</g>
									</g>
								</g>
							</g>
						</g>
					</g>
				</g>
			</g>
			<g>
				<g>
					<g>
						<g>
							<g>
								<g>
									<g>
										<g>
											<path style="fill:#53424D;" d="M487.757,239.886c0.003,0.411,0.555-4.048,2.969-4.35c0.981-0.123,0.76,0.951,1.9,1.039
												c0.973,0.075,3.889-1.958,2.766,4.06c-0.054,0.289,0.21,0.629,0.338,0.889c0.159,0.32-0.336,1.052-0.328,1.411
												c0.007,0.347,1.011-0.717,0.991-0.372c-0.032,0.553-0.411,1.046-0.456,1.602c-0.081,1.019,0.766,0.448,1.107-0.034
												c0.466-0.661,0.933-1.321,1.4-1.981c0.237-0.336,0.459-0.65,0.555-1.05c0.041-0.168,0.165-0.994,0.305-1.048
												c0.288-0.112,0.603-0.152,0.909-0.117c0.003-0.884-0.101-1.778-0.416-2.604c-0.314-0.826-0.851-1.583-1.59-2.068
												c0.33,0.032,0.662,0.034,0.993,0.009c0.056-0.004,0.117-0.012,0.155-0.052c0.076-0.079,0.013-0.207-0.053-0.294
												c-0.48-0.631-1.057-1.188-1.703-1.648c-0.391-0.277-1.502-1.094-2.025-0.879c0.198-0.081,0.368-0.226,0.48-0.408
												c-1.365-0.087-2.741-0.015-4.09,0.213c0.259-0.336,0.486-0.698,0.676-1.078c-1.16,0.275-2.279,0.832-3.07,1.724
												c-0.901,1.015-1.12,2.225-0.965,3.532c0.034,0.282-0.072,0.325-0.185,0.525c-0.154,0.274-0.242,0.605-0.332,0.909
												C487.887,238.49,487.751,239.183,487.757,239.886z"/>
										</g>
									</g>
								</g>
							</g>
						</g>
					</g>
				</g>
			</g>
			<g>
				<g>
					<g>
						<g>
							<g>
								<g>
									<g>
										<path style="fill:#CC8B6E;" d="M494.789,242.128c0,0,1.783-1.629,2.766-1.16c0.984,0.471-0.397,3.251-2.427,2.867
											C493.102,243.451,494.241,242.568,494.789,242.128z"/>
									</g>
								</g>
							</g>
						</g>
					</g>
				</g>
			</g>
		</g>
		<g>
			<g>
				<g>
					<g>
						<path style="fill:#1E100C;" d="M493.281,241.507c0.047-0.023-0.052,0.021-0.07,0.027c-0.077,0.025-0.153,0.046-0.236,0.052
							c-0.314,0.022-0.452-0.187-0.521-0.454c-0.043-0.167-0.307-0.079-0.264,0.087c0.153,0.592,0.703,0.776,1.247,0.511
							C493.597,241.652,493.439,241.429,493.281,241.507L493.281,241.507z"/>
					</g>
				</g>
			</g>
			<g>
				<g>
					<g>
						<path style="fill:#1E100C;" d="M490.397,240.41c-0.075,0.068-0.171,0.127-0.265,0.166c-0.309,0.127-0.477-0.066-0.583-0.341
							c-0.062-0.162-0.327-0.076-0.264,0.087c0.125,0.324,0.354,0.618,0.753,0.559c0.214-0.032,0.414-0.154,0.57-0.294
							C490.738,240.47,490.526,240.293,490.397,240.41L490.397,240.41z"/>
					</g>
				</g>
			</g>
			<g>
				<g>
					<path style="fill:#552B19;" d="M489.926,238.981c0.458-0.084,0.817,0.154,0.972,0.588c0.073,0.204,0.379,0.068,0.307-0.134
						c-0.205-0.574-0.718-0.898-1.331-0.785C489.663,238.689,489.713,239.02,489.926,238.981L489.926,238.981z"/>
				</g>
			</g>
			<g>
				<g>
					<path style="fill:#552B19;" d="M492.584,240.165c0.418-0.205,0.828-0.074,1.096,0.303c0.125,0.176,0.383-0.037,0.259-0.212
						c-0.353-0.497-0.934-0.67-1.494-0.396C492.251,239.955,492.39,240.259,492.584,240.165L492.584,240.165z"/>
				</g>
			</g>
			<g>
				<g>
					<path style="fill:#C1775D;" d="M491.444,240.187c0.051,0.303,0.05,0.646-0.074,0.928c-0.181,0.411-0.688,0.538-0.998,0.857
						c-0.426,0.437-0.103,0.773,0.464,1.015c0.137,0.058,0.228-0.112,0.092-0.171c-1.271-0.542,0.353-1.025,0.625-1.549
						c0.17-0.328,0.184-0.73,0.123-1.092C491.655,240.051,491.424,240.063,491.444,240.187L491.444,240.187z"/>
				</g>
			</g>
			<g>
				<path style="fill:#FAFFFF;" d="M491.874,243.686c0,0-0.057,1.151-1.005,1.038c-0.947-0.113-0.924-1.148-0.924-1.148
					L491.874,243.686z"/>
			</g>
			<g>
				<path style="fill:#C1775D;" d="M493.747,243.55c-0.157,0.323-0.546,0.458-0.869,0.301c-0.323-0.157-0.458-0.546-0.301-0.869
					c0.157-0.323,0.546-0.458,0.869-0.301C493.769,242.838,493.904,243.227,493.747,243.55z"/>
			</g>
			<g>
				<path style="fill:#C1775D;" d="M488.487,241.344c0.31-0.19,0.715-0.093,0.905,0.217c0.19,0.31,0.093,0.715-0.217,0.906
					c-0.31,0.19-0.715,0.093-0.905-0.217C488.081,241.939,488.177,241.534,488.487,241.344z"/>
			</g>
		</g>
	</g>
	<g>
		<g>
			<g>
				<path style="fill:#CC8B6E;" d="M270.582,225.729c0,0-1.811-11.047-6.491-14.508c-4.681-3.462-8.305-0.38-8.305-0.38
					s8.702,10.44,9.16,16.719C265.402,233.838,270.582,225.729,270.582,225.729z"/>
			</g>
		</g>
	</g>
	<g>
		<g>
			<g>
				<path style="fill:#696B32;" d="M252.46,203.93c7.529-4.27,16.55,12.082,16.55,12.082l-7.142,6.015
					C261.869,222.026,245.12,208.093,252.46,203.93z"/>
			</g>
		</g>
	</g>
	<g>
		<g>
			<g>
				<polygon style="fill:#FFC662;" points="234.635,259.83 264.755,238.583 264.162,234.232 235.524,232.059 				"/>
			</g>
		</g>
	</g>
	<g>
		<g>
			<g>
				<path style="fill:#7F8344;" d="M260.655,207.914c-1.937-6.203-11.27-6.523-18.862-5.373c-5.118,0.775-8.411,2.437-8.979,8.829
					c-0.363,4.076,0.759,21.908,3.257,26.63c0,0,8.716,4.88,28.142-1.106C264.212,236.894,264.794,221.171,260.655,207.914z"/>
			</g>
		</g>
	</g>
	<g>
		<g>
			<g>
				<path style="fill:#EAAD49;" d="M234.908,239.108c0,0,18.485,3.581,30.044-1.933l-0.789-2.944c0,0-13.187,4.803-28.961,1.495
					L234.908,239.108z"/>
			</g>
		</g>
	</g>
	<g>
		<g>
			<g>
				<polygon style="fill:#FFC662;" points="244.107,236.121 245.753,236.121 246.14,241.044 243.432,241.044 				"/>
			</g>
		</g>
	</g>
	<g>
		<g>
			<g>
				<polygon style="fill:#FFC662;" points="255.585,235.553 256.775,235.18 258.813,239.695 256.367,240.461 				"/>
			</g>
		</g>
	</g>
	<g>
		<g>
			<g>
				<g>
					<g>
						<g>
							<path style="fill:#CC8B6E;" d="M242.606,194.292c0,0,7.818,1.679,7.383,2.318c-0.437,0.638,0.326,1.925,0.345,3.171
								c0.025,1.351,0.923,2.783,2.126,4.148c0.843,0.956-0.655,2.098-1.987,2.348c-5.74,1.079-9.363-1.066-8.15-2.923
								C245.051,199.181,242.606,194.292,242.606,194.292z"/>
						</g>
					</g>
				</g>
			</g>
		</g>
	</g>
	<g>
		<g>
			<g>
				<g>
					<g>
						<g>
							<g>
								<g>
									<path style="fill:#8B482A;" d="M250.334,199.782c-0.02-1.246-0.783-2.533-0.345-3.171c0.435-0.639-8-2.449-8-2.449
										s1.28,1.31,1.499,3.278c2.343,3.168,5.686,4.148,7.802,4.973C250.751,201.669,250.343,200.27,250.334,199.782z"/>
								</g>
							</g>
						</g>
					</g>
				</g>
			</g>
		</g>
	</g>
	<g>
		<g>
			<g>
				<g>
					<g>
						<g>
							<g>
								<g>
									<g>
										<g>
											<g>
												<path style="fill:#CC8B6E;" d="M250.473,185.28c3.076,2.325,5.7,10.353,2.481,14.177
													c-1.768,2.101-8.201-0.13-11.218-4.702c-0.393-0.595-1.354-3.995,0.253-7.704
													C242.71,185.373,247.275,182.864,250.473,185.28z"/>
											</g>
										</g>
									</g>
								</g>
							</g>
						</g>
					</g>
				</g>
			</g>
		</g>
	</g>
	<g>
		<g>
			<g>
				<g>
					<g>
						<g>
							<g>
								<g>
									<g>
										<path style="fill:#53424D;" d="M254.026,191.602c-0.004,0.493-0.691-4.856-3.699-5.219
											c-1.222-0.147-0.948,1.141-2.367,1.246c-1.212,0.09-4.845-2.349-3.447,4.87c0.067,0.347-0.261,0.755-0.421,1.067
											c-0.198,0.383,0.419,1.261,0.41,1.693c-0.009,0.416-1.259-0.86-1.234-0.446c0.037,0.63,1.126,2.385,0.221,2.626
											c-0.438,0.117-0.973-0.589-1.294-0.827c-0.908-0.671-1.92-1.136-2.688-1.994c-0.847-0.947-1.316-2.183-1.534-3.434
											c-0.215-1.238-0.191-2.552,0.314-3.704c0.526-1.201,1.577-2.162,2.821-2.578c0.733-0.246,1.569-0.269,2.267-0.611
											c0.617-0.302,1.291-0.38,1.914-0.683c0.496-0.241,0.677-0.544,1.001-0.957c0.706-0.899,1.837-1.478,2.979-1.423
											c1.142,0.055,2.25,0.786,2.661,1.853c0.232,0.602,0.316,1.369,0.895,1.654c0.21,0.104,0.458,0.122,0.657,0.246
											c0.189,0.118,0.311,0.317,0.409,0.517c0.516,1.052,0.551,2.298,0.264,3.434c-0.115,0.454-0.281,0.909-0.248,1.384
											C253.936,190.747,254.029,191.163,254.026,191.602z"/>
									</g>
								</g>
							</g>
						</g>
					</g>
				</g>
			</g>
		</g>
	</g>
	<g>
		<g>
			<g>
				<g>
					<g>
						<g>
							<g>
								<g>
									<path style="fill:#CC8B6E;" d="M245.265,194.292c0,0-2.221-1.955-3.446-1.392c-1.227,0.566,0.495,3.901,3.024,3.439
										C247.366,195.879,245.947,194.82,245.265,194.292z"/>
								</g>
							</g>
						</g>
					</g>
				</g>
			</g>
		</g>
	</g>
	<g>
		<g>
			<path style="fill:#4E5487;" d="M263.884,309.404c0,0,1.155,1.351,2.514,3.178c1.359,1.828,2.378,3.734,0.476,4.608
				c-1.902,0.874-4.212-1.271-4.959-2.543c-0.747-1.271-1.595-1.133-2.623-1.978c-1.042-0.857-0.487-3.978-0.487-3.978
				L263.884,309.404z"/>
		</g>
	</g>
	<g>
		<g>
			<g>
				<path style="fill:#FFC662;" d="M246.42,249.351c2.779,3.516,12.031,60.16,12.031,60.16c2.779,2.336,6.949,0,6.949,0
					c3.011-28.883-0.715-71.783-0.715-71.783S243.64,252.867,246.42,249.351L246.42,249.351z"/>
			</g>
		</g>
	</g>
	<g>
		<g>
			<g>
				<path style="fill:#4E5487;" d="M236.174,310.334c0,0-1.155,1.351-2.514,3.178c-1.359,1.828-2.378,3.734-0.475,4.608
					c1.902,0.874,4.212-1.271,4.959-2.543c0.747-1.271,1.595-1.133,2.622-1.978c1.043-0.857,0.487-3.978,0.487-3.978
					L236.174,310.334z"/>
			</g>
		</g>
	</g>
	<g>
		<g>
			<g>
				<path style="fill:#FFC662;" d="M253.639,250.281c-2.78,3.516-12.031,60.159-12.031,60.159c-2.779,2.337-6.949,0-6.949,0
					c-3.011-28.883,0.249-71.332,0.249-71.332S256.418,253.797,253.639,250.281L253.639,250.281z"/>
			</g>
		</g>
	</g>
	<g>
		<g>
			<g>
				<g>
					<g>
						<path style="fill:#1E100C;" d="M247.609,193.409c-0.057-0.029,0.064,0.027,0.086,0.034c0.095,0.032,0.189,0.06,0.289,0.069
							c0.387,0.034,0.562-0.221,0.652-0.549c0.057-0.206,0.381-0.092,0.324,0.112c-0.201,0.727-0.884,0.944-1.55,0.605
							C247.215,193.582,247.415,193.311,247.609,193.409L247.609,193.409z"/>
					</g>
				</g>
			</g>
		</g>
		<g>
			<g>
				<g>
					<g>
						<path style="fill:#1E100C;" d="M251.19,192.114c0.091,0.085,0.208,0.161,0.324,0.21c0.379,0.163,0.59-0.072,0.726-0.409
							c0.08-0.199,0.404-0.087,0.324,0.113c-0.161,0.398-0.45,0.756-0.94,0.675c-0.264-0.043-0.508-0.198-0.697-0.374
							C250.768,192.181,251.033,191.967,251.19,192.114L251.19,192.114z"/>
					</g>
				</g>
			</g>
		</g>
		<g>
			<g>
				<g>
					<path style="fill:#552B19;" d="M251.8,190.359c-0.564-0.113-1.011,0.173-1.212,0.707c-0.094,0.25-0.469,0.076-0.376-0.171
						c0.265-0.705,0.904-1.094,1.659-0.943C252.131,190.004,252.061,190.412,251.8,190.359L251.8,190.359z"/>
				</g>
			</g>
		</g>
		<g>
			<g>
				<g>
					<path style="fill:#552B19;" d="M248.495,191.767c-0.512-0.261-1.021-0.108-1.358,0.352c-0.158,0.215-0.473-0.053-0.316-0.267
						c0.446-0.607,1.166-0.808,1.852-0.459C248.91,191.515,248.733,191.888,248.495,191.767L248.495,191.767z"/>
				</g>
			</g>
		</g>
		<g>
			<g>
				<g>
					<path style="fill:#8B482A;" d="M249.901,191.817c-0.069,0.373-0.075,0.797,0.073,1.147c0.215,0.511,0.839,0.678,1.215,1.077
						c0.517,0.548,0.111,0.956-0.593,1.243c-0.17,0.069-0.279-0.144-0.11-0.213c1.579-0.644-0.415-1.271-0.74-1.924
						c-0.203-0.408-0.212-0.905-0.13-1.351C249.644,191.645,249.93,191.665,249.901,191.817L249.901,191.817z"/>
				</g>
			</g>
		</g>
		<g>
			<g>
				<path style="fill:#FAFFFF;" d="M249.302,196.128c0,0,0.048,1.422,1.219,1.301c1.171-0.12,1.164-1.399,1.164-1.399
					L249.302,196.128z"/>
			</g>
		</g>
		<g>
			<g>
				<path style="fill:#C1775D;" d="M247.052,196.01c0.187,0.402,0.665,0.576,1.067,0.389c0.402-0.187,0.576-0.664,0.389-1.066
					c-0.187-0.402-0.665-0.576-1.067-0.389C247.039,195.13,246.865,195.608,247.052,196.01z"/>
			</g>
		</g>
		<g>
			<g>
				<path style="fill:#C1775D;" d="M253.528,193.304c-0.379-0.241-0.881-0.129-1.122,0.25c-0.241,0.379-0.129,0.881,0.249,1.122
					c0.379,0.241,0.881,0.129,1.122-0.25C254.018,194.047,253.907,193.545,253.528,193.304z"/>
			</g>
		</g>
	</g>
	<g>
		<g>
			<g>
				<g>
					<g>
						<g>
							<g>
								<g>
									<g>
										<path style="fill:#CC8B6E;" d="M270.213,223.995c1.477,4.412-0.492,16.753-0.492,16.753l-2.892-2.186l-2.506-14.628
											C264.323,223.934,268.732,219.583,270.213,223.995z"/>
									</g>
								</g>
							</g>
						</g>
					</g>
				</g>
			</g>
		</g>
	</g>
	<g>
		<g>
			<path style="fill:#CC8B6E;" d="M266.366,238.111c-0.276,0.281-0.746,0.415-1.077,0.615c-0.66,0.399-1.159,0.992-1.639,1.584
				c-0.267,0.329-1.218,0.706-1.092,1.238c0.206,0.871,1.616-0.188,1.999-0.305c0.352-0.108,0.796-0.056,0.997,0.252
				c0.133,0.203,0.129,0.465,0.107,0.707c-0.069,0.772-0.262,1.524-0.409,2.283c-0.077,0.395-0.126,0.789-0.178,1.187
				c-0.039,0.297-0.208,0.68-0.169,0.972c0.031,0.232,0.265,0.454,0.51,0.364c0.22-0.081,0.194-0.309,0.254-0.498
				c0.134-0.424,0.28-0.844,0.43-1.262c0.033-0.092,0.123-0.531,0.226-0.567c0.5-0.172,0.274,1.009,0.247,1.198
				c-0.069,0.474-0.122,0.973,0.099,1.421c0.029,0.059,0.07,0.12,0.135,0.133c0.101,0.021,0.179-0.087,0.221-0.182
				c0.247-0.557,0.284-1.191,0.544-1.743c0.042-0.09,0.108-0.189,0.207-0.194c0.398-0.02,0.412,0.779,0.439,1.04
				c0.017,0.165,0.055,0.369,0.214,0.415c0.104,0.03,0.218-0.03,0.282-0.117c0.065-0.087,0.091-0.196,0.117-0.301
				c0.074-0.31,0.18-0.628,0.214-0.945c0.017-0.153,0.027-0.61,0.237-0.632c0.041-0.004,0.081,0.019,0.111,0.047
				c0.111,0.102,0.137,0.264,0.177,0.409c0.041,0.145,0.128,0.303,0.277,0.325c0.185,0.027,0.32-0.169,0.387-0.344
				c0.239-0.626,0.253-1.34,0.298-2.003c0.047-0.708,0.062-1.419,0.045-2.129c-0.023-0.943-0.102-1.885-0.237-2.818
				c-0.118-0.814-0.308-1.74-0.957-2.313c-0.183-0.161-0.396-0.284-0.612-0.399c-0.283-0.151-0.576-0.294-0.891-0.353
				c-0.315-0.06-0.659-0.029-0.928,0.146c-0.036,0.024-0.073,0.051-0.094,0.09c-0.027,0.049-0.025,0.108-0.022,0.164
				c0.022,0.427,0.07,0.856,0.031,1.283C266.828,237.291,266.688,237.728,266.366,238.111z"/>
		</g>
	</g>
	<g>
		<path style="fill:#3D446D;" d="M253.149,272.473h79.358c2.75,0,5-2.25,5-5v-52.348c0-2.75-2.25-5-5-5h-79.358c-2.75,0-5,2.25-5,5
			v52.349C248.149,270.223,250.399,272.473,253.149,272.473z"/>
		<path style="fill:#4E5487;" d="M255.752,272.473h79.358c2.75,0,5-2.25,5-5v-52.348c0-2.75-2.25-5-5-5h-79.358c-2.75,0-5,2.25-5,5
			v52.348C250.752,270.223,253.002,272.473,255.752,272.473z"/>
		<rect x="250.752" y="221.871" style="fill:#FBC96A;" width="89.358" height="11.281"/>
		<path style="fill:#AACEF2;" d="M262.896,238.575h64.862c0.716,0,1.302-0.586,1.302-1.302l0,0c0-0.716-0.586-1.302-1.302-1.302
			h-64.862c-0.716,0-1.302,0.586-1.302,1.302l0,0C261.594,237.989,262.18,238.575,262.896,238.575z"/>
		<path style="opacity:0.2;fill:#FFFFFF;" d="M333.602,272.473h-32.951l-49.899-35.865v-19.976c0-3.579,2.929-6.508,6.508-6.508
			h18.329l64.521,44.478v11.363C340.11,269.545,337.181,272.473,333.602,272.473z"/>
	</g>
	<g>
		<g>
			<g>
				<g>
					<path style="fill:#CC8B6E;" d="M229.927,231.54c0,0-2.196-10.978,0.966-15.866c3.161-4.888,7.639-3.281,7.639-3.281
						s-4.467,12.836-2.684,18.873C237.631,237.304,229.927,231.54,229.927,231.54z"/>
				</g>
			</g>
		</g>
		<g>
			<g>
				<g>
					<path style="fill:#696B32;" d="M239.209,204.754c-8.551-1.345-11.234,17.137-11.234,17.137l8.802,3.114
						C236.777,225.005,247.546,206.065,239.209,204.754z"/>
				</g>
			</g>
		</g>
		<g>
			<g>
				<g>
					<g>
						<g>
							<g>
								<g>
									<g>
										<g>
											<path style="fill:#CC8B6E;" d="M231.376,233.134c4.004,2.371,16.167,4.42,16.167,4.42l-1.247-3.404l-13.765-6.921
												C232.531,227.229,227.3,230.72,231.376,233.134z"/>
										</g>
									</g>
								</g>
							</g>
						</g>
					</g>
				</g>
			</g>
		</g>
		<g>
			<g>
				<path style="fill:#CC8B6E;" d="M246,233.575c0.35-0.182,0.615-0.592,0.903-0.851c0.574-0.515,1.287-0.819,1.993-1.106
					c0.393-0.159,1.031-0.959,1.504-0.684c0.773,0.451-0.651,1.49-0.876,1.823c-0.206,0.305-0.286,0.745-0.05,1.028
					c0.156,0.186,0.407,0.258,0.645,0.309c0.758,0.16,1.534,0.195,2.303,0.275c0.4,0.042,0.791,0.11,1.187,0.177
					c0.296,0.05,0.711,0,0.979,0.122c0.212,0.097,0.356,0.386,0.198,0.594c-0.141,0.187-0.352,0.095-0.55,0.097
					c-0.444,0.005-0.889,0.022-1.333,0.043c-0.098,0.004-0.544-0.038-0.608,0.05c-0.31,0.428,0.886,0.556,1.074,0.585
					c0.474,0.073,0.966,0.167,1.33,0.51c0.048,0.045,0.094,0.102,0.088,0.167c-0.01,0.103-0.136,0.146-0.238,0.159
					c-0.605,0.073-1.222-0.075-1.826,0.012c-0.099,0.014-0.212,0.048-0.246,0.141c-0.135,0.375,0.625,0.621,0.866,0.723
					c0.153,0.064,0.337,0.16,0.334,0.326c-0.002,0.109-0.092,0.199-0.194,0.236c-0.102,0.036-0.214,0.03-0.322,0.024
					c-0.318-0.019-0.654-0.012-0.967-0.071c-0.151-0.029-0.591-0.153-0.674,0.042c-0.016,0.038-0.006,0.083,0.012,0.12
					c0.065,0.136,0.212,0.207,0.339,0.289c0.127,0.082,0.253,0.211,0.23,0.36c-0.028,0.185-0.255,0.257-0.442,0.27
					c-0.669,0.046-1.356-0.149-2.003-0.3c-0.691-0.162-1.376-0.355-2.05-0.578c-0.895-0.297-1.773-0.648-2.626-1.05
					c-0.744-0.351-1.575-0.802-1.934-1.59c-0.101-0.222-0.155-0.462-0.203-0.701c-0.062-0.315-0.113-0.637-0.078-0.955
					c0.035-0.319,0.164-0.639,0.41-0.845c0.033-0.028,0.071-0.055,0.113-0.064c0.055-0.012,0.111,0.007,0.163,0.027
					c0.402,0.146,0.799,0.317,1.218,0.404C245.081,233.777,245.54,233.771,246,233.575z"/>
			</g>
		</g>
	</g>
	<g>
		<g>
			<g>
				<path style="fill:#946748;" d="M121.254,280.029c-0.813,0.279-8.447,5.806-11.065,4.591c-1.898-0.88-0.788-7.45-0.788-7.45
					s2.299,1.698,8.022-3.478C122.243,269.33,121.254,280.029,121.254,280.029z"/>
			</g>
			<g>
				<g>
					<g>
						<g>
							<g>
								<g>
									<g>
										<path style="fill:#946748;" d="M104.12,274.309c0,0-5.438-5.884-6.04-6.305c-3.856-2.693-5.22-4.768-5.433-3.856
											c-0.393,1.678,3.262,5.794,3.798,6.42c0.66,0.765,2.48,2.563,3.192,3.111C100.348,274.228,104.12,274.309,104.12,274.309z
											"/>
									</g>
								</g>
							</g>
						</g>
					</g>
				</g>
				<g>
					<g>
						<g>
							<g>
								<g>
									<g>
										<path style="fill:#946748;" d="M109.467,284.263c-4.167-2.37-13.05-13.686-13.05-13.686l3.14-0.347l13.453,9.487
											C113.01,279.716,113.635,286.629,109.467,284.263z"/>
									</g>
								</g>
							</g>
						</g>
					</g>
				</g>
			</g>
			<g>
				<path style="fill:#89B8E0;" d="M130.129,267.398c3.096-1.237,6.487-1.257,7.693,1.352c0.684,1.48-0.438,4.548-2.02,5.983
					c-3.04,2.757-11.326,7.723-18.339,8.614c-2.569,0.326-6.553-5.06-3.072-7.804C118.962,271.939,125.771,269.14,130.129,267.398z"
					/>
			</g>
			<g>
				<g>
					<path style="fill:#AACEF2;" d="M115.531,274.561c-1.363,3.479,0.502,6.869,3.616,8.424c0.409,0.204,0.157,0.89-0.256,0.684
						c-3.455-1.725-5.546-5.49-4.025-9.37C115.037,273.862,115.703,274.123,115.531,274.561L115.531,274.561z"/>
				</g>
			</g>
		</g>
		<g>
			<path style="fill:#946748;" d="M78.906,312.532c0,0-4.919,0.76-7.423-2.018c-2.505-2.777-3.311-4.438-2.934-7.679
				c0.165-1.424,1.951,0.377,3.536,2.218c4.009,4.656,7.328,3.367,7.328,3.367L78.906,312.532z"/>
		</g>
		<g>
			<path style="fill:#3F302D;" d="M75.419,312.466c0,0-7.123-5.941-4.271-8.479c0,0-1.237-2.515-2.55-1.667
				c-1.313,0.847-0.686,4.196,0.843,6.308c2.281,3.152,2.063,2.776,2.543,3.217C73.808,313.52,75.419,312.466,75.419,312.466z"/>
		</g>
		<g>
			<path style="fill:#E1A139;" d="M152.708,311.23c-1.748,3.25-3.845,5.407-16.094,3.96c-12.249-1.446-21.663-1.169-28.543-0.895
				c-7.796,0.311-10.296,4.748-30.861-0.928c-0.565-0.156-1.047-0.531-1.35-1.032c-0.263-0.436-0.548-0.991-0.669-1.516
				c-0.007-0.032-0.014-0.063-0.02-0.094c-0.251-1.237,0.614-2.424,1.86-2.628c5.793-0.947,26.806-4.354,32.559-4.928
				c6.693-0.668,32.783-11.606,35.177-10.02C149.89,296.541,157.284,302.724,152.708,311.23z"/>
		</g>
		<g>
			<g>
				<path style="fill:#FBC96A;" d="M127.844,299.908c-17.098,5.511-34.579,8.016-52.425,9.603c-0.428,0.038-0.432,0.711,0,0.672
					c17.902-1.592,35.448-4.097,52.604-9.627C128.433,300.424,128.258,299.774,127.844,299.908L127.844,299.908z"/>
			</g>
		</g>
		<g>
			<path style="fill:#FEA603;" d="M150.779,296.811c0,0,5.762,5.533,3.362,12.961c-2.399,7.427-4.926-6.48-4.926-6.48
				S147.998,299.16,150.779,296.811z"/>
		</g>
		<g>
			<path style="fill:#AACEF2;" d="M126.942,270.424c1.623-5.977,12.286-4.584,19.558-3.761c4.902,0.555,7.738,2.683,7.829,11.6
				c0.036,3.506,0.66,14.181-0.82,19.634c-0.266,0.981-1.45,2.27-2.405,2.618c-5.948,2.164-26.315,1.112-25.866-1.983
				C125.238,298.533,123.473,283.199,126.942,270.424z"/>
		</g>
		<g>
			<g>
				<g>
					<g>
						<path style="fill:#946748;" d="M144.534,258.836c0,0-7.386,1.879-6.949,2.472c0.439,0.592-0.241,1.845-0.215,3.033
							c0.024,1.288-0.779,2.684-1.877,4.027c-0.769,0.94,0.699,1.974,1.976,2.165c5.505,0.823,8.88-1.35,7.658-3.076
							C142.38,263.579,144.534,258.836,144.534,258.836z"/>
					</g>
				</g>
			</g>
		</g>
		<g>
			<g>
				<g>
					<g>
						<g>
							<g>
								<path style="fill:#80533A;" d="M137.37,264.341c-0.026-1.188,0.654-2.441,0.215-3.033c-0.437-0.593,7.532-2.619,7.532-2.619
									s-1.172,1.294-1.31,3.176c-2.287,2.155-4.832,3.315-6.819,4.176C137.218,265.51,137.378,264.806,137.37,264.341z"/>
							</g>
						</g>
					</g>
				</g>
			</g>
		</g>
		<g>
			<g>
				<g>
					<g>
						<g>
							<g>
								<g>
									<g>
										<g>
											<path style="fill:#946748;" d="M136.718,250.533c-2.847,2.324-5.059,10.065-1.856,13.593
												c1.76,1.938,7.807-0.417,10.517-4.88c0.353-0.58,1.147-3.853-0.516-7.328
												C144.116,250.343,139.678,248.117,136.718,250.533z"/>
										</g>
									</g>
								</g>
							</g>
						</g>
					</g>
				</g>
			</g>
		</g>
		<g>
			<g>
				<g>
					<g>
						<g>
							<g>
								<g>
									<path style="fill:#552B19;" d="M133.561,256.682c0.022,0.469,0.485-4.65,3.337-5.103c1.16-0.184,0.943,1.053,2.299,1.102
										c1.157,0.042,4.531-2.41,3.457,4.516c-0.052,0.333,0.276,0.71,0.439,1.001c0.203,0.358-0.353,1.216-0.329,1.627
										c0.023,0.396,1.168-0.865,1.16-0.469c-0.012,0.601-0.987,2.312-0.116,2.509c1.038,0.234,2.214-3.235,2.544-6.451
										c0.085-0.827,0.655-4.056,0.68-4.749c0.053-1.475-7.259-3.41-10.431-3.288c-1.873,0.072-1.255,2.621-1.823,4.242
										C134.219,253.208,133.478,254.889,133.561,256.682z"/>
								</g>
							</g>
						</g>
					</g>
				</g>
			</g>
		</g>
		<g>
			<g>
				<g>
					<g>
						<g>
							<g>
								<path style="fill:#946748;" d="M142.001,258.93c0,0,2.046-1.941,3.232-1.449c1.188,0.495-0.332,3.733-2.757,3.384
									C140.057,260.517,141.37,259.458,142.001,258.93z"/>
							</g>
						</g>
					</g>
				</g>
			</g>
		</g>
		<g>
			<path style="fill:#552B19;" d="M136.033,250.154c0.02,0.544-0.404,1.003-0.949,1.023c-0.545,0.02-1.003-0.404-1.023-0.949
				c-0.02-0.545,0.405-1.003,0.949-1.023C135.555,249.185,136.013,249.61,136.033,250.154z"/>
		</g>
		<g>
			<path style="fill:#552B19;" d="M138.025,247.907c0.038,1.023-0.76,1.883-1.782,1.921c-1.023,0.038-1.883-0.76-1.921-1.782
				c-0.038-1.023,0.76-1.883,1.782-1.921C137.127,246.087,137.987,246.885,138.025,247.907z"/>
		</g>
		<g>
			<path style="fill:#552B19;" d="M141.461,249.217c-0.94,1.013-2.523,1.072-3.536,0.133c-1.013-0.94-1.072-2.523-0.133-3.536
				c0.94-1.013,2.523-1.072,3.536-0.133C142.342,246.621,142.401,248.204,141.461,249.217z"/>
		</g>
		<g>
			<path style="fill:#552B19;" d="M144.869,248.054c0.037,0.975-0.724,1.795-1.699,1.832c-0.975,0.037-1.795-0.724-1.832-1.699
				c-0.036-0.975,0.724-1.795,1.699-1.832C144.013,246.318,144.833,247.079,144.869,248.054z"/>
		</g>
		<g>
			<path style="fill:#552B19;" d="M148.466,250.123c0.046,1.216-0.903,2.238-2.118,2.284c-1.216,0.046-2.238-0.903-2.284-2.118
				c-0.046-1.216,0.903-2.238,2.118-2.284C147.398,247.959,148.42,248.908,148.466,250.123z"/>
		</g>
		<g>
			<path style="fill:#552B19;" d="M148.637,252.742c0.033,0.881-0.654,1.622-1.535,1.655c-0.881,0.033-1.622-0.654-1.655-1.536
				c-0.033-0.881,0.654-1.622,1.535-1.655C147.863,251.174,148.604,251.861,148.637,252.742z"/>
		</g>
		<g>
			<path style="fill:#552B19;" d="M147.695,254.369c0.033,0.878-0.652,1.616-1.53,1.649c-0.878,0.033-1.616-0.652-1.649-1.53
				c-0.033-0.878,0.652-1.616,1.53-1.649C146.923,252.807,147.662,253.492,147.695,254.369z"/>
		</g>
		<g>
			<path style="fill:#552B19;" d="M135.008,251.638c0.021,0.557-0.414,1.025-0.971,1.046c-0.557,0.021-1.025-0.414-1.046-0.97
				c-0.021-0.557,0.414-1.025,0.971-1.046C134.519,250.647,134.987,251.081,135.008,251.638z"/>
		</g>
		<g>
			<path style="fill:#552B19;" d="M147.855,256.368c0.028,0.737-0.548,1.357-1.285,1.385s-1.357-0.548-1.385-1.285
				c-0.028-0.737,0.548-1.357,1.285-1.385C147.207,255.055,147.828,255.631,147.855,256.368z"/>
		</g>
		<g>
			<path style="fill:#946748;" d="M106.163,319.143c0,0-2.226,3.916-5.603,4.132c-3.378,0.216-5.008-0.146-7.096-2.234
				c-0.917-0.918,1.364-1.172,3.561-1.262c5.555-0.227,6.507-3.306,6.507-3.306L106.163,319.143z"/>
		</g>
		<g>
			<path style="fill:#3F302D;" d="M104.157,321.579c0,0-8.217,1.714-8.415-1.735c0,0-2.479-0.536-2.616,0.871
				c-0.136,1.407,2.591,2.845,4.949,2.947c3.518,0.153,3.129,0.097,3.711,0.004C103.999,323.315,104.157,321.579,104.157,321.579z"
				/>
		</g>
		<g>
			<g>
				<path style="fill:#2F7EDD;" d="M121.97,285.025c1.559,3.072,4.926,2.131,7.148,0.359c0.329-0.262,0.798,0.201,0.466,0.466
					c-1.659,1.323-3.82,2.555-5.96,1.611c-0.926-0.408-1.763-1.196-2.224-2.103C121.209,284.98,121.778,284.646,121.97,285.025
					L121.97,285.025z"/>
			</g>
		</g>
		<g>
			<path style="fill:#FBC96A;" d="M122.459,297.115c0,0,15.532,16.026,19.339,18.046c2.959,1.57,9.094,3.413,11.719-4.083
				c3.874-11.065-25.081-29.819-33.138-25.387C113.071,289.709,122.459,297.115,122.459,297.115z"/>
		</g>
		<g>
			<path style="fill:#FBC96A;" d="M104.643,320.798c-2.16-0.313-3.398-2.647-2.598-4.677c2.769-7.025,14.73-29.944,19.054-30.849
				c6.638-1.389,8.182,5.43,3.773,12.537c-2.857,4.606-13.903,17.684-16.939,21.669c-0.736,0.967-1.921,1.479-3.129,1.341
				C104.751,320.813,104.697,320.806,104.643,320.798z"/>
		</g>
		<g>
			<g>
				<path style="fill:#E1A139;" d="M151.009,303.059c1.285,2.214,0.212,5.004-3.061,3.379c-1.766-0.876-3.23-3.031-4.47-4.503
					c-2.128-2.526-4.145-5.054-6.613-7.257c-3.154-2.815-8.745-7.984-13.434-6.975c-3.527,0.759-6.24,5.341-8.099,8.074
					c-5.048,7.418-9.075,15.55-13.033,23.582c-0.101,0.205,0.206,0.386,0.308,0.18c4.081-8.281,8.22-16.709,13.523-24.294
					c1.55-2.217,3.47-5.172,5.907-6.556c3.548-2.017,7.89,1.082,10.728,3.132c2.699,1.95,5.226,4.187,7.412,6.7
					c2.427,2.789,4.672,6.586,7.936,8.495c3.735,2.184,4.974-1.087,3.204-4.136C151.201,302.681,150.893,302.86,151.009,303.059
					L151.009,303.059z"/>
			</g>
		</g>
		<g>
			<g>
				<path style="fill:#618BF0;" d="M95.656,269.633c-0.082,0.105-0.063,0.256,0.042,0.338c0.105,0.082,0.256,0.063,0.338-0.042
					c0.082-0.105,0.063-0.256-0.041-0.338C95.889,269.509,95.738,269.528,95.656,269.633z"/>
			</g>
		</g>
		<g>
			<path style="fill:#946748;" d="M99.548,270.026c-0.361-0.353-2.002-5.132-2.854-4.961c-0.852,0.171,0.373,3.128,1.017,4.056
				C98.355,270.048,99.548,270.026,99.548,270.026z"/>
		</g>
		<g>
			<g>
				<g>
					<path style="fill:#1E100C;" d="M140.207,257.748c0.053-0.044-0.061,0.043-0.082,0.056c-0.092,0.056-0.184,0.108-0.288,0.141
						c-0.398,0.126-0.641-0.101-0.813-0.424c-0.108-0.203-0.421-0.008-0.314,0.194c0.38,0.716,1.148,0.784,1.768,0.273
						C140.66,257.837,140.387,257.6,140.207,257.748L140.207,257.748z"/>
				</g>
			</g>
			<g>
				<g>
					<path style="fill:#1E100C;" d="M136.144,257.225c-0.076,0.111-0.181,0.217-0.291,0.297c-0.36,0.259-0.636,0.063-0.858-0.26
						c-0.131-0.19-0.445,0.003-0.314,0.194c0.262,0.38,0.649,0.688,1.145,0.489c0.267-0.107,0.488-0.326,0.645-0.556
						C136.603,257.197,136.275,257.034,136.144,257.225L136.144,257.225z"/>
				</g>
			</g>
			<g>
				<path style="fill:#552B19;" d="M135.139,255.273c0.565-0.25,1.102-0.055,1.437,0.459c0.157,0.24,0.511-0.029,0.355-0.268
					c-0.443-0.679-1.204-0.937-1.961-0.602C134.708,254.977,134.876,255.389,135.139,255.273L135.139,255.273z"/>
			</g>
			<g>
				<path style="fill:#552B19;" d="M138.937,255.978c0.476-0.394,1.046-0.351,1.508,0.053c0.216,0.189,0.484-0.167,0.269-0.354
					c-0.61-0.533-1.413-0.576-2.051-0.049C138.442,255.81,138.715,256.161,138.937,255.978L138.937,255.978z"/>
			</g>
			<g>
				<path style="fill:#80533A;" d="M137.428,256.612c0.16,0.376,0.264,0.819,0.191,1.221c-0.107,0.587-0.722,0.908-1.024,1.415
					c-0.415,0.696,0.107,1.029,0.913,1.166c0.195,0.033,0.26-0.216,0.066-0.249c-1.808-0.307,0.139-1.432,0.327-2.193
					c0.118-0.476,0.011-1-0.18-1.448C137.658,256.372,137.363,256.46,137.428,256.612L137.428,256.612z"/>
			</g>
			<path style="fill:#FAFFFF;" d="M138.479,261.389c0,0,0.216,1.151-0.747,1.264c-0.963,0.113-1.185-0.916-1.185-0.916
				L138.479,261.389z"/>
			<path style="fill:#895033;" d="M141.399,260.348c-0.102,0.466-0.563,0.76-1.029,0.658c-0.466-0.102-0.76-0.563-0.658-1.029
				c0.102-0.466,0.563-0.76,1.029-0.658C141.207,259.422,141.501,259.883,141.399,260.348z"/>
			<path style="fill:#895033;" d="M134.274,259.196c0.341-0.341,0.895-0.341,1.236,0c0.341,0.341,0.341,0.895,0,1.236
				c-0.341,0.341-0.895,0.341-1.236,0C133.933,260.091,133.933,259.538,134.274,259.196z"/>
		</g>
		<g>
			<path style="fill:#892F17;" d="M86.546,283.392l-14.577-19.527c-1.645-2.204-1.188-5.353,1.016-6.998l29.167-21.774
				c2.204-1.645,5.353-1.188,6.998,1.016l14.577,19.527c1.645,2.204,1.188,5.353-1.016,6.998l-29.167,21.773
				C91.34,286.053,88.191,285.596,86.546,283.392z"/>
			<path style="fill:#892F17;" d="M149.657,328.448l-3.662,2.696c-0.969,0.713-2.345,0.504-3.059-0.465L99.175,271.23
				c-0.713-0.969-0.504-2.345,0.465-3.059l3.662-2.695c0.969-0.713,2.346-0.504,3.059,0.465l43.761,59.448
				C150.835,326.358,150.626,327.735,149.657,328.448z"/>
			<path style="fill:#892F17;" d="M165.742,313.486l-21.156,15.573c-1.014,0.746-2.453,0.527-3.199-0.486l-2.82-3.83
				c-0.746-1.014-0.527-2.453,0.486-3.199l21.156-15.573c1.014-0.746,2.454-0.527,3.2,0.486l2.819,3.831
				C166.974,311.3,166.755,312.74,165.742,313.486z"/>
			<path style="fill:#892F17;" d="M150.233,319.108l-4.499,3.312c-1.19,0.876-2.882,0.619-3.758-0.571l-10.973-14.907
				c-0.876-1.191-0.619-2.882,0.571-3.758l4.499-3.312c1.19-0.876,2.881-0.619,3.758,0.571l10.973,14.907
				C151.68,316.54,151.423,318.232,150.233,319.108z"/>
			<path style="fill:#892F17;" d="M150.188,299.611l-15.666,11.532c-0.886,0.652-2.144,0.461-2.796-0.425l-2.465-3.348
				c-0.652-0.886-0.461-2.144,0.425-2.796l15.667-11.532c0.886-0.652,2.144-0.461,2.796,0.425l2.465,3.348
				C151.265,297.7,151.074,298.959,150.188,299.611z"/>
			<path style="fill:#D65838;" d="M147.194,330.262l-3.662,2.695c-0.969,0.713-2.345,0.504-3.059-0.465l-43.761-59.449
				c-0.713-0.969-0.504-2.345,0.465-3.059l3.662-2.696c0.969-0.713,2.345-0.504,3.059,0.465l43.761,59.449
				C148.372,328.172,148.163,329.548,147.194,330.262z"/>
			<path style="fill:#D65838;" d="M163.278,315.299l-21.156,15.574c-1.014,0.746-2.453,0.527-3.2-0.486l-2.819-3.831
				c-0.746-1.014-0.527-2.453,0.486-3.199l21.156-15.573c1.014-0.746,2.453-0.527,3.199,0.486l2.82,3.83
				C164.51,313.113,164.291,314.553,163.278,315.299z"/>
			<path style="fill:#D65838;" d="M147.769,320.921l-4.499,3.312c-1.19,0.876-2.882,0.619-3.758-0.571l-10.973-14.907
				c-0.876-1.19-0.619-2.881,0.571-3.758l4.499-3.312c1.19-0.876,2.882-0.62,3.758,0.571l10.973,14.907
				C149.216,318.354,148.959,320.045,147.769,320.921z"/>
			<path style="fill:#D65838;" d="M147.724,301.424l-15.666,11.533c-0.886,0.652-2.145,0.461-2.797-0.425l-2.465-3.348
				c-0.652-0.886-0.461-2.145,0.425-2.797l15.666-11.532c0.886-0.652,2.144-0.461,2.797,0.425l2.465,3.348
				C148.801,299.514,148.61,300.772,147.724,301.424z"/>
			<g>
				<path style="fill:#892F17;" d="M107.036,280.727l37.719,51.241c0.207-0.107,0.413-0.216,0.607-0.358
					c0.193-0.142,0.359-0.307,0.522-0.473l-37.719-51.241L107.036,280.727z"/>
			</g>
			<polygon style="opacity:0.2;fill:#FFFFFF;" points="105.43,284.887 108.127,273.521 116.526,284.91 113.756,296.198 			"/>
			<path style="fill:#D65838;" d="M85.272,284.343l-14.577-19.527c-1.645-2.204-1.188-5.353,1.016-6.998l27.759-20.723
				c2.204-1.645,5.353-1.188,6.998,1.016l14.577,19.527c1.645,2.204,1.188,5.353-1.016,6.998l-27.76,20.723
				C90.066,287.004,86.917,286.547,85.272,284.343z"/>
			<path style="fill:#892F17;" d="M86.114,259.17l-1.651-2.211c-0.494-0.661-0.357-1.606,0.305-2.099l11.582-8.646
				c0.661-0.493,1.606-0.356,2.099,0.305l1.651,2.212c0.494,0.661,0.357,1.606-0.304,2.099l-11.583,8.647
				C87.552,259.968,86.608,259.831,86.114,259.17z"/>
			<path style="fill:#FFFFFF;" d="M87.74,257.956l-1.651-2.211c-0.494-0.661-0.357-1.606,0.305-2.099l9.957-7.433
				c0.661-0.493,1.606-0.356,2.099,0.305l1.651,2.211c0.494,0.661,0.357,1.606-0.305,2.1l-9.956,7.432
				C89.179,258.754,88.234,258.617,87.74,257.956z"/>
			<path style="fill:#D65838;" d="M131.352,327.611l-5.515-7.388c-0.576-0.771-0.416-1.873,0.356-2.449l2.58-1.926
				c0.771-0.576,1.873-0.416,2.449,0.355l5.515,7.388c0.576,0.771,0.416,1.873-0.355,2.449l-2.58,1.926
				C133.03,328.542,131.928,328.382,131.352,327.611z"/>
			<path style="opacity:0.2;fill:#FFFFFF;" d="M88.27,284.265l11.883-46.174c-1.537,0.218-3.044,0.767-4.369,1.756l-10.543,7.871
				l-6.866,27.386l4.146,5.553C83.975,282.606,86.05,283.806,88.27,284.265z"/>
		</g>
		<g>
			<g>
				<g>
					<path style="fill:#946748;" d="M156.505,286.944c0.128,0.902,4.348,9.948,2.569,12.426c-1.289,1.796-7.883-0.68-7.883-0.68
						s2.217-2.049-2.018-9.039C145.605,283.762,156.505,286.944,156.505,286.944z"/>
				</g>
				<g>
					<g>
						<g>
							<g>
								<g>
									<g>
										<g>
											<path style="fill:#946748;" d="M147.177,303.603c0,0-7.181,4.469-7.736,5.01c-3.557,3.467-5.979,4.466-5.076,4.872
												c1.663,0.746,6.657-2.225,7.412-2.656c0.924-0.532,3.15-2.062,3.859-2.691
												C146.346,307.508,147.177,303.603,147.177,303.603z"/>
										</g>
									</g>
								</g>
							</g>
						</g>
					</g>
					<g>
						<g>
							<g>
								<g>
									<g>
										<g>
											<path style="fill:#946748;" d="M158.56,300.047c-3.284,3.854-16.782,10.811-16.782,10.811l0.262-3.333l12.506-12.075
												C154.546,295.45,161.841,296.191,158.56,300.047z"/>
										</g>
									</g>
								</g>
							</g>
						</g>
					</g>
				</g>
				<g>
					<path style="fill:#89B8E0;" d="M145.163,275.176c-0.67-3.467-0.018-6.996,2.927-7.724c1.671-0.413,4.631,1.37,5.805,3.303
						c2.257,3.715,5.766,13.327,5.3,20.796c-0.171,2.736-6.546,5.794-8.704,1.623C147.66,287.698,146.106,280.057,145.163,275.176z"
						/>
				</g>
				<g>
					<g>
						<path style="fill:#AACEF2;" d="M149.7,291.792c3.338,2.117,7.224,0.86,9.454-2.064c0.293-0.384,0.954,0.016,0.659,0.404
							c-2.474,3.244-6.793,4.659-10.516,2.299C148.877,292.165,149.279,291.525,149.7,291.792L149.7,291.792z"/>
					</g>
				</g>
			</g>
			<path style="fill:#946748;" d="M140.492,308.194c-0.271-0.149-4.954,1.339-4.498,1.991c0.456,0.652,4.498-0.718,4.498-0.718
				V308.194z"/>
		</g>
	</g>
</g>
</svg>
